  0
SECTION
  2
HEADER
  9
$ACADVER
  1
AC1014
  9
$HANDSEED
  5
FFFF
  9
$MEASUREMENT
 70
     1
  0
ENDSEC
  0
SECTION
  2
TABLES
  0
TABLE
  2
VPORT
  5
8
330
0
100
AcDbSymbolTable
 70
     4
  0
VPORT
  5
2E
330
8
100
AcDbSymbolTableRecord
100
AcDbViewportTableRecord
  2
*ACTIVE
 70
     0
 10
0.0
 20
0.0
 11
1.0
 21
1.0
 12
210.0
 22
148.5
 13
0.0
 23
0.0
 14
10.0
 24
10.0
 15
10.0
 25
10.0
 16
0.0
 26
0.0
 36
1.0
 17
0.0
 27
0.0
 37
0.0
 40
341.0
 41
1.24
 42
50.0
 43
0.0
 44
0.0
 50
0.0
 51
0.0
 71
     0
 72
   100
 73
     1
 74
     3
 75
     0
 76
     0
 77
     0
 78
     0
  0
ENDTAB
  0
TABLE
  2
LTYPE
  5
5
330
0
100
AcDbSymbolTable
 70
     1
  0
LTYPE
  5
14
330
5
100
AcDbSymbolTableRecord
100
AcDbLinetypeTableRecord
  2
BYBLOCK
 70
     0
  3

 72
    65
 73
     0
 40
0.0
  0
LTYPE
  5
15
330
5
100
AcDbSymbolTableRecord
100
AcDbLinetypeTableRecord
  2
BYLAYER
 70
     0
  3

 72
    65
 73
     0
 40
0.0
  0
LTYPE
  5
16
330
5
100
AcDbSymbolTableRecord
100
AcDbLinetypeTableRecord
  2
CONTINUOUS
 70
     0
  3
Solid line
 72
    65
 73
     0
 40
0.0
  0
ENDTAB
  0
TABLE
  2
LAYER
  5
2
100
AcDbSymbolTable
 70
2
  0
LAYER
  5
50
100
AcDbSymbolTableRecord
100
AcDbLayerTableRecord
  2
0
 70
0
  6
CONTINUOUS
  0
LAYER
  5
51
100
AcDbSymbolTableRecord
100
AcDbLayerTableRecord
  2
Calque_1
 70
0
  6
CONTINUOUS
  0
ENDTAB
  0
TABLE
  2
STYLE
  5
3
330
0
100
AcDbSymbolTable
 70
     1
  0
STYLE
  5
11
330
3
100
AcDbSymbolTableRecord
100
AcDbTextStyleTableRecord
  2
STANDARD
 70
     0
 40
0.0
 41
1.0
 50
0.0
 71
     0
 42
2.5
  3
txt
  4

  0
ENDTAB
  0
TABLE
  2
VIEW
  5
6
330
0
100
AcDbSymbolTable
 70
     0
  0
ENDTAB
  0
TABLE
  2
UCS
  5
7
330
0
100
AcDbSymbolTable
 70
     0
  0
ENDTAB
  0
TABLE
  2
APPID
  5
9
330
0
100
AcDbSymbolTable
 70
     2
  0
APPID
  5
12
330
9
100
AcDbSymbolTableRecord
100
AcDbRegAppTableRecord
  2
ACAD
 70
     0
  0
ENDTAB
  0
TABLE
  2
DIMSTYLE
  5
A
330
0
100
AcDbSymbolTable
 70
     1
  0
DIMSTYLE
105
27
330
A
100
AcDbSymbolTableRecord
100
AcDbDimStyleTableRecord
  2
ISO-25
 70
     0
  3

  4

  5

  6

  7

 40
1.0
 41
2.5
 42
0.625
 43
3.75
 44
1.25
 45
0.0
 46
0.0
 47
0.0
 48
0.0
140
2.5
141
2.5
142
0.0
143
0.03937007874016
144
1.0
145
0.0
146
1.0
147
0.625
 71
     0
 72
     0
 73
     0
 74
     0
 75
     0
 76
     0
 77
     1
 78
     8
170
     0
171
     3
172
     1
173
     0
174
     0
175
     0
176
     0
177
     0
178
     0
270
     2
271
     2
272
     2
273
     2
274
     3
340
11
275
     0
280
     0
281
     0
282
     0
283
     0
284
     8
285
     0
286
     0
287
     3
288
     0
  0
ENDTAB
  0
TABLE
  2
BLOCK_RECORD
  5
1
330
0
100
AcDbSymbolTable
 70
     1
  0
BLOCK_RECORD
  5
1F
330
1
100
AcDbSymbolTableRecord
100
AcDbBlockTableRecord
  2
*MODEL_SPACE
  0
BLOCK_RECORD
  5
1B
330
1
100
AcDbSymbolTableRecord
100
AcDbBlockTableRecord
  2
*PAPER_SPACE
  0
ENDTAB
  0
ENDSEC
  0
SECTION
  2
BLOCKS
  0
BLOCK
  5
20
330
1F
100
AcDbEntity
  8
0
100
AcDbBlockBegin
  2
*MODEL_SPACE
 70
     0
 10
0.0
 20
0.0
 30
0.0
  3
*MODEL_SPACE
  1

  0
ENDBLK
  5
21
330
1F
100
AcDbEntity
  8
0
100
AcDbBlockEnd
  0
BLOCK
  5
1C
330
1B
100
AcDbEntity
 67
     1
  8
0
100
AcDbBlockBegin
  2
*PAPER_SPACE
  1

  0
ENDBLK
  5
1D
330
1B
100
AcDbEntity
 67
     1
  8
0
100
AcDbBlockEnd
  0
ENDSEC
  0
SECTION
  2
ENTITIES
  0
LINE
  5
100
100
AcDbEntity
  8
Calque_1
 62
7
100
AcDbLine
 10
16.416667
 20
15.184520
 30
0.0
 11
16.416667
 21
45.184520
 31
0.0
  0
LINE
  5
101
100
AcDbEntity
  8
Calque_1
 62
7
100
AcDbLine
 10
16.416667
 20
45.184520
 30
0.0
 11
21.416667
 21
45.184520
 31
0.0
  0
LINE
  5
102
100
AcDbEntity
  8
Calque_1
 62
7
100
AcDbLine
 10
21.416667
 20
45.184520
 30
0.0
 11
21.416667
 21
65.184520
 31
0.0
  0
LINE
  5
103
100
AcDbEntity
  8
Calque_1
 62
7
100
AcDbLine
 10
21.416667
 20
65.184520
 30
0.0
 11
16.416667
 21
65.184520
 31
0.0
  0
LINE
  5
104
100
AcDbEntity
  8
Calque_1
 62
7
100
AcDbLine
 10
16.416667
 20
65.184520
 30
0.0
 11
16.416667
 21
95.184520
 31
0.0
  0
LINE
  5
105
100
AcDbEntity
  8
Calque_1
 62
7
100
AcDbLine
 10
16.416667
 20
95.184520
 30
0.0
 11
56.416667
 21
95.184520
 31
0.0
  0
LINE
  5
106
100
AcDbEntity
  8
Calque_1
 62
7
100
AcDbLine
 10
56.416667
 20
95.184520
 30
0.0
 11
56.416667
 21
100.184520
 31
0.0
  0
LINE
  5
107
100
AcDbEntity
  8
Calque_1
 62
7
100
AcDbLine
 10
56.416667
 20
100.184520
 30
0.0
 11
76.416667
 21
100.184520
 31
0.0
  0
LINE
  5
108
100
AcDbEntity
  8
Calque_1
 62
7
100
AcDbLine
 10
76.416667
 20
100.184520
 30
0.0
 11
76.416667
 21
95.184520
 31
0.0
  0
LINE
  5
109
100
AcDbEntity
  8
Calque_1
 62
7
100
AcDbLine
 10
76.416667
 20
95.184520
 30
0.0
 11
156.416670
 21
95.184520
 31
0.0
  0
LINE
  5
10a
100
AcDbEntity
  8
Calque_1
 62
7
100
AcDbLine
 10
156.416670
 20
95.184520
 30
0.0
 11
156.416670
 21
100.184520
 31
0.0
  0
LINE
  5
10b
100
AcDbEntity
  8
Calque_1
 62
7
100
AcDbLine
 10
156.416670
 20
100.184520
 30
0.0
 11
176.416670
 21
100.184520
 31
0.0
  0
LINE
  5
10c
100
AcDbEntity
  8
Calque_1
 62
7
100
AcDbLine
 10
176.416670
 20
100.184520
 30
0.0
 11
176.416670
 21
95.184520
 31
0.0
  0
LINE
  5
10d
100
AcDbEntity
  8
Calque_1
 62
7
100
AcDbLine
 10
176.416670
 20
95.184520
 30
0.0
 11
216.416670
 21
95.184520
 31
0.0
  0
LINE
  5
10e
100
AcDbEntity
  8
Calque_1
 62
7
100
AcDbLine
 10
216.416670
 20
95.184520
 30
0.0
 11
216.416670
 21
65.184520
 31
0.0
  0
LINE
  5
10f
100
AcDbEntity
  8
Calque_1
 62
7
100
AcDbLine
 10
216.416670
 20
65.184520
 30
0.0
 11
211.416670
 21
65.184520
 31
0.0
  0
LINE
  5
110
100
AcDbEntity
  8
Calque_1
 62
7
100
AcDbLine
 10
211.416670
 20
65.184520
 30
0.0
 11
211.416670
 21
45.184520
 31
0.0
  0
LINE
  5
111
100
AcDbEntity
  8
Calque_1
 62
7
100
AcDbLine
 10
211.416670
 20
45.184520
 30
0.0
 11
216.416670
 21
45.184520
 31
0.0
  0
LINE
  5
112
100
AcDbEntity
  8
Calque_1
 62
7
100
AcDbLine
 10
216.416670
 20
45.184520
 30
0.0
 11
216.416670
 21
15.184520
 31
0.0
  0
LINE
  5
113
100
AcDbEntity
  8
Calque_1
 62
7
100
AcDbLine
 10
216.416670
 20
15.184520
 30
0.0
 11
176.416670
 21
15.184520
 31
0.0
  0
LINE
  5
114
100
AcDbEntity
  8
Calque_1
 62
7
100
AcDbLine
 10
176.416670
 20
15.184520
 30
0.0
 11
176.416670
 21
10.184520
 31
0.0
  0
LINE
  5
115
100
AcDbEntity
  8
Calque_1
 62
7
100
AcDbLine
 10
176.416670
 20
10.184520
 30
0.0
 11
156.416670
 21
10.184520
 31
0.0
  0
LINE
  5
116
100
AcDbEntity
  8
Calque_1
 62
7
100
AcDbLine
 10
156.416670
 20
10.184520
 30
0.0
 11
156.416670
 21
15.184520
 31
0.0
  0
LINE
  5
117
100
AcDbEntity
  8
Calque_1
 62
7
100
AcDbLine
 10
156.416670
 20
15.184520
 30
0.0
 11
76.416667
 21
15.184520
 31
0.0
  0
LINE
  5
118
100
AcDbEntity
  8
Calque_1
 62
7
100
AcDbLine
 10
76.416667
 20
15.184520
 30
0.0
 11
76.416667
 21
10.184520
 31
0.0
  0
LINE
  5
119
100
AcDbEntity
  8
Calque_1
 62
7
100
AcDbLine
 10
76.416667
 20
10.184520
 30
0.0
 11
56.416667
 21
10.184520
 31
0.0
  0
LINE
  5
11a
100
AcDbEntity
  8
Calque_1
 62
7
100
AcDbLine
 10
56.416667
 20
10.184520
 30
0.0
 11
56.416667
 21
15.184520
 31
0.0
  0
LINE
  5
11b
100
AcDbEntity
  8
Calque_1
 62
7
100
AcDbLine
 10
56.416667
 20
15.184520
 30
0.0
 11
16.416667
 21
15.184520
 31
0.0
  0
SPLINE
  5
11c
100
AcDbEntity
  8
Calque_1
 62
7
100
AcDbSpline
 70
8
 71
3
 72
8
 73
4
 74
0
 40
0
 40
0
 40
0
 40
0
 40
1
 40
1
 40
1
 40
1
 10
193.916670
 20
55.184520
 30
0.0
 10
193.916670
 20
65.009324
 30
0.0
 10
188.675200
 20
74.087817
 30
0.0
 10
180.166670
 20
79.000219
 30
0.0
  0
SPLINE
  5
11d
100
AcDbEntity
  8
Calque_1
 62
7
100
AcDbSpline
 70
8
 71
3
 72
8
 73
4
 74
0
 40
0
 40
0
 40
0
 40
0
 40
1
 40
1
 40
1
 40
1
 10
180.166670
 20
79.000219
 30
0.0
 10
171.658140
 20
83.912620
 30
0.0
 10
161.175200
 20
83.912620
 30
0.0
 10
152.666670
 20
79.000219
 30
0.0
  0
SPLINE
  5
11e
100
AcDbEntity
  8
Calque_1
 62
7
100
AcDbSpline
 70
8
 71
3
 72
8
 73
4
 74
0
 40
0
 40
0
 40
0
 40
0
 40
1
 40
1
 40
1
 40
1
 10
152.666670
 20
79.000219
 30
0.0
 10
144.158140
 20
74.087817
 30
0.0
 10
138.916670
 20
65.009324
 30
0.0
 10
138.916670
 20
55.184520
 30
0.0
  0
SPLINE
  5
11f
100
AcDbEntity
  8
Calque_1
 62
7
100
AcDbSpline
 70
8
 71
3
 72
8
 73
4
 74
0
 40
0
 40
0
 40
0
 40
0
 40
1
 40
1
 40
1
 40
1
 10
138.916670
 20
55.184520
 30
0.0
 10
138.916670
 20
45.359716
 30
0.0
 10
144.158140
 20
36.281223
 30
0.0
 10
152.666670
 20
31.368821
 30
0.0
  0
SPLINE
  5
120
100
AcDbEntity
  8
Calque_1
 62
7
100
AcDbSpline
 70
8
 71
3
 72
8
 73
4
 74
0
 40
0
 40
0
 40
0
 40
0
 40
1
 40
1
 40
1
 40
1
 10
152.666670
 20
31.368821
 30
0.0
 10
161.175200
 20
26.456420
 30
0.0
 10
171.658140
 20
26.456420
 30
0.0
 10
180.166670
 20
31.368821
 30
0.0
  0
SPLINE
  5
121
100
AcDbEntity
  8
Calque_1
 62
7
100
AcDbSpline
 70
8
 71
3
 72
8
 73
4
 74
0
 40
0
 40
0
 40
0
 40
0
 40
1
 40
1
 40
1
 40
1
 10
180.166670
 20
31.368821
 30
0.0
 10
188.675200
 20
36.281223
 30
0.0
 10
193.916670
 20
45.359716
 30
0.0
 10
193.916670
 20
55.184520
 30
0.0
  0
LINE
  5
122
100
AcDbEntity
  8
Calque_1
 62
7
100
AcDbLine
 10
193.916670
 20
55.184520
 30
0.0
 11
193.916670
 21
55.184520
 31
0.0
  0
LINE
  5
123
100
AcDbEntity
  8
Calque_1
 62
7
100
AcDbLine
 10
16.481517
 20
111.048720
 30
0.0
 11
16.481517
 21
126.048720
 31
0.0
  0
LINE
  5
124
100
AcDbEntity
  8
Calque_1
 62
7
100
AcDbLine
 10
16.481517
 20
126.048720
 30
0.0
 11
21.481517
 21
126.048720
 31
0.0
  0
LINE
  5
125
100
AcDbEntity
  8
Calque_1
 62
7
100
AcDbLine
 10
21.481517
 20
126.048720
 30
0.0
 11
21.481517
 21
146.048720
 31
0.0
  0
LINE
  5
126
100
AcDbEntity
  8
Calque_1
 62
7
100
AcDbLine
 10
21.481517
 20
146.048720
 30
0.0
 11
16.481517
 21
146.048720
 31
0.0
  0
LINE
  5
127
100
AcDbEntity
  8
Calque_1
 62
7
100
AcDbLine
 10
16.481517
 20
146.048720
 30
0.0
 11
16.481517
 21
161.048720
 31
0.0
  0
LINE
  5
128
100
AcDbEntity
  8
Calque_1
 62
7
100
AcDbLine
 10
16.481517
 20
161.048720
 30
0.0
 11
56.481517
 21
161.048720
 31
0.0
  0
LINE
  5
129
100
AcDbEntity
  8
Calque_1
 62
7
100
AcDbLine
 10
56.481517
 20
161.048720
 30
0.0
 11
56.481517
 21
166.048720
 31
0.0
  0
LINE
  5
12a
100
AcDbEntity
  8
Calque_1
 62
7
100
AcDbLine
 10
56.481517
 20
166.048720
 30
0.0
 11
76.481517
 21
166.048720
 31
0.0
  0
LINE
  5
12b
100
AcDbEntity
  8
Calque_1
 62
7
100
AcDbLine
 10
76.481517
 20
166.048720
 30
0.0
 11
76.481517
 21
161.048720
 31
0.0
  0
LINE
  5
12c
100
AcDbEntity
  8
Calque_1
 62
7
100
AcDbLine
 10
76.481517
 20
161.048720
 30
0.0
 11
156.481520
 21
161.048720
 31
0.0
  0
LINE
  5
12d
100
AcDbEntity
  8
Calque_1
 62
7
100
AcDbLine
 10
156.481520
 20
161.048720
 30
0.0
 11
156.481520
 21
166.048720
 31
0.0
  0
LINE
  5
12e
100
AcDbEntity
  8
Calque_1
 62
7
100
AcDbLine
 10
156.481520
 20
166.048720
 30
0.0
 11
176.481520
 21
166.048720
 31
0.0
  0
LINE
  5
12f
100
AcDbEntity
  8
Calque_1
 62
7
100
AcDbLine
 10
176.481520
 20
166.048720
 30
0.0
 11
176.481520
 21
161.048720
 31
0.0
  0
LINE
  5
130
100
AcDbEntity
  8
Calque_1
 62
7
100
AcDbLine
 10
176.481520
 20
161.048720
 30
0.0
 11
216.481520
 21
161.048720
 31
0.0
  0
LINE
  5
131
100
AcDbEntity
  8
Calque_1
 62
7
100
AcDbLine
 10
216.481520
 20
161.048720
 30
0.0
 11
216.481520
 21
146.048720
 31
0.0
  0
LINE
  5
132
100
AcDbEntity
  8
Calque_1
 62
7
100
AcDbLine
 10
216.481520
 20
146.048720
 30
0.0
 11
211.481520
 21
146.048720
 31
0.0
  0
LINE
  5
133
100
AcDbEntity
  8
Calque_1
 62
7
100
AcDbLine
 10
211.481520
 20
146.048720
 30
0.0
 11
211.481520
 21
126.048720
 31
0.0
  0
LINE
  5
134
100
AcDbEntity
  8
Calque_1
 62
7
100
AcDbLine
 10
211.481520
 20
126.048720
 30
0.0
 11
216.481520
 21
126.048720
 31
0.0
  0
LINE
  5
135
100
AcDbEntity
  8
Calque_1
 62
7
100
AcDbLine
 10
216.481520
 20
126.048720
 30
0.0
 11
216.481520
 21
111.048720
 31
0.0
  0
LINE
  5
136
100
AcDbEntity
  8
Calque_1
 62
7
100
AcDbLine
 10
216.481520
 20
111.048720
 30
0.0
 11
176.481520
 21
111.048720
 31
0.0
  0
LINE
  5
137
100
AcDbEntity
  8
Calque_1
 62
7
100
AcDbLine
 10
176.481520
 20
111.048720
 30
0.0
 11
176.481520
 21
106.048720
 31
0.0
  0
LINE
  5
138
100
AcDbEntity
  8
Calque_1
 62
7
100
AcDbLine
 10
176.481520
 20
106.048720
 30
0.0
 11
156.481520
 21
106.048720
 31
0.0
  0
LINE
  5
139
100
AcDbEntity
  8
Calque_1
 62
7
100
AcDbLine
 10
156.481520
 20
106.048720
 30
0.0
 11
156.481520
 21
111.048720
 31
0.0
  0
LINE
  5
13a
100
AcDbEntity
  8
Calque_1
 62
7
100
AcDbLine
 10
156.481520
 20
111.048720
 30
0.0
 11
76.481517
 21
111.048720
 31
0.0
  0
LINE
  5
13b
100
AcDbEntity
  8
Calque_1
 62
7
100
AcDbLine
 10
76.481517
 20
111.048720
 30
0.0
 11
76.481517
 21
106.048720
 31
0.0
  0
LINE
  5
13c
100
AcDbEntity
  8
Calque_1
 62
7
100
AcDbLine
 10
76.481517
 20
106.048720
 30
0.0
 11
56.481517
 21
106.048720
 31
0.0
  0
LINE
  5
13d
100
AcDbEntity
  8
Calque_1
 62
7
100
AcDbLine
 10
56.481517
 20
106.048720
 30
0.0
 11
56.481517
 21
111.048720
 31
0.0
  0
LINE
  5
13e
100
AcDbEntity
  8
Calque_1
 62
7
100
AcDbLine
 10
56.481517
 20
111.048720
 30
0.0
 11
16.481517
 21
111.048720
 31
0.0
  0
LINE
  5
13f
100
AcDbEntity
  8
Calque_1
 62
7
100
AcDbLine
 10
44.481517
 20
131.048720
 30
0.0
 11
64.481517
 21
131.048720
 31
0.0
  0
LINE
  5
140
100
AcDbEntity
  8
Calque_1
 62
7
100
AcDbLine
 10
64.481517
 20
131.048720
 30
0.0
 11
64.481517
 21
148.048720
 31
0.0
  0
LINE
  5
141
100
AcDbEntity
  8
Calque_1
 62
7
100
AcDbLine
 10
64.481517
 20
148.048720
 30
0.0
 11
44.481517
 21
148.048720
 31
0.0
  0
LINE
  5
142
100
AcDbEntity
  8
Calque_1
 62
7
100
AcDbLine
 10
44.481517
 20
148.048720
 30
0.0
 11
44.481517
 21
131.048720
 31
0.0
  0
LINE
  5
143
100
AcDbEntity
  8
Calque_1
 62
7
100
AcDbLine
 10
297.501520
 20
81.566520
 30
0.0
 11
309.870350
 21
126.918880
 31
0.0
  0
LINE
  5
144
100
AcDbEntity
  8
Calque_1
 62
7
100
AcDbLine
 10
309.870350
 20
126.918880
 30
0.0
 11
279.870350
 21
126.918880
 31
0.0
  0
LINE
  5
145
100
AcDbEntity
  8
Calque_1
 62
7
100
AcDbLine
 10
279.870350
 20
126.918880
 30
0.0
 11
279.870350
 21
131.918880
 31
0.0
  0
LINE
  5
146
100
AcDbEntity
  8
Calque_1
 62
7
100
AcDbLine
 10
279.870350
 20
131.918880
 30
0.0
 11
259.870350
 21
131.918880
 31
0.0
  0
LINE
  5
147
100
AcDbEntity
  8
Calque_1
 62
7
100
AcDbLine
 10
259.870350
 20
131.918880
 30
0.0
 11
259.870350
 21
126.918880
 31
0.0
  0
LINE
  5
148
100
AcDbEntity
  8
Calque_1
 62
7
100
AcDbLine
 10
259.870350
 20
126.918880
 30
0.0
 11
229.870350
 21
126.918880
 31
0.0
  0
LINE
  5
149
100
AcDbEntity
  8
Calque_1
 62
7
100
AcDbLine
 10
229.870350
 20
126.918880
 30
0.0
 11
229.870350
 21
81.918880
 31
0.0
  0
LINE
  5
14a
100
AcDbEntity
  8
Calque_1
 62
7
100
AcDbLine
 10
229.870350
 20
81.918880
 30
0.0
 11
224.870350
 21
81.918880
 31
0.0
  0
LINE
  5
14b
100
AcDbEntity
  8
Calque_1
 62
7
100
AcDbLine
 10
224.870350
 20
81.918880
 30
0.0
 11
224.870350
 21
61.918880
 31
0.0
  0
LINE
  5
14c
100
AcDbEntity
  8
Calque_1
 62
7
100
AcDbLine
 10
224.870350
 20
61.918880
 30
0.0
 11
229.870350
 21
61.918880
 31
0.0
  0
LINE
  5
14d
100
AcDbEntity
  8
Calque_1
 62
7
100
AcDbLine
 10
229.870350
 20
61.918880
 30
0.0
 11
229.870350
 21
16.918880
 31
0.0
  0
LINE
  5
14e
100
AcDbEntity
  8
Calque_1
 62
7
100
AcDbLine
 10
229.870350
 20
16.918880
 30
0.0
 11
244.870350
 21
16.918880
 31
0.0
  0
LINE
  5
14f
100
AcDbEntity
  8
Calque_1
 62
7
100
AcDbLine
 10
244.870350
 20
16.918880
 30
0.0
 11
244.870350
 21
11.918880
 31
0.0
  0
LINE
  5
150
100
AcDbEntity
  8
Calque_1
 62
7
100
AcDbLine
 10
244.870350
 20
11.918880
 30
0.0
 11
264.870350
 21
11.918880
 31
0.0
  0
LINE
  5
151
100
AcDbEntity
  8
Calque_1
 62
7
100
AcDbLine
 10
264.870350
 20
11.918880
 30
0.0
 11
264.870350
 21
16.918880
 31
0.0
  0
LINE
  5
152
100
AcDbEntity
  8
Calque_1
 62
7
100
AcDbLine
 10
264.870350
 20
16.918880
 30
0.0
 11
279.870350
 21
16.918880
 31
0.0
  0
LINE
  5
153
100
AcDbEntity
  8
Calque_1
 62
7
100
AcDbLine
 10
279.870350
 20
16.918880
 30
0.0
 11
292.239170
 21
62.271240
 31
0.0
  0
LINE
  5
154
100
AcDbEntity
  8
Calque_1
 62
7
100
AcDbLine
 10
292.239170
 20
62.271240
 30
0.0
 11
297.062990
 21
60.955650
 31
0.0
  0
LINE
  5
155
100
AcDbEntity
  8
Calque_1
 62
7
100
AcDbLine
 10
297.062990
 20
60.955650
 30
0.0
 11
302.325340
 21
80.250930
 31
0.0
  0
LINE
  5
156
100
AcDbEntity
  8
Calque_1
 62
7
100
AcDbLine
 10
302.325340
 20
80.250930
 30
0.0
 11
297.501520
 21
81.566520
 31
0.0
  0
LINE
  5
157
100
AcDbEntity
  8
Calque_1
 62
7
100
AcDbLine
 10
16.553841
 20
170.755620
 30
0.0
 11
16.553841
 21
222.755620
 31
0.0
  0
LINE
  5
158
100
AcDbEntity
  8
Calque_1
 62
7
100
AcDbLine
 10
16.553841
 20
222.755620
 30
0.0
 11
21.553841
 21
222.755620
 31
0.0
  0
LINE
  5
159
100
AcDbEntity
  8
Calque_1
 62
7
100
AcDbLine
 10
21.553841
 20
222.755620
 30
0.0
 11
21.553841
 21
242.755620
 31
0.0
  0
LINE
  5
15a
100
AcDbEntity
  8
Calque_1
 62
7
100
AcDbLine
 10
21.553841
 20
242.755620
 30
0.0
 11
16.553841
 21
242.755620
 31
0.0
  0
LINE
  5
15b
100
AcDbEntity
  8
Calque_1
 62
7
100
AcDbLine
 10
16.553841
 20
242.755620
 30
0.0
 11
16.553841
 21
294.755620
 31
0.0
  0
LINE
  5
15c
100
AcDbEntity
  8
Calque_1
 62
7
100
AcDbLine
 10
16.553841
 20
294.755620
 30
0.0
 11
56.553841
 21
294.755620
 31
0.0
  0
LINE
  5
15d
100
AcDbEntity
  8
Calque_1
 62
7
100
AcDbLine
 10
56.553841
 20
294.755620
 30
0.0
 11
56.553841
 21
289.755620
 31
0.0
  0
LINE
  5
15e
100
AcDbEntity
  8
Calque_1
 62
7
100
AcDbLine
 10
56.553841
 20
289.755620
 30
0.0
 11
76.553841
 21
289.755620
 31
0.0
  0
LINE
  5
15f
100
AcDbEntity
  8
Calque_1
 62
7
100
AcDbLine
 10
76.553841
 20
289.755620
 30
0.0
 11
76.553841
 21
294.755620
 31
0.0
  0
LINE
  5
160
100
AcDbEntity
  8
Calque_1
 62
7
100
AcDbLine
 10
76.553841
 20
294.755620
 30
0.0
 11
156.553840
 21
294.755620
 31
0.0
  0
LINE
  5
161
100
AcDbEntity
  8
Calque_1
 62
7
100
AcDbLine
 10
156.553840
 20
294.755620
 30
0.0
 11
156.553840
 21
289.755620
 31
0.0
  0
LINE
  5
162
100
AcDbEntity
  8
Calque_1
 62
7
100
AcDbLine
 10
156.553840
 20
289.755620
 30
0.0
 11
176.553840
 21
289.755620
 31
0.0
  0
LINE
  5
163
100
AcDbEntity
  8
Calque_1
 62
7
100
AcDbLine
 10
176.553840
 20
289.755620
 30
0.0
 11
176.553840
 21
294.755620
 31
0.0
  0
LINE
  5
164
100
AcDbEntity
  8
Calque_1
 62
7
100
AcDbLine
 10
176.553840
 20
294.755620
 30
0.0
 11
216.553840
 21
294.755620
 31
0.0
  0
LINE
  5
165
100
AcDbEntity
  8
Calque_1
 62
7
100
AcDbLine
 10
216.553840
 20
294.755620
 30
0.0
 11
216.553840
 21
242.755620
 31
0.0
  0
LINE
  5
166
100
AcDbEntity
  8
Calque_1
 62
7
100
AcDbLine
 10
216.553840
 20
242.755620
 30
0.0
 11
211.553840
 21
242.755620
 31
0.0
  0
LINE
  5
167
100
AcDbEntity
  8
Calque_1
 62
7
100
AcDbLine
 10
211.553840
 20
242.755620
 30
0.0
 11
211.553840
 21
222.755620
 31
0.0
  0
LINE
  5
168
100
AcDbEntity
  8
Calque_1
 62
7
100
AcDbLine
 10
211.553840
 20
222.755620
 30
0.0
 11
216.553840
 21
222.755620
 31
0.0
  0
LINE
  5
169
100
AcDbEntity
  8
Calque_1
 62
7
100
AcDbLine
 10
216.553840
 20
222.755620
 30
0.0
 11
216.553840
 21
170.755620
 31
0.0
  0
LINE
  5
16a
100
AcDbEntity
  8
Calque_1
 62
7
100
AcDbLine
 10
216.553840
 20
170.755620
 30
0.0
 11
176.553840
 21
170.755620
 31
0.0
  0
LINE
  5
16b
100
AcDbEntity
  8
Calque_1
 62
7
100
AcDbLine
 10
176.553840
 20
170.755620
 30
0.0
 11
176.553840
 21
175.755620
 31
0.0
  0
LINE
  5
16c
100
AcDbEntity
  8
Calque_1
 62
7
100
AcDbLine
 10
176.553840
 20
175.755620
 30
0.0
 11
156.553840
 21
175.755620
 31
0.0
  0
LINE
  5
16d
100
AcDbEntity
  8
Calque_1
 62
7
100
AcDbLine
 10
156.553840
 20
175.755620
 30
0.0
 11
156.553840
 21
170.755620
 31
0.0
  0
LINE
  5
16e
100
AcDbEntity
  8
Calque_1
 62
7
100
AcDbLine
 10
156.553840
 20
170.755620
 30
0.0
 11
76.553841
 21
170.755620
 31
0.0
  0
LINE
  5
16f
100
AcDbEntity
  8
Calque_1
 62
7
100
AcDbLine
 10
76.553841
 20
170.755620
 30
0.0
 11
76.553841
 21
175.755620
 31
0.0
  0
LINE
  5
170
100
AcDbEntity
  8
Calque_1
 62
7
100
AcDbLine
 10
76.553841
 20
175.755620
 30
0.0
 11
56.553841
 21
175.755620
 31
0.0
  0
LINE
  5
171
100
AcDbEntity
  8
Calque_1
 62
7
100
AcDbLine
 10
56.553841
 20
175.755620
 30
0.0
 11
56.553841
 21
170.755620
 31
0.0
  0
LINE
  5
172
100
AcDbEntity
  8
Calque_1
 62
7
100
AcDbLine
 10
56.553841
 20
170.755620
 30
0.0
 11
16.553841
 21
170.755620
 31
0.0
  0
SPLINE
  5
173
100
AcDbEntity
  8
Calque_1
 62
7
100
AcDbSpline
 70
8
 71
3
 72
8
 73
4
 74
0
 40
0
 40
0
 40
0
 40
0
 40
1
 40
1
 40
1
 40
1
 10
48.053841
 20
246.755619
 30
0.0
 10
48.053841
 20
247.291517
 30
0.0
 10
47.767943
 20
247.786708
 30
0.0
 10
47.303841
 20
248.054657
 30
0.0
  0
SPLINE
  5
174
100
AcDbEntity
  8
Calque_1
 62
7
100
AcDbSpline
 70
8
 71
3
 72
8
 73
4
 74
0
 40
0
 40
0
 40
0
 40
0
 40
1
 40
1
 40
1
 40
1
 10
47.303841
 20
248.054657
 30
0.0
 10
46.839739
 20
248.322606
 30
0.0
 10
46.267943
 20
248.322606
 30
0.0
 10
45.803841
 20
248.054657
 30
0.0
  0
SPLINE
  5
175
100
AcDbEntity
  8
Calque_1
 62
7
100
AcDbSpline
 70
8
 71
3
 72
8
 73
4
 74
0
 40
0
 40
0
 40
0
 40
0
 40
1
 40
1
 40
1
 40
1
 10
45.803841
 20
248.054657
 30
0.0
 10
45.339739
 20
247.786708
 30
0.0
 10
45.053841
 20
247.291517
 30
0.0
 10
45.053841
 20
246.755619
 30
0.0
  0
SPLINE
  5
176
100
AcDbEntity
  8
Calque_1
 62
7
100
AcDbSpline
 70
8
 71
3
 72
8
 73
4
 74
0
 40
0
 40
0
 40
0
 40
0
 40
1
 40
1
 40
1
 40
1
 10
45.053841
 20
246.755619
 30
0.0
 10
45.053841
 20
246.219721
 30
0.0
 10
45.339739
 20
245.724530
 30
0.0
 10
45.803841
 20
245.456581
 30
0.0
  0
SPLINE
  5
177
100
AcDbEntity
  8
Calque_1
 62
7
100
AcDbSpline
 70
8
 71
3
 72
8
 73
4
 74
0
 40
0
 40
0
 40
0
 40
0
 40
1
 40
1
 40
1
 40
1
 10
45.803841
 20
245.456581
 30
0.0
 10
46.267943
 20
245.188632
 30
0.0
 10
46.839739
 20
245.188632
 30
0.0
 10
47.303841
 20
245.456581
 30
0.0
  0
SPLINE
  5
178
100
AcDbEntity
  8
Calque_1
 62
7
100
AcDbSpline
 70
8
 71
3
 72
8
 73
4
 74
0
 40
0
 40
0
 40
0
 40
0
 40
1
 40
1
 40
1
 40
1
 10
47.303841
 20
245.456581
 30
0.0
 10
47.767943
 20
245.724530
 30
0.0
 10
48.053841
 20
246.219721
 30
0.0
 10
48.053841
 20
246.755619
 30
0.0
  0
LINE
  5
179
100
AcDbEntity
  8
Calque_1
 62
7
100
AcDbLine
 10
48.053841
 20
246.755619
 30
0.0
 11
48.053841
 21
246.755619
 31
0.0
  0
SPLINE
  5
17a
100
AcDbEntity
  8
Calque_1
 62
7
100
AcDbSpline
 70
8
 71
3
 72
8
 73
4
 74
0
 40
0
 40
0
 40
0
 40
0
 40
1
 40
1
 40
1
 40
1
 10
123.053840
 20
246.755619
 30
0.0
 10
123.053840
 20
247.291517
 30
0.0
 10
122.767942
 20
247.786708
 30
0.0
 10
122.303840
 20
248.054657
 30
0.0
  0
SPLINE
  5
17b
100
AcDbEntity
  8
Calque_1
 62
7
100
AcDbSpline
 70
8
 71
3
 72
8
 73
4
 74
0
 40
0
 40
0
 40
0
 40
0
 40
1
 40
1
 40
1
 40
1
 10
122.303840
 20
248.054657
 30
0.0
 10
121.839738
 20
248.322606
 30
0.0
 10
121.267942
 20
248.322606
 30
0.0
 10
120.803840
 20
248.054657
 30
0.0
  0
SPLINE
  5
17c
100
AcDbEntity
  8
Calque_1
 62
7
100
AcDbSpline
 70
8
 71
3
 72
8
 73
4
 74
0
 40
0
 40
0
 40
0
 40
0
 40
1
 40
1
 40
1
 40
1
 10
120.803840
 20
248.054657
 30
0.0
 10
120.339738
 20
247.786708
 30
0.0
 10
120.053840
 20
247.291517
 30
0.0
 10
120.053840
 20
246.755619
 30
0.0
  0
SPLINE
  5
17d
100
AcDbEntity
  8
Calque_1
 62
7
100
AcDbSpline
 70
8
 71
3
 72
8
 73
4
 74
0
 40
0
 40
0
 40
0
 40
0
 40
1
 40
1
 40
1
 40
1
 10
120.053840
 20
246.755619
 30
0.0
 10
120.053840
 20
246.219721
 30
0.0
 10
120.339738
 20
245.724530
 30
0.0
 10
120.803840
 20
245.456581
 30
0.0
  0
SPLINE
  5
17e
100
AcDbEntity
  8
Calque_1
 62
7
100
AcDbSpline
 70
8
 71
3
 72
8
 73
4
 74
0
 40
0
 40
0
 40
0
 40
0
 40
1
 40
1
 40
1
 40
1
 10
120.803840
 20
245.456581
 30
0.0
 10
121.267942
 20
245.188632
 30
0.0
 10
121.839738
 20
245.188632
 30
0.0
 10
122.303840
 20
245.456581
 30
0.0
  0
SPLINE
  5
17f
100
AcDbEntity
  8
Calque_1
 62
7
100
AcDbSpline
 70
8
 71
3
 72
8
 73
4
 74
0
 40
0
 40
0
 40
0
 40
0
 40
1
 40
1
 40
1
 40
1
 10
122.303840
 20
245.456581
 30
0.0
 10
122.767942
 20
245.724530
 30
0.0
 10
123.053840
 20
246.219721
 30
0.0
 10
123.053840
 20
246.755619
 30
0.0
  0
LINE
  5
180
100
AcDbEntity
  8
Calque_1
 62
7
100
AcDbLine
 10
123.053840
 20
246.755619
 30
0.0
 11
123.053840
 21
246.755619
 31
0.0
  0
SPLINE
  5
181
100
AcDbEntity
  8
Calque_1
 62
7
100
AcDbSpline
 70
8
 71
3
 72
8
 73
4
 74
0
 40
0
 40
0
 40
0
 40
0
 40
1
 40
1
 40
1
 40
1
 10
48.053841
 20
215.755623
 30
0.0
 10
48.053841
 20
216.291521
 30
0.0
 10
47.767943
 20
216.786712
 30
0.0
 10
47.303841
 20
217.054661
 30
0.0
  0
SPLINE
  5
182
100
AcDbEntity
  8
Calque_1
 62
7
100
AcDbSpline
 70
8
 71
3
 72
8
 73
4
 74
0
 40
0
 40
0
 40
0
 40
0
 40
1
 40
1
 40
1
 40
1
 10
47.303841
 20
217.054661
 30
0.0
 10
46.839739
 20
217.322610
 30
0.0
 10
46.267943
 20
217.322610
 30
0.0
 10
45.803841
 20
217.054661
 30
0.0
  0
SPLINE
  5
183
100
AcDbEntity
  8
Calque_1
 62
7
100
AcDbSpline
 70
8
 71
3
 72
8
 73
4
 74
0
 40
0
 40
0
 40
0
 40
0
 40
1
 40
1
 40
1
 40
1
 10
45.803841
 20
217.054661
 30
0.0
 10
45.339739
 20
216.786712
 30
0.0
 10
45.053841
 20
216.291521
 30
0.0
 10
45.053841
 20
215.755623
 30
0.0
  0
SPLINE
  5
184
100
AcDbEntity
  8
Calque_1
 62
7
100
AcDbSpline
 70
8
 71
3
 72
8
 73
4
 74
0
 40
0
 40
0
 40
0
 40
0
 40
1
 40
1
 40
1
 40
1
 10
45.053841
 20
215.755623
 30
0.0
 10
45.053841
 20
215.219725
 30
0.0
 10
45.339739
 20
214.724534
 30
0.0
 10
45.803841
 20
214.456585
 30
0.0
  0
SPLINE
  5
185
100
AcDbEntity
  8
Calque_1
 62
7
100
AcDbSpline
 70
8
 71
3
 72
8
 73
4
 74
0
 40
0
 40
0
 40
0
 40
0
 40
1
 40
1
 40
1
 40
1
 10
45.803841
 20
214.456585
 30
0.0
 10
46.267943
 20
214.188636
 30
0.0
 10
46.839739
 20
214.188636
 30
0.0
 10
47.303841
 20
214.456585
 30
0.0
  0
SPLINE
  5
186
100
AcDbEntity
  8
Calque_1
 62
7
100
AcDbSpline
 70
8
 71
3
 72
8
 73
4
 74
0
 40
0
 40
0
 40
0
 40
0
 40
1
 40
1
 40
1
 40
1
 10
47.303841
 20
214.456585
 30
0.0
 10
47.767943
 20
214.724534
 30
0.0
 10
48.053841
 20
215.219725
 30
0.0
 10
48.053841
 20
215.755623
 30
0.0
  0
LINE
  5
187
100
AcDbEntity
  8
Calque_1
 62
7
100
AcDbLine
 10
48.053841
 20
215.755623
 30
0.0
 11
48.053841
 21
215.755623
 31
0.0
  0
SPLINE
  5
188
100
AcDbEntity
  8
Calque_1
 62
7
100
AcDbSpline
 70
8
 71
3
 72
8
 73
4
 74
0
 40
0
 40
0
 40
0
 40
0
 40
1
 40
1
 40
1
 40
1
 10
123.053840
 20
215.755623
 30
0.0
 10
123.053840
 20
216.291521
 30
0.0
 10
122.767942
 20
216.786712
 30
0.0
 10
122.303840
 20
217.054661
 30
0.0
  0
SPLINE
  5
189
100
AcDbEntity
  8
Calque_1
 62
7
100
AcDbSpline
 70
8
 71
3
 72
8
 73
4
 74
0
 40
0
 40
0
 40
0
 40
0
 40
1
 40
1
 40
1
 40
1
 10
122.303840
 20
217.054661
 30
0.0
 10
121.839738
 20
217.322610
 30
0.0
 10
121.267942
 20
217.322610
 30
0.0
 10
120.803840
 20
217.054661
 30
0.0
  0
SPLINE
  5
18a
100
AcDbEntity
  8
Calque_1
 62
7
100
AcDbSpline
 70
8
 71
3
 72
8
 73
4
 74
0
 40
0
 40
0
 40
0
 40
0
 40
1
 40
1
 40
1
 40
1
 10
120.803840
 20
217.054661
 30
0.0
 10
120.339738
 20
216.786712
 30
0.0
 10
120.053840
 20
216.291521
 30
0.0
 10
120.053840
 20
215.755623
 30
0.0
  0
SPLINE
  5
18b
100
AcDbEntity
  8
Calque_1
 62
7
100
AcDbSpline
 70
8
 71
3
 72
8
 73
4
 74
0
 40
0
 40
0
 40
0
 40
0
 40
1
 40
1
 40
1
 40
1
 10
120.053840
 20
215.755623
 30
0.0
 10
120.053840
 20
215.219725
 30
0.0
 10
120.339738
 20
214.724534
 30
0.0
 10
120.803840
 20
214.456585
 30
0.0
  0
SPLINE
  5
18c
100
AcDbEntity
  8
Calque_1
 62
7
100
AcDbSpline
 70
8
 71
3
 72
8
 73
4
 74
0
 40
0
 40
0
 40
0
 40
0
 40
1
 40
1
 40
1
 40
1
 10
120.803840
 20
214.456585
 30
0.0
 10
121.267942
 20
214.188636
 30
0.0
 10
121.839738
 20
214.188636
 30
0.0
 10
122.303840
 20
214.456585
 30
0.0
  0
SPLINE
  5
18d
100
AcDbEntity
  8
Calque_1
 62
7
100
AcDbSpline
 70
8
 71
3
 72
8
 73
4
 74
0
 40
0
 40
0
 40
0
 40
0
 40
1
 40
1
 40
1
 40
1
 10
122.303840
 20
214.456585
 30
0.0
 10
122.767942
 20
214.724534
 30
0.0
 10
123.053840
 20
215.219725
 30
0.0
 10
123.053840
 20
215.755623
 30
0.0
  0
LINE
  5
18e
100
AcDbEntity
  8
Calque_1
 62
7
100
AcDbLine
 10
123.053840
 20
215.755623
 30
0.0
 11
123.053840
 21
215.755623
 31
0.0
  0
LINE
  5
18f
100
AcDbEntity
  8
Calque_1
 62
7
100
AcDbLine
 10
48.053841
 20
218.005620
 30
0.0
 11
120.053840
 21
218.005620
 31
0.0
  0
LINE
  5
190
100
AcDbEntity
  8
Calque_1
 62
7
100
AcDbLine
 10
120.053840
 20
218.005620
 30
0.0
 11
120.053840
 21
242.505620
 31
0.0
  0
LINE
  5
191
100
AcDbEntity
  8
Calque_1
 62
7
100
AcDbLine
 10
120.053840
 20
242.505620
 30
0.0
 11
48.053841
 21
242.505620
 31
0.0
  0
LINE
  5
192
100
AcDbEntity
  8
Calque_1
 62
7
100
AcDbLine
 10
48.053841
 20
242.505620
 30
0.0
 11
48.053841
 21
218.005620
 31
0.0
  0
SPLINE
  5
193
100
AcDbEntity
  8
Calque_1
 62
7
100
AcDbSpline
 70
8
 71
3
 72
8
 73
4
 74
0
 40
0
 40
0
 40
0
 40
0
 40
1
 40
1
 40
1
 40
1
 10
170.053850
 20
230.755623
 30
0.0
 10
170.053850
 20
232.006053
 30
0.0
 10
169.386754
 20
233.161497
 30
0.0
 10
168.303850
 20
233.786712
 30
0.0
  0
SPLINE
  5
194
100
AcDbEntity
  8
Calque_1
 62
7
100
AcDbSpline
 70
8
 71
3
 72
8
 73
4
 74
0
 40
0
 40
0
 40
0
 40
0
 40
1
 40
1
 40
1
 40
1
 10
168.303850
 20
233.786712
 30
0.0
 10
167.220946
 20
234.411927
 30
0.0
 10
165.886754
 20
234.411927
 30
0.0
 10
164.803850
 20
233.786712
 30
0.0
  0
SPLINE
  5
195
100
AcDbEntity
  8
Calque_1
 62
7
100
AcDbSpline
 70
8
 71
3
 72
8
 73
4
 74
0
 40
0
 40
0
 40
0
 40
0
 40
1
 40
1
 40
1
 40
1
 10
164.803850
 20
233.786712
 30
0.0
 10
163.720946
 20
233.161497
 30
0.0
 10
163.053850
 20
232.006053
 30
0.0
 10
163.053850
 20
230.755623
 30
0.0
  0
SPLINE
  5
196
100
AcDbEntity
  8
Calque_1
 62
7
100
AcDbSpline
 70
8
 71
3
 72
8
 73
4
 74
0
 40
0
 40
0
 40
0
 40
0
 40
1
 40
1
 40
1
 40
1
 10
163.053850
 20
230.755623
 30
0.0
 10
163.053850
 20
229.505193
 30
0.0
 10
163.720946
 20
228.349749
 30
0.0
 10
164.803850
 20
227.724534
 30
0.0
  0
SPLINE
  5
197
100
AcDbEntity
  8
Calque_1
 62
7
100
AcDbSpline
 70
8
 71
3
 72
8
 73
4
 74
0
 40
0
 40
0
 40
0
 40
0
 40
1
 40
1
 40
1
 40
1
 10
164.803850
 20
227.724534
 30
0.0
 10
165.886754
 20
227.099319
 30
0.0
 10
167.220946
 20
227.099319
 30
0.0
 10
168.303850
 20
227.724534
 30
0.0
  0
SPLINE
  5
198
100
AcDbEntity
  8
Calque_1
 62
7
100
AcDbSpline
 70
8
 71
3
 72
8
 73
4
 74
0
 40
0
 40
0
 40
0
 40
0
 40
1
 40
1
 40
1
 40
1
 10
168.303850
 20
227.724534
 30
0.0
 10
169.386754
 20
228.349749
 30
0.0
 10
170.053850
 20
229.505193
 30
0.0
 10
170.053850
 20
230.755623
 30
0.0
  0
LINE
  5
199
100
AcDbEntity
  8
Calque_1
 62
7
100
AcDbLine
 10
170.053850
 20
230.755623
 30
0.0
 11
170.053850
 21
230.755623
 31
0.0
  0
LINE
  5
19a
100
AcDbEntity
  8
Calque_1
 62
7
100
AcDbLine
 10
16.559797
 20
301.561087
 30
0.0
 11
16.559797
 21
351.561086
 31
0.0
  0
LINE
  5
19b
100
AcDbEntity
  8
Calque_1
 62
7
100
AcDbLine
 10
16.559797
 20
351.561086
 30
0.0
 11
21.559797
 21
351.561086
 31
0.0
  0
LINE
  5
19c
100
AcDbEntity
  8
Calque_1
 62
7
100
AcDbLine
 10
21.559797
 20
351.561086
 30
0.0
 11
21.559797
 21
371.561086
 31
0.0
  0
LINE
  5
19d
100
AcDbEntity
  8
Calque_1
 62
7
100
AcDbLine
 10
21.559797
 20
371.561086
 30
0.0
 11
16.559797
 21
371.561086
 31
0.0
  0
LINE
  5
19e
100
AcDbEntity
  8
Calque_1
 62
7
100
AcDbLine
 10
16.559797
 20
371.561086
 30
0.0
 11
16.559797
 21
421.561090
 31
0.0
  0
LINE
  5
19f
100
AcDbEntity
  8
Calque_1
 62
7
100
AcDbLine
 10
16.559797
 20
421.561090
 30
0.0
 11
56.559797
 21
421.561090
 31
0.0
  0
LINE
  5
1a0
100
AcDbEntity
  8
Calque_1
 62
7
100
AcDbLine
 10
56.559797
 20
421.561090
 30
0.0
 11
56.559797
 21
416.561090
 31
0.0
  0
LINE
  5
1a1
100
AcDbEntity
  8
Calque_1
 62
7
100
AcDbLine
 10
56.559797
 20
416.561090
 30
0.0
 11
76.559796
 21
416.561090
 31
0.0
  0
LINE
  5
1a2
100
AcDbEntity
  8
Calque_1
 62
7
100
AcDbLine
 10
76.559796
 20
416.561090
 30
0.0
 11
76.559796
 21
421.561090
 31
0.0
  0
LINE
  5
1a3
100
AcDbEntity
  8
Calque_1
 62
7
100
AcDbLine
 10
76.559796
 20
421.561090
 30
0.0
 11
156.559800
 21
421.561090
 31
0.0
  0
LINE
  5
1a4
100
AcDbEntity
  8
Calque_1
 62
7
100
AcDbLine
 10
156.559800
 20
421.561090
 30
0.0
 11
156.559800
 21
416.561090
 31
0.0
  0
LINE
  5
1a5
100
AcDbEntity
  8
Calque_1
 62
7
100
AcDbLine
 10
156.559800
 20
416.561090
 30
0.0
 11
176.559800
 21
416.561090
 31
0.0
  0
LINE
  5
1a6
100
AcDbEntity
  8
Calque_1
 62
7
100
AcDbLine
 10
176.559800
 20
416.561090
 30
0.0
 11
176.559800
 21
421.561090
 31
0.0
  0
LINE
  5
1a7
100
AcDbEntity
  8
Calque_1
 62
7
100
AcDbLine
 10
176.559800
 20
421.561090
 30
0.0
 11
216.559790
 21
421.561090
 31
0.0
  0
LINE
  5
1a8
100
AcDbEntity
  8
Calque_1
 62
7
100
AcDbLine
 10
216.559790
 20
421.561090
 30
0.0
 11
216.559790
 21
371.561086
 31
0.0
  0
LINE
  5
1a9
100
AcDbEntity
  8
Calque_1
 62
7
100
AcDbLine
 10
216.559790
 20
371.561086
 30
0.0
 11
211.559800
 21
371.561086
 31
0.0
  0
LINE
  5
1aa
100
AcDbEntity
  8
Calque_1
 62
7
100
AcDbLine
 10
211.559800
 20
371.561086
 30
0.0
 11
211.559800
 21
351.561086
 31
0.0
  0
LINE
  5
1ab
100
AcDbEntity
  8
Calque_1
 62
7
100
AcDbLine
 10
211.559800
 20
351.561086
 30
0.0
 11
216.559790
 21
351.561086
 31
0.0
  0
LINE
  5
1ac
100
AcDbEntity
  8
Calque_1
 62
7
100
AcDbLine
 10
216.559790
 20
351.561086
 30
0.0
 11
216.559790
 21
301.561087
 31
0.0
  0
LINE
  5
1ad
100
AcDbEntity
  8
Calque_1
 62
7
100
AcDbLine
 10
216.559790
 20
301.561087
 30
0.0
 11
176.559800
 21
301.561087
 31
0.0
  0
LINE
  5
1ae
100
AcDbEntity
  8
Calque_1
 62
7
100
AcDbLine
 10
176.559800
 20
301.561087
 30
0.0
 11
176.559800
 21
306.561087
 31
0.0
  0
LINE
  5
1af
100
AcDbEntity
  8
Calque_1
 62
7
100
AcDbLine
 10
176.559800
 20
306.561087
 30
0.0
 11
156.559800
 21
306.561087
 31
0.0
  0
LINE
  5
1b0
100
AcDbEntity
  8
Calque_1
 62
7
100
AcDbLine
 10
156.559800
 20
306.561087
 30
0.0
 11
156.559800
 21
301.561087
 31
0.0
  0
LINE
  5
1b1
100
AcDbEntity
  8
Calque_1
 62
7
100
AcDbLine
 10
156.559800
 20
301.561087
 30
0.0
 11
76.559796
 21
301.561087
 31
0.0
  0
LINE
  5
1b2
100
AcDbEntity
  8
Calque_1
 62
7
100
AcDbLine
 10
76.559796
 20
301.561087
 30
0.0
 11
76.559796
 21
306.561087
 31
0.0
  0
LINE
  5
1b3
100
AcDbEntity
  8
Calque_1
 62
7
100
AcDbLine
 10
76.559796
 20
306.561087
 30
0.0
 11
56.559797
 21
306.561087
 31
0.0
  0
LINE
  5
1b4
100
AcDbEntity
  8
Calque_1
 62
7
100
AcDbLine
 10
56.559797
 20
306.561087
 30
0.0
 11
56.559797
 21
301.561087
 31
0.0
  0
LINE
  5
1b5
100
AcDbEntity
  8
Calque_1
 62
7
100
AcDbLine
 10
56.559797
 20
301.561087
 30
0.0
 11
16.559797
 21
301.561087
 31
0.0
  0
SPLINE
  5
1b6
100
AcDbEntity
  8
Calque_1
 62
7
100
AcDbSpline
 70
8
 71
3
 72
8
 73
4
 74
0
 40
0
 40
0
 40
0
 40
0
 40
1
 40
1
 40
1
 40
1
 10
38.059795
 20
382.561089
 30
0.0
 10
38.059795
 20
383.096987
 30
0.0
 10
37.773897
 20
383.592178
 30
0.0
 10
37.309795
 20
383.860127
 30
0.0
  0
SPLINE
  5
1b7
100
AcDbEntity
  8
Calque_1
 62
7
100
AcDbSpline
 70
8
 71
3
 72
8
 73
4
 74
0
 40
0
 40
0
 40
0
 40
0
 40
1
 40
1
 40
1
 40
1
 10
37.309795
 20
383.860127
 30
0.0
 10
36.845693
 20
384.128076
 30
0.0
 10
36.273897
 20
384.128076
 30
0.0
 10
35.809795
 20
383.860127
 30
0.0
  0
SPLINE
  5
1b8
100
AcDbEntity
  8
Calque_1
 62
7
100
AcDbSpline
 70
8
 71
3
 72
8
 73
4
 74
0
 40
0
 40
0
 40
0
 40
0
 40
1
 40
1
 40
1
 40
1
 10
35.809795
 20
383.860127
 30
0.0
 10
35.345693
 20
383.592178
 30
0.0
 10
35.059795
 20
383.096987
 30
0.0
 10
35.059795
 20
382.561089
 30
0.0
  0
SPLINE
  5
1b9
100
AcDbEntity
  8
Calque_1
 62
7
100
AcDbSpline
 70
8
 71
3
 72
8
 73
4
 74
0
 40
0
 40
0
 40
0
 40
0
 40
1
 40
1
 40
1
 40
1
 10
35.059795
 20
382.561089
 30
0.0
 10
35.059795
 20
382.025191
 30
0.0
 10
35.345693
 20
381.530000
 30
0.0
 10
35.809795
 20
381.262051
 30
0.0
  0
SPLINE
  5
1ba
100
AcDbEntity
  8
Calque_1
 62
7
100
AcDbSpline
 70
8
 71
3
 72
8
 73
4
 74
0
 40
0
 40
0
 40
0
 40
0
 40
1
 40
1
 40
1
 40
1
 10
35.809795
 20
381.262051
 30
0.0
 10
36.273897
 20
380.994102
 30
0.0
 10
36.845693
 20
380.994102
 30
0.0
 10
37.309795
 20
381.262051
 30
0.0
  0
SPLINE
  5
1bb
100
AcDbEntity
  8
Calque_1
 62
7
100
AcDbSpline
 70
8
 71
3
 72
8
 73
4
 74
0
 40
0
 40
0
 40
0
 40
0
 40
1
 40
1
 40
1
 40
1
 10
37.309795
 20
381.262051
 30
0.0
 10
37.773897
 20
381.530000
 30
0.0
 10
38.059795
 20
382.025191
 30
0.0
 10
38.059795
 20
382.561089
 30
0.0
  0
LINE
  5
1bc
100
AcDbEntity
  8
Calque_1
 62
7
100
AcDbLine
 10
38.059795
 20
382.561089
 30
0.0
 11
38.059795
 21
382.561089
 31
0.0
  0
SPLINE
  5
1bd
100
AcDbEntity
  8
Calque_1
 62
7
100
AcDbSpline
 70
8
 71
3
 72
8
 73
4
 74
0
 40
0
 40
0
 40
0
 40
0
 40
1
 40
1
 40
1
 40
1
 10
133.059800
 20
382.561089
 30
0.0
 10
133.059800
 20
383.096987
 30
0.0
 10
132.773902
 20
383.592178
 30
0.0
 10
132.309800
 20
383.860127
 30
0.0
  0
SPLINE
  5
1be
100
AcDbEntity
  8
Calque_1
 62
7
100
AcDbSpline
 70
8
 71
3
 72
8
 73
4
 74
0
 40
0
 40
0
 40
0
 40
0
 40
1
 40
1
 40
1
 40
1
 10
132.309800
 20
383.860127
 30
0.0
 10
131.845698
 20
384.128076
 30
0.0
 10
131.273902
 20
384.128076
 30
0.0
 10
130.809800
 20
383.860127
 30
0.0
  0
SPLINE
  5
1bf
100
AcDbEntity
  8
Calque_1
 62
7
100
AcDbSpline
 70
8
 71
3
 72
8
 73
4
 74
0
 40
0
 40
0
 40
0
 40
0
 40
1
 40
1
 40
1
 40
1
 10
130.809800
 20
383.860127
 30
0.0
 10
130.345698
 20
383.592178
 30
0.0
 10
130.059800
 20
383.096987
 30
0.0
 10
130.059800
 20
382.561089
 30
0.0
  0
SPLINE
  5
1c0
100
AcDbEntity
  8
Calque_1
 62
7
100
AcDbSpline
 70
8
 71
3
 72
8
 73
4
 74
0
 40
0
 40
0
 40
0
 40
0
 40
1
 40
1
 40
1
 40
1
 10
130.059800
 20
382.561089
 30
0.0
 10
130.059800
 20
382.025191
 30
0.0
 10
130.345698
 20
381.530000
 30
0.0
 10
130.809800
 20
381.262051
 30
0.0
  0
SPLINE
  5
1c1
100
AcDbEntity
  8
Calque_1
 62
7
100
AcDbSpline
 70
8
 71
3
 72
8
 73
4
 74
0
 40
0
 40
0
 40
0
 40
0
 40
1
 40
1
 40
1
 40
1
 10
130.809800
 20
381.262051
 30
0.0
 10
131.273902
 20
380.994102
 30
0.0
 10
131.845698
 20
380.994102
 30
0.0
 10
132.309800
 20
381.262051
 30
0.0
  0
SPLINE
  5
1c2
100
AcDbEntity
  8
Calque_1
 62
7
100
AcDbSpline
 70
8
 71
3
 72
8
 73
4
 74
0
 40
0
 40
0
 40
0
 40
0
 40
1
 40
1
 40
1
 40
1
 10
132.309800
 20
381.262051
 30
0.0
 10
132.773902
 20
381.530000
 30
0.0
 10
133.059800
 20
382.025191
 30
0.0
 10
133.059800
 20
382.561089
 30
0.0
  0
LINE
  5
1c3
100
AcDbEntity
  8
Calque_1
 62
7
100
AcDbLine
 10
133.059800
 20
382.561089
 30
0.0
 11
133.059800
 21
382.561089
 31
0.0
  0
SPLINE
  5
1c4
100
AcDbEntity
  8
Calque_1
 62
7
100
AcDbSpline
 70
8
 71
3
 72
8
 73
4
 74
0
 40
0
 40
0
 40
0
 40
0
 40
1
 40
1
 40
1
 40
1
 10
38.059795
 20
321.561087
 30
0.0
 10
38.059795
 20
322.096985
 30
0.0
 10
37.773897
 20
322.592176
 30
0.0
 10
37.309795
 20
322.860125
 30
0.0
  0
SPLINE
  5
1c5
100
AcDbEntity
  8
Calque_1
 62
7
100
AcDbSpline
 70
8
 71
3
 72
8
 73
4
 74
0
 40
0
 40
0
 40
0
 40
0
 40
1
 40
1
 40
1
 40
1
 10
37.309795
 20
322.860125
 30
0.0
 10
36.845693
 20
323.128074
 30
0.0
 10
36.273897
 20
323.128074
 30
0.0
 10
35.809795
 20
322.860125
 30
0.0
  0
SPLINE
  5
1c6
100
AcDbEntity
  8
Calque_1
 62
7
100
AcDbSpline
 70
8
 71
3
 72
8
 73
4
 74
0
 40
0
 40
0
 40
0
 40
0
 40
1
 40
1
 40
1
 40
1
 10
35.809795
 20
322.860125
 30
0.0
 10
35.345693
 20
322.592176
 30
0.0
 10
35.059795
 20
322.096985
 30
0.0
 10
35.059795
 20
321.561087
 30
0.0
  0
SPLINE
  5
1c7
100
AcDbEntity
  8
Calque_1
 62
7
100
AcDbSpline
 70
8
 71
3
 72
8
 73
4
 74
0
 40
0
 40
0
 40
0
 40
0
 40
1
 40
1
 40
1
 40
1
 10
35.059795
 20
321.561087
 30
0.0
 10
35.059795
 20
321.025189
 30
0.0
 10
35.345693
 20
320.529998
 30
0.0
 10
35.809795
 20
320.262049
 30
0.0
  0
SPLINE
  5
1c8
100
AcDbEntity
  8
Calque_1
 62
7
100
AcDbSpline
 70
8
 71
3
 72
8
 73
4
 74
0
 40
0
 40
0
 40
0
 40
0
 40
1
 40
1
 40
1
 40
1
 10
35.809795
 20
320.262049
 30
0.0
 10
36.273897
 20
319.994100
 30
0.0
 10
36.845693
 20
319.994100
 30
0.0
 10
37.309795
 20
320.262049
 30
0.0
  0
SPLINE
  5
1c9
100
AcDbEntity
  8
Calque_1
 62
7
100
AcDbSpline
 70
8
 71
3
 72
8
 73
4
 74
0
 40
0
 40
0
 40
0
 40
0
 40
1
 40
1
 40
1
 40
1
 10
37.309795
 20
320.262049
 30
0.0
 10
37.773897
 20
320.529998
 30
0.0
 10
38.059795
 20
321.025189
 30
0.0
 10
38.059795
 20
321.561087
 30
0.0
  0
LINE
  5
1ca
100
AcDbEntity
  8
Calque_1
 62
7
100
AcDbLine
 10
38.059795
 20
321.561087
 30
0.0
 11
38.059795
 21
321.561087
 31
0.0
  0
SPLINE
  5
1cb
100
AcDbEntity
  8
Calque_1
 62
7
100
AcDbSpline
 70
8
 71
3
 72
8
 73
4
 74
0
 40
0
 40
0
 40
0
 40
0
 40
1
 40
1
 40
1
 40
1
 10
133.059800
 20
321.561087
 30
0.0
 10
133.059800
 20
322.096985
 30
0.0
 10
132.773902
 20
322.592176
 30
0.0
 10
132.309800
 20
322.860125
 30
0.0
  0
SPLINE
  5
1cc
100
AcDbEntity
  8
Calque_1
 62
7
100
AcDbSpline
 70
8
 71
3
 72
8
 73
4
 74
0
 40
0
 40
0
 40
0
 40
0
 40
1
 40
1
 40
1
 40
1
 10
132.309800
 20
322.860125
 30
0.0
 10
131.845698
 20
323.128074
 30
0.0
 10
131.273902
 20
323.128074
 30
0.0
 10
130.809800
 20
322.860125
 30
0.0
  0
SPLINE
  5
1cd
100
AcDbEntity
  8
Calque_1
 62
7
100
AcDbSpline
 70
8
 71
3
 72
8
 73
4
 74
0
 40
0
 40
0
 40
0
 40
0
 40
1
 40
1
 40
1
 40
1
 10
130.809800
 20
322.860125
 30
0.0
 10
130.345698
 20
322.592176
 30
0.0
 10
130.059800
 20
322.096985
 30
0.0
 10
130.059800
 20
321.561087
 30
0.0
  0
SPLINE
  5
1ce
100
AcDbEntity
  8
Calque_1
 62
7
100
AcDbSpline
 70
8
 71
3
 72
8
 73
4
 74
0
 40
0
 40
0
 40
0
 40
0
 40
1
 40
1
 40
1
 40
1
 10
130.059800
 20
321.561087
 30
0.0
 10
130.059800
 20
321.025189
 30
0.0
 10
130.345698
 20
320.529998
 30
0.0
 10
130.809800
 20
320.262049
 30
0.0
  0
SPLINE
  5
1cf
100
AcDbEntity
  8
Calque_1
 62
7
100
AcDbSpline
 70
8
 71
3
 72
8
 73
4
 74
0
 40
0
 40
0
 40
0
 40
0
 40
1
 40
1
 40
1
 40
1
 10
130.809800
 20
320.262049
 30
0.0
 10
131.273902
 20
319.994100
 30
0.0
 10
131.845698
 20
319.994100
 30
0.0
 10
132.309800
 20
320.262049
 30
0.0
  0
SPLINE
  5
1d0
100
AcDbEntity
  8
Calque_1
 62
7
100
AcDbSpline
 70
8
 71
3
 72
8
 73
4
 74
0
 40
0
 40
0
 40
0
 40
0
 40
1
 40
1
 40
1
 40
1
 10
132.309800
 20
320.262049
 30
0.0
 10
132.773902
 20
320.529998
 30
0.0
 10
133.059800
 20
321.025189
 30
0.0
 10
133.059800
 20
321.561087
 30
0.0
  0
LINE
  5
1d1
100
AcDbEntity
  8
Calque_1
 62
7
100
AcDbLine
 10
133.059800
 20
321.561087
 30
0.0
 11
133.059800
 21
321.561087
 31
0.0
  0
SPLINE
  5
1d2
100
AcDbEntity
  8
Calque_1
 62
7
100
AcDbSpline
 70
8
 71
3
 72
8
 73
4
 74
0
 40
0
 40
0
 40
0
 40
0
 40
1
 40
1
 40
1
 40
1
 10
173.059800
 20
328.561087
 30
0.0
 10
173.059800
 20
329.096985
 30
0.0
 10
172.773902
 20
329.592176
 30
0.0
 10
172.309800
 20
329.860125
 30
0.0
  0
SPLINE
  5
1d3
100
AcDbEntity
  8
Calque_1
 62
7
100
AcDbSpline
 70
8
 71
3
 72
8
 73
4
 74
0
 40
0
 40
0
 40
0
 40
0
 40
1
 40
1
 40
1
 40
1
 10
172.309800
 20
329.860125
 30
0.0
 10
171.845698
 20
330.128074
 30
0.0
 10
171.273902
 20
330.128074
 30
0.0
 10
170.809800
 20
329.860125
 30
0.0
  0
SPLINE
  5
1d4
100
AcDbEntity
  8
Calque_1
 62
7
100
AcDbSpline
 70
8
 71
3
 72
8
 73
4
 74
0
 40
0
 40
0
 40
0
 40
0
 40
1
 40
1
 40
1
 40
1
 10
170.809800
 20
329.860125
 30
0.0
 10
170.345698
 20
329.592176
 30
0.0
 10
170.059800
 20
329.096985
 30
0.0
 10
170.059800
 20
328.561087
 30
0.0
  0
SPLINE
  5
1d5
100
AcDbEntity
  8
Calque_1
 62
7
100
AcDbSpline
 70
8
 71
3
 72
8
 73
4
 74
0
 40
0
 40
0
 40
0
 40
0
 40
1
 40
1
 40
1
 40
1
 10
170.059800
 20
328.561087
 30
0.0
 10
170.059800
 20
328.025189
 30
0.0
 10
170.345698
 20
327.529998
 30
0.0
 10
170.809800
 20
327.262049
 30
0.0
  0
SPLINE
  5
1d6
100
AcDbEntity
  8
Calque_1
 62
7
100
AcDbSpline
 70
8
 71
3
 72
8
 73
4
 74
0
 40
0
 40
0
 40
0
 40
0
 40
1
 40
1
 40
1
 40
1
 10
170.809800
 20
327.262049
 30
0.0
 10
171.273902
 20
326.994100
 30
0.0
 10
171.845698
 20
326.994100
 30
0.0
 10
172.309800
 20
327.262049
 30
0.0
  0
SPLINE
  5
1d7
100
AcDbEntity
  8
Calque_1
 62
7
100
AcDbSpline
 70
8
 71
3
 72
8
 73
4
 74
0
 40
0
 40
0
 40
0
 40
0
 40
1
 40
1
 40
1
 40
1
 10
172.309800
 20
327.262049
 30
0.0
 10
172.773902
 20
327.529998
 30
0.0
 10
173.059800
 20
328.025189
 30
0.0
 10
173.059800
 20
328.561087
 30
0.0
  0
LINE
  5
1d8
100
AcDbEntity
  8
Calque_1
 62
7
100
AcDbLine
 10
173.059800
 20
328.561087
 30
0.0
 11
173.059800
 21
328.561087
 31
0.0
  0
SPLINE
  5
1d9
100
AcDbEntity
  8
Calque_1
 62
7
100
AcDbSpline
 70
8
 71
3
 72
8
 73
4
 74
0
 40
0
 40
0
 40
0
 40
0
 40
1
 40
1
 40
1
 40
1
 10
173.059800
 20
375.561089
 30
0.0
 10
173.059800
 20
376.096987
 30
0.0
 10
172.773902
 20
376.592178
 30
0.0
 10
172.309800
 20
376.860127
 30
0.0
  0
SPLINE
  5
1da
100
AcDbEntity
  8
Calque_1
 62
7
100
AcDbSpline
 70
8
 71
3
 72
8
 73
4
 74
0
 40
0
 40
0
 40
0
 40
0
 40
1
 40
1
 40
1
 40
1
 10
172.309800
 20
376.860127
 30
0.0
 10
171.845698
 20
377.128076
 30
0.0
 10
171.273902
 20
377.128076
 30
0.0
 10
170.809800
 20
376.860127
 30
0.0
  0
SPLINE
  5
1db
100
AcDbEntity
  8
Calque_1
 62
7
100
AcDbSpline
 70
8
 71
3
 72
8
 73
4
 74
0
 40
0
 40
0
 40
0
 40
0
 40
1
 40
1
 40
1
 40
1
 10
170.809800
 20
376.860127
 30
0.0
 10
170.345698
 20
376.592178
 30
0.0
 10
170.059800
 20
376.096987
 30
0.0
 10
170.059800
 20
375.561089
 30
0.0
  0
SPLINE
  5
1dc
100
AcDbEntity
  8
Calque_1
 62
7
100
AcDbSpline
 70
8
 71
3
 72
8
 73
4
 74
0
 40
0
 40
0
 40
0
 40
0
 40
1
 40
1
 40
1
 40
1
 10
170.059800
 20
375.561089
 30
0.0
 10
170.059800
 20
375.025191
 30
0.0
 10
170.345698
 20
374.530000
 30
0.0
 10
170.809800
 20
374.262051
 30
0.0
  0
SPLINE
  5
1dd
100
AcDbEntity
  8
Calque_1
 62
7
100
AcDbSpline
 70
8
 71
3
 72
8
 73
4
 74
0
 40
0
 40
0
 40
0
 40
0
 40
1
 40
1
 40
1
 40
1
 10
170.809800
 20
374.262051
 30
0.0
 10
171.273902
 20
373.994102
 30
0.0
 10
171.845698
 20
373.994102
 30
0.0
 10
172.309800
 20
374.262051
 30
0.0
  0
SPLINE
  5
1de
100
AcDbEntity
  8
Calque_1
 62
7
100
AcDbSpline
 70
8
 71
3
 72
8
 73
4
 74
0
 40
0
 40
0
 40
0
 40
0
 40
1
 40
1
 40
1
 40
1
 10
172.309800
 20
374.262051
 30
0.0
 10
172.773902
 20
374.530000
 30
0.0
 10
173.059800
 20
375.025191
 30
0.0
 10
173.059800
 20
375.561089
 30
0.0
  0
LINE
  5
1df
100
AcDbEntity
  8
Calque_1
 62
7
100
AcDbLine
 10
173.059800
 20
375.561089
 30
0.0
 11
173.059800
 21
375.561089
 31
0.0
  0
LINE
  5
1e0
100
AcDbEntity
  8
Calque_1
 62
7
100
AcDbLine
 10
240.105390
 20
209.297946
 30
0.0
 11
227.736560
 21
254.650308
 31
0.0
  0
LINE
  5
1e1
100
AcDbEntity
  8
Calque_1
 62
7
100
AcDbLine
 10
227.736560
 20
254.650308
 30
0.0
 11
257.736560
 21
254.650308
 31
0.0
  0
LINE
  5
1e2
100
AcDbEntity
  8
Calque_1
 62
7
100
AcDbLine
 10
257.736560
 20
254.650308
 30
0.0
 11
257.736560
 21
259.650308
 31
0.0
  0
LINE
  5
1e3
100
AcDbEntity
  8
Calque_1
 62
7
100
AcDbLine
 10
257.736560
 20
259.650308
 30
0.0
 11
277.736560
 21
259.650308
 31
0.0
  0
LINE
  5
1e4
100
AcDbEntity
  8
Calque_1
 62
7
100
AcDbLine
 10
277.736560
 20
259.650308
 30
0.0
 11
277.736560
 21
254.650308
 31
0.0
  0
LINE
  5
1e5
100
AcDbEntity
  8
Calque_1
 62
7
100
AcDbLine
 10
277.736560
 20
254.650308
 30
0.0
 11
307.736560
 21
254.650308
 31
0.0
  0
LINE
  5
1e6
100
AcDbEntity
  8
Calque_1
 62
7
100
AcDbLine
 10
307.736560
 20
254.650308
 30
0.0
 11
307.736560
 21
209.650308
 31
0.0
  0
LINE
  5
1e7
100
AcDbEntity
  8
Calque_1
 62
7
100
AcDbLine
 10
307.736560
 20
209.650308
 30
0.0
 11
312.736560
 21
209.650308
 31
0.0
  0
LINE
  5
1e8
100
AcDbEntity
  8
Calque_1
 62
7
100
AcDbLine
 10
312.736560
 20
209.650308
 30
0.0
 11
312.736560
 21
189.650310
 31
0.0
  0
LINE
  5
1e9
100
AcDbEntity
  8
Calque_1
 62
7
100
AcDbLine
 10
312.736560
 20
189.650310
 30
0.0
 11
307.736560
 21
189.650310
 31
0.0
  0
LINE
  5
1ea
100
AcDbEntity
  8
Calque_1
 62
7
100
AcDbLine
 10
307.736560
 20
189.650310
 30
0.0
 11
307.736560
 21
144.650310
 31
0.0
  0
LINE
  5
1eb
100
AcDbEntity
  8
Calque_1
 62
7
100
AcDbLine
 10
307.736560
 20
144.650310
 30
0.0
 11
292.736560
 21
144.650310
 31
0.0
  0
LINE
  5
1ec
100
AcDbEntity
  8
Calque_1
 62
7
100
AcDbLine
 10
292.736560
 20
144.650310
 30
0.0
 11
292.736560
 21
139.650310
 31
0.0
  0
LINE
  5
1ed
100
AcDbEntity
  8
Calque_1
 62
7
100
AcDbLine
 10
292.736560
 20
139.650310
 30
0.0
 11
272.736560
 21
139.650310
 31
0.0
  0
LINE
  5
1ee
100
AcDbEntity
  8
Calque_1
 62
7
100
AcDbLine
 10
272.736560
 20
139.650310
 30
0.0
 11
272.736560
 21
144.650310
 31
0.0
  0
LINE
  5
1ef
100
AcDbEntity
  8
Calque_1
 62
7
100
AcDbLine
 10
272.736560
 20
144.650310
 30
0.0
 11
257.736560
 21
144.650310
 31
0.0
  0
LINE
  5
1f0
100
AcDbEntity
  8
Calque_1
 62
7
100
AcDbLine
 10
257.736560
 20
144.650310
 30
0.0
 11
245.367730
 21
190.002670
 31
0.0
  0
LINE
  5
1f1
100
AcDbEntity
  8
Calque_1
 62
7
100
AcDbLine
 10
245.367730
 20
190.002670
 30
0.0
 11
240.543910
 21
188.687080
 31
0.0
  0
LINE
  5
1f2
100
AcDbEntity
  8
Calque_1
 62
7
100
AcDbLine
 10
240.543910
 20
188.687080
 30
0.0
 11
235.281570
 21
207.982359
 31
0.0
  0
LINE
  5
1f3
100
AcDbEntity
  8
Calque_1
 62
7
100
AcDbLine
 10
235.281570
 20
207.982359
 30
0.0
 11
240.105390
 21
209.297946
 31
0.0
  0
ENDSEC
  0
SECTION
  2
OBJECTS
  0
DICTIONARY
  5
C
330
0
100
AcDbDictionary
  3
ACAD_GROUP
350
D
  3
ACAD_MLINESTYLE
350
17
  0
DICTIONARY
  5
D
330
C
100
AcDbDictionary
  0
DICTIONARY
  5
1A
330
C
100
AcDbDictionary
  0
DICTIONARY
  5
17
330
C
100
AcDbDictionary
  3
STANDARD
350
18
  0
DICTIONARY
  5
19
330
C
100
AcDbDictionary
  0
ENDSEC
  0
EOF
