; NON-PLATED HOLES START AT T1
; THROUGH (PLATED) HOLES START AT T100
M48
INCH
T1C0.125984
T100C0.035433
T101C0.035889
T102C0.040000
T103C0.040278
%
T1
X038062Y025122
X038062Y001122
X003062Y002122
X012062Y002122
X001062Y001122
X001062Y025122
T100
X006062Y023122
X024062Y022122
X025062Y022122
X012062Y023122
X016062Y023122
X026062Y023122
X008062Y023122
X037062Y006122
X023062Y022122
X031062Y006122
T101
X033105Y019692
X035078Y019692
X031062Y008122
X037121Y008122
T102
X024030Y017122
X006062Y007122
X007062Y007122
X012030Y017122
X035062Y024122
X014062Y017122
X033093Y024122
X008062Y007122
X010062Y017122
X016030Y017122
X006062Y017122
X010063Y007122
X026062Y017122
X022062Y017122
X008030Y017122
X020030Y017122
X009062Y007122
X005062Y007122
X018062Y017122
X028030Y017122
T103
X017050Y006121
X019450Y025121
X027050Y006121
X027050Y025121
X019050Y006121
X017450Y025121
X024050Y006121
X014050Y006121
X023050Y006121
X022050Y025121
X012450Y025121
X014450Y025121
X013450Y025121
X023050Y025121
X024050Y025121
X018450Y025121
X025050Y006121
X028050Y025121
X021050Y006121
X020050Y006121
X015050Y006121
X028050Y006121
X021050Y025121
X018050Y006121
X025050Y025121
X015450Y025121
X011450Y025121
X010450Y025121
X016050Y006121
X026050Y006121
X016450Y025121
X026050Y025121
T00
M30
