G04 MADE WITH FRITZING*
G04 WWW.FRITZING.ORG*
G04 DOUBLE SIDED*
G04 HOLES PLATED*
G04 CONTOUR ON CENTER OF CONTOUR VECTOR*
%ASAXBY*%
%FSLAX23Y23*%
%MOIN*%
%OFA0B0*%
%SFA1.0B1.0*%
%ADD10C,0.077000*%
%ADD11C,0.074000*%
%ADD12C,0.065278*%
%ADD13C,0.080000*%
%ADD14C,0.075433*%
%ADD15R,0.074000X0.074000*%
%ADD16R,0.080000X0.080000*%
%ADD17C,0.024000*%
%ADD18R,0.001000X0.001000*%
%LNCOPPER1*%
G90*
G70*
G54D10*
X3311Y1969D03*
X3508Y1969D03*
X3712Y812D03*
X3106Y812D03*
G54D11*
X506Y712D03*
X606Y712D03*
X706Y712D03*
X806Y712D03*
X906Y712D03*
X1006Y712D03*
G54D12*
X2405Y612D03*
X2505Y612D03*
X2605Y612D03*
X2705Y612D03*
X2805Y612D03*
X1945Y2512D03*
X1845Y2512D03*
X1745Y2512D03*
X1645Y2512D03*
X1545Y2512D03*
X1445Y2512D03*
X1345Y2512D03*
X1245Y2512D03*
X1145Y2512D03*
X1045Y2512D03*
X2805Y2512D03*
X2705Y2512D03*
X2605Y2512D03*
X2505Y2512D03*
X2405Y2512D03*
X2305Y2512D03*
X2205Y2512D03*
X2105Y2512D03*
X1505Y612D03*
X1405Y612D03*
X1605Y612D03*
X1705Y612D03*
X1805Y612D03*
X1905Y612D03*
X2005Y612D03*
X2105Y612D03*
X2305Y612D03*
G54D13*
X1806Y1712D03*
X2003Y1712D03*
X1406Y1712D03*
X1603Y1712D03*
X2206Y1712D03*
X2403Y1712D03*
X2606Y1712D03*
X2803Y1712D03*
X1006Y1712D03*
X1203Y1712D03*
X606Y1712D03*
X803Y1712D03*
X3506Y2412D03*
X3309Y2412D03*
G54D14*
X2306Y2212D03*
X1206Y2312D03*
X806Y2312D03*
X606Y2312D03*
X2606Y2312D03*
X2506Y2212D03*
X2406Y2212D03*
X1606Y2312D03*
X3706Y612D03*
X3106Y612D03*
G54D15*
X506Y712D03*
G54D16*
X1806Y1712D03*
X1406Y1712D03*
X2206Y1712D03*
X2606Y1712D03*
X1006Y1712D03*
X606Y1712D03*
X3506Y2412D03*
G54D17*
X3707Y312D02*
X3706Y595D01*
D02*
X2206Y211D02*
X3606Y211D01*
D02*
X3606Y211D02*
X3707Y312D01*
D02*
X2006Y411D02*
X2206Y211D01*
D02*
X2005Y592D02*
X2006Y411D01*
D02*
X3108Y411D02*
X3106Y595D01*
D02*
X2206Y312D02*
X3006Y312D01*
D02*
X3006Y312D02*
X3108Y411D01*
D02*
X2108Y411D02*
X2206Y312D01*
D02*
X2105Y592D02*
X2108Y411D01*
D02*
X1806Y711D02*
X1707Y813D01*
D02*
X1707Y813D02*
X806Y811D01*
D02*
X806Y811D02*
X720Y726D01*
D02*
X1805Y632D02*
X1806Y711D01*
D02*
X1905Y711D02*
X1707Y912D01*
D02*
X806Y912D02*
X620Y726D01*
D02*
X1707Y912D02*
X806Y912D01*
D02*
X1905Y632D02*
X1905Y711D01*
D02*
X2206Y1012D02*
X806Y1011D01*
D02*
X2305Y912D02*
X2206Y1012D01*
D02*
X806Y1011D02*
X520Y726D01*
D02*
X2305Y632D02*
X2305Y912D01*
D02*
X2605Y2492D02*
X2606Y2330D01*
D02*
X2505Y2492D02*
X2506Y2230D01*
D02*
X2405Y2492D02*
X2406Y2230D01*
D02*
X606Y2411D02*
X708Y2512D01*
D02*
X708Y2512D02*
X1025Y2512D01*
D02*
X606Y2330D02*
X606Y2411D01*
D02*
X908Y2411D02*
X1108Y2411D01*
D02*
X1108Y2411D02*
X1138Y2493D01*
D02*
X819Y2325D02*
X908Y2411D01*
D02*
X1308Y2411D02*
X1338Y2493D01*
D02*
X1219Y2325D02*
X1308Y2411D01*
D02*
X2305Y2492D02*
X2306Y2230D01*
D02*
X1641Y2492D02*
X1610Y2330D01*
G54D18*
X2910Y2277D02*
X2950Y2277D01*
X2982Y2277D02*
X3022Y2277D01*
X3057Y2277D02*
X3094Y2277D01*
X3126Y2277D02*
X3130Y2277D01*
X3165Y2277D02*
X3170Y2277D01*
X2909Y2276D02*
X2952Y2276D01*
X2981Y2276D02*
X3024Y2276D01*
X3056Y2276D02*
X3096Y2276D01*
X3125Y2276D02*
X3132Y2276D01*
X3164Y2276D02*
X3171Y2276D01*
X2908Y2275D02*
X2953Y2275D01*
X2980Y2275D02*
X3025Y2275D01*
X3055Y2275D02*
X3097Y2275D01*
X3124Y2275D02*
X3132Y2275D01*
X3164Y2275D02*
X3172Y2275D01*
X2908Y2274D02*
X2954Y2274D01*
X2980Y2274D02*
X3026Y2274D01*
X3054Y2274D02*
X3098Y2274D01*
X3124Y2274D02*
X3132Y2274D01*
X3163Y2274D02*
X3172Y2274D01*
X2908Y2273D02*
X2955Y2273D01*
X2980Y2273D02*
X3027Y2273D01*
X3053Y2273D02*
X3099Y2273D01*
X3124Y2273D02*
X3133Y2273D01*
X3163Y2273D02*
X3172Y2273D01*
X2908Y2272D02*
X2955Y2272D01*
X2980Y2272D02*
X3027Y2272D01*
X3052Y2272D02*
X3099Y2272D01*
X3124Y2272D02*
X3133Y2272D01*
X3163Y2272D02*
X3172Y2272D01*
X2908Y2271D02*
X2956Y2271D01*
X2980Y2271D02*
X3028Y2271D01*
X3052Y2271D02*
X3100Y2271D01*
X3124Y2271D02*
X3133Y2271D01*
X3163Y2271D02*
X3172Y2271D01*
X3689Y2271D02*
X3692Y2271D01*
X3739Y2271D02*
X3746Y2271D01*
X3794Y2271D02*
X3796Y2271D01*
X2909Y2270D02*
X2956Y2270D01*
X2981Y2270D02*
X3028Y2270D01*
X3052Y2270D02*
X3100Y2270D01*
X3124Y2270D02*
X3133Y2270D01*
X3163Y2270D02*
X3172Y2270D01*
X3688Y2270D02*
X3693Y2270D01*
X3737Y2270D02*
X3748Y2270D01*
X3792Y2270D02*
X3798Y2270D01*
X2910Y2269D02*
X2956Y2269D01*
X2982Y2269D02*
X3028Y2269D01*
X3052Y2269D02*
X3100Y2269D01*
X3124Y2269D02*
X3133Y2269D01*
X3163Y2269D02*
X3172Y2269D01*
X3687Y2269D02*
X3694Y2269D01*
X3737Y2269D02*
X3749Y2269D01*
X3791Y2269D02*
X3799Y2269D01*
X2912Y2268D02*
X2956Y2268D01*
X2984Y2268D02*
X3028Y2268D01*
X3052Y2268D02*
X3100Y2268D01*
X3124Y2268D02*
X3133Y2268D01*
X3163Y2268D02*
X3172Y2268D01*
X3686Y2268D02*
X3695Y2268D01*
X3736Y2268D02*
X3749Y2268D01*
X3791Y2268D02*
X3799Y2268D01*
X2947Y2267D02*
X2956Y2267D01*
X3019Y2267D02*
X3028Y2267D01*
X3052Y2267D02*
X3061Y2267D01*
X3091Y2267D02*
X3100Y2267D01*
X3124Y2267D02*
X3133Y2267D01*
X3163Y2267D02*
X3172Y2267D01*
X3686Y2267D02*
X3695Y2267D01*
X3736Y2267D02*
X3750Y2267D01*
X3790Y2267D02*
X3800Y2267D01*
X2947Y2266D02*
X2956Y2266D01*
X3019Y2266D02*
X3028Y2266D01*
X3052Y2266D02*
X3061Y2266D01*
X3091Y2266D02*
X3100Y2266D01*
X3124Y2266D02*
X3133Y2266D01*
X3163Y2266D02*
X3172Y2266D01*
X3685Y2266D02*
X3695Y2266D01*
X3736Y2266D02*
X3750Y2266D01*
X3790Y2266D02*
X3800Y2266D01*
X2947Y2265D02*
X2956Y2265D01*
X3019Y2265D02*
X3028Y2265D01*
X3052Y2265D02*
X3061Y2265D01*
X3091Y2265D02*
X3100Y2265D01*
X3124Y2265D02*
X3133Y2265D01*
X3163Y2265D02*
X3172Y2265D01*
X3684Y2265D02*
X3695Y2265D01*
X3736Y2265D02*
X3750Y2265D01*
X3791Y2265D02*
X3801Y2265D01*
X2947Y2264D02*
X2956Y2264D01*
X3019Y2264D02*
X3028Y2264D01*
X3052Y2264D02*
X3061Y2264D01*
X3091Y2264D02*
X3100Y2264D01*
X3124Y2264D02*
X3133Y2264D01*
X3163Y2264D02*
X3172Y2264D01*
X3684Y2264D02*
X3695Y2264D01*
X3736Y2264D02*
X3750Y2264D01*
X3791Y2264D02*
X3802Y2264D01*
X2947Y2263D02*
X2956Y2263D01*
X3019Y2263D02*
X3028Y2263D01*
X3052Y2263D02*
X3061Y2263D01*
X3091Y2263D02*
X3100Y2263D01*
X3124Y2263D02*
X3133Y2263D01*
X3163Y2263D02*
X3172Y2263D01*
X3683Y2263D02*
X3694Y2263D01*
X3736Y2263D02*
X3750Y2263D01*
X3791Y2263D02*
X3802Y2263D01*
X2947Y2262D02*
X2956Y2262D01*
X3019Y2262D02*
X3028Y2262D01*
X3052Y2262D02*
X3061Y2262D01*
X3091Y2262D02*
X3100Y2262D01*
X3124Y2262D02*
X3133Y2262D01*
X3163Y2262D02*
X3172Y2262D01*
X3683Y2262D02*
X3693Y2262D01*
X3736Y2262D02*
X3749Y2262D01*
X3792Y2262D02*
X3803Y2262D01*
X2947Y2261D02*
X2956Y2261D01*
X3019Y2261D02*
X3028Y2261D01*
X3052Y2261D02*
X3061Y2261D01*
X3091Y2261D02*
X3100Y2261D01*
X3124Y2261D02*
X3133Y2261D01*
X3163Y2261D02*
X3172Y2261D01*
X3682Y2261D02*
X3693Y2261D01*
X3736Y2261D02*
X3749Y2261D01*
X3793Y2261D02*
X3803Y2261D01*
X2947Y2260D02*
X2956Y2260D01*
X3019Y2260D02*
X3028Y2260D01*
X3052Y2260D02*
X3061Y2260D01*
X3091Y2260D02*
X3100Y2260D01*
X3124Y2260D02*
X3133Y2260D01*
X3163Y2260D02*
X3172Y2260D01*
X3682Y2260D02*
X3692Y2260D01*
X3736Y2260D02*
X3749Y2260D01*
X3793Y2260D02*
X3804Y2260D01*
X2947Y2259D02*
X2956Y2259D01*
X3019Y2259D02*
X3028Y2259D01*
X3052Y2259D02*
X3061Y2259D01*
X3091Y2259D02*
X3100Y2259D01*
X3124Y2259D02*
X3133Y2259D01*
X3163Y2259D02*
X3172Y2259D01*
X3681Y2259D02*
X3692Y2259D01*
X3736Y2259D02*
X3749Y2259D01*
X3794Y2259D02*
X3804Y2259D01*
X2947Y2258D02*
X2956Y2258D01*
X3019Y2258D02*
X3028Y2258D01*
X3052Y2258D02*
X3061Y2258D01*
X3091Y2258D02*
X3100Y2258D01*
X3124Y2258D02*
X3133Y2258D01*
X3163Y2258D02*
X3172Y2258D01*
X3680Y2258D02*
X3691Y2258D01*
X3736Y2258D02*
X3749Y2258D01*
X3794Y2258D02*
X3805Y2258D01*
X2947Y2257D02*
X2956Y2257D01*
X3019Y2257D02*
X3028Y2257D01*
X3052Y2257D02*
X3061Y2257D01*
X3091Y2257D02*
X3100Y2257D01*
X3124Y2257D02*
X3133Y2257D01*
X3163Y2257D02*
X3172Y2257D01*
X3680Y2257D02*
X3691Y2257D01*
X3736Y2257D02*
X3749Y2257D01*
X3795Y2257D02*
X3806Y2257D01*
X2947Y2256D02*
X2956Y2256D01*
X3019Y2256D02*
X3028Y2256D01*
X3052Y2256D02*
X3061Y2256D01*
X3091Y2256D02*
X3100Y2256D01*
X3124Y2256D02*
X3133Y2256D01*
X3163Y2256D02*
X3172Y2256D01*
X3679Y2256D02*
X3690Y2256D01*
X3736Y2256D02*
X3749Y2256D01*
X3795Y2256D02*
X3806Y2256D01*
X2947Y2255D02*
X2956Y2255D01*
X3019Y2255D02*
X3028Y2255D01*
X3052Y2255D02*
X3061Y2255D01*
X3091Y2255D02*
X3100Y2255D01*
X3124Y2255D02*
X3133Y2255D01*
X3163Y2255D02*
X3172Y2255D01*
X3679Y2255D02*
X3689Y2255D01*
X3736Y2255D02*
X3749Y2255D01*
X3796Y2255D02*
X3807Y2255D01*
X2947Y2254D02*
X2956Y2254D01*
X3019Y2254D02*
X3028Y2254D01*
X3052Y2254D02*
X3061Y2254D01*
X3091Y2254D02*
X3100Y2254D01*
X3124Y2254D02*
X3134Y2254D01*
X3162Y2254D02*
X3172Y2254D01*
X3678Y2254D02*
X3689Y2254D01*
X3736Y2254D02*
X3749Y2254D01*
X3797Y2254D02*
X3807Y2254D01*
X2947Y2253D02*
X2956Y2253D01*
X3019Y2253D02*
X3028Y2253D01*
X3052Y2253D02*
X3061Y2253D01*
X3091Y2253D02*
X3100Y2253D01*
X3124Y2253D02*
X3134Y2253D01*
X3162Y2253D02*
X3172Y2253D01*
X3677Y2253D02*
X3688Y2253D01*
X3737Y2253D02*
X3749Y2253D01*
X3797Y2253D02*
X3808Y2253D01*
X2947Y2252D02*
X2956Y2252D01*
X3019Y2252D02*
X3028Y2252D01*
X3052Y2252D02*
X3061Y2252D01*
X3091Y2252D02*
X3100Y2252D01*
X3125Y2252D02*
X3135Y2252D01*
X3161Y2252D02*
X3171Y2252D01*
X3677Y2252D02*
X3688Y2252D01*
X3737Y2252D02*
X3749Y2252D01*
X3798Y2252D02*
X3809Y2252D01*
X2947Y2251D02*
X2956Y2251D01*
X3019Y2251D02*
X3028Y2251D01*
X3052Y2251D02*
X3061Y2251D01*
X3091Y2251D02*
X3100Y2251D01*
X3125Y2251D02*
X3135Y2251D01*
X3161Y2251D02*
X3171Y2251D01*
X3676Y2251D02*
X3687Y2251D01*
X3737Y2251D02*
X3749Y2251D01*
X3798Y2251D02*
X3809Y2251D01*
X2947Y2250D02*
X2956Y2250D01*
X3019Y2250D02*
X3028Y2250D01*
X3052Y2250D02*
X3061Y2250D01*
X3091Y2250D02*
X3100Y2250D01*
X3125Y2250D02*
X3135Y2250D01*
X3161Y2250D02*
X3170Y2250D01*
X3676Y2250D02*
X3686Y2250D01*
X3737Y2250D02*
X3749Y2250D01*
X3799Y2250D02*
X3810Y2250D01*
X2947Y2249D02*
X2956Y2249D01*
X3019Y2249D02*
X3028Y2249D01*
X3052Y2249D02*
X3061Y2249D01*
X3091Y2249D02*
X3100Y2249D01*
X3126Y2249D02*
X3136Y2249D01*
X3160Y2249D02*
X3170Y2249D01*
X3675Y2249D02*
X3686Y2249D01*
X3737Y2249D02*
X3749Y2249D01*
X3800Y2249D02*
X3810Y2249D01*
X2947Y2248D02*
X2956Y2248D01*
X3019Y2248D02*
X3028Y2248D01*
X3052Y2248D02*
X3061Y2248D01*
X3091Y2248D02*
X3100Y2248D01*
X3126Y2248D02*
X3136Y2248D01*
X3160Y2248D02*
X3170Y2248D01*
X3674Y2248D02*
X3685Y2248D01*
X3737Y2248D02*
X3749Y2248D01*
X3800Y2248D02*
X3811Y2248D01*
X2947Y2247D02*
X2956Y2247D01*
X3019Y2247D02*
X3028Y2247D01*
X3052Y2247D02*
X3061Y2247D01*
X3091Y2247D02*
X3100Y2247D01*
X3127Y2247D02*
X3137Y2247D01*
X3159Y2247D02*
X3169Y2247D01*
X3674Y2247D02*
X3685Y2247D01*
X3737Y2247D02*
X3749Y2247D01*
X3801Y2247D02*
X3812Y2247D01*
X2947Y2246D02*
X2956Y2246D01*
X3019Y2246D02*
X3028Y2246D01*
X3052Y2246D02*
X3061Y2246D01*
X3091Y2246D02*
X3100Y2246D01*
X3127Y2246D02*
X3137Y2246D01*
X3159Y2246D02*
X3169Y2246D01*
X3673Y2246D02*
X3684Y2246D01*
X3737Y2246D02*
X3748Y2246D01*
X3801Y2246D02*
X3812Y2246D01*
X2947Y2245D02*
X2956Y2245D01*
X3019Y2245D02*
X3028Y2245D01*
X3052Y2245D02*
X3061Y2245D01*
X3091Y2245D02*
X3100Y2245D01*
X3127Y2245D02*
X3137Y2245D01*
X3159Y2245D02*
X3168Y2245D01*
X3673Y2245D02*
X3684Y2245D01*
X3737Y2245D02*
X3748Y2245D01*
X3802Y2245D02*
X3813Y2245D01*
X2947Y2244D02*
X2956Y2244D01*
X3019Y2244D02*
X3028Y2244D01*
X3052Y2244D02*
X3061Y2244D01*
X3091Y2244D02*
X3100Y2244D01*
X3128Y2244D02*
X3138Y2244D01*
X3158Y2244D02*
X3168Y2244D01*
X3672Y2244D02*
X3683Y2244D01*
X3737Y2244D02*
X3748Y2244D01*
X3802Y2244D02*
X3813Y2244D01*
X2913Y2243D02*
X2956Y2243D01*
X2985Y2243D02*
X3028Y2243D01*
X3052Y2243D02*
X3061Y2243D01*
X3091Y2243D02*
X3100Y2243D01*
X3128Y2243D02*
X3138Y2243D01*
X3158Y2243D02*
X3168Y2243D01*
X3672Y2243D02*
X3682Y2243D01*
X3737Y2243D02*
X3748Y2243D01*
X3803Y2243D02*
X3814Y2243D01*
X2912Y2242D02*
X2956Y2242D01*
X2984Y2242D02*
X3028Y2242D01*
X3052Y2242D02*
X3061Y2242D01*
X3091Y2242D02*
X3100Y2242D01*
X3129Y2242D02*
X3139Y2242D01*
X3157Y2242D02*
X3167Y2242D01*
X3671Y2242D02*
X3682Y2242D01*
X3737Y2242D02*
X3748Y2242D01*
X3804Y2242D02*
X3814Y2242D01*
X2911Y2241D02*
X2956Y2241D01*
X2983Y2241D02*
X3028Y2241D01*
X3052Y2241D02*
X3061Y2241D01*
X3091Y2241D02*
X3100Y2241D01*
X3129Y2241D02*
X3139Y2241D01*
X3157Y2241D02*
X3167Y2241D01*
X3670Y2241D02*
X3681Y2241D01*
X3737Y2241D02*
X3748Y2241D01*
X3804Y2241D02*
X3815Y2241D01*
X2910Y2240D02*
X2955Y2240D01*
X2982Y2240D02*
X3027Y2240D01*
X3052Y2240D02*
X3061Y2240D01*
X3091Y2240D02*
X3100Y2240D01*
X3129Y2240D02*
X3139Y2240D01*
X3157Y2240D02*
X3167Y2240D01*
X3670Y2240D02*
X3681Y2240D01*
X3737Y2240D02*
X3748Y2240D01*
X3805Y2240D02*
X3816Y2240D01*
X2909Y2239D02*
X2955Y2239D01*
X2981Y2239D02*
X3027Y2239D01*
X3052Y2239D02*
X3061Y2239D01*
X3091Y2239D02*
X3100Y2239D01*
X3130Y2239D02*
X3140Y2239D01*
X3156Y2239D02*
X3166Y2239D01*
X3669Y2239D02*
X3680Y2239D01*
X3737Y2239D02*
X3748Y2239D01*
X3805Y2239D02*
X3816Y2239D01*
X2908Y2238D02*
X2954Y2238D01*
X2980Y2238D02*
X3026Y2238D01*
X3052Y2238D02*
X3061Y2238D01*
X3091Y2238D02*
X3100Y2238D01*
X3130Y2238D02*
X3140Y2238D01*
X3156Y2238D02*
X3166Y2238D01*
X3669Y2238D02*
X3679Y2238D01*
X3737Y2238D02*
X3748Y2238D01*
X3806Y2238D02*
X3817Y2238D01*
X2908Y2237D02*
X2953Y2237D01*
X2980Y2237D02*
X3025Y2237D01*
X3052Y2237D02*
X3061Y2237D01*
X3091Y2237D02*
X3100Y2237D01*
X3131Y2237D02*
X3140Y2237D01*
X3155Y2237D02*
X3165Y2237D01*
X3668Y2237D02*
X3679Y2237D01*
X3738Y2237D02*
X3748Y2237D01*
X3807Y2237D02*
X3817Y2237D01*
X2908Y2236D02*
X2952Y2236D01*
X2980Y2236D02*
X3024Y2236D01*
X3052Y2236D02*
X3061Y2236D01*
X3091Y2236D02*
X3100Y2236D01*
X3131Y2236D02*
X3141Y2236D01*
X3155Y2236D02*
X3165Y2236D01*
X3667Y2236D02*
X3678Y2236D01*
X3738Y2236D02*
X3748Y2236D01*
X3807Y2236D02*
X3818Y2236D01*
X2908Y2235D02*
X2951Y2235D01*
X2980Y2235D02*
X3023Y2235D01*
X3052Y2235D02*
X3061Y2235D01*
X3091Y2235D02*
X3100Y2235D01*
X3131Y2235D02*
X3141Y2235D01*
X3155Y2235D02*
X3165Y2235D01*
X3667Y2235D02*
X3678Y2235D01*
X3738Y2235D02*
X3748Y2235D01*
X3808Y2235D02*
X3819Y2235D01*
X2908Y2234D02*
X2946Y2234D01*
X2980Y2234D02*
X3018Y2234D01*
X3052Y2234D02*
X3061Y2234D01*
X3091Y2234D02*
X3100Y2234D01*
X3132Y2234D02*
X3142Y2234D01*
X3154Y2234D02*
X3164Y2234D01*
X3666Y2234D02*
X3677Y2234D01*
X3738Y2234D02*
X3748Y2234D01*
X3808Y2234D02*
X3819Y2234D01*
X2908Y2233D02*
X2917Y2233D01*
X2980Y2233D02*
X2989Y2233D01*
X3052Y2233D02*
X3061Y2233D01*
X3091Y2233D02*
X3100Y2233D01*
X3132Y2233D02*
X3142Y2233D01*
X3154Y2233D02*
X3164Y2233D01*
X3666Y2233D02*
X3677Y2233D01*
X3738Y2233D02*
X3748Y2233D01*
X3809Y2233D02*
X3820Y2233D01*
X2908Y2232D02*
X2917Y2232D01*
X2980Y2232D02*
X2989Y2232D01*
X3052Y2232D02*
X3061Y2232D01*
X3091Y2232D02*
X3100Y2232D01*
X3132Y2232D02*
X3142Y2232D01*
X3154Y2232D02*
X3163Y2232D01*
X3665Y2232D02*
X3676Y2232D01*
X3738Y2232D02*
X3748Y2232D01*
X3809Y2232D02*
X3820Y2232D01*
X2908Y2231D02*
X2917Y2231D01*
X2980Y2231D02*
X2989Y2231D01*
X3052Y2231D02*
X3061Y2231D01*
X3091Y2231D02*
X3100Y2231D01*
X3133Y2231D02*
X3143Y2231D01*
X3153Y2231D02*
X3163Y2231D01*
X3665Y2231D02*
X3675Y2231D01*
X3738Y2231D02*
X3747Y2231D01*
X3810Y2231D02*
X3821Y2231D01*
X2908Y2230D02*
X2917Y2230D01*
X2980Y2230D02*
X2989Y2230D01*
X3052Y2230D02*
X3061Y2230D01*
X3091Y2230D02*
X3100Y2230D01*
X3133Y2230D02*
X3143Y2230D01*
X3153Y2230D02*
X3163Y2230D01*
X3664Y2230D02*
X3675Y2230D01*
X3738Y2230D02*
X3747Y2230D01*
X3811Y2230D02*
X3821Y2230D01*
X2908Y2229D02*
X2917Y2229D01*
X2980Y2229D02*
X2989Y2229D01*
X3052Y2229D02*
X3061Y2229D01*
X3091Y2229D02*
X3100Y2229D01*
X3134Y2229D02*
X3144Y2229D01*
X3152Y2229D02*
X3162Y2229D01*
X3663Y2229D02*
X3674Y2229D01*
X3738Y2229D02*
X3747Y2229D01*
X3811Y2229D02*
X3822Y2229D01*
X2908Y2228D02*
X2917Y2228D01*
X2980Y2228D02*
X2989Y2228D01*
X3052Y2228D02*
X3061Y2228D01*
X3091Y2228D02*
X3100Y2228D01*
X3134Y2228D02*
X3144Y2228D01*
X3152Y2228D02*
X3162Y2228D01*
X3663Y2228D02*
X3674Y2228D01*
X3738Y2228D02*
X3747Y2228D01*
X3812Y2228D02*
X3823Y2228D01*
X2908Y2227D02*
X2917Y2227D01*
X2980Y2227D02*
X2989Y2227D01*
X3052Y2227D02*
X3061Y2227D01*
X3091Y2227D02*
X3100Y2227D01*
X3134Y2227D02*
X3144Y2227D01*
X3152Y2227D02*
X3161Y2227D01*
X3662Y2227D02*
X3673Y2227D01*
X3738Y2227D02*
X3747Y2227D01*
X3812Y2227D02*
X3823Y2227D01*
X2908Y2226D02*
X2917Y2226D01*
X2980Y2226D02*
X2989Y2226D01*
X3052Y2226D02*
X3061Y2226D01*
X3091Y2226D02*
X3100Y2226D01*
X3135Y2226D02*
X3145Y2226D01*
X3151Y2226D02*
X3161Y2226D01*
X3662Y2226D02*
X3672Y2226D01*
X3739Y2226D02*
X3747Y2226D01*
X3813Y2226D02*
X3824Y2226D01*
X2908Y2225D02*
X2917Y2225D01*
X2980Y2225D02*
X2989Y2225D01*
X3052Y2225D02*
X3061Y2225D01*
X3091Y2225D02*
X3100Y2225D01*
X3135Y2225D02*
X3145Y2225D01*
X3151Y2225D02*
X3161Y2225D01*
X3661Y2225D02*
X3672Y2225D01*
X3739Y2225D02*
X3746Y2225D01*
X3814Y2225D02*
X3824Y2225D01*
X2908Y2224D02*
X2917Y2224D01*
X2980Y2224D02*
X2989Y2224D01*
X3052Y2224D02*
X3061Y2224D01*
X3091Y2224D02*
X3100Y2224D01*
X3136Y2224D02*
X3146Y2224D01*
X3150Y2224D02*
X3160Y2224D01*
X3660Y2224D02*
X3671Y2224D01*
X3740Y2224D02*
X3745Y2224D01*
X3814Y2224D02*
X3825Y2224D01*
X2908Y2223D02*
X2917Y2223D01*
X2980Y2223D02*
X2989Y2223D01*
X3052Y2223D02*
X3061Y2223D01*
X3091Y2223D02*
X3100Y2223D01*
X3136Y2223D02*
X3146Y2223D01*
X3150Y2223D02*
X3160Y2223D01*
X3660Y2223D02*
X3671Y2223D01*
X3815Y2223D02*
X3826Y2223D01*
X2908Y2222D02*
X2917Y2222D01*
X2980Y2222D02*
X2989Y2222D01*
X3052Y2222D02*
X3061Y2222D01*
X3091Y2222D02*
X3100Y2222D01*
X3136Y2222D02*
X3146Y2222D01*
X3150Y2222D02*
X3160Y2222D01*
X3659Y2222D02*
X3670Y2222D01*
X3815Y2222D02*
X3826Y2222D01*
X2908Y2221D02*
X2917Y2221D01*
X2980Y2221D02*
X2989Y2221D01*
X3052Y2221D02*
X3061Y2221D01*
X3091Y2221D02*
X3100Y2221D01*
X3137Y2221D02*
X3147Y2221D01*
X3149Y2221D02*
X3159Y2221D01*
X3659Y2221D02*
X3669Y2221D01*
X3816Y2221D02*
X3827Y2221D01*
X2908Y2220D02*
X2917Y2220D01*
X2980Y2220D02*
X2989Y2220D01*
X3052Y2220D02*
X3061Y2220D01*
X3091Y2220D02*
X3100Y2220D01*
X3137Y2220D02*
X3147Y2220D01*
X3149Y2220D02*
X3159Y2220D01*
X3658Y2220D02*
X3669Y2220D01*
X3816Y2220D02*
X3827Y2220D01*
X2908Y2219D02*
X2917Y2219D01*
X2980Y2219D02*
X2989Y2219D01*
X3052Y2219D02*
X3061Y2219D01*
X3091Y2219D02*
X3100Y2219D01*
X3138Y2219D02*
X3158Y2219D01*
X3658Y2219D02*
X3668Y2219D01*
X3817Y2219D02*
X3828Y2219D01*
X2908Y2218D02*
X2917Y2218D01*
X2980Y2218D02*
X2989Y2218D01*
X3052Y2218D02*
X3061Y2218D01*
X3091Y2218D02*
X3100Y2218D01*
X3138Y2218D02*
X3158Y2218D01*
X3657Y2218D02*
X3668Y2218D01*
X3818Y2218D02*
X3828Y2218D01*
X2908Y2217D02*
X2917Y2217D01*
X2980Y2217D02*
X2989Y2217D01*
X3052Y2217D02*
X3061Y2217D01*
X3091Y2217D02*
X3100Y2217D01*
X3138Y2217D02*
X3158Y2217D01*
X3656Y2217D02*
X3667Y2217D01*
X3818Y2217D02*
X3829Y2217D01*
X2908Y2216D02*
X2917Y2216D01*
X2980Y2216D02*
X2989Y2216D01*
X3052Y2216D02*
X3061Y2216D01*
X3091Y2216D02*
X3100Y2216D01*
X3139Y2216D02*
X3157Y2216D01*
X3656Y2216D02*
X3667Y2216D01*
X3819Y2216D02*
X3830Y2216D01*
X2908Y2215D02*
X2917Y2215D01*
X2980Y2215D02*
X2989Y2215D01*
X3052Y2215D02*
X3061Y2215D01*
X3091Y2215D02*
X3100Y2215D01*
X3139Y2215D02*
X3157Y2215D01*
X3655Y2215D02*
X3666Y2215D01*
X3819Y2215D02*
X3830Y2215D01*
X2908Y2214D02*
X2917Y2214D01*
X2980Y2214D02*
X2989Y2214D01*
X3052Y2214D02*
X3061Y2214D01*
X3091Y2214D02*
X3100Y2214D01*
X3139Y2214D02*
X3156Y2214D01*
X3655Y2214D02*
X3665Y2214D01*
X3820Y2214D02*
X3831Y2214D01*
X2908Y2213D02*
X2917Y2213D01*
X2980Y2213D02*
X2989Y2213D01*
X3052Y2213D02*
X3061Y2213D01*
X3091Y2213D02*
X3100Y2213D01*
X3140Y2213D02*
X3156Y2213D01*
X3654Y2213D02*
X3665Y2213D01*
X3821Y2213D02*
X3831Y2213D01*
X2908Y2212D02*
X2917Y2212D01*
X2980Y2212D02*
X2989Y2212D01*
X3052Y2212D02*
X3061Y2212D01*
X3091Y2212D02*
X3100Y2212D01*
X3140Y2212D02*
X3156Y2212D01*
X3653Y2212D02*
X3664Y2212D01*
X3821Y2212D02*
X3832Y2212D01*
X2908Y2211D02*
X2917Y2211D01*
X2980Y2211D02*
X2989Y2211D01*
X3052Y2211D02*
X3061Y2211D01*
X3091Y2211D02*
X3100Y2211D01*
X3141Y2211D02*
X3155Y2211D01*
X3653Y2211D02*
X3664Y2211D01*
X3822Y2211D02*
X3833Y2211D01*
X2908Y2210D02*
X2952Y2210D01*
X2980Y2210D02*
X3024Y2210D01*
X3052Y2210D02*
X3100Y2210D01*
X3141Y2210D02*
X3155Y2210D01*
X3652Y2210D02*
X3663Y2210D01*
X3822Y2210D02*
X3833Y2210D01*
X2908Y2209D02*
X2954Y2209D01*
X2980Y2209D02*
X3026Y2209D01*
X3052Y2209D02*
X3100Y2209D01*
X3141Y2209D02*
X3154Y2209D01*
X3652Y2209D02*
X3662Y2209D01*
X3823Y2209D02*
X3834Y2209D01*
X2908Y2208D02*
X2955Y2208D01*
X2980Y2208D02*
X3027Y2208D01*
X3052Y2208D02*
X3100Y2208D01*
X3142Y2208D02*
X3154Y2208D01*
X3651Y2208D02*
X3662Y2208D01*
X3824Y2208D02*
X3834Y2208D01*
X2908Y2207D02*
X2956Y2207D01*
X2980Y2207D02*
X3028Y2207D01*
X3052Y2207D02*
X3100Y2207D01*
X3142Y2207D02*
X3154Y2207D01*
X3651Y2207D02*
X3661Y2207D01*
X3738Y2207D02*
X3747Y2207D01*
X3824Y2207D02*
X3835Y2207D01*
X2908Y2206D02*
X2956Y2206D01*
X2980Y2206D02*
X3028Y2206D01*
X3052Y2206D02*
X3099Y2206D01*
X3143Y2206D02*
X3153Y2206D01*
X3650Y2206D02*
X3661Y2206D01*
X3737Y2206D02*
X3748Y2206D01*
X3825Y2206D02*
X3835Y2206D01*
X2908Y2205D02*
X2956Y2205D01*
X2980Y2205D02*
X3028Y2205D01*
X3053Y2205D02*
X3099Y2205D01*
X3143Y2205D02*
X3153Y2205D01*
X3649Y2205D02*
X3660Y2205D01*
X3736Y2205D02*
X3749Y2205D01*
X3825Y2205D02*
X3836Y2205D01*
X2908Y2204D02*
X2956Y2204D01*
X2980Y2204D02*
X3028Y2204D01*
X3054Y2204D02*
X3098Y2204D01*
X3143Y2204D02*
X3153Y2204D01*
X3649Y2204D02*
X3660Y2204D01*
X3736Y2204D02*
X3749Y2204D01*
X3826Y2204D02*
X3837Y2204D01*
X2908Y2203D02*
X2956Y2203D01*
X2980Y2203D02*
X3028Y2203D01*
X3055Y2203D02*
X3097Y2203D01*
X3144Y2203D02*
X3152Y2203D01*
X3648Y2203D02*
X3659Y2203D01*
X3736Y2203D02*
X3750Y2203D01*
X3826Y2203D02*
X3837Y2203D01*
X2908Y2202D02*
X2955Y2202D01*
X2980Y2202D02*
X3027Y2202D01*
X3056Y2202D02*
X3096Y2202D01*
X3144Y2202D02*
X3152Y2202D01*
X3648Y2202D02*
X3658Y2202D01*
X3736Y2202D02*
X3750Y2202D01*
X3827Y2202D02*
X3838Y2202D01*
X2908Y2201D02*
X2954Y2201D01*
X2980Y2201D02*
X3026Y2201D01*
X3057Y2201D02*
X3095Y2201D01*
X3145Y2201D02*
X3151Y2201D01*
X3647Y2201D02*
X3658Y2201D01*
X3736Y2201D02*
X3750Y2201D01*
X3828Y2201D02*
X3838Y2201D01*
X2908Y2200D02*
X2951Y2200D01*
X2980Y2200D02*
X3023Y2200D01*
X3062Y2200D02*
X3090Y2200D01*
X3647Y2200D02*
X3657Y2200D01*
X3736Y2200D02*
X3750Y2200D01*
X3828Y2200D02*
X3839Y2200D01*
X3646Y2199D02*
X3657Y2199D01*
X3736Y2199D02*
X3750Y2199D01*
X3829Y2199D02*
X3839Y2199D01*
X3646Y2198D02*
X3656Y2198D01*
X3736Y2198D02*
X3750Y2198D01*
X3829Y2198D02*
X3839Y2198D01*
X3647Y2197D02*
X3655Y2197D01*
X3736Y2197D02*
X3749Y2197D01*
X3830Y2197D02*
X3839Y2197D01*
X3647Y2196D02*
X3655Y2196D01*
X3736Y2196D02*
X3749Y2196D01*
X3831Y2196D02*
X3838Y2196D01*
X3648Y2195D02*
X3654Y2195D01*
X3737Y2195D02*
X3748Y2195D01*
X3831Y2195D02*
X3838Y2195D01*
X3649Y2194D02*
X3653Y2194D01*
X3738Y2194D02*
X3747Y2194D01*
X3832Y2194D02*
X3836Y2194D01*
X479Y1514D02*
X511Y1514D01*
X565Y1514D02*
X590Y1514D01*
X618Y1514D02*
X622Y1514D01*
X730Y1514D02*
X762Y1514D01*
X797Y1514D02*
X821Y1514D01*
X889Y1514D02*
X893Y1514D01*
X477Y1513D02*
X513Y1513D01*
X563Y1513D02*
X591Y1513D01*
X617Y1513D02*
X623Y1513D01*
X728Y1513D02*
X764Y1513D01*
X796Y1513D02*
X824Y1513D01*
X887Y1513D02*
X894Y1513D01*
X476Y1512D02*
X515Y1512D01*
X561Y1512D02*
X592Y1512D01*
X616Y1512D02*
X624Y1512D01*
X726Y1512D02*
X765Y1512D01*
X795Y1512D02*
X825Y1512D01*
X887Y1512D02*
X895Y1512D01*
X474Y1511D02*
X516Y1511D01*
X559Y1511D02*
X592Y1511D01*
X616Y1511D02*
X624Y1511D01*
X725Y1511D02*
X767Y1511D01*
X795Y1511D02*
X826Y1511D01*
X886Y1511D02*
X895Y1511D01*
X474Y1510D02*
X517Y1510D01*
X558Y1510D02*
X592Y1510D01*
X616Y1510D02*
X624Y1510D01*
X724Y1510D02*
X768Y1510D01*
X794Y1510D02*
X828Y1510D01*
X886Y1510D02*
X895Y1510D01*
X473Y1509D02*
X518Y1509D01*
X558Y1509D02*
X592Y1509D01*
X615Y1509D02*
X625Y1509D01*
X724Y1509D02*
X768Y1509D01*
X794Y1509D02*
X829Y1509D01*
X886Y1509D02*
X896Y1509D01*
X472Y1508D02*
X518Y1508D01*
X557Y1508D02*
X592Y1508D01*
X615Y1508D02*
X625Y1508D01*
X723Y1508D02*
X769Y1508D01*
X795Y1508D02*
X829Y1508D01*
X885Y1508D02*
X896Y1508D01*
X472Y1507D02*
X519Y1507D01*
X556Y1507D02*
X591Y1507D01*
X615Y1507D02*
X625Y1507D01*
X723Y1507D02*
X770Y1507D01*
X795Y1507D02*
X830Y1507D01*
X885Y1507D02*
X896Y1507D01*
X472Y1506D02*
X519Y1506D01*
X556Y1506D02*
X591Y1506D01*
X615Y1506D02*
X625Y1506D01*
X723Y1506D02*
X770Y1506D01*
X796Y1506D02*
X831Y1506D01*
X885Y1506D02*
X897Y1506D01*
X472Y1505D02*
X520Y1505D01*
X555Y1505D02*
X589Y1505D01*
X615Y1505D02*
X625Y1505D01*
X722Y1505D02*
X771Y1505D01*
X797Y1505D02*
X831Y1505D01*
X885Y1505D02*
X897Y1505D01*
X471Y1504D02*
X481Y1504D01*
X509Y1504D02*
X520Y1504D01*
X555Y1504D02*
X566Y1504D01*
X615Y1504D02*
X625Y1504D01*
X722Y1504D02*
X732Y1504D01*
X760Y1504D02*
X771Y1504D01*
X804Y1504D02*
X813Y1504D01*
X820Y1504D02*
X832Y1504D01*
X884Y1504D02*
X897Y1504D01*
X471Y1503D02*
X481Y1503D01*
X510Y1503D02*
X520Y1503D01*
X554Y1503D02*
X565Y1503D01*
X615Y1503D02*
X625Y1503D01*
X722Y1503D02*
X731Y1503D01*
X761Y1503D02*
X771Y1503D01*
X804Y1503D02*
X813Y1503D01*
X821Y1503D02*
X832Y1503D01*
X884Y1503D02*
X897Y1503D01*
X472Y1502D02*
X481Y1502D01*
X511Y1502D02*
X520Y1502D01*
X554Y1502D02*
X564Y1502D01*
X615Y1502D02*
X625Y1502D01*
X722Y1502D02*
X732Y1502D01*
X762Y1502D02*
X771Y1502D01*
X804Y1502D02*
X813Y1502D01*
X822Y1502D02*
X833Y1502D01*
X884Y1502D02*
X898Y1502D01*
X472Y1501D02*
X482Y1501D01*
X511Y1501D02*
X520Y1501D01*
X553Y1501D02*
X564Y1501D01*
X615Y1501D02*
X625Y1501D01*
X723Y1501D02*
X733Y1501D01*
X762Y1501D02*
X771Y1501D01*
X804Y1501D02*
X813Y1501D01*
X823Y1501D02*
X833Y1501D01*
X883Y1501D02*
X898Y1501D01*
X472Y1500D02*
X483Y1500D01*
X511Y1500D02*
X520Y1500D01*
X553Y1500D02*
X563Y1500D01*
X615Y1500D02*
X625Y1500D01*
X723Y1500D02*
X734Y1500D01*
X762Y1500D02*
X771Y1500D01*
X804Y1500D02*
X813Y1500D01*
X823Y1500D02*
X834Y1500D01*
X883Y1500D02*
X898Y1500D01*
X472Y1499D02*
X484Y1499D01*
X512Y1499D02*
X520Y1499D01*
X552Y1499D02*
X563Y1499D01*
X615Y1499D02*
X625Y1499D01*
X723Y1499D02*
X734Y1499D01*
X763Y1499D02*
X771Y1499D01*
X804Y1499D02*
X813Y1499D01*
X824Y1499D02*
X834Y1499D01*
X883Y1499D02*
X899Y1499D01*
X473Y1498D02*
X484Y1498D01*
X512Y1498D02*
X519Y1498D01*
X552Y1498D02*
X562Y1498D01*
X615Y1498D02*
X625Y1498D01*
X724Y1498D02*
X735Y1498D01*
X763Y1498D02*
X770Y1498D01*
X804Y1498D02*
X813Y1498D01*
X824Y1498D02*
X835Y1498D01*
X882Y1498D02*
X899Y1498D01*
X473Y1497D02*
X485Y1497D01*
X513Y1497D02*
X518Y1497D01*
X551Y1497D02*
X562Y1497D01*
X615Y1497D02*
X625Y1497D01*
X724Y1497D02*
X736Y1497D01*
X764Y1497D02*
X769Y1497D01*
X804Y1497D02*
X813Y1497D01*
X825Y1497D02*
X835Y1497D01*
X882Y1497D02*
X899Y1497D01*
X474Y1496D02*
X486Y1496D01*
X551Y1496D02*
X561Y1496D01*
X615Y1496D02*
X625Y1496D01*
X725Y1496D02*
X737Y1496D01*
X804Y1496D02*
X813Y1496D01*
X825Y1496D02*
X836Y1496D01*
X882Y1496D02*
X899Y1496D01*
X475Y1495D02*
X487Y1495D01*
X550Y1495D02*
X561Y1495D01*
X615Y1495D02*
X625Y1495D01*
X726Y1495D02*
X738Y1495D01*
X804Y1495D02*
X813Y1495D01*
X826Y1495D02*
X836Y1495D01*
X882Y1495D02*
X900Y1495D01*
X476Y1494D02*
X487Y1494D01*
X550Y1494D02*
X560Y1494D01*
X615Y1494D02*
X625Y1494D01*
X726Y1494D02*
X738Y1494D01*
X804Y1494D02*
X813Y1494D01*
X826Y1494D02*
X837Y1494D01*
X881Y1494D02*
X900Y1494D01*
X476Y1493D02*
X488Y1493D01*
X549Y1493D02*
X560Y1493D01*
X615Y1493D02*
X625Y1493D01*
X727Y1493D02*
X739Y1493D01*
X804Y1493D02*
X813Y1493D01*
X827Y1493D02*
X837Y1493D01*
X881Y1493D02*
X900Y1493D01*
X477Y1492D02*
X489Y1492D01*
X549Y1492D02*
X559Y1492D01*
X615Y1492D02*
X625Y1492D01*
X728Y1492D02*
X740Y1492D01*
X804Y1492D02*
X813Y1492D01*
X827Y1492D02*
X838Y1492D01*
X881Y1492D02*
X901Y1492D01*
X478Y1491D02*
X490Y1491D01*
X548Y1491D02*
X559Y1491D01*
X615Y1491D02*
X625Y1491D01*
X729Y1491D02*
X741Y1491D01*
X804Y1491D02*
X813Y1491D01*
X828Y1491D02*
X838Y1491D01*
X880Y1491D02*
X901Y1491D01*
X479Y1490D02*
X491Y1490D01*
X548Y1490D02*
X558Y1490D01*
X615Y1490D02*
X625Y1490D01*
X729Y1490D02*
X741Y1490D01*
X804Y1490D02*
X813Y1490D01*
X828Y1490D02*
X839Y1490D01*
X880Y1490D02*
X890Y1490D01*
X892Y1490D02*
X901Y1490D01*
X479Y1489D02*
X491Y1489D01*
X547Y1489D02*
X558Y1489D01*
X615Y1489D02*
X625Y1489D01*
X730Y1489D02*
X742Y1489D01*
X804Y1489D02*
X813Y1489D01*
X829Y1489D02*
X839Y1489D01*
X880Y1489D02*
X889Y1489D01*
X892Y1489D02*
X901Y1489D01*
X1599Y1489D02*
X1602Y1489D01*
X480Y1488D02*
X492Y1488D01*
X547Y1488D02*
X557Y1488D01*
X615Y1488D02*
X625Y1488D01*
X731Y1488D02*
X743Y1488D01*
X804Y1488D02*
X813Y1488D01*
X829Y1488D02*
X840Y1488D01*
X880Y1488D02*
X889Y1488D01*
X892Y1488D02*
X902Y1488D01*
X1597Y1488D02*
X1603Y1488D01*
X2309Y1488D02*
X2334Y1488D01*
X2379Y1488D02*
X2427Y1488D01*
X2496Y1488D02*
X2522Y1488D01*
X2550Y1488D02*
X2554Y1488D01*
X2622Y1488D02*
X2626Y1488D01*
X2661Y1488D02*
X2666Y1488D01*
X481Y1487D02*
X493Y1487D01*
X546Y1487D02*
X557Y1487D01*
X615Y1487D02*
X625Y1487D01*
X732Y1487D02*
X744Y1487D01*
X804Y1487D02*
X813Y1487D01*
X830Y1487D02*
X840Y1487D01*
X879Y1487D02*
X889Y1487D01*
X892Y1487D02*
X902Y1487D01*
X1596Y1487D02*
X1604Y1487D01*
X2308Y1487D02*
X2336Y1487D01*
X2379Y1487D02*
X2427Y1487D01*
X2494Y1487D02*
X2523Y1487D01*
X2549Y1487D02*
X2555Y1487D01*
X2621Y1487D02*
X2627Y1487D01*
X2660Y1487D02*
X2667Y1487D01*
X482Y1486D02*
X494Y1486D01*
X546Y1486D02*
X556Y1486D01*
X615Y1486D02*
X625Y1486D01*
X733Y1486D02*
X745Y1486D01*
X804Y1486D02*
X813Y1486D01*
X830Y1486D02*
X841Y1486D01*
X879Y1486D02*
X888Y1486D01*
X893Y1486D02*
X902Y1486D01*
X1596Y1486D02*
X1604Y1486D01*
X2307Y1486D02*
X2338Y1486D01*
X2379Y1486D02*
X2427Y1486D01*
X2492Y1486D02*
X2524Y1486D01*
X2548Y1486D02*
X2556Y1486D01*
X2620Y1486D02*
X2628Y1486D01*
X2659Y1486D02*
X2668Y1486D01*
X483Y1485D02*
X494Y1485D01*
X545Y1485D02*
X556Y1485D01*
X615Y1485D02*
X625Y1485D01*
X733Y1485D02*
X745Y1485D01*
X804Y1485D02*
X813Y1485D01*
X831Y1485D02*
X841Y1485D01*
X879Y1485D02*
X888Y1485D01*
X893Y1485D02*
X903Y1485D01*
X1196Y1485D02*
X1200Y1485D01*
X1596Y1485D02*
X1605Y1485D01*
X2118Y1485D02*
X2147Y1485D01*
X2185Y1485D02*
X2186Y1485D01*
X2225Y1485D02*
X2226Y1485D01*
X2307Y1485D02*
X2339Y1485D01*
X2379Y1485D02*
X2427Y1485D01*
X2491Y1485D02*
X2524Y1485D01*
X2548Y1485D02*
X2556Y1485D01*
X2620Y1485D02*
X2628Y1485D01*
X2658Y1485D02*
X2668Y1485D01*
X483Y1484D02*
X495Y1484D01*
X545Y1484D02*
X555Y1484D01*
X615Y1484D02*
X625Y1484D01*
X734Y1484D02*
X746Y1484D01*
X804Y1484D02*
X813Y1484D01*
X831Y1484D02*
X841Y1484D01*
X878Y1484D02*
X888Y1484D01*
X893Y1484D02*
X903Y1484D01*
X1195Y1484D02*
X1202Y1484D01*
X1596Y1484D02*
X1605Y1484D01*
X2115Y1484D02*
X2150Y1484D01*
X2183Y1484D02*
X2188Y1484D01*
X2223Y1484D02*
X2228Y1484D01*
X2307Y1484D02*
X2340Y1484D01*
X2379Y1484D02*
X2427Y1484D01*
X2490Y1484D02*
X2524Y1484D01*
X2547Y1484D02*
X2556Y1484D01*
X2619Y1484D02*
X2628Y1484D01*
X2656Y1484D02*
X2668Y1484D01*
X484Y1483D02*
X496Y1483D01*
X545Y1483D02*
X555Y1483D01*
X615Y1483D02*
X625Y1483D01*
X735Y1483D02*
X747Y1483D01*
X804Y1483D02*
X813Y1483D01*
X832Y1483D02*
X842Y1483D01*
X878Y1483D02*
X888Y1483D01*
X894Y1483D02*
X903Y1483D01*
X1194Y1483D02*
X1202Y1483D01*
X1596Y1483D02*
X1605Y1483D01*
X2114Y1483D02*
X2152Y1483D01*
X2182Y1483D02*
X2189Y1483D01*
X2222Y1483D02*
X2229Y1483D01*
X2307Y1483D02*
X2341Y1483D01*
X2379Y1483D02*
X2427Y1483D01*
X2489Y1483D02*
X2524Y1483D01*
X2547Y1483D02*
X2556Y1483D01*
X2619Y1483D02*
X2628Y1483D01*
X2655Y1483D02*
X2668Y1483D01*
X485Y1482D02*
X497Y1482D01*
X544Y1482D02*
X554Y1482D01*
X615Y1482D02*
X625Y1482D01*
X736Y1482D02*
X748Y1482D01*
X804Y1482D02*
X813Y1482D01*
X832Y1482D02*
X842Y1482D01*
X878Y1482D02*
X887Y1482D01*
X894Y1482D02*
X903Y1482D01*
X1194Y1482D02*
X1203Y1482D01*
X1596Y1482D02*
X1605Y1482D01*
X2005Y1482D02*
X2006Y1482D01*
X2113Y1482D02*
X2153Y1482D01*
X2181Y1482D02*
X2190Y1482D01*
X2221Y1482D02*
X2230Y1482D01*
X2307Y1482D02*
X2342Y1482D01*
X2379Y1482D02*
X2427Y1482D01*
X2489Y1482D02*
X2524Y1482D01*
X2547Y1482D02*
X2556Y1482D01*
X2619Y1482D02*
X2628Y1482D01*
X2654Y1482D02*
X2668Y1482D01*
X486Y1481D02*
X498Y1481D01*
X544Y1481D02*
X554Y1481D01*
X615Y1481D02*
X625Y1481D01*
X736Y1481D02*
X748Y1481D01*
X804Y1481D02*
X813Y1481D01*
X833Y1481D02*
X842Y1481D01*
X877Y1481D02*
X887Y1481D01*
X894Y1481D02*
X904Y1481D01*
X1194Y1481D02*
X1203Y1481D01*
X1596Y1481D02*
X1605Y1481D01*
X2003Y1481D02*
X2008Y1481D01*
X2112Y1481D02*
X2154Y1481D01*
X2181Y1481D02*
X2190Y1481D01*
X2221Y1481D02*
X2230Y1481D01*
X2308Y1481D02*
X2342Y1481D01*
X2379Y1481D02*
X2427Y1481D01*
X2488Y1481D02*
X2523Y1481D01*
X2547Y1481D02*
X2556Y1481D01*
X2619Y1481D02*
X2628Y1481D01*
X2653Y1481D02*
X2667Y1481D01*
X486Y1480D02*
X498Y1480D01*
X544Y1480D02*
X553Y1480D01*
X615Y1480D02*
X625Y1480D01*
X737Y1480D02*
X749Y1480D01*
X804Y1480D02*
X813Y1480D01*
X833Y1480D02*
X843Y1480D01*
X877Y1480D02*
X887Y1480D01*
X895Y1480D02*
X904Y1480D01*
X1194Y1480D02*
X1203Y1480D01*
X1596Y1480D02*
X1605Y1480D01*
X2002Y1480D02*
X2009Y1480D01*
X2111Y1480D02*
X2155Y1480D01*
X2181Y1480D02*
X2190Y1480D01*
X2221Y1480D02*
X2230Y1480D01*
X2308Y1480D02*
X2343Y1480D01*
X2379Y1480D02*
X2427Y1480D01*
X2488Y1480D02*
X2522Y1480D01*
X2547Y1480D02*
X2556Y1480D01*
X2619Y1480D02*
X2628Y1480D01*
X2652Y1480D02*
X2666Y1480D01*
X487Y1479D02*
X499Y1479D01*
X544Y1479D02*
X553Y1479D01*
X615Y1479D02*
X625Y1479D01*
X738Y1479D02*
X750Y1479D01*
X804Y1479D02*
X813Y1479D01*
X834Y1479D02*
X843Y1479D01*
X877Y1479D02*
X886Y1479D01*
X895Y1479D02*
X904Y1479D01*
X1194Y1479D02*
X1203Y1479D01*
X1596Y1479D02*
X1605Y1479D01*
X2002Y1479D02*
X2010Y1479D01*
X2110Y1479D02*
X2156Y1479D01*
X2181Y1479D02*
X2190Y1479D01*
X2221Y1479D02*
X2230Y1479D01*
X2310Y1479D02*
X2343Y1479D01*
X2379Y1479D02*
X2427Y1479D01*
X2487Y1479D02*
X2520Y1479D01*
X2547Y1479D02*
X2556Y1479D01*
X2619Y1479D02*
X2628Y1479D01*
X2651Y1479D02*
X2665Y1479D01*
X488Y1478D02*
X500Y1478D01*
X544Y1478D02*
X553Y1478D01*
X615Y1478D02*
X625Y1478D01*
X739Y1478D02*
X751Y1478D01*
X804Y1478D02*
X813Y1478D01*
X834Y1478D02*
X843Y1478D01*
X877Y1478D02*
X886Y1478D01*
X895Y1478D02*
X905Y1478D01*
X1194Y1478D02*
X1203Y1478D01*
X1596Y1478D02*
X1605Y1478D01*
X2001Y1478D02*
X2010Y1478D01*
X2110Y1478D02*
X2156Y1478D01*
X2181Y1478D02*
X2190Y1478D01*
X2221Y1478D02*
X2230Y1478D01*
X2316Y1478D02*
X2326Y1478D01*
X2333Y1478D02*
X2344Y1478D01*
X2379Y1478D02*
X2388Y1478D01*
X2398Y1478D02*
X2407Y1478D01*
X2418Y1478D02*
X2427Y1478D01*
X2487Y1478D02*
X2498Y1478D01*
X2547Y1478D02*
X2556Y1478D01*
X2619Y1478D02*
X2628Y1478D01*
X2649Y1478D02*
X2664Y1478D01*
X489Y1477D02*
X501Y1477D01*
X544Y1477D02*
X553Y1477D01*
X615Y1477D02*
X625Y1477D01*
X740Y1477D02*
X752Y1477D01*
X804Y1477D02*
X813Y1477D01*
X834Y1477D02*
X843Y1477D01*
X876Y1477D02*
X886Y1477D01*
X895Y1477D02*
X905Y1477D01*
X994Y1477D02*
X1034Y1477D01*
X1194Y1477D02*
X1203Y1477D01*
X1596Y1477D02*
X1605Y1477D01*
X2001Y1477D02*
X2010Y1477D01*
X2110Y1477D02*
X2157Y1477D01*
X2181Y1477D02*
X2190Y1477D01*
X2221Y1477D02*
X2230Y1477D01*
X2316Y1477D02*
X2326Y1477D01*
X2334Y1477D02*
X2344Y1477D01*
X2379Y1477D02*
X2388Y1477D01*
X2398Y1477D02*
X2407Y1477D01*
X2418Y1477D02*
X2427Y1477D01*
X2486Y1477D02*
X2497Y1477D01*
X2547Y1477D02*
X2556Y1477D01*
X2619Y1477D02*
X2628Y1477D01*
X2648Y1477D02*
X2663Y1477D01*
X490Y1476D02*
X501Y1476D01*
X543Y1476D02*
X553Y1476D01*
X615Y1476D02*
X625Y1476D01*
X740Y1476D02*
X752Y1476D01*
X804Y1476D02*
X813Y1476D01*
X834Y1476D02*
X843Y1476D01*
X876Y1476D02*
X886Y1476D01*
X896Y1476D02*
X905Y1476D01*
X991Y1476D02*
X1036Y1476D01*
X1194Y1476D02*
X1203Y1476D01*
X1596Y1476D02*
X1605Y1476D01*
X2001Y1476D02*
X2010Y1476D01*
X2109Y1476D02*
X2157Y1476D01*
X2181Y1476D02*
X2190Y1476D01*
X2221Y1476D02*
X2230Y1476D01*
X2316Y1476D02*
X2326Y1476D01*
X2335Y1476D02*
X2345Y1476D01*
X2379Y1476D02*
X2388Y1476D01*
X2398Y1476D02*
X2407Y1476D01*
X2418Y1476D02*
X2427Y1476D01*
X2486Y1476D02*
X2496Y1476D01*
X2547Y1476D02*
X2556Y1476D01*
X2619Y1476D02*
X2628Y1476D01*
X2647Y1476D02*
X2662Y1476D01*
X490Y1475D02*
X502Y1475D01*
X543Y1475D02*
X553Y1475D01*
X615Y1475D02*
X625Y1475D01*
X741Y1475D02*
X753Y1475D01*
X804Y1475D02*
X813Y1475D01*
X834Y1475D02*
X843Y1475D01*
X876Y1475D02*
X885Y1475D01*
X896Y1475D02*
X906Y1475D01*
X990Y1475D02*
X1037Y1475D01*
X1194Y1475D02*
X1203Y1475D01*
X1596Y1475D02*
X1605Y1475D01*
X2001Y1475D02*
X2010Y1475D01*
X2109Y1475D02*
X2119Y1475D01*
X2146Y1475D02*
X2157Y1475D01*
X2181Y1475D02*
X2190Y1475D01*
X2221Y1475D02*
X2230Y1475D01*
X2316Y1475D02*
X2326Y1475D01*
X2335Y1475D02*
X2345Y1475D01*
X2379Y1475D02*
X2388Y1475D01*
X2398Y1475D02*
X2407Y1475D01*
X2418Y1475D02*
X2427Y1475D01*
X2485Y1475D02*
X2496Y1475D01*
X2547Y1475D02*
X2556Y1475D01*
X2619Y1475D02*
X2628Y1475D01*
X2646Y1475D02*
X2661Y1475D01*
X491Y1474D02*
X503Y1474D01*
X544Y1474D02*
X553Y1474D01*
X615Y1474D02*
X625Y1474D01*
X742Y1474D02*
X754Y1474D01*
X804Y1474D02*
X813Y1474D01*
X834Y1474D02*
X843Y1474D01*
X875Y1474D02*
X885Y1474D01*
X896Y1474D02*
X906Y1474D01*
X990Y1474D02*
X1038Y1474D01*
X1194Y1474D02*
X1203Y1474D01*
X1596Y1474D02*
X1605Y1474D01*
X2001Y1474D02*
X2010Y1474D01*
X2109Y1474D02*
X2118Y1474D01*
X2148Y1474D02*
X2158Y1474D01*
X2181Y1474D02*
X2190Y1474D01*
X2221Y1474D02*
X2230Y1474D01*
X2316Y1474D02*
X2326Y1474D01*
X2336Y1474D02*
X2346Y1474D01*
X2379Y1474D02*
X2387Y1474D01*
X2398Y1474D02*
X2407Y1474D01*
X2419Y1474D02*
X2427Y1474D01*
X2485Y1474D02*
X2495Y1474D01*
X2547Y1474D02*
X2556Y1474D01*
X2619Y1474D02*
X2628Y1474D01*
X2645Y1474D02*
X2659Y1474D01*
X492Y1473D02*
X504Y1473D01*
X544Y1473D02*
X553Y1473D01*
X615Y1473D02*
X625Y1473D01*
X743Y1473D02*
X755Y1473D01*
X804Y1473D02*
X813Y1473D01*
X834Y1473D02*
X843Y1473D01*
X875Y1473D02*
X885Y1473D01*
X897Y1473D02*
X906Y1473D01*
X989Y1473D02*
X1038Y1473D01*
X1194Y1473D02*
X1203Y1473D01*
X1395Y1473D02*
X1437Y1473D01*
X1596Y1473D02*
X1605Y1473D01*
X2001Y1473D02*
X2010Y1473D01*
X2109Y1473D02*
X2119Y1473D01*
X2148Y1473D02*
X2158Y1473D01*
X2181Y1473D02*
X2190Y1473D01*
X2221Y1473D02*
X2230Y1473D01*
X2316Y1473D02*
X2326Y1473D01*
X2336Y1473D02*
X2346Y1473D01*
X2379Y1473D02*
X2387Y1473D01*
X2398Y1473D02*
X2407Y1473D01*
X2419Y1473D02*
X2427Y1473D01*
X2484Y1473D02*
X2495Y1473D01*
X2547Y1473D02*
X2556Y1473D01*
X2619Y1473D02*
X2628Y1473D01*
X2644Y1473D02*
X2658Y1473D01*
X493Y1472D02*
X505Y1472D01*
X544Y1472D02*
X553Y1472D01*
X615Y1472D02*
X625Y1472D01*
X743Y1472D02*
X755Y1472D01*
X804Y1472D02*
X813Y1472D01*
X833Y1472D02*
X843Y1472D01*
X875Y1472D02*
X884Y1472D01*
X897Y1472D02*
X906Y1472D01*
X989Y1472D02*
X1038Y1472D01*
X1194Y1472D02*
X1203Y1472D01*
X1393Y1472D02*
X1439Y1472D01*
X1596Y1472D02*
X1605Y1472D01*
X2001Y1472D02*
X2010Y1472D01*
X2109Y1472D02*
X2119Y1472D01*
X2149Y1472D02*
X2158Y1472D01*
X2181Y1472D02*
X2190Y1472D01*
X2221Y1472D02*
X2230Y1472D01*
X2316Y1472D02*
X2326Y1472D01*
X2337Y1472D02*
X2347Y1472D01*
X2380Y1472D02*
X2386Y1472D01*
X2398Y1472D02*
X2407Y1472D01*
X2420Y1472D02*
X2426Y1472D01*
X2484Y1472D02*
X2494Y1472D01*
X2547Y1472D02*
X2556Y1472D01*
X2619Y1472D02*
X2628Y1472D01*
X2642Y1472D02*
X2657Y1472D01*
X493Y1471D02*
X505Y1471D01*
X544Y1471D02*
X553Y1471D01*
X615Y1471D02*
X625Y1471D01*
X744Y1471D02*
X756Y1471D01*
X804Y1471D02*
X813Y1471D01*
X833Y1471D02*
X843Y1471D01*
X875Y1471D02*
X884Y1471D01*
X897Y1471D02*
X907Y1471D01*
X989Y1471D02*
X1038Y1471D01*
X1194Y1471D02*
X1203Y1471D01*
X1392Y1471D02*
X1439Y1471D01*
X1596Y1471D02*
X1605Y1471D01*
X2001Y1471D02*
X2010Y1471D01*
X2109Y1471D02*
X2120Y1471D01*
X2149Y1471D02*
X2158Y1471D01*
X2181Y1471D02*
X2190Y1471D01*
X2221Y1471D02*
X2230Y1471D01*
X2316Y1471D02*
X2326Y1471D01*
X2337Y1471D02*
X2347Y1471D01*
X2381Y1471D02*
X2385Y1471D01*
X2398Y1471D02*
X2407Y1471D01*
X2421Y1471D02*
X2425Y1471D01*
X2483Y1471D02*
X2494Y1471D01*
X2547Y1471D02*
X2556Y1471D01*
X2619Y1471D02*
X2628Y1471D01*
X2641Y1471D02*
X2656Y1471D01*
X494Y1470D02*
X506Y1470D01*
X544Y1470D02*
X554Y1470D01*
X615Y1470D02*
X625Y1470D01*
X745Y1470D02*
X757Y1470D01*
X804Y1470D02*
X813Y1470D01*
X833Y1470D02*
X842Y1470D01*
X874Y1470D02*
X884Y1470D01*
X897Y1470D02*
X907Y1470D01*
X989Y1470D02*
X1038Y1470D01*
X1194Y1470D02*
X1203Y1470D01*
X1392Y1470D02*
X1440Y1470D01*
X1595Y1470D02*
X1605Y1470D01*
X2001Y1470D02*
X2010Y1470D01*
X2110Y1470D02*
X2121Y1470D01*
X2149Y1470D02*
X2158Y1470D01*
X2181Y1470D02*
X2190Y1470D01*
X2221Y1470D02*
X2230Y1470D01*
X2316Y1470D02*
X2326Y1470D01*
X2338Y1470D02*
X2348Y1470D01*
X2398Y1470D02*
X2407Y1470D01*
X2483Y1470D02*
X2493Y1470D01*
X2547Y1470D02*
X2556Y1470D01*
X2619Y1470D02*
X2628Y1470D01*
X2640Y1470D02*
X2655Y1470D01*
X495Y1469D02*
X507Y1469D01*
X544Y1469D02*
X554Y1469D01*
X615Y1469D02*
X625Y1469D01*
X746Y1469D02*
X758Y1469D01*
X804Y1469D02*
X813Y1469D01*
X832Y1469D02*
X842Y1469D01*
X874Y1469D02*
X884Y1469D01*
X898Y1469D02*
X907Y1469D01*
X989Y1469D02*
X1038Y1469D01*
X1194Y1469D02*
X1203Y1469D01*
X1392Y1469D02*
X1440Y1469D01*
X1578Y1469D02*
X1622Y1469D01*
X2001Y1469D02*
X2010Y1469D01*
X2110Y1469D02*
X2122Y1469D01*
X2150Y1469D02*
X2157Y1469D01*
X2181Y1469D02*
X2190Y1469D01*
X2221Y1469D02*
X2230Y1469D01*
X2316Y1469D02*
X2326Y1469D01*
X2338Y1469D02*
X2348Y1469D01*
X2398Y1469D02*
X2407Y1469D01*
X2482Y1469D02*
X2493Y1469D01*
X2547Y1469D02*
X2556Y1469D01*
X2619Y1469D02*
X2628Y1469D01*
X2639Y1469D02*
X2654Y1469D01*
X496Y1468D02*
X508Y1468D01*
X545Y1468D02*
X555Y1468D01*
X615Y1468D02*
X625Y1468D01*
X747Y1468D02*
X759Y1468D01*
X804Y1468D02*
X813Y1468D01*
X832Y1468D02*
X842Y1468D01*
X874Y1468D02*
X883Y1468D01*
X898Y1468D02*
X908Y1468D01*
X989Y1468D02*
X1038Y1468D01*
X1194Y1468D02*
X1203Y1468D01*
X1391Y1468D02*
X1440Y1468D01*
X1577Y1468D02*
X1623Y1468D01*
X2001Y1468D02*
X2010Y1468D01*
X2111Y1468D02*
X2122Y1468D01*
X2150Y1468D02*
X2156Y1468D01*
X2181Y1468D02*
X2190Y1468D01*
X2221Y1468D02*
X2230Y1468D01*
X2316Y1468D02*
X2326Y1468D01*
X2339Y1468D02*
X2349Y1468D01*
X2398Y1468D02*
X2407Y1468D01*
X2482Y1468D02*
X2492Y1468D01*
X2547Y1468D02*
X2556Y1468D01*
X2619Y1468D02*
X2628Y1468D01*
X2638Y1468D02*
X2652Y1468D01*
X496Y1467D02*
X508Y1467D01*
X545Y1467D02*
X555Y1467D01*
X615Y1467D02*
X625Y1467D01*
X747Y1467D02*
X759Y1467D01*
X804Y1467D02*
X813Y1467D01*
X831Y1467D02*
X841Y1467D01*
X873Y1467D02*
X883Y1467D01*
X898Y1467D02*
X908Y1467D01*
X989Y1467D02*
X1038Y1467D01*
X1194Y1467D02*
X1203Y1467D01*
X1391Y1467D02*
X1440Y1467D01*
X1576Y1467D02*
X1624Y1467D01*
X2001Y1467D02*
X2010Y1467D01*
X2111Y1467D02*
X2123Y1467D01*
X2152Y1467D02*
X2155Y1467D01*
X2181Y1467D02*
X2190Y1467D01*
X2221Y1467D02*
X2230Y1467D01*
X2316Y1467D02*
X2326Y1467D01*
X2339Y1467D02*
X2349Y1467D01*
X2398Y1467D02*
X2407Y1467D01*
X2481Y1467D02*
X2492Y1467D01*
X2547Y1467D02*
X2556Y1467D01*
X2619Y1467D02*
X2628Y1467D01*
X2637Y1467D02*
X2651Y1467D01*
X497Y1466D02*
X509Y1466D01*
X546Y1466D02*
X556Y1466D01*
X615Y1466D02*
X625Y1466D01*
X748Y1466D02*
X760Y1466D01*
X804Y1466D02*
X813Y1466D01*
X831Y1466D02*
X841Y1466D01*
X873Y1466D02*
X883Y1466D01*
X899Y1466D02*
X908Y1466D01*
X990Y1466D02*
X1038Y1466D01*
X1179Y1466D02*
X1218Y1466D01*
X1391Y1466D02*
X1440Y1466D01*
X1576Y1466D02*
X1624Y1466D01*
X2001Y1466D02*
X2010Y1466D01*
X2112Y1466D02*
X2124Y1466D01*
X2181Y1466D02*
X2190Y1466D01*
X2221Y1466D02*
X2230Y1466D01*
X2316Y1466D02*
X2326Y1466D01*
X2340Y1466D02*
X2350Y1466D01*
X2398Y1466D02*
X2407Y1466D01*
X2481Y1466D02*
X2491Y1466D01*
X2547Y1466D02*
X2556Y1466D01*
X2619Y1466D02*
X2628Y1466D01*
X2635Y1466D02*
X2650Y1466D01*
X498Y1465D02*
X510Y1465D01*
X546Y1465D02*
X556Y1465D01*
X615Y1465D02*
X625Y1465D01*
X749Y1465D02*
X761Y1465D01*
X804Y1465D02*
X813Y1465D01*
X830Y1465D02*
X840Y1465D01*
X873Y1465D02*
X882Y1465D01*
X899Y1465D02*
X908Y1465D01*
X990Y1465D02*
X1037Y1465D01*
X1176Y1465D02*
X1221Y1465D01*
X1391Y1465D02*
X1440Y1465D01*
X1576Y1465D02*
X1625Y1465D01*
X2001Y1465D02*
X2010Y1465D01*
X2113Y1465D02*
X2125Y1465D01*
X2181Y1465D02*
X2190Y1465D01*
X2221Y1465D02*
X2230Y1465D01*
X2316Y1465D02*
X2326Y1465D01*
X2340Y1465D02*
X2350Y1465D01*
X2398Y1465D02*
X2407Y1465D01*
X2480Y1465D02*
X2490Y1465D01*
X2547Y1465D02*
X2556Y1465D01*
X2619Y1465D02*
X2628Y1465D01*
X2634Y1465D02*
X2649Y1465D01*
X499Y1464D02*
X511Y1464D01*
X547Y1464D02*
X557Y1464D01*
X615Y1464D02*
X625Y1464D01*
X750Y1464D02*
X762Y1464D01*
X804Y1464D02*
X813Y1464D01*
X830Y1464D02*
X840Y1464D01*
X873Y1464D02*
X882Y1464D01*
X899Y1464D02*
X909Y1464D01*
X991Y1464D02*
X1036Y1464D01*
X1175Y1464D02*
X1222Y1464D01*
X1392Y1464D02*
X1440Y1464D01*
X1576Y1464D02*
X1624Y1464D01*
X2001Y1464D02*
X2010Y1464D01*
X2114Y1464D02*
X2126Y1464D01*
X2181Y1464D02*
X2190Y1464D01*
X2221Y1464D02*
X2230Y1464D01*
X2316Y1464D02*
X2326Y1464D01*
X2341Y1464D02*
X2351Y1464D01*
X2398Y1464D02*
X2407Y1464D01*
X2480Y1464D02*
X2490Y1464D01*
X2547Y1464D02*
X2556Y1464D01*
X2619Y1464D02*
X2628Y1464D01*
X2633Y1464D02*
X2648Y1464D01*
X500Y1463D02*
X512Y1463D01*
X547Y1463D02*
X557Y1463D01*
X615Y1463D02*
X625Y1463D01*
X750Y1463D02*
X762Y1463D01*
X804Y1463D02*
X813Y1463D01*
X829Y1463D02*
X839Y1463D01*
X872Y1463D02*
X909Y1463D01*
X993Y1463D02*
X1034Y1463D01*
X1174Y1463D02*
X1222Y1463D01*
X1392Y1463D02*
X1440Y1463D01*
X1576Y1463D02*
X1624Y1463D01*
X2001Y1463D02*
X2010Y1463D01*
X2114Y1463D02*
X2126Y1463D01*
X2181Y1463D02*
X2190Y1463D01*
X2221Y1463D02*
X2230Y1463D01*
X2316Y1463D02*
X2326Y1463D01*
X2341Y1463D02*
X2351Y1463D01*
X2398Y1463D02*
X2407Y1463D01*
X2479Y1463D02*
X2489Y1463D01*
X2547Y1463D02*
X2556Y1463D01*
X2619Y1463D02*
X2628Y1463D01*
X2632Y1463D02*
X2647Y1463D01*
X500Y1462D02*
X512Y1462D01*
X547Y1462D02*
X558Y1462D01*
X615Y1462D02*
X625Y1462D01*
X751Y1462D02*
X763Y1462D01*
X804Y1462D02*
X813Y1462D01*
X829Y1462D02*
X839Y1462D01*
X872Y1462D02*
X909Y1462D01*
X1174Y1462D02*
X1223Y1462D01*
X1392Y1462D02*
X1440Y1462D01*
X1577Y1462D02*
X1624Y1462D01*
X1797Y1462D02*
X1839Y1462D01*
X1985Y1462D02*
X2027Y1462D01*
X2115Y1462D02*
X2127Y1462D01*
X2181Y1462D02*
X2190Y1462D01*
X2221Y1462D02*
X2230Y1462D01*
X2316Y1462D02*
X2326Y1462D01*
X2342Y1462D02*
X2352Y1462D01*
X2398Y1462D02*
X2407Y1462D01*
X2479Y1462D02*
X2489Y1462D01*
X2547Y1462D02*
X2556Y1462D01*
X2619Y1462D02*
X2628Y1462D01*
X2631Y1462D02*
X2645Y1462D01*
X501Y1461D02*
X513Y1461D01*
X548Y1461D02*
X558Y1461D01*
X615Y1461D02*
X625Y1461D01*
X752Y1461D02*
X764Y1461D01*
X804Y1461D02*
X813Y1461D01*
X828Y1461D02*
X838Y1461D01*
X872Y1461D02*
X910Y1461D01*
X1174Y1461D02*
X1223Y1461D01*
X1393Y1461D02*
X1439Y1461D01*
X1577Y1461D02*
X1623Y1461D01*
X1795Y1461D02*
X1840Y1461D01*
X1983Y1461D02*
X2028Y1461D01*
X2116Y1461D02*
X2128Y1461D01*
X2181Y1461D02*
X2190Y1461D01*
X2221Y1461D02*
X2230Y1461D01*
X2316Y1461D02*
X2326Y1461D01*
X2342Y1461D02*
X2352Y1461D01*
X2398Y1461D02*
X2407Y1461D01*
X2478Y1461D02*
X2488Y1461D01*
X2547Y1461D02*
X2556Y1461D01*
X2619Y1461D02*
X2644Y1461D01*
X502Y1460D02*
X514Y1460D01*
X548Y1460D02*
X559Y1460D01*
X615Y1460D02*
X625Y1460D01*
X753Y1460D02*
X765Y1460D01*
X804Y1460D02*
X813Y1460D01*
X828Y1460D02*
X838Y1460D01*
X871Y1460D02*
X910Y1460D01*
X1174Y1460D02*
X1223Y1460D01*
X1394Y1460D02*
X1438Y1460D01*
X1579Y1460D02*
X1621Y1460D01*
X1794Y1460D02*
X1841Y1460D01*
X1982Y1460D02*
X2029Y1460D01*
X2117Y1460D02*
X2129Y1460D01*
X2181Y1460D02*
X2190Y1460D01*
X2221Y1460D02*
X2230Y1460D01*
X2316Y1460D02*
X2326Y1460D01*
X2343Y1460D02*
X2353Y1460D01*
X2398Y1460D02*
X2407Y1460D01*
X2478Y1460D02*
X2488Y1460D01*
X2547Y1460D02*
X2556Y1460D01*
X2619Y1460D02*
X2643Y1460D01*
X503Y1459D02*
X515Y1459D01*
X549Y1459D02*
X559Y1459D01*
X615Y1459D02*
X625Y1459D01*
X754Y1459D02*
X766Y1459D01*
X804Y1459D02*
X813Y1459D01*
X827Y1459D02*
X837Y1459D01*
X871Y1459D02*
X910Y1459D01*
X1174Y1459D02*
X1222Y1459D01*
X1596Y1459D02*
X1605Y1459D01*
X1794Y1459D02*
X1842Y1459D01*
X1982Y1459D02*
X2030Y1459D01*
X2117Y1459D02*
X2129Y1459D01*
X2181Y1459D02*
X2190Y1459D01*
X2204Y1459D02*
X2207Y1459D01*
X2221Y1459D02*
X2230Y1459D01*
X2316Y1459D02*
X2326Y1459D01*
X2343Y1459D02*
X2353Y1459D01*
X2398Y1459D02*
X2407Y1459D01*
X2477Y1459D02*
X2487Y1459D01*
X2547Y1459D02*
X2556Y1459D01*
X2619Y1459D02*
X2642Y1459D01*
X503Y1458D02*
X516Y1458D01*
X549Y1458D02*
X560Y1458D01*
X615Y1458D02*
X625Y1458D01*
X754Y1458D02*
X766Y1458D01*
X804Y1458D02*
X813Y1458D01*
X827Y1458D02*
X837Y1458D01*
X871Y1458D02*
X910Y1458D01*
X1175Y1458D02*
X1222Y1458D01*
X1596Y1458D02*
X1605Y1458D01*
X1793Y1458D02*
X1842Y1458D01*
X1981Y1458D02*
X2030Y1458D01*
X2118Y1458D02*
X2130Y1458D01*
X2181Y1458D02*
X2190Y1458D01*
X2202Y1458D02*
X2209Y1458D01*
X2221Y1458D02*
X2230Y1458D01*
X2316Y1458D02*
X2326Y1458D01*
X2344Y1458D02*
X2354Y1458D01*
X2398Y1458D02*
X2407Y1458D01*
X2477Y1458D02*
X2487Y1458D01*
X2547Y1458D02*
X2556Y1458D01*
X2619Y1458D02*
X2641Y1458D01*
X504Y1457D02*
X516Y1457D01*
X550Y1457D02*
X560Y1457D01*
X615Y1457D02*
X625Y1457D01*
X755Y1457D02*
X767Y1457D01*
X804Y1457D02*
X813Y1457D01*
X826Y1457D02*
X836Y1457D01*
X870Y1457D02*
X911Y1457D01*
X1176Y1457D02*
X1221Y1457D01*
X1596Y1457D02*
X1605Y1457D01*
X1793Y1457D02*
X1842Y1457D01*
X1981Y1457D02*
X2030Y1457D01*
X2119Y1457D02*
X2131Y1457D01*
X2181Y1457D02*
X2190Y1457D01*
X2202Y1457D02*
X2209Y1457D01*
X2221Y1457D02*
X2230Y1457D01*
X2316Y1457D02*
X2326Y1457D01*
X2344Y1457D02*
X2354Y1457D01*
X2398Y1457D02*
X2407Y1457D01*
X2477Y1457D02*
X2486Y1457D01*
X2547Y1457D02*
X2556Y1457D01*
X2619Y1457D02*
X2639Y1457D01*
X505Y1456D02*
X517Y1456D01*
X550Y1456D02*
X561Y1456D01*
X615Y1456D02*
X625Y1456D01*
X756Y1456D02*
X768Y1456D01*
X804Y1456D02*
X813Y1456D01*
X826Y1456D02*
X836Y1456D01*
X870Y1456D02*
X911Y1456D01*
X1179Y1456D02*
X1218Y1456D01*
X1596Y1456D02*
X1605Y1456D01*
X1793Y1456D02*
X1842Y1456D01*
X1982Y1456D02*
X2030Y1456D01*
X2120Y1456D02*
X2132Y1456D01*
X2181Y1456D02*
X2190Y1456D01*
X2201Y1456D02*
X2210Y1456D01*
X2221Y1456D02*
X2230Y1456D01*
X2316Y1456D02*
X2326Y1456D01*
X2345Y1456D02*
X2354Y1456D01*
X2398Y1456D02*
X2407Y1456D01*
X2476Y1456D02*
X2486Y1456D01*
X2547Y1456D02*
X2556Y1456D01*
X2619Y1456D02*
X2638Y1456D01*
X475Y1455D02*
X477Y1455D01*
X506Y1455D02*
X518Y1455D01*
X551Y1455D02*
X561Y1455D01*
X615Y1455D02*
X625Y1455D01*
X726Y1455D02*
X728Y1455D01*
X757Y1455D02*
X769Y1455D01*
X804Y1455D02*
X813Y1455D01*
X825Y1455D02*
X835Y1455D01*
X870Y1455D02*
X911Y1455D01*
X1194Y1455D02*
X1203Y1455D01*
X1596Y1455D02*
X1605Y1455D01*
X1793Y1455D02*
X1842Y1455D01*
X1982Y1455D02*
X2029Y1455D01*
X2121Y1455D02*
X2133Y1455D01*
X2181Y1455D02*
X2190Y1455D01*
X2201Y1455D02*
X2210Y1455D01*
X2221Y1455D02*
X2230Y1455D01*
X2316Y1455D02*
X2326Y1455D01*
X2345Y1455D02*
X2355Y1455D01*
X2398Y1455D02*
X2407Y1455D01*
X2476Y1455D02*
X2486Y1455D01*
X2547Y1455D02*
X2556Y1455D01*
X2619Y1455D02*
X2637Y1455D01*
X473Y1454D02*
X479Y1454D01*
X507Y1454D02*
X519Y1454D01*
X551Y1454D02*
X562Y1454D01*
X615Y1454D02*
X625Y1454D01*
X724Y1454D02*
X730Y1454D01*
X757Y1454D02*
X769Y1454D01*
X804Y1454D02*
X813Y1454D01*
X825Y1454D02*
X835Y1454D01*
X870Y1454D02*
X912Y1454D01*
X1194Y1454D02*
X1203Y1454D01*
X1596Y1454D02*
X1605Y1454D01*
X1793Y1454D02*
X1842Y1454D01*
X1983Y1454D02*
X2029Y1454D01*
X2121Y1454D02*
X2133Y1454D01*
X2181Y1454D02*
X2190Y1454D01*
X2201Y1454D02*
X2210Y1454D01*
X2221Y1454D02*
X2230Y1454D01*
X2316Y1454D02*
X2326Y1454D01*
X2345Y1454D02*
X2355Y1454D01*
X2398Y1454D02*
X2407Y1454D01*
X2476Y1454D02*
X2485Y1454D01*
X2547Y1454D02*
X2556Y1454D01*
X2619Y1454D02*
X2636Y1454D01*
X472Y1453D02*
X480Y1453D01*
X507Y1453D02*
X519Y1453D01*
X552Y1453D02*
X562Y1453D01*
X615Y1453D02*
X625Y1453D01*
X723Y1453D02*
X730Y1453D01*
X758Y1453D02*
X770Y1453D01*
X804Y1453D02*
X813Y1453D01*
X824Y1453D02*
X834Y1453D01*
X869Y1453D02*
X879Y1453D01*
X903Y1453D02*
X912Y1453D01*
X1194Y1453D02*
X1203Y1453D01*
X1596Y1453D02*
X1605Y1453D01*
X1793Y1453D02*
X1842Y1453D01*
X1984Y1453D02*
X2027Y1453D01*
X2122Y1453D02*
X2134Y1453D01*
X2181Y1453D02*
X2190Y1453D01*
X2201Y1453D02*
X2210Y1453D01*
X2221Y1453D02*
X2230Y1453D01*
X2316Y1453D02*
X2326Y1453D01*
X2346Y1453D02*
X2355Y1453D01*
X2398Y1453D02*
X2407Y1453D01*
X2476Y1453D02*
X2485Y1453D01*
X2547Y1453D02*
X2556Y1453D01*
X2619Y1453D02*
X2635Y1453D01*
X472Y1452D02*
X480Y1452D01*
X508Y1452D02*
X520Y1452D01*
X552Y1452D02*
X563Y1452D01*
X615Y1452D02*
X625Y1452D01*
X723Y1452D02*
X731Y1452D01*
X759Y1452D02*
X770Y1452D01*
X804Y1452D02*
X813Y1452D01*
X824Y1452D02*
X834Y1452D01*
X869Y1452D02*
X879Y1452D01*
X903Y1452D02*
X912Y1452D01*
X1194Y1452D02*
X1203Y1452D01*
X1596Y1452D02*
X1605Y1452D01*
X1793Y1452D02*
X1842Y1452D01*
X2001Y1452D02*
X2010Y1452D01*
X2123Y1452D02*
X2135Y1452D01*
X2181Y1452D02*
X2190Y1452D01*
X2201Y1452D02*
X2210Y1452D01*
X2221Y1452D02*
X2230Y1452D01*
X2316Y1452D02*
X2326Y1452D01*
X2346Y1452D02*
X2355Y1452D01*
X2398Y1452D02*
X2407Y1452D01*
X2475Y1452D02*
X2485Y1452D01*
X2547Y1452D02*
X2556Y1452D01*
X2619Y1452D02*
X2634Y1452D01*
X472Y1451D02*
X480Y1451D01*
X509Y1451D02*
X520Y1451D01*
X553Y1451D02*
X563Y1451D01*
X615Y1451D02*
X625Y1451D01*
X722Y1451D02*
X731Y1451D01*
X760Y1451D02*
X771Y1451D01*
X804Y1451D02*
X813Y1451D01*
X823Y1451D02*
X833Y1451D01*
X869Y1451D02*
X878Y1451D01*
X903Y1451D02*
X913Y1451D01*
X1194Y1451D02*
X1203Y1451D01*
X1596Y1451D02*
X1605Y1451D01*
X1794Y1451D02*
X1842Y1451D01*
X2001Y1451D02*
X2010Y1451D01*
X2124Y1451D02*
X2136Y1451D01*
X2181Y1451D02*
X2190Y1451D01*
X2201Y1451D02*
X2210Y1451D01*
X2221Y1451D02*
X2230Y1451D01*
X2316Y1451D02*
X2326Y1451D01*
X2346Y1451D02*
X2355Y1451D01*
X2398Y1451D02*
X2407Y1451D01*
X2475Y1451D02*
X2485Y1451D01*
X2547Y1451D02*
X2556Y1451D01*
X2619Y1451D02*
X2632Y1451D01*
X471Y1450D02*
X481Y1450D01*
X510Y1450D02*
X520Y1450D01*
X554Y1450D02*
X564Y1450D01*
X615Y1450D02*
X625Y1450D01*
X722Y1450D02*
X731Y1450D01*
X761Y1450D02*
X771Y1450D01*
X804Y1450D02*
X813Y1450D01*
X823Y1450D02*
X833Y1450D01*
X868Y1450D02*
X878Y1450D01*
X903Y1450D02*
X913Y1450D01*
X1194Y1450D02*
X1203Y1450D01*
X1596Y1450D02*
X1605Y1450D01*
X1794Y1450D02*
X1841Y1450D01*
X2001Y1450D02*
X2010Y1450D01*
X2124Y1450D02*
X2136Y1450D01*
X2181Y1450D02*
X2190Y1450D01*
X2201Y1450D02*
X2210Y1450D01*
X2221Y1450D02*
X2230Y1450D01*
X2316Y1450D02*
X2326Y1450D01*
X2346Y1450D02*
X2355Y1450D01*
X2398Y1450D02*
X2407Y1450D01*
X2475Y1450D02*
X2485Y1450D01*
X2547Y1450D02*
X2556Y1450D01*
X2619Y1450D02*
X2631Y1450D01*
X472Y1449D02*
X481Y1449D01*
X510Y1449D02*
X520Y1449D01*
X554Y1449D02*
X565Y1449D01*
X615Y1449D02*
X625Y1449D01*
X722Y1449D02*
X732Y1449D01*
X761Y1449D02*
X771Y1449D01*
X804Y1449D02*
X813Y1449D01*
X822Y1449D02*
X832Y1449D01*
X868Y1449D02*
X878Y1449D01*
X904Y1449D02*
X913Y1449D01*
X1194Y1449D02*
X1203Y1449D01*
X1596Y1449D02*
X1605Y1449D01*
X1795Y1449D02*
X1840Y1449D01*
X2001Y1449D02*
X2010Y1449D01*
X2125Y1449D02*
X2137Y1449D01*
X2181Y1449D02*
X2190Y1449D01*
X2201Y1449D02*
X2210Y1449D01*
X2221Y1449D02*
X2230Y1449D01*
X2316Y1449D02*
X2326Y1449D01*
X2346Y1449D02*
X2355Y1449D01*
X2398Y1449D02*
X2407Y1449D01*
X2475Y1449D02*
X2485Y1449D01*
X2547Y1449D02*
X2556Y1449D01*
X2619Y1449D02*
X2632Y1449D01*
X472Y1448D02*
X481Y1448D01*
X511Y1448D02*
X520Y1448D01*
X555Y1448D02*
X565Y1448D01*
X615Y1448D02*
X625Y1448D01*
X723Y1448D02*
X732Y1448D01*
X762Y1448D02*
X771Y1448D01*
X804Y1448D02*
X813Y1448D01*
X821Y1448D02*
X832Y1448D01*
X868Y1448D02*
X877Y1448D01*
X904Y1448D02*
X913Y1448D01*
X1194Y1448D02*
X1203Y1448D01*
X1596Y1448D02*
X1605Y1448D01*
X1798Y1448D02*
X1837Y1448D01*
X2001Y1448D02*
X2010Y1448D01*
X2126Y1448D02*
X2138Y1448D01*
X2181Y1448D02*
X2190Y1448D01*
X2201Y1448D02*
X2210Y1448D01*
X2221Y1448D02*
X2230Y1448D01*
X2316Y1448D02*
X2326Y1448D01*
X2346Y1448D02*
X2355Y1448D01*
X2398Y1448D02*
X2407Y1448D01*
X2475Y1448D02*
X2485Y1448D01*
X2547Y1448D02*
X2556Y1448D01*
X2619Y1448D02*
X2633Y1448D01*
X472Y1447D02*
X483Y1447D01*
X510Y1447D02*
X520Y1447D01*
X555Y1447D02*
X567Y1447D01*
X615Y1447D02*
X625Y1447D01*
X723Y1447D02*
X734Y1447D01*
X761Y1447D02*
X771Y1447D01*
X804Y1447D02*
X814Y1447D01*
X819Y1447D02*
X831Y1447D01*
X868Y1447D02*
X877Y1447D01*
X904Y1447D02*
X914Y1447D01*
X1194Y1447D02*
X1203Y1447D01*
X1596Y1447D02*
X1605Y1447D01*
X2001Y1447D02*
X2010Y1447D01*
X2127Y1447D02*
X2139Y1447D01*
X2181Y1447D02*
X2190Y1447D01*
X2201Y1447D02*
X2210Y1447D01*
X2221Y1447D02*
X2230Y1447D01*
X2316Y1447D02*
X2326Y1447D01*
X2346Y1447D02*
X2355Y1447D01*
X2398Y1447D02*
X2407Y1447D01*
X2476Y1447D02*
X2485Y1447D01*
X2547Y1447D02*
X2556Y1447D01*
X2619Y1447D02*
X2635Y1447D01*
X472Y1446D02*
X520Y1446D01*
X556Y1446D02*
X590Y1446D01*
X615Y1446D02*
X662Y1446D01*
X723Y1446D02*
X771Y1446D01*
X797Y1446D02*
X831Y1446D01*
X867Y1446D02*
X877Y1446D01*
X905Y1446D02*
X914Y1446D01*
X1194Y1446D02*
X1203Y1446D01*
X1596Y1446D02*
X1605Y1446D01*
X2001Y1446D02*
X2010Y1446D01*
X2128Y1446D02*
X2140Y1446D01*
X2181Y1446D02*
X2190Y1446D01*
X2201Y1446D02*
X2210Y1446D01*
X2221Y1446D02*
X2230Y1446D01*
X2316Y1446D02*
X2326Y1446D01*
X2345Y1446D02*
X2355Y1446D01*
X2398Y1446D02*
X2407Y1446D01*
X2476Y1446D02*
X2485Y1446D01*
X2547Y1446D02*
X2556Y1446D01*
X2619Y1446D02*
X2636Y1446D01*
X473Y1445D02*
X520Y1445D01*
X556Y1445D02*
X591Y1445D01*
X615Y1445D02*
X663Y1445D01*
X723Y1445D02*
X771Y1445D01*
X796Y1445D02*
X831Y1445D01*
X867Y1445D02*
X876Y1445D01*
X905Y1445D02*
X914Y1445D01*
X1194Y1445D02*
X1203Y1445D01*
X1596Y1445D02*
X1605Y1445D01*
X2001Y1445D02*
X2010Y1445D01*
X2128Y1445D02*
X2140Y1445D01*
X2181Y1445D02*
X2190Y1445D01*
X2201Y1445D02*
X2210Y1445D01*
X2221Y1445D02*
X2230Y1445D01*
X2316Y1445D02*
X2326Y1445D01*
X2345Y1445D02*
X2355Y1445D01*
X2398Y1445D02*
X2407Y1445D01*
X2476Y1445D02*
X2485Y1445D01*
X2547Y1445D02*
X2556Y1445D01*
X2619Y1445D02*
X2637Y1445D01*
X473Y1444D02*
X519Y1444D01*
X557Y1444D02*
X592Y1444D01*
X615Y1444D02*
X664Y1444D01*
X724Y1444D02*
X770Y1444D01*
X795Y1444D02*
X830Y1444D01*
X867Y1444D02*
X876Y1444D01*
X905Y1444D02*
X915Y1444D01*
X1194Y1444D02*
X1203Y1444D01*
X1596Y1444D02*
X1605Y1444D01*
X2001Y1444D02*
X2010Y1444D01*
X2129Y1444D02*
X2141Y1444D01*
X2181Y1444D02*
X2190Y1444D01*
X2201Y1444D02*
X2210Y1444D01*
X2221Y1444D02*
X2230Y1444D01*
X2316Y1444D02*
X2326Y1444D01*
X2345Y1444D02*
X2354Y1444D01*
X2398Y1444D02*
X2407Y1444D01*
X2476Y1444D02*
X2486Y1444D01*
X2547Y1444D02*
X2556Y1444D01*
X2619Y1444D02*
X2638Y1444D01*
X474Y1443D02*
X519Y1443D01*
X557Y1443D02*
X592Y1443D01*
X615Y1443D02*
X664Y1443D01*
X724Y1443D02*
X770Y1443D01*
X795Y1443D02*
X829Y1443D01*
X866Y1443D02*
X876Y1443D01*
X905Y1443D02*
X915Y1443D01*
X1194Y1443D02*
X1203Y1443D01*
X1596Y1443D02*
X1604Y1443D01*
X2001Y1443D02*
X2010Y1443D01*
X2130Y1443D02*
X2142Y1443D01*
X2181Y1443D02*
X2190Y1443D01*
X2201Y1443D02*
X2210Y1443D01*
X2221Y1443D02*
X2230Y1443D01*
X2316Y1443D02*
X2326Y1443D01*
X2344Y1443D02*
X2354Y1443D01*
X2398Y1443D02*
X2407Y1443D01*
X2476Y1443D02*
X2486Y1443D01*
X2547Y1443D02*
X2556Y1443D01*
X2619Y1443D02*
X2639Y1443D01*
X474Y1442D02*
X518Y1442D01*
X558Y1442D02*
X592Y1442D01*
X615Y1442D02*
X664Y1442D01*
X725Y1442D02*
X769Y1442D01*
X794Y1442D02*
X829Y1442D01*
X866Y1442D02*
X876Y1442D01*
X906Y1442D02*
X915Y1442D01*
X1194Y1442D02*
X1203Y1442D01*
X1597Y1442D02*
X1604Y1442D01*
X2001Y1442D02*
X2010Y1442D01*
X2131Y1442D02*
X2143Y1442D01*
X2181Y1442D02*
X2190Y1442D01*
X2201Y1442D02*
X2210Y1442D01*
X2221Y1442D02*
X2230Y1442D01*
X2316Y1442D02*
X2326Y1442D01*
X2344Y1442D02*
X2354Y1442D01*
X2398Y1442D02*
X2407Y1442D01*
X2477Y1442D02*
X2487Y1442D01*
X2547Y1442D02*
X2556Y1442D01*
X2619Y1442D02*
X2640Y1442D01*
X475Y1441D02*
X518Y1441D01*
X559Y1441D02*
X592Y1441D01*
X615Y1441D02*
X664Y1441D01*
X726Y1441D02*
X768Y1441D01*
X794Y1441D02*
X828Y1441D01*
X866Y1441D02*
X875Y1441D01*
X906Y1441D02*
X915Y1441D01*
X1194Y1441D02*
X1203Y1441D01*
X1597Y1441D02*
X1603Y1441D01*
X2001Y1441D02*
X2010Y1441D01*
X2131Y1441D02*
X2143Y1441D01*
X2181Y1441D02*
X2190Y1441D01*
X2201Y1441D02*
X2210Y1441D01*
X2221Y1441D02*
X2230Y1441D01*
X2316Y1441D02*
X2326Y1441D01*
X2343Y1441D02*
X2353Y1441D01*
X2398Y1441D02*
X2407Y1441D01*
X2477Y1441D02*
X2487Y1441D01*
X2547Y1441D02*
X2556Y1441D01*
X2619Y1441D02*
X2642Y1441D01*
X476Y1440D02*
X517Y1440D01*
X560Y1440D02*
X592Y1440D01*
X615Y1440D02*
X664Y1440D01*
X727Y1440D02*
X768Y1440D01*
X795Y1440D02*
X826Y1440D01*
X866Y1440D02*
X875Y1440D01*
X906Y1440D02*
X915Y1440D01*
X1194Y1440D02*
X1203Y1440D01*
X1599Y1440D02*
X1601Y1440D01*
X2001Y1440D02*
X2010Y1440D01*
X2132Y1440D02*
X2144Y1440D01*
X2181Y1440D02*
X2190Y1440D01*
X2201Y1440D02*
X2210Y1440D01*
X2221Y1440D02*
X2230Y1440D01*
X2316Y1440D02*
X2326Y1440D01*
X2343Y1440D02*
X2353Y1440D01*
X2398Y1440D02*
X2407Y1440D01*
X2478Y1440D02*
X2488Y1440D01*
X2547Y1440D02*
X2556Y1440D01*
X2619Y1440D02*
X2643Y1440D01*
X478Y1439D02*
X516Y1439D01*
X562Y1439D02*
X591Y1439D01*
X615Y1439D02*
X663Y1439D01*
X728Y1439D02*
X766Y1439D01*
X795Y1439D02*
X825Y1439D01*
X867Y1439D02*
X874Y1439D01*
X907Y1439D02*
X914Y1439D01*
X1194Y1439D02*
X1202Y1439D01*
X2001Y1439D02*
X2010Y1439D01*
X2133Y1439D02*
X2145Y1439D01*
X2181Y1439D02*
X2190Y1439D01*
X2201Y1439D02*
X2210Y1439D01*
X2221Y1439D02*
X2230Y1439D01*
X2316Y1439D02*
X2326Y1439D01*
X2342Y1439D02*
X2353Y1439D01*
X2398Y1439D02*
X2407Y1439D01*
X2478Y1439D02*
X2488Y1439D01*
X2547Y1439D02*
X2556Y1439D01*
X2619Y1439D02*
X2644Y1439D01*
X479Y1438D02*
X514Y1438D01*
X564Y1438D02*
X590Y1438D01*
X615Y1438D02*
X662Y1438D01*
X730Y1438D02*
X765Y1438D01*
X796Y1438D02*
X823Y1438D01*
X868Y1438D02*
X874Y1438D01*
X908Y1438D02*
X913Y1438D01*
X1195Y1438D02*
X1202Y1438D01*
X2001Y1438D02*
X2010Y1438D01*
X2134Y1438D02*
X2146Y1438D01*
X2181Y1438D02*
X2190Y1438D01*
X2201Y1438D02*
X2210Y1438D01*
X2221Y1438D02*
X2230Y1438D01*
X2316Y1438D02*
X2326Y1438D01*
X2342Y1438D02*
X2352Y1438D01*
X2398Y1438D02*
X2407Y1438D01*
X2479Y1438D02*
X2489Y1438D01*
X2547Y1438D02*
X2556Y1438D01*
X2619Y1438D02*
X2628Y1438D01*
X2631Y1438D02*
X2645Y1438D01*
X482Y1437D02*
X511Y1437D01*
X567Y1437D02*
X589Y1437D01*
X616Y1437D02*
X661Y1437D01*
X733Y1437D02*
X762Y1437D01*
X798Y1437D02*
X820Y1437D01*
X870Y1437D02*
X872Y1437D01*
X909Y1437D02*
X911Y1437D01*
X1196Y1437D02*
X1201Y1437D01*
X2001Y1437D02*
X2010Y1437D01*
X2135Y1437D02*
X2147Y1437D01*
X2181Y1437D02*
X2190Y1437D01*
X2201Y1437D02*
X2210Y1437D01*
X2221Y1437D02*
X2230Y1437D01*
X2316Y1437D02*
X2326Y1437D01*
X2341Y1437D02*
X2352Y1437D01*
X2398Y1437D02*
X2407Y1437D01*
X2479Y1437D02*
X2489Y1437D01*
X2547Y1437D02*
X2556Y1437D01*
X2619Y1437D02*
X2628Y1437D01*
X2632Y1437D02*
X2646Y1437D01*
X2001Y1436D02*
X2010Y1436D01*
X2135Y1436D02*
X2147Y1436D01*
X2181Y1436D02*
X2190Y1436D01*
X2201Y1436D02*
X2210Y1436D01*
X2221Y1436D02*
X2230Y1436D01*
X2316Y1436D02*
X2326Y1436D01*
X2341Y1436D02*
X2351Y1436D01*
X2398Y1436D02*
X2407Y1436D01*
X2480Y1436D02*
X2490Y1436D01*
X2547Y1436D02*
X2556Y1436D01*
X2619Y1436D02*
X2628Y1436D01*
X2633Y1436D02*
X2647Y1436D01*
X2002Y1435D02*
X2009Y1435D01*
X2136Y1435D02*
X2148Y1435D01*
X2181Y1435D02*
X2190Y1435D01*
X2201Y1435D02*
X2210Y1435D01*
X2221Y1435D02*
X2230Y1435D01*
X2316Y1435D02*
X2326Y1435D01*
X2340Y1435D02*
X2351Y1435D01*
X2398Y1435D02*
X2407Y1435D01*
X2480Y1435D02*
X2490Y1435D01*
X2547Y1435D02*
X2556Y1435D01*
X2619Y1435D02*
X2628Y1435D01*
X2634Y1435D02*
X2649Y1435D01*
X2003Y1434D02*
X2009Y1434D01*
X2137Y1434D02*
X2149Y1434D01*
X2181Y1434D02*
X2190Y1434D01*
X2201Y1434D02*
X2210Y1434D01*
X2221Y1434D02*
X2230Y1434D01*
X2316Y1434D02*
X2326Y1434D01*
X2340Y1434D02*
X2350Y1434D01*
X2398Y1434D02*
X2407Y1434D01*
X2480Y1434D02*
X2491Y1434D01*
X2547Y1434D02*
X2556Y1434D01*
X2619Y1434D02*
X2628Y1434D01*
X2635Y1434D02*
X2650Y1434D01*
X2004Y1433D02*
X2007Y1433D01*
X2138Y1433D02*
X2150Y1433D01*
X2181Y1433D02*
X2190Y1433D01*
X2201Y1433D02*
X2210Y1433D01*
X2221Y1433D02*
X2230Y1433D01*
X2316Y1433D02*
X2326Y1433D01*
X2339Y1433D02*
X2350Y1433D01*
X2398Y1433D02*
X2407Y1433D01*
X2481Y1433D02*
X2491Y1433D01*
X2547Y1433D02*
X2556Y1433D01*
X2619Y1433D02*
X2628Y1433D01*
X2636Y1433D02*
X2651Y1433D01*
X2138Y1432D02*
X2150Y1432D01*
X2181Y1432D02*
X2190Y1432D01*
X2201Y1432D02*
X2210Y1432D01*
X2221Y1432D02*
X2230Y1432D01*
X2316Y1432D02*
X2326Y1432D01*
X2339Y1432D02*
X2349Y1432D01*
X2398Y1432D02*
X2407Y1432D01*
X2481Y1432D02*
X2492Y1432D01*
X2547Y1432D02*
X2556Y1432D01*
X2619Y1432D02*
X2628Y1432D01*
X2638Y1432D02*
X2652Y1432D01*
X2139Y1431D02*
X2151Y1431D01*
X2181Y1431D02*
X2190Y1431D01*
X2201Y1431D02*
X2210Y1431D01*
X2221Y1431D02*
X2230Y1431D01*
X2316Y1431D02*
X2326Y1431D01*
X2338Y1431D02*
X2349Y1431D01*
X2398Y1431D02*
X2407Y1431D01*
X2482Y1431D02*
X2492Y1431D01*
X2547Y1431D02*
X2556Y1431D01*
X2619Y1431D02*
X2628Y1431D01*
X2639Y1431D02*
X2653Y1431D01*
X2140Y1430D02*
X2152Y1430D01*
X2181Y1430D02*
X2190Y1430D01*
X2201Y1430D02*
X2210Y1430D01*
X2221Y1430D02*
X2230Y1430D01*
X2316Y1430D02*
X2326Y1430D01*
X2338Y1430D02*
X2348Y1430D01*
X2398Y1430D02*
X2407Y1430D01*
X2482Y1430D02*
X2493Y1430D01*
X2547Y1430D02*
X2556Y1430D01*
X2619Y1430D02*
X2628Y1430D01*
X2640Y1430D02*
X2654Y1430D01*
X2141Y1429D02*
X2153Y1429D01*
X2181Y1429D02*
X2190Y1429D01*
X2201Y1429D02*
X2210Y1429D01*
X2221Y1429D02*
X2230Y1429D01*
X2316Y1429D02*
X2326Y1429D01*
X2337Y1429D02*
X2348Y1429D01*
X2398Y1429D02*
X2407Y1429D01*
X2483Y1429D02*
X2493Y1429D01*
X2547Y1429D02*
X2556Y1429D01*
X2619Y1429D02*
X2628Y1429D01*
X2641Y1429D02*
X2656Y1429D01*
X2142Y1428D02*
X2154Y1428D01*
X2181Y1428D02*
X2190Y1428D01*
X2201Y1428D02*
X2210Y1428D01*
X2221Y1428D02*
X2230Y1428D01*
X2316Y1428D02*
X2326Y1428D01*
X2337Y1428D02*
X2347Y1428D01*
X2398Y1428D02*
X2407Y1428D01*
X2484Y1428D02*
X2494Y1428D01*
X2547Y1428D02*
X2556Y1428D01*
X2619Y1428D02*
X2628Y1428D01*
X2642Y1428D02*
X2657Y1428D01*
X2142Y1427D02*
X2154Y1427D01*
X2181Y1427D02*
X2190Y1427D01*
X2201Y1427D02*
X2210Y1427D01*
X2221Y1427D02*
X2230Y1427D01*
X2316Y1427D02*
X2326Y1427D01*
X2336Y1427D02*
X2347Y1427D01*
X2398Y1427D02*
X2407Y1427D01*
X2484Y1427D02*
X2494Y1427D01*
X2547Y1427D02*
X2556Y1427D01*
X2619Y1427D02*
X2628Y1427D01*
X2643Y1427D02*
X2658Y1427D01*
X2143Y1426D02*
X2155Y1426D01*
X2181Y1426D02*
X2190Y1426D01*
X2201Y1426D02*
X2210Y1426D01*
X2221Y1426D02*
X2230Y1426D01*
X2316Y1426D02*
X2326Y1426D01*
X2336Y1426D02*
X2346Y1426D01*
X2398Y1426D02*
X2407Y1426D01*
X2485Y1426D02*
X2495Y1426D01*
X2547Y1426D02*
X2556Y1426D01*
X2619Y1426D02*
X2628Y1426D01*
X2645Y1426D02*
X2659Y1426D01*
X2112Y1425D02*
X2116Y1425D01*
X2144Y1425D02*
X2156Y1425D01*
X2181Y1425D02*
X2190Y1425D01*
X2201Y1425D02*
X2210Y1425D01*
X2221Y1425D02*
X2230Y1425D01*
X2316Y1425D02*
X2326Y1425D01*
X2335Y1425D02*
X2346Y1425D01*
X2398Y1425D02*
X2407Y1425D01*
X2485Y1425D02*
X2495Y1425D01*
X2547Y1425D02*
X2556Y1425D01*
X2619Y1425D02*
X2628Y1425D01*
X2646Y1425D02*
X2660Y1425D01*
X2110Y1424D02*
X2117Y1424D01*
X2145Y1424D02*
X2157Y1424D01*
X2181Y1424D02*
X2190Y1424D01*
X2201Y1424D02*
X2210Y1424D01*
X2221Y1424D02*
X2230Y1424D01*
X2316Y1424D02*
X2326Y1424D01*
X2335Y1424D02*
X2345Y1424D01*
X2398Y1424D02*
X2407Y1424D01*
X2486Y1424D02*
X2496Y1424D01*
X2547Y1424D02*
X2556Y1424D01*
X2619Y1424D02*
X2628Y1424D01*
X2647Y1424D02*
X2661Y1424D01*
X2110Y1423D02*
X2118Y1423D01*
X2145Y1423D02*
X2157Y1423D01*
X2181Y1423D02*
X2190Y1423D01*
X2201Y1423D02*
X2210Y1423D01*
X2221Y1423D02*
X2230Y1423D01*
X2316Y1423D02*
X2326Y1423D01*
X2334Y1423D02*
X2345Y1423D01*
X2398Y1423D02*
X2407Y1423D01*
X2486Y1423D02*
X2497Y1423D01*
X2547Y1423D02*
X2556Y1423D01*
X2619Y1423D02*
X2628Y1423D01*
X2648Y1423D02*
X2663Y1423D01*
X2109Y1422D02*
X2118Y1422D01*
X2146Y1422D02*
X2157Y1422D01*
X2181Y1422D02*
X2190Y1422D01*
X2201Y1422D02*
X2210Y1422D01*
X2221Y1422D02*
X2230Y1422D01*
X2316Y1422D02*
X2326Y1422D01*
X2333Y1422D02*
X2344Y1422D01*
X2398Y1422D02*
X2407Y1422D01*
X2487Y1422D02*
X2498Y1422D01*
X2547Y1422D02*
X2556Y1422D01*
X2619Y1422D02*
X2628Y1422D01*
X2649Y1422D02*
X2664Y1422D01*
X2109Y1421D02*
X2118Y1421D01*
X2147Y1421D02*
X2158Y1421D01*
X2181Y1421D02*
X2191Y1421D01*
X2200Y1421D02*
X2211Y1421D01*
X2220Y1421D02*
X2230Y1421D01*
X2312Y1421D02*
X2344Y1421D01*
X2398Y1421D02*
X2407Y1421D01*
X2487Y1421D02*
X2519Y1421D01*
X2547Y1421D02*
X2591Y1421D01*
X2619Y1421D02*
X2628Y1421D01*
X2650Y1421D02*
X2665Y1421D01*
X2109Y1420D02*
X2118Y1420D01*
X2148Y1420D02*
X2158Y1420D01*
X2181Y1420D02*
X2191Y1420D01*
X2200Y1420D02*
X2211Y1420D01*
X2220Y1420D02*
X2230Y1420D01*
X2309Y1420D02*
X2343Y1420D01*
X2398Y1420D02*
X2407Y1420D01*
X2488Y1420D02*
X2522Y1420D01*
X2547Y1420D02*
X2594Y1420D01*
X2619Y1420D02*
X2628Y1420D01*
X2652Y1420D02*
X2666Y1420D01*
X2109Y1419D02*
X2119Y1419D01*
X2148Y1419D02*
X2158Y1419D01*
X2181Y1419D02*
X2192Y1419D01*
X2199Y1419D02*
X2212Y1419D01*
X2219Y1419D02*
X2230Y1419D01*
X2308Y1419D02*
X2343Y1419D01*
X2398Y1419D02*
X2407Y1419D01*
X2488Y1419D02*
X2523Y1419D01*
X2547Y1419D02*
X2595Y1419D01*
X2619Y1419D02*
X2628Y1419D01*
X2653Y1419D02*
X2667Y1419D01*
X2109Y1418D02*
X2120Y1418D01*
X2149Y1418D02*
X2158Y1418D01*
X2182Y1418D02*
X2193Y1418D01*
X2198Y1418D02*
X2212Y1418D01*
X2218Y1418D02*
X2229Y1418D01*
X2307Y1418D02*
X2342Y1418D01*
X2398Y1418D02*
X2407Y1418D01*
X2489Y1418D02*
X2524Y1418D01*
X2547Y1418D02*
X2596Y1418D01*
X2619Y1418D02*
X2628Y1418D01*
X2654Y1418D02*
X2668Y1418D01*
X2110Y1417D02*
X2158Y1417D01*
X2183Y1417D02*
X2228Y1417D01*
X2307Y1417D02*
X2341Y1417D01*
X2398Y1417D02*
X2407Y1417D01*
X2489Y1417D02*
X2524Y1417D01*
X2547Y1417D02*
X2596Y1417D01*
X2619Y1417D02*
X2628Y1417D01*
X2655Y1417D02*
X2668Y1417D01*
X2110Y1416D02*
X2157Y1416D01*
X2183Y1416D02*
X2228Y1416D01*
X2307Y1416D02*
X2341Y1416D01*
X2398Y1416D02*
X2407Y1416D01*
X2490Y1416D02*
X2524Y1416D01*
X2547Y1416D02*
X2596Y1416D01*
X2619Y1416D02*
X2628Y1416D01*
X2656Y1416D02*
X2668Y1416D01*
X2110Y1415D02*
X2157Y1415D01*
X2184Y1415D02*
X2227Y1415D01*
X2307Y1415D02*
X2340Y1415D01*
X2399Y1415D02*
X2407Y1415D01*
X2491Y1415D02*
X2524Y1415D01*
X2547Y1415D02*
X2596Y1415D01*
X2620Y1415D02*
X2628Y1415D01*
X2657Y1415D02*
X2668Y1415D01*
X2111Y1414D02*
X2157Y1414D01*
X2184Y1414D02*
X2227Y1414D01*
X2307Y1414D02*
X2338Y1414D01*
X2399Y1414D02*
X2407Y1414D01*
X2493Y1414D02*
X2524Y1414D01*
X2547Y1414D02*
X2596Y1414D01*
X2620Y1414D02*
X2628Y1414D01*
X2659Y1414D02*
X2668Y1414D01*
X2112Y1413D02*
X2156Y1413D01*
X2185Y1413D02*
X2226Y1413D01*
X2308Y1413D02*
X2337Y1413D01*
X2399Y1413D02*
X2406Y1413D01*
X2494Y1413D02*
X2523Y1413D01*
X2547Y1413D02*
X2595Y1413D01*
X2620Y1413D02*
X2627Y1413D01*
X2660Y1413D02*
X2667Y1413D01*
X2112Y1412D02*
X2156Y1412D01*
X2185Y1412D02*
X2226Y1412D01*
X2309Y1412D02*
X2335Y1412D01*
X2400Y1412D02*
X2405Y1412D01*
X2496Y1412D02*
X2522Y1412D01*
X2547Y1412D02*
X2594Y1412D01*
X2621Y1412D02*
X2626Y1412D01*
X2661Y1412D02*
X2666Y1412D01*
X2113Y1411D02*
X2155Y1411D01*
X2186Y1411D02*
X2225Y1411D01*
X2311Y1411D02*
X2330Y1411D01*
X2403Y1411D02*
X2403Y1411D01*
X2500Y1411D02*
X2519Y1411D01*
X2548Y1411D02*
X2591Y1411D01*
X2624Y1411D02*
X2624Y1411D01*
X2115Y1410D02*
X2154Y1410D01*
X2187Y1410D02*
X2204Y1410D01*
X2206Y1410D02*
X2224Y1410D01*
X2116Y1409D02*
X2153Y1409D01*
X2187Y1409D02*
X2204Y1409D01*
X2207Y1409D02*
X2224Y1409D01*
X2118Y1408D02*
X2151Y1408D01*
X2188Y1408D02*
X2202Y1408D01*
X2208Y1408D02*
X2223Y1408D01*
X492Y1359D02*
X497Y1359D01*
X832Y1359D02*
X837Y1359D01*
X923Y1359D02*
X949Y1359D01*
X976Y1359D02*
X1002Y1359D01*
X1284Y1359D02*
X1289Y1359D01*
X491Y1358D02*
X498Y1358D01*
X831Y1358D02*
X838Y1358D01*
X921Y1358D02*
X950Y1358D01*
X975Y1358D02*
X1004Y1358D01*
X1283Y1358D02*
X1290Y1358D01*
X491Y1357D02*
X499Y1357D01*
X831Y1357D02*
X839Y1357D01*
X919Y1357D02*
X950Y1357D01*
X975Y1357D02*
X1005Y1357D01*
X1283Y1357D02*
X1291Y1357D01*
X490Y1356D02*
X499Y1356D01*
X830Y1356D02*
X839Y1356D01*
X918Y1356D02*
X951Y1356D01*
X974Y1356D02*
X1007Y1356D01*
X1282Y1356D02*
X1291Y1356D01*
X1336Y1356D02*
X1372Y1356D01*
X1489Y1356D02*
X1505Y1356D01*
X490Y1355D02*
X499Y1355D01*
X830Y1355D02*
X839Y1355D01*
X917Y1355D02*
X951Y1355D01*
X974Y1355D02*
X1008Y1355D01*
X1282Y1355D02*
X1291Y1355D01*
X1336Y1355D02*
X1376Y1355D01*
X1487Y1355D02*
X1507Y1355D01*
X490Y1354D02*
X499Y1354D01*
X830Y1354D02*
X839Y1354D01*
X916Y1354D02*
X951Y1354D01*
X974Y1354D02*
X1009Y1354D01*
X1282Y1354D02*
X1291Y1354D01*
X1336Y1354D02*
X1378Y1354D01*
X1486Y1354D02*
X1508Y1354D01*
X490Y1353D02*
X499Y1353D01*
X830Y1353D02*
X839Y1353D01*
X915Y1353D02*
X951Y1353D01*
X975Y1353D02*
X1009Y1353D01*
X1282Y1353D02*
X1291Y1353D01*
X1336Y1353D02*
X1379Y1353D01*
X1485Y1353D02*
X1509Y1353D01*
X490Y1352D02*
X499Y1352D01*
X830Y1352D02*
X839Y1352D01*
X915Y1352D02*
X950Y1352D01*
X975Y1352D02*
X1010Y1352D01*
X1282Y1352D02*
X1291Y1352D01*
X1336Y1352D02*
X1380Y1352D01*
X1485Y1352D02*
X1509Y1352D01*
X1732Y1352D02*
X1735Y1352D01*
X1997Y1352D02*
X2035Y1352D01*
X2668Y1352D02*
X2671Y1352D01*
X490Y1351D02*
X499Y1351D01*
X830Y1351D02*
X839Y1351D01*
X914Y1351D02*
X949Y1351D01*
X976Y1351D02*
X1011Y1351D01*
X1282Y1351D02*
X1291Y1351D01*
X1336Y1351D02*
X1381Y1351D01*
X1485Y1351D02*
X1509Y1351D01*
X1730Y1351D02*
X1736Y1351D01*
X1997Y1351D02*
X2037Y1351D01*
X2666Y1351D02*
X2672Y1351D01*
X490Y1350D02*
X499Y1350D01*
X830Y1350D02*
X839Y1350D01*
X914Y1350D02*
X947Y1350D01*
X978Y1350D02*
X1011Y1350D01*
X1282Y1350D02*
X1291Y1350D01*
X1336Y1350D02*
X1382Y1350D01*
X1485Y1350D02*
X1509Y1350D01*
X1730Y1350D02*
X1737Y1350D01*
X1997Y1350D02*
X2039Y1350D01*
X2666Y1350D02*
X2673Y1350D01*
X490Y1349D02*
X499Y1349D01*
X830Y1349D02*
X839Y1349D01*
X913Y1349D02*
X925Y1349D01*
X984Y1349D02*
X993Y1349D01*
X1001Y1349D02*
X1012Y1349D01*
X1282Y1349D02*
X1291Y1349D01*
X1336Y1349D02*
X1383Y1349D01*
X1486Y1349D02*
X1509Y1349D01*
X1729Y1349D02*
X1738Y1349D01*
X1997Y1349D02*
X2040Y1349D01*
X2665Y1349D02*
X2674Y1349D01*
X490Y1348D02*
X499Y1348D01*
X830Y1348D02*
X839Y1348D01*
X913Y1348D02*
X924Y1348D01*
X984Y1348D02*
X993Y1348D01*
X1002Y1348D02*
X1012Y1348D01*
X1282Y1348D02*
X1291Y1348D01*
X1336Y1348D02*
X1383Y1348D01*
X1486Y1348D02*
X1509Y1348D01*
X1729Y1348D02*
X1738Y1348D01*
X1997Y1348D02*
X2041Y1348D01*
X2154Y1348D02*
X2157Y1348D01*
X2665Y1348D02*
X2674Y1348D01*
X490Y1347D02*
X499Y1347D01*
X830Y1347D02*
X839Y1347D01*
X912Y1347D02*
X923Y1347D01*
X984Y1347D02*
X993Y1347D01*
X1002Y1347D02*
X1013Y1347D01*
X1282Y1347D02*
X1291Y1347D01*
X1336Y1347D02*
X1384Y1347D01*
X1487Y1347D02*
X1509Y1347D01*
X1729Y1347D02*
X1738Y1347D01*
X1997Y1347D02*
X2042Y1347D01*
X2153Y1347D02*
X2158Y1347D01*
X2665Y1347D02*
X2674Y1347D01*
X490Y1346D02*
X499Y1346D01*
X830Y1346D02*
X839Y1346D01*
X912Y1346D02*
X922Y1346D01*
X984Y1346D02*
X993Y1346D01*
X1003Y1346D02*
X1013Y1346D01*
X1282Y1346D02*
X1291Y1346D01*
X1336Y1346D02*
X1346Y1346D01*
X1371Y1346D02*
X1384Y1346D01*
X1500Y1346D02*
X1509Y1346D01*
X1729Y1346D02*
X1738Y1346D01*
X1997Y1346D02*
X2043Y1346D01*
X2152Y1346D02*
X2159Y1346D01*
X2665Y1346D02*
X2674Y1346D01*
X490Y1345D02*
X499Y1345D01*
X830Y1345D02*
X839Y1345D01*
X911Y1345D02*
X922Y1345D01*
X984Y1345D02*
X993Y1345D01*
X1003Y1345D02*
X1014Y1345D01*
X1282Y1345D02*
X1291Y1345D01*
X1336Y1345D02*
X1345Y1345D01*
X1374Y1345D02*
X1384Y1345D01*
X1500Y1345D02*
X1509Y1345D01*
X1729Y1345D02*
X1738Y1345D01*
X1997Y1345D02*
X2044Y1345D01*
X2151Y1345D02*
X2160Y1345D01*
X2665Y1345D02*
X2674Y1345D01*
X490Y1344D02*
X499Y1344D01*
X830Y1344D02*
X839Y1344D01*
X911Y1344D02*
X921Y1344D01*
X984Y1344D02*
X993Y1344D01*
X1004Y1344D02*
X1014Y1344D01*
X1282Y1344D02*
X1291Y1344D01*
X1336Y1344D02*
X1345Y1344D01*
X1375Y1344D02*
X1385Y1344D01*
X1500Y1344D02*
X1509Y1344D01*
X1729Y1344D02*
X1738Y1344D01*
X1997Y1344D02*
X2044Y1344D01*
X2151Y1344D02*
X2160Y1344D01*
X2665Y1344D02*
X2674Y1344D01*
X490Y1343D02*
X499Y1343D01*
X830Y1343D02*
X839Y1343D01*
X910Y1343D02*
X921Y1343D01*
X984Y1343D02*
X993Y1343D01*
X1004Y1343D02*
X1015Y1343D01*
X1282Y1343D02*
X1291Y1343D01*
X1336Y1343D02*
X1345Y1343D01*
X1375Y1343D02*
X1385Y1343D01*
X1500Y1343D02*
X1509Y1343D01*
X1729Y1343D02*
X1738Y1343D01*
X1997Y1343D02*
X2045Y1343D01*
X2151Y1343D02*
X2160Y1343D01*
X2665Y1343D02*
X2674Y1343D01*
X490Y1342D02*
X499Y1342D01*
X830Y1342D02*
X839Y1342D01*
X910Y1342D02*
X920Y1342D01*
X984Y1342D02*
X993Y1342D01*
X1005Y1342D02*
X1015Y1342D01*
X1282Y1342D02*
X1291Y1342D01*
X1336Y1342D02*
X1345Y1342D01*
X1376Y1342D02*
X1385Y1342D01*
X1500Y1342D02*
X1509Y1342D01*
X1729Y1342D02*
X1738Y1342D01*
X1997Y1342D02*
X2006Y1342D01*
X2034Y1342D02*
X2045Y1342D01*
X2151Y1342D02*
X2160Y1342D01*
X2665Y1342D02*
X2674Y1342D01*
X490Y1341D02*
X499Y1341D01*
X830Y1341D02*
X839Y1341D01*
X909Y1341D02*
X920Y1341D01*
X984Y1341D02*
X993Y1341D01*
X1005Y1341D02*
X1016Y1341D01*
X1282Y1341D02*
X1291Y1341D01*
X1336Y1341D02*
X1345Y1341D01*
X1376Y1341D02*
X1385Y1341D01*
X1500Y1341D02*
X1509Y1341D01*
X1729Y1341D02*
X1738Y1341D01*
X1997Y1341D02*
X2006Y1341D01*
X2035Y1341D02*
X2045Y1341D01*
X2151Y1341D02*
X2160Y1341D01*
X2665Y1341D02*
X2674Y1341D01*
X490Y1340D02*
X499Y1340D01*
X830Y1340D02*
X839Y1340D01*
X909Y1340D02*
X919Y1340D01*
X984Y1340D02*
X993Y1340D01*
X1006Y1340D02*
X1016Y1340D01*
X1282Y1340D02*
X1291Y1340D01*
X1336Y1340D02*
X1345Y1340D01*
X1376Y1340D02*
X1385Y1340D01*
X1500Y1340D02*
X1509Y1340D01*
X1729Y1340D02*
X1738Y1340D01*
X1997Y1340D02*
X2006Y1340D01*
X2036Y1340D02*
X2046Y1340D01*
X2151Y1340D02*
X2160Y1340D01*
X2665Y1340D02*
X2674Y1340D01*
X490Y1339D02*
X499Y1339D01*
X830Y1339D02*
X839Y1339D01*
X908Y1339D02*
X919Y1339D01*
X984Y1339D02*
X993Y1339D01*
X1006Y1339D02*
X1017Y1339D01*
X1282Y1339D02*
X1291Y1339D01*
X1336Y1339D02*
X1345Y1339D01*
X1376Y1339D02*
X1385Y1339D01*
X1500Y1339D02*
X1509Y1339D01*
X1729Y1339D02*
X1738Y1339D01*
X1997Y1339D02*
X2006Y1339D01*
X2036Y1339D02*
X2046Y1339D01*
X2151Y1339D02*
X2160Y1339D01*
X2665Y1339D02*
X2674Y1339D01*
X490Y1338D02*
X499Y1338D01*
X830Y1338D02*
X839Y1338D01*
X908Y1338D02*
X918Y1338D01*
X984Y1338D02*
X993Y1338D01*
X1007Y1338D02*
X1017Y1338D01*
X1282Y1338D02*
X1291Y1338D01*
X1336Y1338D02*
X1345Y1338D01*
X1376Y1338D02*
X1385Y1338D01*
X1500Y1338D02*
X1509Y1338D01*
X1729Y1338D02*
X1738Y1338D01*
X1997Y1338D02*
X2006Y1338D01*
X2037Y1338D02*
X2046Y1338D01*
X2151Y1338D02*
X2160Y1338D01*
X2665Y1338D02*
X2674Y1338D01*
X490Y1337D02*
X499Y1337D01*
X830Y1337D02*
X839Y1337D01*
X907Y1337D02*
X918Y1337D01*
X984Y1337D02*
X993Y1337D01*
X1007Y1337D02*
X1018Y1337D01*
X1282Y1337D02*
X1291Y1337D01*
X1336Y1337D02*
X1345Y1337D01*
X1376Y1337D02*
X1385Y1337D01*
X1500Y1337D02*
X1509Y1337D01*
X1729Y1337D02*
X1738Y1337D01*
X1997Y1337D02*
X2006Y1337D01*
X2037Y1337D02*
X2046Y1337D01*
X2151Y1337D02*
X2160Y1337D01*
X2665Y1337D02*
X2674Y1337D01*
X490Y1336D02*
X499Y1336D01*
X830Y1336D02*
X839Y1336D01*
X907Y1336D02*
X917Y1336D01*
X984Y1336D02*
X993Y1336D01*
X1008Y1336D02*
X1018Y1336D01*
X1282Y1336D02*
X1291Y1336D01*
X1336Y1336D02*
X1345Y1336D01*
X1376Y1336D02*
X1385Y1336D01*
X1500Y1336D02*
X1509Y1336D01*
X1729Y1336D02*
X1738Y1336D01*
X1997Y1336D02*
X2006Y1336D01*
X2037Y1336D02*
X2046Y1336D01*
X2151Y1336D02*
X2160Y1336D01*
X2665Y1336D02*
X2674Y1336D01*
X490Y1335D02*
X499Y1335D01*
X830Y1335D02*
X839Y1335D01*
X906Y1335D02*
X917Y1335D01*
X984Y1335D02*
X993Y1335D01*
X1008Y1335D02*
X1019Y1335D01*
X1282Y1335D02*
X1291Y1335D01*
X1336Y1335D02*
X1345Y1335D01*
X1376Y1335D02*
X1385Y1335D01*
X1426Y1335D02*
X1439Y1335D01*
X1500Y1335D02*
X1509Y1335D01*
X1567Y1335D02*
X1585Y1335D01*
X1729Y1335D02*
X1738Y1335D01*
X1997Y1335D02*
X2006Y1335D01*
X2037Y1335D02*
X2046Y1335D01*
X2151Y1335D02*
X2160Y1335D01*
X2665Y1335D02*
X2674Y1335D01*
X490Y1334D02*
X499Y1334D01*
X830Y1334D02*
X839Y1334D01*
X906Y1334D02*
X916Y1334D01*
X984Y1334D02*
X993Y1334D01*
X1009Y1334D02*
X1019Y1334D01*
X1282Y1334D02*
X1291Y1334D01*
X1336Y1334D02*
X1345Y1334D01*
X1375Y1334D02*
X1385Y1334D01*
X1421Y1334D02*
X1444Y1334D01*
X1500Y1334D02*
X1509Y1334D01*
X1564Y1334D02*
X1590Y1334D01*
X1626Y1334D02*
X1631Y1334D01*
X1666Y1334D02*
X1671Y1334D01*
X1729Y1334D02*
X1738Y1334D01*
X1997Y1334D02*
X2006Y1334D01*
X2037Y1334D02*
X2046Y1334D01*
X2151Y1334D02*
X2160Y1334D01*
X2665Y1334D02*
X2674Y1334D01*
X490Y1333D02*
X499Y1333D01*
X830Y1333D02*
X839Y1333D01*
X906Y1333D02*
X916Y1333D01*
X984Y1333D02*
X993Y1333D01*
X1009Y1333D02*
X1020Y1333D01*
X1282Y1333D02*
X1291Y1333D01*
X1336Y1333D02*
X1345Y1333D01*
X1375Y1333D02*
X1385Y1333D01*
X1419Y1333D02*
X1446Y1333D01*
X1500Y1333D02*
X1509Y1333D01*
X1563Y1333D02*
X1592Y1333D01*
X1625Y1333D02*
X1632Y1333D01*
X1665Y1333D02*
X1672Y1333D01*
X1729Y1333D02*
X1738Y1333D01*
X1997Y1333D02*
X2006Y1333D01*
X2037Y1333D02*
X2046Y1333D01*
X2151Y1333D02*
X2160Y1333D01*
X2665Y1333D02*
X2674Y1333D01*
X490Y1332D02*
X499Y1332D01*
X830Y1332D02*
X839Y1332D01*
X905Y1332D02*
X915Y1332D01*
X984Y1332D02*
X993Y1332D01*
X1010Y1332D02*
X1020Y1332D01*
X1282Y1332D02*
X1291Y1332D01*
X1336Y1332D02*
X1345Y1332D01*
X1374Y1332D02*
X1384Y1332D01*
X1418Y1332D02*
X1447Y1332D01*
X1500Y1332D02*
X1509Y1332D01*
X1563Y1332D02*
X1594Y1332D01*
X1625Y1332D02*
X1633Y1332D01*
X1664Y1332D02*
X1672Y1332D01*
X1729Y1332D02*
X1738Y1332D01*
X1997Y1332D02*
X2006Y1332D01*
X2037Y1332D02*
X2046Y1332D01*
X2151Y1332D02*
X2160Y1332D01*
X2665Y1332D02*
X2674Y1332D01*
X490Y1331D02*
X499Y1331D01*
X830Y1331D02*
X839Y1331D01*
X905Y1331D02*
X915Y1331D01*
X984Y1331D02*
X993Y1331D01*
X1010Y1331D02*
X1021Y1331D01*
X1282Y1331D02*
X1291Y1331D01*
X1336Y1331D02*
X1345Y1331D01*
X1372Y1331D02*
X1384Y1331D01*
X1417Y1331D02*
X1449Y1331D01*
X1500Y1331D02*
X1509Y1331D01*
X1562Y1331D02*
X1595Y1331D01*
X1624Y1331D02*
X1633Y1331D01*
X1664Y1331D02*
X1673Y1331D01*
X1729Y1331D02*
X1738Y1331D01*
X1997Y1331D02*
X2006Y1331D01*
X2037Y1331D02*
X2046Y1331D01*
X2085Y1331D02*
X2102Y1331D01*
X2144Y1331D02*
X2182Y1331D01*
X2226Y1331D02*
X2249Y1331D01*
X2288Y1331D02*
X2291Y1331D01*
X2308Y1331D02*
X2322Y1331D01*
X2360Y1331D02*
X2363Y1331D01*
X2400Y1331D02*
X2403Y1331D01*
X2665Y1331D02*
X2674Y1331D01*
X490Y1330D02*
X499Y1330D01*
X830Y1330D02*
X839Y1330D01*
X904Y1330D02*
X914Y1330D01*
X984Y1330D02*
X993Y1330D01*
X1011Y1330D02*
X1021Y1330D01*
X1282Y1330D02*
X1291Y1330D01*
X1336Y1330D02*
X1384Y1330D01*
X1415Y1330D02*
X1450Y1330D01*
X1500Y1330D02*
X1509Y1330D01*
X1562Y1330D02*
X1596Y1330D01*
X1624Y1330D02*
X1633Y1330D01*
X1664Y1330D02*
X1673Y1330D01*
X1729Y1330D02*
X1738Y1330D01*
X1997Y1330D02*
X2006Y1330D01*
X2036Y1330D02*
X2046Y1330D01*
X2082Y1330D02*
X2105Y1330D01*
X2143Y1330D02*
X2183Y1330D01*
X2225Y1330D02*
X2252Y1330D01*
X2287Y1330D02*
X2292Y1330D01*
X2306Y1330D02*
X2325Y1330D01*
X2359Y1330D02*
X2364Y1330D01*
X2398Y1330D02*
X2404Y1330D01*
X2665Y1330D02*
X2674Y1330D01*
X490Y1329D02*
X499Y1329D01*
X830Y1329D02*
X839Y1329D01*
X904Y1329D02*
X914Y1329D01*
X984Y1329D02*
X993Y1329D01*
X1011Y1329D02*
X1021Y1329D01*
X1282Y1329D02*
X1291Y1329D01*
X1336Y1329D02*
X1383Y1329D01*
X1414Y1329D02*
X1451Y1329D01*
X1500Y1329D02*
X1509Y1329D01*
X1562Y1329D02*
X1597Y1329D01*
X1624Y1329D02*
X1633Y1329D01*
X1664Y1329D02*
X1673Y1329D01*
X1729Y1329D02*
X1738Y1329D01*
X1997Y1329D02*
X2006Y1329D01*
X2036Y1329D02*
X2046Y1329D01*
X2080Y1329D02*
X2107Y1329D01*
X2142Y1329D02*
X2184Y1329D01*
X2224Y1329D02*
X2254Y1329D01*
X2286Y1329D02*
X2293Y1329D01*
X2305Y1329D02*
X2327Y1329D01*
X2358Y1329D02*
X2365Y1329D01*
X2398Y1329D02*
X2405Y1329D01*
X2665Y1329D02*
X2674Y1329D01*
X490Y1328D02*
X499Y1328D01*
X830Y1328D02*
X839Y1328D01*
X903Y1328D02*
X913Y1328D01*
X984Y1328D02*
X993Y1328D01*
X1012Y1328D02*
X1022Y1328D01*
X1282Y1328D02*
X1291Y1328D01*
X1336Y1328D02*
X1383Y1328D01*
X1413Y1328D02*
X1452Y1328D01*
X1500Y1328D02*
X1509Y1328D01*
X1562Y1328D02*
X1597Y1328D01*
X1624Y1328D02*
X1633Y1328D01*
X1664Y1328D02*
X1673Y1328D01*
X1729Y1328D02*
X1738Y1328D01*
X1997Y1328D02*
X2006Y1328D01*
X2034Y1328D02*
X2045Y1328D01*
X2078Y1328D02*
X2109Y1328D01*
X2141Y1328D02*
X2184Y1328D01*
X2223Y1328D02*
X2255Y1328D01*
X2285Y1328D02*
X2294Y1328D01*
X2304Y1328D02*
X2328Y1328D01*
X2357Y1328D02*
X2366Y1328D01*
X2397Y1328D02*
X2406Y1328D01*
X2665Y1328D02*
X2674Y1328D01*
X490Y1327D02*
X499Y1327D01*
X830Y1327D02*
X839Y1327D01*
X903Y1327D02*
X913Y1327D01*
X984Y1327D02*
X993Y1327D01*
X1012Y1327D02*
X1022Y1327D01*
X1282Y1327D02*
X1291Y1327D01*
X1336Y1327D02*
X1382Y1327D01*
X1412Y1327D02*
X1453Y1327D01*
X1500Y1327D02*
X1509Y1327D01*
X1563Y1327D02*
X1598Y1327D01*
X1624Y1327D02*
X1633Y1327D01*
X1664Y1327D02*
X1673Y1327D01*
X1729Y1327D02*
X1738Y1327D01*
X1997Y1327D02*
X2045Y1327D01*
X2077Y1327D02*
X2110Y1327D01*
X2141Y1327D02*
X2185Y1327D01*
X2223Y1327D02*
X2256Y1327D01*
X2285Y1327D02*
X2294Y1327D01*
X2303Y1327D02*
X2329Y1327D01*
X2357Y1327D02*
X2366Y1327D01*
X2397Y1327D02*
X2406Y1327D01*
X2665Y1327D02*
X2674Y1327D01*
X830Y1326D02*
X839Y1326D01*
X903Y1326D02*
X912Y1326D01*
X984Y1326D02*
X993Y1326D01*
X1013Y1326D02*
X1022Y1326D01*
X1336Y1326D02*
X1381Y1326D01*
X1411Y1326D02*
X1454Y1326D01*
X1500Y1326D02*
X1509Y1326D01*
X1564Y1326D02*
X1598Y1326D01*
X1624Y1326D02*
X1633Y1326D01*
X1664Y1326D02*
X1673Y1326D01*
X1729Y1326D02*
X1738Y1326D01*
X1997Y1326D02*
X2045Y1326D01*
X2076Y1326D02*
X2111Y1326D01*
X2141Y1326D02*
X2185Y1326D01*
X2223Y1326D02*
X2257Y1326D01*
X2285Y1326D02*
X2294Y1326D01*
X2302Y1326D02*
X2330Y1326D01*
X2357Y1326D02*
X2366Y1326D01*
X2397Y1326D02*
X2406Y1326D01*
X2665Y1326D02*
X2674Y1326D01*
X830Y1325D02*
X839Y1325D01*
X903Y1325D02*
X912Y1325D01*
X984Y1325D02*
X993Y1325D01*
X1013Y1325D02*
X1023Y1325D01*
X1336Y1325D02*
X1380Y1325D01*
X1411Y1325D02*
X1455Y1325D01*
X1500Y1325D02*
X1509Y1325D01*
X1567Y1325D02*
X1599Y1325D01*
X1624Y1325D02*
X1633Y1325D01*
X1664Y1325D02*
X1673Y1325D01*
X1729Y1325D02*
X1738Y1325D01*
X1997Y1325D02*
X2044Y1325D01*
X2075Y1325D02*
X2112Y1325D01*
X2141Y1325D02*
X2185Y1325D01*
X2223Y1325D02*
X2258Y1325D01*
X2285Y1325D02*
X2294Y1325D01*
X2301Y1325D02*
X2331Y1325D01*
X2357Y1325D02*
X2366Y1325D01*
X2397Y1325D02*
X2406Y1325D01*
X2665Y1325D02*
X2674Y1325D01*
X830Y1324D02*
X839Y1324D01*
X902Y1324D02*
X912Y1324D01*
X984Y1324D02*
X993Y1324D01*
X1013Y1324D02*
X1023Y1324D01*
X1336Y1324D02*
X1379Y1324D01*
X1410Y1324D02*
X1423Y1324D01*
X1442Y1324D02*
X1455Y1324D01*
X1500Y1324D02*
X1509Y1324D01*
X1589Y1324D02*
X1599Y1324D01*
X1624Y1324D02*
X1633Y1324D01*
X1664Y1324D02*
X1673Y1324D01*
X1729Y1324D02*
X1738Y1324D01*
X1997Y1324D02*
X2043Y1324D01*
X2074Y1324D02*
X2113Y1324D01*
X2142Y1324D02*
X2184Y1324D01*
X2224Y1324D02*
X2258Y1324D01*
X2285Y1324D02*
X2294Y1324D01*
X2299Y1324D02*
X2332Y1324D01*
X2357Y1324D02*
X2366Y1324D01*
X2397Y1324D02*
X2406Y1324D01*
X2665Y1324D02*
X2674Y1324D01*
X830Y1323D02*
X839Y1323D01*
X902Y1323D02*
X912Y1323D01*
X984Y1323D02*
X993Y1323D01*
X1014Y1323D02*
X1023Y1323D01*
X1336Y1323D02*
X1378Y1323D01*
X1410Y1323D02*
X1422Y1323D01*
X1444Y1323D02*
X1456Y1323D01*
X1500Y1323D02*
X1509Y1323D01*
X1589Y1323D02*
X1599Y1323D01*
X1624Y1323D02*
X1633Y1323D01*
X1664Y1323D02*
X1673Y1323D01*
X1729Y1323D02*
X1738Y1323D01*
X1997Y1323D02*
X2043Y1323D01*
X2073Y1323D02*
X2114Y1323D01*
X2142Y1323D02*
X2184Y1323D01*
X2224Y1323D02*
X2259Y1323D01*
X2285Y1323D02*
X2294Y1323D01*
X2298Y1323D02*
X2332Y1323D01*
X2357Y1323D02*
X2366Y1323D01*
X2397Y1323D02*
X2406Y1323D01*
X2665Y1323D02*
X2674Y1323D01*
X830Y1322D02*
X839Y1322D01*
X902Y1322D02*
X911Y1322D01*
X984Y1322D02*
X993Y1322D01*
X1014Y1322D02*
X1023Y1322D01*
X1336Y1322D02*
X1376Y1322D01*
X1409Y1322D02*
X1420Y1322D01*
X1445Y1322D02*
X1456Y1322D01*
X1500Y1322D02*
X1509Y1322D01*
X1590Y1322D02*
X1599Y1322D01*
X1624Y1322D02*
X1633Y1322D01*
X1664Y1322D02*
X1673Y1322D01*
X1729Y1322D02*
X1738Y1322D01*
X1997Y1322D02*
X2042Y1322D01*
X2072Y1322D02*
X2115Y1322D01*
X2144Y1322D02*
X2182Y1322D01*
X2226Y1322D02*
X2260Y1322D01*
X2285Y1322D02*
X2294Y1322D01*
X2297Y1322D02*
X2333Y1322D01*
X2357Y1322D02*
X2366Y1322D01*
X2397Y1322D02*
X2406Y1322D01*
X2665Y1322D02*
X2674Y1322D01*
X830Y1321D02*
X839Y1321D01*
X902Y1321D02*
X911Y1321D01*
X984Y1321D02*
X993Y1321D01*
X1014Y1321D02*
X1023Y1321D01*
X1336Y1321D02*
X1373Y1321D01*
X1409Y1321D02*
X1419Y1321D01*
X1446Y1321D02*
X1456Y1321D01*
X1500Y1321D02*
X1509Y1321D01*
X1590Y1321D02*
X1600Y1321D01*
X1624Y1321D02*
X1634Y1321D01*
X1663Y1321D02*
X1673Y1321D01*
X1729Y1321D02*
X1738Y1321D01*
X1997Y1321D02*
X2041Y1321D01*
X2071Y1321D02*
X2085Y1321D01*
X2102Y1321D02*
X2116Y1321D01*
X2151Y1321D02*
X2160Y1321D01*
X2248Y1321D02*
X2260Y1321D01*
X2285Y1321D02*
X2294Y1321D01*
X2296Y1321D02*
X2311Y1321D01*
X2321Y1321D02*
X2333Y1321D01*
X2357Y1321D02*
X2366Y1321D01*
X2397Y1321D02*
X2406Y1321D01*
X2665Y1321D02*
X2674Y1321D01*
X830Y1320D02*
X839Y1320D01*
X902Y1320D02*
X911Y1320D01*
X984Y1320D02*
X993Y1320D01*
X1014Y1320D02*
X1023Y1320D01*
X1336Y1320D02*
X1345Y1320D01*
X1354Y1320D02*
X1364Y1320D01*
X1409Y1320D02*
X1418Y1320D01*
X1447Y1320D02*
X1457Y1320D01*
X1500Y1320D02*
X1509Y1320D01*
X1590Y1320D02*
X1600Y1320D01*
X1624Y1320D02*
X1634Y1320D01*
X1663Y1320D02*
X1673Y1320D01*
X1729Y1320D02*
X1738Y1320D01*
X1997Y1320D02*
X2040Y1320D01*
X2071Y1320D02*
X2083Y1320D01*
X2104Y1320D02*
X2116Y1320D01*
X2151Y1320D02*
X2160Y1320D01*
X2250Y1320D02*
X2260Y1320D01*
X2285Y1320D02*
X2309Y1320D01*
X2323Y1320D02*
X2333Y1320D01*
X2357Y1320D02*
X2366Y1320D01*
X2397Y1320D02*
X2406Y1320D01*
X2665Y1320D02*
X2674Y1320D01*
X830Y1319D02*
X839Y1319D01*
X902Y1319D02*
X912Y1319D01*
X984Y1319D02*
X993Y1319D01*
X1014Y1319D02*
X1023Y1319D01*
X1336Y1319D02*
X1345Y1319D01*
X1354Y1319D02*
X1365Y1319D01*
X1408Y1319D02*
X1418Y1319D01*
X1447Y1319D02*
X1457Y1319D01*
X1500Y1319D02*
X1509Y1319D01*
X1591Y1319D02*
X1600Y1319D01*
X1625Y1319D02*
X1635Y1319D01*
X1662Y1319D02*
X1672Y1319D01*
X1729Y1319D02*
X1738Y1319D01*
X1997Y1319D02*
X2038Y1319D01*
X2070Y1319D02*
X2082Y1319D01*
X2105Y1319D02*
X2117Y1319D01*
X2151Y1319D02*
X2160Y1319D01*
X2251Y1319D02*
X2260Y1319D01*
X2285Y1319D02*
X2308Y1319D01*
X2324Y1319D02*
X2334Y1319D01*
X2357Y1319D02*
X2366Y1319D01*
X2397Y1319D02*
X2406Y1319D01*
X2665Y1319D02*
X2674Y1319D01*
X830Y1318D02*
X839Y1318D01*
X902Y1318D02*
X912Y1318D01*
X984Y1318D02*
X993Y1318D01*
X1013Y1318D02*
X1023Y1318D01*
X1336Y1318D02*
X1345Y1318D01*
X1355Y1318D02*
X1366Y1318D01*
X1408Y1318D02*
X1417Y1318D01*
X1448Y1318D02*
X1457Y1318D01*
X1500Y1318D02*
X1509Y1318D01*
X1591Y1318D02*
X1600Y1318D01*
X1625Y1318D02*
X1635Y1318D01*
X1662Y1318D02*
X1672Y1318D01*
X1997Y1318D02*
X2036Y1318D01*
X2070Y1318D02*
X2081Y1318D01*
X2106Y1318D02*
X2117Y1318D01*
X2151Y1318D02*
X2160Y1318D01*
X2251Y1318D02*
X2260Y1318D01*
X2285Y1318D02*
X2307Y1318D01*
X2324Y1318D02*
X2334Y1318D01*
X2357Y1318D02*
X2367Y1318D01*
X2396Y1318D02*
X2406Y1318D01*
X830Y1317D02*
X839Y1317D01*
X903Y1317D02*
X912Y1317D01*
X984Y1317D02*
X993Y1317D01*
X1013Y1317D02*
X1023Y1317D01*
X1336Y1317D02*
X1345Y1317D01*
X1355Y1317D02*
X1366Y1317D01*
X1408Y1317D02*
X1417Y1317D01*
X1448Y1317D02*
X1457Y1317D01*
X1500Y1317D02*
X1509Y1317D01*
X1591Y1317D02*
X1600Y1317D01*
X1626Y1317D02*
X1636Y1317D01*
X1661Y1317D02*
X1671Y1317D01*
X1997Y1317D02*
X2031Y1317D01*
X2070Y1317D02*
X2080Y1317D01*
X2107Y1317D02*
X2117Y1317D01*
X2151Y1317D02*
X2160Y1317D01*
X2251Y1317D02*
X2261Y1317D01*
X2285Y1317D02*
X2306Y1317D01*
X2325Y1317D02*
X2334Y1317D01*
X2357Y1317D02*
X2367Y1317D01*
X2396Y1317D02*
X2406Y1317D01*
X830Y1316D02*
X839Y1316D01*
X903Y1316D02*
X912Y1316D01*
X984Y1316D02*
X993Y1316D01*
X1013Y1316D02*
X1022Y1316D01*
X1336Y1316D02*
X1345Y1316D01*
X1356Y1316D02*
X1367Y1316D01*
X1408Y1316D02*
X1417Y1316D01*
X1448Y1316D02*
X1457Y1316D01*
X1500Y1316D02*
X1509Y1316D01*
X1591Y1316D02*
X1600Y1316D01*
X1626Y1316D02*
X1636Y1316D01*
X1661Y1316D02*
X1671Y1316D01*
X1997Y1316D02*
X2006Y1316D01*
X2015Y1316D02*
X2025Y1316D01*
X2069Y1316D02*
X2079Y1316D01*
X2108Y1316D02*
X2118Y1316D01*
X2151Y1316D02*
X2160Y1316D01*
X2251Y1316D02*
X2261Y1316D01*
X2285Y1316D02*
X2305Y1316D01*
X2325Y1316D02*
X2334Y1316D01*
X2357Y1316D02*
X2367Y1316D01*
X2395Y1316D02*
X2406Y1316D01*
X490Y1315D02*
X499Y1315D01*
X830Y1315D02*
X839Y1315D01*
X903Y1315D02*
X913Y1315D01*
X984Y1315D02*
X993Y1315D01*
X1012Y1315D02*
X1022Y1315D01*
X1282Y1315D02*
X1291Y1315D01*
X1336Y1315D02*
X1345Y1315D01*
X1356Y1315D02*
X1367Y1315D01*
X1408Y1315D02*
X1417Y1315D01*
X1448Y1315D02*
X1457Y1315D01*
X1500Y1315D02*
X1509Y1315D01*
X1591Y1315D02*
X1600Y1315D01*
X1627Y1315D02*
X1637Y1315D01*
X1660Y1315D02*
X1671Y1315D01*
X1997Y1315D02*
X2006Y1315D01*
X2015Y1315D02*
X2026Y1315D01*
X2069Y1315D02*
X2079Y1315D01*
X2108Y1315D02*
X2118Y1315D01*
X2151Y1315D02*
X2160Y1315D01*
X2252Y1315D02*
X2261Y1315D01*
X2285Y1315D02*
X2304Y1315D01*
X2325Y1315D02*
X2334Y1315D01*
X2358Y1315D02*
X2368Y1315D01*
X2395Y1315D02*
X2405Y1315D01*
X490Y1314D02*
X499Y1314D01*
X830Y1314D02*
X839Y1314D01*
X903Y1314D02*
X913Y1314D01*
X984Y1314D02*
X993Y1314D01*
X1012Y1314D02*
X1022Y1314D01*
X1282Y1314D02*
X1291Y1314D01*
X1336Y1314D02*
X1345Y1314D01*
X1357Y1314D02*
X1368Y1314D01*
X1408Y1314D02*
X1417Y1314D01*
X1448Y1314D02*
X1457Y1314D01*
X1500Y1314D02*
X1509Y1314D01*
X1591Y1314D02*
X1600Y1314D01*
X1627Y1314D02*
X1637Y1314D01*
X1660Y1314D02*
X1670Y1314D01*
X1997Y1314D02*
X2006Y1314D01*
X2016Y1314D02*
X2027Y1314D01*
X2069Y1314D02*
X2078Y1314D01*
X2109Y1314D02*
X2118Y1314D01*
X2151Y1314D02*
X2160Y1314D01*
X2252Y1314D02*
X2261Y1314D01*
X2285Y1314D02*
X2302Y1314D01*
X2325Y1314D02*
X2334Y1314D01*
X2358Y1314D02*
X2368Y1314D01*
X2395Y1314D02*
X2405Y1314D01*
X490Y1313D02*
X499Y1313D01*
X830Y1313D02*
X839Y1313D01*
X904Y1313D02*
X914Y1313D01*
X984Y1313D02*
X993Y1313D01*
X1011Y1313D02*
X1022Y1313D01*
X1282Y1313D02*
X1291Y1313D01*
X1336Y1313D02*
X1345Y1313D01*
X1358Y1313D02*
X1368Y1313D01*
X1408Y1313D02*
X1417Y1313D01*
X1448Y1313D02*
X1457Y1313D01*
X1500Y1313D02*
X1509Y1313D01*
X1562Y1313D02*
X1600Y1313D01*
X1627Y1313D02*
X1637Y1313D01*
X1660Y1313D02*
X1670Y1313D01*
X1997Y1313D02*
X2006Y1313D01*
X2016Y1313D02*
X2027Y1313D01*
X2069Y1313D02*
X2078Y1313D01*
X2109Y1313D02*
X2118Y1313D01*
X2151Y1313D02*
X2160Y1313D01*
X2252Y1313D02*
X2261Y1313D01*
X2285Y1313D02*
X2301Y1313D01*
X2325Y1313D02*
X2334Y1313D01*
X2359Y1313D02*
X2369Y1313D01*
X2394Y1313D02*
X2404Y1313D01*
X490Y1312D02*
X499Y1312D01*
X830Y1312D02*
X839Y1312D01*
X904Y1312D02*
X914Y1312D01*
X984Y1312D02*
X993Y1312D01*
X1011Y1312D02*
X1021Y1312D01*
X1282Y1312D02*
X1291Y1312D01*
X1336Y1312D02*
X1345Y1312D01*
X1358Y1312D02*
X1369Y1312D01*
X1408Y1312D02*
X1417Y1312D01*
X1448Y1312D02*
X1457Y1312D01*
X1500Y1312D02*
X1509Y1312D01*
X1560Y1312D02*
X1600Y1312D01*
X1628Y1312D02*
X1638Y1312D01*
X1659Y1312D02*
X1669Y1312D01*
X1997Y1312D02*
X2006Y1312D01*
X2017Y1312D02*
X2028Y1312D01*
X2069Y1312D02*
X2078Y1312D01*
X2109Y1312D02*
X2118Y1312D01*
X2151Y1312D02*
X2160Y1312D01*
X2252Y1312D02*
X2261Y1312D01*
X2285Y1312D02*
X2300Y1312D01*
X2325Y1312D02*
X2334Y1312D01*
X2359Y1312D02*
X2369Y1312D01*
X2394Y1312D02*
X2404Y1312D01*
X490Y1311D02*
X499Y1311D01*
X830Y1311D02*
X839Y1311D01*
X904Y1311D02*
X915Y1311D01*
X984Y1311D02*
X993Y1311D01*
X1010Y1311D02*
X1021Y1311D01*
X1282Y1311D02*
X1291Y1311D01*
X1336Y1311D02*
X1345Y1311D01*
X1359Y1311D02*
X1370Y1311D01*
X1408Y1311D02*
X1417Y1311D01*
X1448Y1311D02*
X1457Y1311D01*
X1500Y1311D02*
X1509Y1311D01*
X1558Y1311D02*
X1600Y1311D01*
X1628Y1311D02*
X1638Y1311D01*
X1659Y1311D02*
X1669Y1311D01*
X1997Y1311D02*
X2006Y1311D01*
X2018Y1311D02*
X2028Y1311D01*
X2069Y1311D02*
X2078Y1311D01*
X2109Y1311D02*
X2118Y1311D01*
X2151Y1311D02*
X2160Y1311D01*
X2252Y1311D02*
X2261Y1311D01*
X2285Y1311D02*
X2299Y1311D01*
X2326Y1311D02*
X2333Y1311D01*
X2360Y1311D02*
X2370Y1311D01*
X2393Y1311D02*
X2403Y1311D01*
X490Y1310D02*
X499Y1310D01*
X830Y1310D02*
X839Y1310D01*
X905Y1310D02*
X915Y1310D01*
X984Y1310D02*
X993Y1310D01*
X1010Y1310D02*
X1020Y1310D01*
X1282Y1310D02*
X1291Y1310D01*
X1336Y1310D02*
X1345Y1310D01*
X1359Y1310D02*
X1370Y1310D01*
X1408Y1310D02*
X1417Y1310D01*
X1448Y1310D02*
X1457Y1310D01*
X1500Y1310D02*
X1509Y1310D01*
X1557Y1310D02*
X1600Y1310D01*
X1629Y1310D02*
X1639Y1310D01*
X1658Y1310D02*
X1668Y1310D01*
X1997Y1310D02*
X2006Y1310D01*
X2018Y1310D02*
X2029Y1310D01*
X2069Y1310D02*
X2078Y1310D01*
X2109Y1310D02*
X2118Y1310D01*
X2151Y1310D02*
X2160Y1310D01*
X2226Y1310D02*
X2248Y1310D01*
X2252Y1310D02*
X2261Y1310D01*
X2285Y1310D02*
X2298Y1310D01*
X2326Y1310D02*
X2332Y1310D01*
X2360Y1310D02*
X2370Y1310D01*
X2393Y1310D02*
X2403Y1310D01*
X490Y1309D02*
X499Y1309D01*
X830Y1309D02*
X839Y1309D01*
X905Y1309D02*
X916Y1309D01*
X984Y1309D02*
X993Y1309D01*
X1009Y1309D02*
X1020Y1309D01*
X1282Y1309D02*
X1291Y1309D01*
X1336Y1309D02*
X1345Y1309D01*
X1360Y1309D02*
X1371Y1309D01*
X1408Y1309D02*
X1457Y1309D01*
X1500Y1309D02*
X1509Y1309D01*
X1556Y1309D02*
X1600Y1309D01*
X1629Y1309D02*
X1639Y1309D01*
X1658Y1309D02*
X1668Y1309D01*
X1997Y1309D02*
X2006Y1309D01*
X2019Y1309D02*
X2030Y1309D01*
X2069Y1309D02*
X2078Y1309D01*
X2109Y1309D02*
X2118Y1309D01*
X2151Y1309D02*
X2160Y1309D01*
X2222Y1309D02*
X2261Y1309D01*
X2285Y1309D02*
X2297Y1309D01*
X2328Y1309D02*
X2331Y1309D01*
X2360Y1309D02*
X2371Y1309D01*
X2392Y1309D02*
X2402Y1309D01*
X490Y1308D02*
X499Y1308D01*
X830Y1308D02*
X839Y1308D01*
X906Y1308D02*
X916Y1308D01*
X984Y1308D02*
X993Y1308D01*
X1009Y1308D02*
X1019Y1308D01*
X1282Y1308D02*
X1291Y1308D01*
X1336Y1308D02*
X1345Y1308D01*
X1361Y1308D02*
X1371Y1308D01*
X1408Y1308D02*
X1457Y1308D01*
X1500Y1308D02*
X1509Y1308D01*
X1555Y1308D02*
X1600Y1308D01*
X1630Y1308D02*
X1640Y1308D01*
X1657Y1308D02*
X1667Y1308D01*
X1729Y1308D02*
X1738Y1308D01*
X1997Y1308D02*
X2006Y1308D01*
X2019Y1308D02*
X2030Y1308D01*
X2069Y1308D02*
X2078Y1308D01*
X2109Y1308D02*
X2118Y1308D01*
X2151Y1308D02*
X2160Y1308D01*
X2220Y1308D02*
X2261Y1308D01*
X2285Y1308D02*
X2295Y1308D01*
X2361Y1308D02*
X2371Y1308D01*
X2392Y1308D02*
X2402Y1308D01*
X2665Y1308D02*
X2674Y1308D01*
X490Y1307D02*
X499Y1307D01*
X830Y1307D02*
X839Y1307D01*
X906Y1307D02*
X917Y1307D01*
X984Y1307D02*
X993Y1307D01*
X1008Y1307D02*
X1019Y1307D01*
X1282Y1307D02*
X1291Y1307D01*
X1336Y1307D02*
X1345Y1307D01*
X1361Y1307D02*
X1372Y1307D01*
X1408Y1307D02*
X1457Y1307D01*
X1500Y1307D02*
X1509Y1307D01*
X1555Y1307D02*
X1600Y1307D01*
X1630Y1307D02*
X1640Y1307D01*
X1657Y1307D02*
X1667Y1307D01*
X1729Y1307D02*
X1738Y1307D01*
X1997Y1307D02*
X2006Y1307D01*
X2020Y1307D02*
X2031Y1307D01*
X2069Y1307D02*
X2078Y1307D01*
X2109Y1307D02*
X2118Y1307D01*
X2151Y1307D02*
X2160Y1307D01*
X2219Y1307D02*
X2261Y1307D01*
X2285Y1307D02*
X2294Y1307D01*
X2361Y1307D02*
X2371Y1307D01*
X2392Y1307D02*
X2402Y1307D01*
X2665Y1307D02*
X2674Y1307D01*
X490Y1306D02*
X499Y1306D01*
X830Y1306D02*
X839Y1306D01*
X907Y1306D02*
X917Y1306D01*
X984Y1306D02*
X993Y1306D01*
X1008Y1306D02*
X1018Y1306D01*
X1282Y1306D02*
X1291Y1306D01*
X1336Y1306D02*
X1345Y1306D01*
X1362Y1306D02*
X1373Y1306D01*
X1408Y1306D02*
X1457Y1306D01*
X1500Y1306D02*
X1509Y1306D01*
X1554Y1306D02*
X1600Y1306D01*
X1630Y1306D02*
X1640Y1306D01*
X1656Y1306D02*
X1667Y1306D01*
X1729Y1306D02*
X1738Y1306D01*
X1997Y1306D02*
X2006Y1306D01*
X2021Y1306D02*
X2031Y1306D01*
X2069Y1306D02*
X2078Y1306D01*
X2109Y1306D02*
X2118Y1306D01*
X2151Y1306D02*
X2160Y1306D01*
X2218Y1306D02*
X2261Y1306D01*
X2285Y1306D02*
X2294Y1306D01*
X2362Y1306D02*
X2372Y1306D01*
X2391Y1306D02*
X2401Y1306D01*
X2665Y1306D02*
X2674Y1306D01*
X490Y1305D02*
X499Y1305D01*
X830Y1305D02*
X839Y1305D01*
X907Y1305D02*
X918Y1305D01*
X984Y1305D02*
X993Y1305D01*
X1007Y1305D02*
X1018Y1305D01*
X1282Y1305D02*
X1291Y1305D01*
X1336Y1305D02*
X1345Y1305D01*
X1362Y1305D02*
X1373Y1305D01*
X1408Y1305D02*
X1457Y1305D01*
X1500Y1305D02*
X1509Y1305D01*
X1553Y1305D02*
X1600Y1305D01*
X1631Y1305D02*
X1641Y1305D01*
X1656Y1305D02*
X1666Y1305D01*
X1729Y1305D02*
X1738Y1305D01*
X1997Y1305D02*
X2006Y1305D01*
X2021Y1305D02*
X2032Y1305D01*
X2069Y1305D02*
X2078Y1305D01*
X2109Y1305D02*
X2118Y1305D01*
X2151Y1305D02*
X2160Y1305D01*
X2217Y1305D02*
X2261Y1305D01*
X2285Y1305D02*
X2294Y1305D01*
X2362Y1305D02*
X2372Y1305D01*
X2391Y1305D02*
X2401Y1305D01*
X2665Y1305D02*
X2674Y1305D01*
X490Y1304D02*
X499Y1304D01*
X830Y1304D02*
X839Y1304D01*
X908Y1304D02*
X918Y1304D01*
X984Y1304D02*
X993Y1304D01*
X1007Y1304D02*
X1017Y1304D01*
X1282Y1304D02*
X1291Y1304D01*
X1336Y1304D02*
X1345Y1304D01*
X1363Y1304D02*
X1374Y1304D01*
X1408Y1304D02*
X1457Y1304D01*
X1500Y1304D02*
X1509Y1304D01*
X1553Y1304D02*
X1600Y1304D01*
X1631Y1304D02*
X1641Y1304D01*
X1656Y1304D02*
X1666Y1304D01*
X1729Y1304D02*
X1738Y1304D01*
X1997Y1304D02*
X2006Y1304D01*
X2022Y1304D02*
X2032Y1304D01*
X2069Y1304D02*
X2078Y1304D01*
X2109Y1304D02*
X2118Y1304D01*
X2151Y1304D02*
X2160Y1304D01*
X2216Y1304D02*
X2261Y1304D01*
X2285Y1304D02*
X2294Y1304D01*
X2363Y1304D02*
X2373Y1304D01*
X2390Y1304D02*
X2400Y1304D01*
X2665Y1304D02*
X2674Y1304D01*
X490Y1303D02*
X499Y1303D01*
X830Y1303D02*
X839Y1303D01*
X908Y1303D02*
X919Y1303D01*
X984Y1303D02*
X993Y1303D01*
X1006Y1303D02*
X1017Y1303D01*
X1282Y1303D02*
X1291Y1303D01*
X1336Y1303D02*
X1345Y1303D01*
X1363Y1303D02*
X1374Y1303D01*
X1408Y1303D02*
X1457Y1303D01*
X1500Y1303D02*
X1509Y1303D01*
X1553Y1303D02*
X1564Y1303D01*
X1589Y1303D02*
X1600Y1303D01*
X1632Y1303D02*
X1642Y1303D01*
X1655Y1303D02*
X1665Y1303D01*
X1729Y1303D02*
X1738Y1303D01*
X1997Y1303D02*
X2006Y1303D01*
X2022Y1303D02*
X2033Y1303D01*
X2069Y1303D02*
X2078Y1303D01*
X2109Y1303D02*
X2118Y1303D01*
X2151Y1303D02*
X2160Y1303D01*
X2215Y1303D02*
X2261Y1303D01*
X2285Y1303D02*
X2294Y1303D01*
X2363Y1303D02*
X2373Y1303D01*
X2390Y1303D02*
X2400Y1303D01*
X2665Y1303D02*
X2674Y1303D01*
X490Y1302D02*
X499Y1302D01*
X830Y1302D02*
X839Y1302D01*
X909Y1302D02*
X919Y1302D01*
X984Y1302D02*
X993Y1302D01*
X1006Y1302D02*
X1016Y1302D01*
X1282Y1302D02*
X1291Y1302D01*
X1336Y1302D02*
X1345Y1302D01*
X1364Y1302D02*
X1375Y1302D01*
X1408Y1302D02*
X1456Y1302D01*
X1500Y1302D02*
X1509Y1302D01*
X1552Y1302D02*
X1563Y1302D01*
X1590Y1302D02*
X1600Y1302D01*
X1632Y1302D02*
X1642Y1302D01*
X1655Y1302D02*
X1665Y1302D01*
X1729Y1302D02*
X1738Y1302D01*
X1997Y1302D02*
X2006Y1302D01*
X2023Y1302D02*
X2034Y1302D01*
X2069Y1302D02*
X2078Y1302D01*
X2109Y1302D02*
X2118Y1302D01*
X2151Y1302D02*
X2160Y1302D01*
X2215Y1302D02*
X2261Y1302D01*
X2285Y1302D02*
X2294Y1302D01*
X2364Y1302D02*
X2374Y1302D01*
X2389Y1302D02*
X2399Y1302D01*
X2665Y1302D02*
X2674Y1302D01*
X490Y1301D02*
X499Y1301D01*
X830Y1301D02*
X839Y1301D01*
X909Y1301D02*
X920Y1301D01*
X984Y1301D02*
X993Y1301D01*
X1005Y1301D02*
X1016Y1301D01*
X1282Y1301D02*
X1291Y1301D01*
X1336Y1301D02*
X1345Y1301D01*
X1365Y1301D02*
X1375Y1301D01*
X1408Y1301D02*
X1455Y1301D01*
X1500Y1301D02*
X1509Y1301D01*
X1552Y1301D02*
X1562Y1301D01*
X1591Y1301D02*
X1600Y1301D01*
X1633Y1301D02*
X1643Y1301D01*
X1654Y1301D02*
X1664Y1301D01*
X1729Y1301D02*
X1738Y1301D01*
X1997Y1301D02*
X2006Y1301D01*
X2023Y1301D02*
X2034Y1301D01*
X2069Y1301D02*
X2078Y1301D01*
X2109Y1301D02*
X2118Y1301D01*
X2151Y1301D02*
X2160Y1301D01*
X2214Y1301D02*
X2261Y1301D01*
X2285Y1301D02*
X2294Y1301D01*
X2364Y1301D02*
X2374Y1301D01*
X2389Y1301D02*
X2399Y1301D01*
X2665Y1301D02*
X2674Y1301D01*
X490Y1300D02*
X499Y1300D01*
X830Y1300D02*
X839Y1300D01*
X910Y1300D02*
X920Y1300D01*
X984Y1300D02*
X993Y1300D01*
X1005Y1300D02*
X1015Y1300D01*
X1282Y1300D02*
X1291Y1300D01*
X1336Y1300D02*
X1345Y1300D01*
X1365Y1300D02*
X1376Y1300D01*
X1408Y1300D02*
X1454Y1300D01*
X1500Y1300D02*
X1509Y1300D01*
X1552Y1300D02*
X1561Y1300D01*
X1591Y1300D02*
X1600Y1300D01*
X1633Y1300D02*
X1643Y1300D01*
X1654Y1300D02*
X1664Y1300D01*
X1729Y1300D02*
X1738Y1300D01*
X1997Y1300D02*
X2006Y1300D01*
X2024Y1300D02*
X2035Y1300D01*
X2069Y1300D02*
X2078Y1300D01*
X2109Y1300D02*
X2118Y1300D01*
X2151Y1300D02*
X2160Y1300D01*
X2214Y1300D02*
X2227Y1300D01*
X2248Y1300D02*
X2261Y1300D01*
X2285Y1300D02*
X2294Y1300D01*
X2364Y1300D02*
X2374Y1300D01*
X2388Y1300D02*
X2399Y1300D01*
X2665Y1300D02*
X2674Y1300D01*
X490Y1299D02*
X499Y1299D01*
X830Y1299D02*
X839Y1299D01*
X910Y1299D02*
X921Y1299D01*
X984Y1299D02*
X993Y1299D01*
X1004Y1299D02*
X1015Y1299D01*
X1282Y1299D02*
X1291Y1299D01*
X1336Y1299D02*
X1345Y1299D01*
X1366Y1299D02*
X1377Y1299D01*
X1408Y1299D02*
X1417Y1299D01*
X1500Y1299D02*
X1509Y1299D01*
X1552Y1299D02*
X1561Y1299D01*
X1591Y1299D02*
X1600Y1299D01*
X1634Y1299D02*
X1644Y1299D01*
X1653Y1299D02*
X1664Y1299D01*
X1729Y1299D02*
X1738Y1299D01*
X1997Y1299D02*
X2006Y1299D01*
X2025Y1299D02*
X2035Y1299D01*
X2069Y1299D02*
X2078Y1299D01*
X2109Y1299D02*
X2118Y1299D01*
X2151Y1299D02*
X2160Y1299D01*
X2214Y1299D02*
X2224Y1299D01*
X2250Y1299D02*
X2261Y1299D01*
X2285Y1299D02*
X2294Y1299D01*
X2365Y1299D02*
X2375Y1299D01*
X2388Y1299D02*
X2398Y1299D01*
X2665Y1299D02*
X2674Y1299D01*
X490Y1298D02*
X499Y1298D01*
X830Y1298D02*
X839Y1298D01*
X911Y1298D02*
X921Y1298D01*
X984Y1298D02*
X993Y1298D01*
X1004Y1298D02*
X1014Y1298D01*
X1282Y1298D02*
X1291Y1298D01*
X1336Y1298D02*
X1345Y1298D01*
X1366Y1298D02*
X1377Y1298D01*
X1408Y1298D02*
X1417Y1298D01*
X1500Y1298D02*
X1509Y1298D01*
X1552Y1298D02*
X1561Y1298D01*
X1591Y1298D02*
X1600Y1298D01*
X1634Y1298D02*
X1644Y1298D01*
X1653Y1298D02*
X1663Y1298D01*
X1729Y1298D02*
X1738Y1298D01*
X1997Y1298D02*
X2006Y1298D01*
X2025Y1298D02*
X2036Y1298D01*
X2069Y1298D02*
X2078Y1298D01*
X2109Y1298D02*
X2118Y1298D01*
X2151Y1298D02*
X2160Y1298D01*
X2213Y1298D02*
X2223Y1298D01*
X2251Y1298D02*
X2261Y1298D01*
X2285Y1298D02*
X2294Y1298D01*
X2365Y1298D02*
X2375Y1298D01*
X2388Y1298D02*
X2398Y1298D01*
X2665Y1298D02*
X2674Y1298D01*
X490Y1297D02*
X499Y1297D01*
X830Y1297D02*
X839Y1297D01*
X911Y1297D02*
X922Y1297D01*
X984Y1297D02*
X993Y1297D01*
X1003Y1297D02*
X1014Y1297D01*
X1282Y1297D02*
X1291Y1297D01*
X1336Y1297D02*
X1345Y1297D01*
X1367Y1297D02*
X1378Y1297D01*
X1408Y1297D02*
X1417Y1297D01*
X1500Y1297D02*
X1509Y1297D01*
X1552Y1297D02*
X1561Y1297D01*
X1591Y1297D02*
X1600Y1297D01*
X1634Y1297D02*
X1644Y1297D01*
X1653Y1297D02*
X1663Y1297D01*
X1729Y1297D02*
X1738Y1297D01*
X1997Y1297D02*
X2006Y1297D01*
X2026Y1297D02*
X2037Y1297D01*
X2069Y1297D02*
X2078Y1297D01*
X2109Y1297D02*
X2118Y1297D01*
X2151Y1297D02*
X2160Y1297D01*
X2213Y1297D02*
X2223Y1297D01*
X2252Y1297D02*
X2261Y1297D01*
X2285Y1297D02*
X2294Y1297D01*
X2366Y1297D02*
X2376Y1297D01*
X2387Y1297D02*
X2397Y1297D01*
X2665Y1297D02*
X2674Y1297D01*
X490Y1296D02*
X499Y1296D01*
X830Y1296D02*
X839Y1296D01*
X912Y1296D02*
X922Y1296D01*
X984Y1296D02*
X993Y1296D01*
X1003Y1296D02*
X1013Y1296D01*
X1282Y1296D02*
X1291Y1296D01*
X1336Y1296D02*
X1345Y1296D01*
X1368Y1296D02*
X1378Y1296D01*
X1408Y1296D02*
X1417Y1296D01*
X1500Y1296D02*
X1509Y1296D01*
X1552Y1296D02*
X1561Y1296D01*
X1591Y1296D02*
X1601Y1296D01*
X1635Y1296D02*
X1645Y1296D01*
X1652Y1296D02*
X1662Y1296D01*
X1729Y1296D02*
X1738Y1296D01*
X1997Y1296D02*
X2006Y1296D01*
X2026Y1296D02*
X2037Y1296D01*
X2069Y1296D02*
X2078Y1296D01*
X2109Y1296D02*
X2118Y1296D01*
X2151Y1296D02*
X2160Y1296D01*
X2213Y1296D02*
X2222Y1296D01*
X2252Y1296D02*
X2261Y1296D01*
X2285Y1296D02*
X2294Y1296D01*
X2366Y1296D02*
X2376Y1296D01*
X2387Y1296D02*
X2397Y1296D01*
X2665Y1296D02*
X2674Y1296D01*
X490Y1295D02*
X499Y1295D01*
X830Y1295D02*
X839Y1295D01*
X912Y1295D02*
X923Y1295D01*
X984Y1295D02*
X993Y1295D01*
X1002Y1295D02*
X1013Y1295D01*
X1282Y1295D02*
X1291Y1295D01*
X1336Y1295D02*
X1345Y1295D01*
X1368Y1295D02*
X1379Y1295D01*
X1408Y1295D02*
X1418Y1295D01*
X1500Y1295D02*
X1509Y1295D01*
X1552Y1295D02*
X1561Y1295D01*
X1591Y1295D02*
X1601Y1295D01*
X1635Y1295D02*
X1645Y1295D01*
X1652Y1295D02*
X1662Y1295D01*
X1729Y1295D02*
X1738Y1295D01*
X1997Y1295D02*
X2006Y1295D01*
X2027Y1295D02*
X2038Y1295D01*
X2069Y1295D02*
X2078Y1295D01*
X2109Y1295D02*
X2118Y1295D01*
X2151Y1295D02*
X2160Y1295D01*
X2213Y1295D02*
X2222Y1295D01*
X2252Y1295D02*
X2261Y1295D01*
X2285Y1295D02*
X2294Y1295D01*
X2367Y1295D02*
X2377Y1295D01*
X2386Y1295D02*
X2396Y1295D01*
X2665Y1295D02*
X2674Y1295D01*
X490Y1294D02*
X499Y1294D01*
X830Y1294D02*
X839Y1294D01*
X913Y1294D02*
X923Y1294D01*
X984Y1294D02*
X993Y1294D01*
X1002Y1294D02*
X1012Y1294D01*
X1282Y1294D02*
X1291Y1294D01*
X1336Y1294D02*
X1345Y1294D01*
X1369Y1294D02*
X1380Y1294D01*
X1408Y1294D02*
X1418Y1294D01*
X1500Y1294D02*
X1509Y1294D01*
X1552Y1294D02*
X1561Y1294D01*
X1590Y1294D02*
X1601Y1294D01*
X1636Y1294D02*
X1646Y1294D01*
X1651Y1294D02*
X1661Y1294D01*
X1729Y1294D02*
X1738Y1294D01*
X1997Y1294D02*
X2006Y1294D01*
X2028Y1294D02*
X2038Y1294D01*
X2069Y1294D02*
X2078Y1294D01*
X2109Y1294D02*
X2118Y1294D01*
X2151Y1294D02*
X2160Y1294D01*
X2213Y1294D02*
X2222Y1294D01*
X2252Y1294D02*
X2261Y1294D01*
X2285Y1294D02*
X2294Y1294D01*
X2367Y1294D02*
X2377Y1294D01*
X2386Y1294D02*
X2396Y1294D01*
X2665Y1294D02*
X2674Y1294D01*
X490Y1293D02*
X499Y1293D01*
X830Y1293D02*
X839Y1293D01*
X913Y1293D02*
X924Y1293D01*
X984Y1293D02*
X993Y1293D01*
X1001Y1293D02*
X1012Y1293D01*
X1282Y1293D02*
X1291Y1293D01*
X1336Y1293D02*
X1345Y1293D01*
X1369Y1293D02*
X1380Y1293D01*
X1409Y1293D02*
X1419Y1293D01*
X1500Y1293D02*
X1509Y1293D01*
X1552Y1293D02*
X1561Y1293D01*
X1588Y1293D02*
X1601Y1293D01*
X1636Y1293D02*
X1646Y1293D01*
X1651Y1293D02*
X1661Y1293D01*
X1729Y1293D02*
X1738Y1293D01*
X1997Y1293D02*
X2006Y1293D01*
X2028Y1293D02*
X2039Y1293D01*
X2069Y1293D02*
X2078Y1293D01*
X2109Y1293D02*
X2118Y1293D01*
X2151Y1293D02*
X2160Y1293D01*
X2185Y1293D02*
X2186Y1293D01*
X2213Y1293D02*
X2222Y1293D01*
X2252Y1293D02*
X2261Y1293D01*
X2285Y1293D02*
X2294Y1293D01*
X2368Y1293D02*
X2378Y1293D01*
X2385Y1293D02*
X2395Y1293D01*
X2665Y1293D02*
X2674Y1293D01*
X490Y1292D02*
X499Y1292D01*
X830Y1292D02*
X874Y1292D01*
X914Y1292D02*
X946Y1292D01*
X979Y1292D02*
X1011Y1292D01*
X1282Y1292D02*
X1291Y1292D01*
X1336Y1292D02*
X1345Y1292D01*
X1370Y1292D02*
X1381Y1292D01*
X1409Y1292D02*
X1420Y1292D01*
X1500Y1292D02*
X1509Y1292D01*
X1552Y1292D02*
X1561Y1292D01*
X1587Y1292D02*
X1601Y1292D01*
X1637Y1292D02*
X1660Y1292D01*
X1729Y1292D02*
X1738Y1292D01*
X1997Y1292D02*
X2006Y1292D01*
X2029Y1292D02*
X2039Y1292D01*
X2069Y1292D02*
X2078Y1292D01*
X2109Y1292D02*
X2118Y1292D01*
X2151Y1292D02*
X2160Y1292D01*
X2183Y1292D02*
X2188Y1292D01*
X2213Y1292D02*
X2222Y1292D01*
X2252Y1292D02*
X2262Y1292D01*
X2285Y1292D02*
X2294Y1292D01*
X2368Y1292D02*
X2378Y1292D01*
X2385Y1292D02*
X2395Y1292D01*
X2665Y1292D02*
X2674Y1292D01*
X490Y1291D02*
X499Y1291D01*
X830Y1291D02*
X877Y1291D01*
X914Y1291D02*
X949Y1291D01*
X976Y1291D02*
X1011Y1291D01*
X1282Y1291D02*
X1291Y1291D01*
X1336Y1291D02*
X1345Y1291D01*
X1370Y1291D02*
X1381Y1291D01*
X1409Y1291D02*
X1421Y1291D01*
X1500Y1291D02*
X1509Y1291D01*
X1552Y1291D02*
X1562Y1291D01*
X1585Y1291D02*
X1601Y1291D01*
X1637Y1291D02*
X1660Y1291D01*
X1729Y1291D02*
X1738Y1291D01*
X1997Y1291D02*
X2006Y1291D01*
X2029Y1291D02*
X2040Y1291D01*
X2069Y1291D02*
X2079Y1291D01*
X2109Y1291D02*
X2118Y1291D01*
X2151Y1291D02*
X2160Y1291D01*
X2182Y1291D02*
X2189Y1291D01*
X2213Y1291D02*
X2222Y1291D01*
X2252Y1291D02*
X2262Y1291D01*
X2285Y1291D02*
X2294Y1291D01*
X2368Y1291D02*
X2378Y1291D01*
X2384Y1291D02*
X2395Y1291D01*
X2665Y1291D02*
X2674Y1291D01*
X490Y1290D02*
X499Y1290D01*
X830Y1290D02*
X878Y1290D01*
X915Y1290D02*
X950Y1290D01*
X975Y1290D02*
X1010Y1290D01*
X1282Y1290D02*
X1291Y1290D01*
X1336Y1290D02*
X1345Y1290D01*
X1371Y1290D02*
X1382Y1290D01*
X1409Y1290D02*
X1422Y1290D01*
X1500Y1290D02*
X1509Y1290D01*
X1553Y1290D02*
X1563Y1290D01*
X1583Y1290D02*
X1601Y1290D01*
X1638Y1290D02*
X1660Y1290D01*
X1729Y1290D02*
X1738Y1290D01*
X1997Y1290D02*
X2006Y1290D01*
X2030Y1290D02*
X2041Y1290D01*
X2069Y1290D02*
X2079Y1290D01*
X2108Y1290D02*
X2118Y1290D01*
X2151Y1290D02*
X2160Y1290D01*
X2181Y1290D02*
X2190Y1290D01*
X2213Y1290D02*
X2222Y1290D01*
X2251Y1290D02*
X2262Y1290D01*
X2285Y1290D02*
X2294Y1290D01*
X2369Y1290D02*
X2379Y1290D01*
X2384Y1290D02*
X2394Y1290D01*
X2665Y1290D02*
X2674Y1290D01*
X490Y1289D02*
X499Y1289D01*
X830Y1289D02*
X879Y1289D01*
X916Y1289D02*
X951Y1289D01*
X975Y1289D02*
X1010Y1289D01*
X1282Y1289D02*
X1291Y1289D01*
X1336Y1289D02*
X1345Y1289D01*
X1372Y1289D02*
X1382Y1289D01*
X1410Y1289D02*
X1424Y1289D01*
X1500Y1289D02*
X1509Y1289D01*
X1553Y1289D02*
X1564Y1289D01*
X1582Y1289D02*
X1601Y1289D01*
X1638Y1289D02*
X1659Y1289D01*
X1729Y1289D02*
X1738Y1289D01*
X1997Y1289D02*
X2006Y1289D01*
X2030Y1289D02*
X2041Y1289D01*
X2070Y1289D02*
X2080Y1289D01*
X2107Y1289D02*
X2118Y1289D01*
X2151Y1289D02*
X2160Y1289D01*
X2181Y1289D02*
X2190Y1289D01*
X2213Y1289D02*
X2222Y1289D01*
X2249Y1289D02*
X2262Y1289D01*
X2285Y1289D02*
X2294Y1289D01*
X2369Y1289D02*
X2379Y1289D01*
X2383Y1289D02*
X2394Y1289D01*
X2665Y1289D02*
X2674Y1289D01*
X490Y1288D02*
X499Y1288D01*
X830Y1288D02*
X879Y1288D01*
X916Y1288D02*
X951Y1288D01*
X974Y1288D02*
X1009Y1288D01*
X1282Y1288D02*
X1291Y1288D01*
X1336Y1288D02*
X1345Y1288D01*
X1372Y1288D02*
X1383Y1288D01*
X1411Y1288D02*
X1454Y1288D01*
X1488Y1288D02*
X1521Y1288D01*
X1553Y1288D02*
X1601Y1288D01*
X1638Y1288D02*
X1659Y1288D01*
X1729Y1288D02*
X1738Y1288D01*
X1997Y1288D02*
X2006Y1288D01*
X2031Y1288D02*
X2042Y1288D01*
X2070Y1288D02*
X2081Y1288D01*
X2106Y1288D02*
X2117Y1288D01*
X2151Y1288D02*
X2160Y1288D01*
X2180Y1288D02*
X2190Y1288D01*
X2213Y1288D02*
X2223Y1288D01*
X2247Y1288D02*
X2262Y1288D01*
X2285Y1288D02*
X2294Y1288D01*
X2370Y1288D02*
X2393Y1288D01*
X2665Y1288D02*
X2674Y1288D01*
X490Y1287D02*
X499Y1287D01*
X830Y1287D02*
X879Y1287D01*
X917Y1287D02*
X951Y1287D01*
X974Y1287D02*
X1008Y1287D01*
X1282Y1287D02*
X1291Y1287D01*
X1336Y1287D02*
X1345Y1287D01*
X1373Y1287D02*
X1384Y1287D01*
X1411Y1287D02*
X1455Y1287D01*
X1487Y1287D02*
X1522Y1287D01*
X1554Y1287D02*
X1601Y1287D01*
X1639Y1287D02*
X1658Y1287D01*
X1729Y1287D02*
X1738Y1287D01*
X1997Y1287D02*
X2006Y1287D01*
X2032Y1287D02*
X2042Y1287D01*
X2070Y1287D02*
X2082Y1287D01*
X2105Y1287D02*
X2117Y1287D01*
X2151Y1287D02*
X2161Y1287D01*
X2180Y1287D02*
X2190Y1287D01*
X2213Y1287D02*
X2223Y1287D01*
X2246Y1287D02*
X2262Y1287D01*
X2285Y1287D02*
X2294Y1287D01*
X2370Y1287D02*
X2393Y1287D01*
X2665Y1287D02*
X2674Y1287D01*
X490Y1286D02*
X499Y1286D01*
X830Y1286D02*
X879Y1286D01*
X918Y1286D02*
X951Y1286D01*
X974Y1286D02*
X1007Y1286D01*
X1282Y1286D02*
X1291Y1286D01*
X1336Y1286D02*
X1345Y1286D01*
X1373Y1286D02*
X1384Y1286D01*
X1412Y1286D02*
X1456Y1286D01*
X1486Y1286D02*
X1523Y1286D01*
X1554Y1286D02*
X1601Y1286D01*
X1639Y1286D02*
X1658Y1286D01*
X1729Y1286D02*
X1738Y1286D01*
X1997Y1286D02*
X2006Y1286D01*
X2032Y1286D02*
X2043Y1286D01*
X2071Y1286D02*
X2083Y1286D01*
X2104Y1286D02*
X2116Y1286D01*
X2151Y1286D02*
X2162Y1286D01*
X2179Y1286D02*
X2190Y1286D01*
X2214Y1286D02*
X2224Y1286D01*
X2244Y1286D02*
X2262Y1286D01*
X2285Y1286D02*
X2294Y1286D01*
X2371Y1286D02*
X2392Y1286D01*
X2665Y1286D02*
X2674Y1286D01*
X490Y1285D02*
X499Y1285D01*
X830Y1285D02*
X879Y1285D01*
X919Y1285D02*
X951Y1285D01*
X975Y1285D02*
X1006Y1285D01*
X1282Y1285D02*
X1291Y1285D01*
X1336Y1285D02*
X1345Y1285D01*
X1374Y1285D02*
X1385Y1285D01*
X1413Y1285D02*
X1457Y1285D01*
X1485Y1285D02*
X1524Y1285D01*
X1555Y1285D02*
X1601Y1285D01*
X1640Y1285D02*
X1657Y1285D01*
X1729Y1285D02*
X1738Y1285D01*
X1997Y1285D02*
X2006Y1285D01*
X2033Y1285D02*
X2044Y1285D01*
X2071Y1285D02*
X2085Y1285D01*
X2102Y1285D02*
X2116Y1285D01*
X2152Y1285D02*
X2163Y1285D01*
X2178Y1285D02*
X2189Y1285D01*
X2214Y1285D02*
X2225Y1285D01*
X2242Y1285D02*
X2262Y1285D01*
X2285Y1285D02*
X2294Y1285D01*
X2371Y1285D02*
X2392Y1285D01*
X2665Y1285D02*
X2674Y1285D01*
X491Y1284D02*
X498Y1284D01*
X830Y1284D02*
X878Y1284D01*
X921Y1284D02*
X950Y1284D01*
X975Y1284D02*
X1005Y1284D01*
X1283Y1284D02*
X1290Y1284D01*
X1336Y1284D02*
X1345Y1284D01*
X1375Y1284D02*
X1385Y1284D01*
X1414Y1284D02*
X1457Y1284D01*
X1485Y1284D02*
X1524Y1284D01*
X1555Y1284D02*
X1601Y1284D01*
X1640Y1284D02*
X1657Y1284D01*
X1729Y1284D02*
X1738Y1284D01*
X1997Y1284D02*
X2006Y1284D01*
X2033Y1284D02*
X2044Y1284D01*
X2072Y1284D02*
X2115Y1284D01*
X2152Y1284D02*
X2189Y1284D01*
X2214Y1284D02*
X2262Y1284D01*
X2285Y1284D02*
X2294Y1284D01*
X2371Y1284D02*
X2392Y1284D01*
X2665Y1284D02*
X2674Y1284D01*
X492Y1283D02*
X497Y1283D01*
X830Y1283D02*
X877Y1283D01*
X923Y1283D02*
X949Y1283D01*
X976Y1283D02*
X1002Y1283D01*
X1284Y1283D02*
X1289Y1283D01*
X1336Y1283D02*
X1345Y1283D01*
X1375Y1283D02*
X1385Y1283D01*
X1416Y1283D02*
X1457Y1283D01*
X1485Y1283D02*
X1524Y1283D01*
X1556Y1283D02*
X1601Y1283D01*
X1642Y1283D02*
X1657Y1283D01*
X1729Y1283D02*
X1738Y1283D01*
X1997Y1283D02*
X2006Y1283D01*
X2034Y1283D02*
X2045Y1283D01*
X2073Y1283D02*
X2114Y1283D01*
X2153Y1283D02*
X2188Y1283D01*
X2215Y1283D02*
X2262Y1283D01*
X2285Y1283D02*
X2294Y1283D01*
X2372Y1283D02*
X2391Y1283D01*
X2665Y1283D02*
X2674Y1283D01*
X831Y1282D02*
X874Y1282D01*
X927Y1282D02*
X946Y1282D01*
X979Y1282D02*
X998Y1282D01*
X1336Y1282D02*
X1345Y1282D01*
X1376Y1282D02*
X1385Y1282D01*
X1417Y1282D02*
X1457Y1282D01*
X1485Y1282D02*
X1524Y1282D01*
X1557Y1282D02*
X1589Y1282D01*
X1592Y1282D02*
X1601Y1282D01*
X1646Y1282D02*
X1656Y1282D01*
X1729Y1282D02*
X1738Y1282D01*
X1997Y1282D02*
X2006Y1282D01*
X2035Y1282D02*
X2045Y1282D01*
X2074Y1282D02*
X2113Y1282D01*
X2153Y1282D02*
X2188Y1282D01*
X2215Y1282D02*
X2262Y1282D01*
X2285Y1282D02*
X2294Y1282D01*
X2372Y1282D02*
X2391Y1282D01*
X2665Y1282D02*
X2674Y1282D01*
X1337Y1281D02*
X1345Y1281D01*
X1376Y1281D02*
X1384Y1281D01*
X1418Y1281D02*
X1456Y1281D01*
X1486Y1281D02*
X1523Y1281D01*
X1559Y1281D02*
X1587Y1281D01*
X1592Y1281D02*
X1600Y1281D01*
X1646Y1281D02*
X1656Y1281D01*
X1729Y1281D02*
X1738Y1281D01*
X1997Y1281D02*
X2006Y1281D01*
X2035Y1281D02*
X2046Y1281D01*
X2075Y1281D02*
X2112Y1281D01*
X2154Y1281D02*
X2187Y1281D01*
X2216Y1281D02*
X2262Y1281D01*
X2285Y1281D02*
X2294Y1281D01*
X2373Y1281D02*
X2390Y1281D01*
X2665Y1281D02*
X2674Y1281D01*
X1337Y1280D02*
X1344Y1280D01*
X1377Y1280D02*
X1384Y1280D01*
X1420Y1280D02*
X1456Y1280D01*
X1486Y1280D02*
X1523Y1280D01*
X1560Y1280D02*
X1585Y1280D01*
X1593Y1280D02*
X1600Y1280D01*
X1645Y1280D02*
X1655Y1280D01*
X1729Y1280D02*
X1738Y1280D01*
X1997Y1280D02*
X2006Y1280D01*
X2036Y1280D02*
X2046Y1280D01*
X2076Y1280D02*
X2111Y1280D01*
X2155Y1280D02*
X2186Y1280D01*
X2217Y1280D02*
X2262Y1280D01*
X2285Y1280D02*
X2294Y1280D01*
X2374Y1280D02*
X2390Y1280D01*
X2665Y1280D02*
X2674Y1280D01*
X1339Y1279D02*
X1343Y1279D01*
X1378Y1279D02*
X1382Y1279D01*
X1422Y1279D02*
X1454Y1279D01*
X1488Y1279D02*
X1521Y1279D01*
X1563Y1279D02*
X1584Y1279D01*
X1594Y1279D02*
X1598Y1279D01*
X1645Y1279D02*
X1655Y1279D01*
X1729Y1279D02*
X1738Y1279D01*
X1997Y1279D02*
X2006Y1279D01*
X2036Y1279D02*
X2046Y1279D01*
X2077Y1279D02*
X2110Y1279D01*
X2155Y1279D02*
X2185Y1279D01*
X2218Y1279D02*
X2251Y1279D01*
X2253Y1279D02*
X2262Y1279D01*
X2285Y1279D02*
X2294Y1279D01*
X2375Y1279D02*
X2389Y1279D01*
X2665Y1279D02*
X2674Y1279D01*
X1644Y1278D02*
X1654Y1278D01*
X1729Y1278D02*
X1738Y1278D01*
X1997Y1278D02*
X2006Y1278D01*
X2037Y1278D02*
X2046Y1278D01*
X2078Y1278D02*
X2109Y1278D01*
X2157Y1278D02*
X2184Y1278D01*
X2219Y1278D02*
X2249Y1278D01*
X2253Y1278D02*
X2262Y1278D01*
X2285Y1278D02*
X2294Y1278D01*
X2379Y1278D02*
X2389Y1278D01*
X2665Y1278D02*
X2674Y1278D01*
X1644Y1277D02*
X1654Y1277D01*
X1730Y1277D02*
X1737Y1277D01*
X1998Y1277D02*
X2005Y1277D01*
X2037Y1277D02*
X2045Y1277D01*
X2080Y1277D02*
X2107Y1277D01*
X2158Y1277D02*
X2183Y1277D01*
X2220Y1277D02*
X2247Y1277D01*
X2254Y1277D02*
X2261Y1277D01*
X2286Y1277D02*
X2293Y1277D01*
X2378Y1277D02*
X2388Y1277D01*
X2666Y1277D02*
X2673Y1277D01*
X1643Y1276D02*
X1653Y1276D01*
X1731Y1276D02*
X1736Y1276D01*
X1999Y1276D02*
X2005Y1276D01*
X2038Y1276D02*
X2044Y1276D01*
X2081Y1276D02*
X2106Y1276D01*
X2160Y1276D02*
X2181Y1276D01*
X2222Y1276D02*
X2246Y1276D01*
X2254Y1276D02*
X2260Y1276D01*
X2287Y1276D02*
X2293Y1276D01*
X2378Y1276D02*
X2388Y1276D01*
X2667Y1276D02*
X2672Y1276D01*
X1643Y1275D02*
X1653Y1275D01*
X1732Y1275D02*
X1735Y1275D01*
X2000Y1275D02*
X2003Y1275D01*
X2040Y1275D02*
X2043Y1275D01*
X2084Y1275D02*
X2103Y1275D01*
X2162Y1275D02*
X2178Y1275D01*
X2225Y1275D02*
X2244Y1275D01*
X2256Y1275D02*
X2259Y1275D01*
X2288Y1275D02*
X2291Y1275D01*
X2377Y1275D02*
X2388Y1275D01*
X2668Y1275D02*
X2671Y1275D01*
X1642Y1274D02*
X1653Y1274D01*
X2377Y1274D02*
X2387Y1274D01*
X1642Y1273D02*
X1652Y1273D01*
X2377Y1273D02*
X2387Y1273D01*
X1642Y1272D02*
X1652Y1272D01*
X2376Y1272D02*
X2386Y1272D01*
X1641Y1271D02*
X1651Y1271D01*
X2376Y1271D02*
X2386Y1271D01*
X1641Y1270D02*
X1651Y1270D01*
X2375Y1270D02*
X2385Y1270D01*
X1640Y1269D02*
X1650Y1269D01*
X2375Y1269D02*
X2385Y1269D01*
X1640Y1268D02*
X1650Y1268D01*
X2374Y1268D02*
X2385Y1268D01*
X1628Y1267D02*
X1650Y1267D01*
X2374Y1267D02*
X2384Y1267D01*
X1626Y1266D02*
X1649Y1266D01*
X2374Y1266D02*
X2384Y1266D01*
X1625Y1265D02*
X1649Y1265D01*
X2373Y1265D02*
X2383Y1265D01*
X1625Y1264D02*
X1648Y1264D01*
X2373Y1264D02*
X2383Y1264D01*
X1624Y1263D02*
X1648Y1263D01*
X2360Y1263D02*
X2382Y1263D01*
X1624Y1262D02*
X1647Y1262D01*
X2359Y1262D02*
X2382Y1262D01*
X1624Y1261D02*
X1647Y1261D01*
X2358Y1261D02*
X2381Y1261D01*
X1625Y1260D02*
X1646Y1260D01*
X2357Y1260D02*
X2381Y1260D01*
X1625Y1259D02*
X1646Y1259D01*
X2357Y1259D02*
X2381Y1259D01*
X1626Y1258D02*
X1645Y1258D01*
X2357Y1258D02*
X2380Y1258D01*
X2357Y1257D02*
X2380Y1257D01*
X2358Y1256D02*
X2379Y1256D01*
X2358Y1255D02*
X2379Y1255D01*
X2360Y1254D02*
X2377Y1254D01*
X3444Y942D02*
X3480Y942D01*
X3509Y942D02*
X3513Y942D01*
X3549Y942D02*
X3552Y942D01*
X3444Y941D02*
X3482Y941D01*
X3508Y941D02*
X3514Y941D01*
X3548Y941D02*
X3554Y941D01*
X3444Y940D02*
X3483Y940D01*
X3507Y940D02*
X3515Y940D01*
X3547Y940D02*
X3555Y940D01*
X3444Y939D02*
X3483Y939D01*
X3507Y939D02*
X3515Y939D01*
X3546Y939D02*
X3555Y939D01*
X3444Y938D02*
X3483Y938D01*
X3507Y938D02*
X3516Y938D01*
X3546Y938D02*
X3555Y938D01*
X3444Y937D02*
X3483Y937D01*
X3507Y937D02*
X3516Y937D01*
X3546Y937D02*
X3555Y937D01*
X3444Y936D02*
X3483Y936D01*
X3507Y936D02*
X3516Y936D01*
X3546Y936D02*
X3555Y936D01*
X3444Y935D02*
X3483Y935D01*
X3507Y935D02*
X3516Y935D01*
X3546Y935D02*
X3555Y935D01*
X3444Y934D02*
X3482Y934D01*
X3507Y934D02*
X3516Y934D01*
X3546Y934D02*
X3555Y934D01*
X3444Y933D02*
X3480Y933D01*
X3507Y933D02*
X3516Y933D01*
X3546Y933D02*
X3555Y933D01*
X3444Y932D02*
X3454Y932D01*
X3507Y932D02*
X3516Y932D01*
X3546Y932D02*
X3555Y932D01*
X3444Y931D02*
X3454Y931D01*
X3507Y931D02*
X3516Y931D01*
X3546Y931D02*
X3555Y931D01*
X3444Y930D02*
X3454Y930D01*
X3507Y930D02*
X3516Y930D01*
X3546Y930D02*
X3555Y930D01*
X3444Y929D02*
X3454Y929D01*
X3507Y929D02*
X3516Y929D01*
X3546Y929D02*
X3555Y929D01*
X3444Y928D02*
X3454Y928D01*
X3507Y928D02*
X3516Y928D01*
X3546Y928D02*
X3555Y928D01*
X3444Y927D02*
X3454Y927D01*
X3507Y927D02*
X3516Y927D01*
X3546Y927D02*
X3555Y927D01*
X3444Y926D02*
X3454Y926D01*
X3507Y926D02*
X3516Y926D01*
X3546Y926D02*
X3555Y926D01*
X3444Y925D02*
X3454Y925D01*
X3507Y925D02*
X3516Y925D01*
X3546Y925D02*
X3555Y925D01*
X3444Y924D02*
X3454Y924D01*
X3507Y924D02*
X3516Y924D01*
X3546Y924D02*
X3555Y924D01*
X3444Y923D02*
X3454Y923D01*
X3507Y923D02*
X3516Y923D01*
X3546Y923D02*
X3555Y923D01*
X3444Y922D02*
X3454Y922D01*
X3507Y922D02*
X3516Y922D01*
X3546Y922D02*
X3555Y922D01*
X3444Y921D02*
X3454Y921D01*
X3507Y921D02*
X3516Y921D01*
X3546Y921D02*
X3555Y921D01*
X3444Y920D02*
X3454Y920D01*
X3507Y920D02*
X3516Y920D01*
X3546Y920D02*
X3555Y920D01*
X3444Y919D02*
X3454Y919D01*
X3507Y919D02*
X3517Y919D01*
X3545Y919D02*
X3555Y919D01*
X3444Y918D02*
X3454Y918D01*
X3507Y918D02*
X3517Y918D01*
X3545Y918D02*
X3555Y918D01*
X3444Y917D02*
X3454Y917D01*
X3507Y917D02*
X3517Y917D01*
X3544Y917D02*
X3554Y917D01*
X3444Y916D02*
X3454Y916D01*
X3508Y916D02*
X3518Y916D01*
X3544Y916D02*
X3554Y916D01*
X3444Y915D02*
X3454Y915D01*
X3508Y915D02*
X3518Y915D01*
X3544Y915D02*
X3554Y915D01*
X3444Y914D02*
X3454Y914D01*
X3509Y914D02*
X3519Y914D01*
X3543Y914D02*
X3553Y914D01*
X3444Y913D02*
X3454Y913D01*
X3509Y913D02*
X3519Y913D01*
X3543Y913D02*
X3553Y913D01*
X3444Y912D02*
X3454Y912D01*
X3509Y912D02*
X3519Y912D01*
X3543Y912D02*
X3552Y912D01*
X3444Y911D02*
X3454Y911D01*
X3510Y911D02*
X3520Y911D01*
X3542Y911D02*
X3552Y911D01*
X3444Y910D02*
X3454Y910D01*
X3510Y910D02*
X3520Y910D01*
X3542Y910D02*
X3552Y910D01*
X3444Y909D02*
X3454Y909D01*
X3511Y909D02*
X3520Y909D01*
X3541Y909D02*
X3551Y909D01*
X3444Y908D02*
X3477Y908D01*
X3511Y908D02*
X3521Y908D01*
X3541Y908D02*
X3551Y908D01*
X3444Y907D02*
X3479Y907D01*
X3511Y907D02*
X3521Y907D01*
X3541Y907D02*
X3550Y907D01*
X3444Y906D02*
X3480Y906D01*
X3512Y906D02*
X3522Y906D01*
X3540Y906D02*
X3550Y906D01*
X3444Y905D02*
X3481Y905D01*
X3512Y905D02*
X3522Y905D01*
X3540Y905D02*
X3550Y905D01*
X3444Y904D02*
X3482Y904D01*
X3513Y904D02*
X3522Y904D01*
X3539Y904D02*
X3549Y904D01*
X3444Y903D02*
X3482Y903D01*
X3513Y903D02*
X3523Y903D01*
X3539Y903D02*
X3549Y903D01*
X3444Y902D02*
X3483Y902D01*
X3513Y902D02*
X3523Y902D01*
X3539Y902D02*
X3548Y902D01*
X3444Y901D02*
X3483Y901D01*
X3514Y901D02*
X3524Y901D01*
X3538Y901D02*
X3548Y901D01*
X3444Y900D02*
X3483Y900D01*
X3514Y900D02*
X3524Y900D01*
X3538Y900D02*
X3548Y900D01*
X3444Y899D02*
X3483Y899D01*
X3514Y899D02*
X3524Y899D01*
X3537Y899D02*
X3547Y899D01*
X3474Y898D02*
X3483Y898D01*
X3515Y898D02*
X3525Y898D01*
X3537Y898D02*
X3547Y898D01*
X3474Y897D02*
X3483Y897D01*
X3515Y897D02*
X3525Y897D01*
X3537Y897D02*
X3547Y897D01*
X3474Y896D02*
X3483Y896D01*
X3516Y896D02*
X3526Y896D01*
X3536Y896D02*
X3546Y896D01*
X3474Y895D02*
X3483Y895D01*
X3516Y895D02*
X3526Y895D01*
X3536Y895D02*
X3546Y895D01*
X3474Y894D02*
X3483Y894D01*
X3516Y894D02*
X3526Y894D01*
X3535Y894D02*
X3545Y894D01*
X3474Y893D02*
X3483Y893D01*
X3517Y893D02*
X3527Y893D01*
X3535Y893D02*
X3545Y893D01*
X3474Y892D02*
X3483Y892D01*
X3517Y892D02*
X3527Y892D01*
X3535Y892D02*
X3545Y892D01*
X3474Y891D02*
X3483Y891D01*
X3518Y891D02*
X3528Y891D01*
X3534Y891D02*
X3544Y891D01*
X3474Y890D02*
X3483Y890D01*
X3518Y890D02*
X3528Y890D01*
X3534Y890D02*
X3544Y890D01*
X3474Y889D02*
X3483Y889D01*
X3518Y889D02*
X3528Y889D01*
X3533Y889D02*
X3543Y889D01*
X3474Y888D02*
X3483Y888D01*
X3519Y888D02*
X3529Y888D01*
X3533Y888D02*
X3543Y888D01*
X3474Y887D02*
X3483Y887D01*
X3519Y887D02*
X3529Y887D01*
X3533Y887D02*
X3543Y887D01*
X3474Y886D02*
X3483Y886D01*
X3520Y886D02*
X3529Y886D01*
X3532Y886D02*
X3542Y886D01*
X3474Y885D02*
X3483Y885D01*
X3520Y885D02*
X3530Y885D01*
X3532Y885D02*
X3542Y885D01*
X3474Y884D02*
X3483Y884D01*
X3520Y884D02*
X3541Y884D01*
X3474Y883D02*
X3483Y883D01*
X3521Y883D02*
X3541Y883D01*
X3474Y882D02*
X3483Y882D01*
X3521Y882D02*
X3541Y882D01*
X3474Y881D02*
X3483Y881D01*
X3521Y881D02*
X3540Y881D01*
X3474Y880D02*
X3483Y880D01*
X3522Y880D02*
X3540Y880D01*
X3474Y879D02*
X3483Y879D01*
X3522Y879D02*
X3539Y879D01*
X3437Y878D02*
X3442Y878D01*
X3474Y878D02*
X3483Y878D01*
X3523Y878D02*
X3539Y878D01*
X3436Y877D02*
X3444Y877D01*
X3474Y877D02*
X3483Y877D01*
X3523Y877D02*
X3539Y877D01*
X3435Y876D02*
X3446Y876D01*
X3474Y876D02*
X3483Y876D01*
X3523Y876D02*
X3538Y876D01*
X3435Y875D02*
X3449Y875D01*
X3474Y875D02*
X3483Y875D01*
X3524Y875D02*
X3538Y875D01*
X3435Y874D02*
X3483Y874D01*
X3524Y874D02*
X3538Y874D01*
X3435Y873D02*
X3483Y873D01*
X3525Y873D02*
X3537Y873D01*
X3435Y872D02*
X3483Y872D01*
X3525Y872D02*
X3537Y872D01*
X3435Y871D02*
X3483Y871D01*
X3525Y871D02*
X3536Y871D01*
X3436Y870D02*
X3482Y870D01*
X3526Y870D02*
X3536Y870D01*
X3438Y869D02*
X3481Y869D01*
X3526Y869D02*
X3536Y869D01*
X3440Y868D02*
X3481Y868D01*
X3527Y868D02*
X3535Y868D01*
X3442Y867D02*
X3480Y867D01*
X3527Y867D02*
X3535Y867D01*
X3444Y866D02*
X3478Y866D01*
X3528Y866D02*
X3534Y866D01*
X3448Y865D02*
X3476Y865D01*
X3529Y865D02*
X3533Y865D01*
X444Y469D02*
X456Y469D01*
X481Y469D02*
X493Y469D01*
X516Y469D02*
X554Y469D01*
X591Y469D02*
X595Y469D01*
X631Y469D02*
X634Y469D01*
X670Y469D02*
X706Y469D01*
X735Y469D02*
X761Y469D01*
X811Y469D02*
X846Y469D01*
X883Y469D02*
X918Y469D01*
X951Y469D02*
X975Y469D01*
X1020Y469D02*
X1058Y469D01*
X444Y468D02*
X457Y468D01*
X480Y468D02*
X493Y468D01*
X516Y468D02*
X557Y468D01*
X590Y468D02*
X596Y468D01*
X629Y468D02*
X636Y468D01*
X670Y468D02*
X708Y468D01*
X734Y468D02*
X761Y468D01*
X809Y468D02*
X848Y468D01*
X881Y468D02*
X920Y468D01*
X950Y468D02*
X978Y468D01*
X1020Y468D02*
X1061Y468D01*
X444Y467D02*
X458Y467D01*
X480Y467D02*
X493Y467D01*
X516Y467D02*
X558Y467D01*
X589Y467D02*
X597Y467D01*
X629Y467D02*
X636Y467D01*
X670Y467D02*
X708Y467D01*
X733Y467D02*
X761Y467D01*
X808Y467D02*
X850Y467D01*
X880Y467D02*
X922Y467D01*
X949Y467D02*
X979Y467D01*
X1020Y467D02*
X1062Y467D01*
X444Y466D02*
X459Y466D01*
X479Y466D02*
X493Y466D01*
X516Y466D02*
X560Y466D01*
X589Y466D02*
X597Y466D01*
X628Y466D02*
X637Y466D01*
X670Y466D02*
X709Y466D01*
X733Y466D02*
X761Y466D01*
X807Y466D02*
X851Y466D01*
X879Y466D02*
X923Y466D01*
X949Y466D02*
X980Y466D01*
X1020Y466D02*
X1064Y466D01*
X444Y465D02*
X459Y465D01*
X478Y465D02*
X493Y465D01*
X516Y465D02*
X561Y465D01*
X588Y465D02*
X598Y465D01*
X627Y465D02*
X637Y465D01*
X670Y465D02*
X709Y465D01*
X732Y465D02*
X761Y465D01*
X806Y465D02*
X851Y465D01*
X878Y465D02*
X923Y465D01*
X948Y465D02*
X982Y465D01*
X1020Y465D02*
X1065Y465D01*
X444Y464D02*
X460Y464D01*
X478Y464D02*
X493Y464D01*
X516Y464D02*
X562Y464D01*
X588Y464D02*
X599Y464D01*
X627Y464D02*
X637Y464D01*
X670Y464D02*
X709Y464D01*
X732Y464D02*
X761Y464D01*
X805Y464D02*
X852Y464D01*
X877Y464D02*
X924Y464D01*
X948Y464D02*
X983Y464D01*
X1020Y464D02*
X1066Y464D01*
X444Y463D02*
X461Y463D01*
X477Y463D02*
X493Y463D01*
X516Y463D02*
X562Y463D01*
X589Y463D02*
X599Y463D01*
X626Y463D02*
X637Y463D01*
X670Y463D02*
X709Y463D01*
X733Y463D02*
X761Y463D01*
X805Y463D02*
X853Y463D01*
X877Y463D02*
X925Y463D01*
X949Y463D02*
X983Y463D01*
X1020Y463D02*
X1066Y463D01*
X444Y462D02*
X461Y462D01*
X476Y462D02*
X493Y462D01*
X516Y462D02*
X563Y462D01*
X589Y462D02*
X600Y462D01*
X626Y462D02*
X636Y462D01*
X670Y462D02*
X708Y462D01*
X733Y462D02*
X761Y462D01*
X805Y462D02*
X853Y462D01*
X877Y462D02*
X925Y462D01*
X949Y462D02*
X984Y462D01*
X1020Y462D02*
X1067Y462D01*
X444Y461D02*
X462Y461D01*
X475Y461D02*
X493Y461D01*
X516Y461D02*
X564Y461D01*
X590Y461D02*
X600Y461D01*
X625Y461D02*
X636Y461D01*
X670Y461D02*
X708Y461D01*
X734Y461D02*
X761Y461D01*
X804Y461D02*
X853Y461D01*
X876Y461D02*
X925Y461D01*
X950Y461D02*
X985Y461D01*
X1020Y461D02*
X1068Y461D01*
X444Y460D02*
X463Y460D01*
X475Y460D02*
X493Y460D01*
X516Y460D02*
X564Y460D01*
X590Y460D02*
X601Y460D01*
X624Y460D02*
X635Y460D01*
X670Y460D02*
X706Y460D01*
X735Y460D02*
X761Y460D01*
X804Y460D02*
X853Y460D01*
X876Y460D02*
X925Y460D01*
X951Y460D02*
X985Y460D01*
X1020Y460D02*
X1068Y460D01*
X444Y459D02*
X463Y459D01*
X474Y459D02*
X493Y459D01*
X516Y459D02*
X525Y459D01*
X553Y459D02*
X564Y459D01*
X591Y459D02*
X602Y459D01*
X624Y459D02*
X635Y459D01*
X670Y459D02*
X679Y459D01*
X752Y459D02*
X761Y459D01*
X804Y459D02*
X813Y459D01*
X844Y459D02*
X853Y459D01*
X876Y459D02*
X885Y459D01*
X916Y459D02*
X925Y459D01*
X958Y459D02*
X967Y459D01*
X974Y459D02*
X986Y459D01*
X1020Y459D02*
X1029Y459D01*
X1057Y459D02*
X1068Y459D01*
X444Y458D02*
X464Y458D01*
X473Y458D02*
X493Y458D01*
X516Y458D02*
X525Y458D01*
X554Y458D02*
X565Y458D01*
X591Y458D02*
X602Y458D01*
X623Y458D02*
X634Y458D01*
X670Y458D02*
X679Y458D01*
X752Y458D02*
X761Y458D01*
X804Y458D02*
X813Y458D01*
X844Y458D02*
X853Y458D01*
X876Y458D02*
X885Y458D01*
X916Y458D02*
X925Y458D01*
X958Y458D02*
X967Y458D01*
X975Y458D02*
X986Y458D01*
X1020Y458D02*
X1029Y458D01*
X1058Y458D02*
X1069Y458D01*
X444Y457D02*
X465Y457D01*
X473Y457D02*
X493Y457D01*
X516Y457D02*
X525Y457D01*
X555Y457D02*
X565Y457D01*
X592Y457D02*
X603Y457D01*
X623Y457D02*
X633Y457D01*
X670Y457D02*
X679Y457D01*
X752Y457D02*
X761Y457D01*
X804Y457D02*
X813Y457D01*
X844Y457D02*
X853Y457D01*
X876Y457D02*
X885Y457D01*
X916Y457D02*
X925Y457D01*
X958Y457D02*
X967Y457D01*
X976Y457D02*
X987Y457D01*
X1020Y457D02*
X1029Y457D01*
X1059Y457D02*
X1069Y457D01*
X444Y456D02*
X466Y456D01*
X472Y456D02*
X493Y456D01*
X516Y456D02*
X525Y456D01*
X556Y456D02*
X565Y456D01*
X592Y456D02*
X603Y456D01*
X622Y456D02*
X633Y456D01*
X670Y456D02*
X679Y456D01*
X752Y456D02*
X761Y456D01*
X804Y456D02*
X813Y456D01*
X844Y456D02*
X853Y456D01*
X876Y456D02*
X885Y456D01*
X916Y456D02*
X925Y456D01*
X958Y456D02*
X967Y456D01*
X977Y456D02*
X987Y456D01*
X1020Y456D02*
X1029Y456D01*
X1060Y456D02*
X1069Y456D01*
X444Y455D02*
X466Y455D01*
X471Y455D02*
X493Y455D01*
X516Y455D02*
X525Y455D01*
X556Y455D02*
X565Y455D01*
X593Y455D02*
X604Y455D01*
X622Y455D02*
X632Y455D01*
X670Y455D02*
X679Y455D01*
X752Y455D02*
X761Y455D01*
X804Y455D02*
X813Y455D01*
X844Y455D02*
X853Y455D01*
X876Y455D02*
X885Y455D01*
X916Y455D02*
X925Y455D01*
X958Y455D02*
X967Y455D01*
X977Y455D02*
X988Y455D01*
X1020Y455D02*
X1029Y455D01*
X1060Y455D02*
X1069Y455D01*
X444Y454D02*
X453Y454D01*
X456Y454D02*
X467Y454D01*
X471Y454D02*
X482Y454D01*
X484Y454D02*
X493Y454D01*
X516Y454D02*
X525Y454D01*
X556Y454D02*
X565Y454D01*
X594Y454D02*
X604Y454D01*
X621Y454D02*
X632Y454D01*
X670Y454D02*
X679Y454D01*
X752Y454D02*
X761Y454D01*
X804Y454D02*
X813Y454D01*
X844Y454D02*
X853Y454D01*
X876Y454D02*
X885Y454D01*
X916Y454D02*
X925Y454D01*
X958Y454D02*
X967Y454D01*
X978Y454D02*
X988Y454D01*
X1020Y454D02*
X1029Y454D01*
X1060Y454D02*
X1069Y454D01*
X444Y453D02*
X453Y453D01*
X456Y453D02*
X468Y453D01*
X470Y453D02*
X481Y453D01*
X484Y453D02*
X493Y453D01*
X516Y453D02*
X525Y453D01*
X556Y453D02*
X565Y453D01*
X594Y453D02*
X605Y453D01*
X620Y453D02*
X631Y453D01*
X670Y453D02*
X679Y453D01*
X752Y453D02*
X761Y453D01*
X804Y453D02*
X813Y453D01*
X844Y453D02*
X853Y453D01*
X876Y453D02*
X885Y453D01*
X916Y453D02*
X925Y453D01*
X958Y453D02*
X967Y453D01*
X978Y453D02*
X989Y453D01*
X1020Y453D02*
X1029Y453D01*
X1060Y453D02*
X1069Y453D01*
X444Y452D02*
X453Y452D01*
X457Y452D02*
X480Y452D01*
X484Y452D02*
X493Y452D01*
X516Y452D02*
X525Y452D01*
X556Y452D02*
X565Y452D01*
X595Y452D02*
X606Y452D01*
X620Y452D02*
X631Y452D01*
X670Y452D02*
X679Y452D01*
X752Y452D02*
X761Y452D01*
X804Y452D02*
X813Y452D01*
X844Y452D02*
X853Y452D01*
X876Y452D02*
X885Y452D01*
X916Y452D02*
X925Y452D01*
X958Y452D02*
X967Y452D01*
X979Y452D02*
X989Y452D01*
X1020Y452D02*
X1029Y452D01*
X1060Y452D02*
X1069Y452D01*
X444Y451D02*
X453Y451D01*
X458Y451D02*
X480Y451D01*
X484Y451D02*
X493Y451D01*
X516Y451D02*
X525Y451D01*
X556Y451D02*
X565Y451D01*
X595Y451D02*
X606Y451D01*
X619Y451D02*
X630Y451D01*
X670Y451D02*
X679Y451D01*
X752Y451D02*
X761Y451D01*
X804Y451D02*
X813Y451D01*
X844Y451D02*
X853Y451D01*
X876Y451D02*
X885Y451D01*
X916Y451D02*
X925Y451D01*
X958Y451D02*
X967Y451D01*
X979Y451D02*
X990Y451D01*
X1020Y451D02*
X1029Y451D01*
X1060Y451D02*
X1069Y451D01*
X444Y450D02*
X453Y450D01*
X458Y450D02*
X479Y450D01*
X484Y450D02*
X493Y450D01*
X516Y450D02*
X525Y450D01*
X556Y450D02*
X565Y450D01*
X596Y450D02*
X607Y450D01*
X619Y450D02*
X629Y450D01*
X670Y450D02*
X679Y450D01*
X752Y450D02*
X761Y450D01*
X804Y450D02*
X813Y450D01*
X844Y450D02*
X853Y450D01*
X876Y450D02*
X885Y450D01*
X916Y450D02*
X925Y450D01*
X958Y450D02*
X967Y450D01*
X980Y450D02*
X990Y450D01*
X1020Y450D02*
X1029Y450D01*
X1060Y450D02*
X1069Y450D01*
X444Y449D02*
X453Y449D01*
X459Y449D02*
X478Y449D01*
X484Y449D02*
X493Y449D01*
X516Y449D02*
X525Y449D01*
X556Y449D02*
X565Y449D01*
X597Y449D02*
X607Y449D01*
X618Y449D02*
X629Y449D01*
X670Y449D02*
X679Y449D01*
X752Y449D02*
X761Y449D01*
X804Y449D02*
X813Y449D01*
X844Y449D02*
X853Y449D01*
X876Y449D02*
X885Y449D01*
X916Y449D02*
X925Y449D01*
X958Y449D02*
X967Y449D01*
X980Y449D02*
X991Y449D01*
X1020Y449D02*
X1029Y449D01*
X1060Y449D02*
X1069Y449D01*
X444Y448D02*
X453Y448D01*
X460Y448D02*
X478Y448D01*
X484Y448D02*
X493Y448D01*
X516Y448D02*
X525Y448D01*
X556Y448D02*
X565Y448D01*
X597Y448D02*
X608Y448D01*
X617Y448D02*
X628Y448D01*
X670Y448D02*
X679Y448D01*
X752Y448D02*
X761Y448D01*
X804Y448D02*
X813Y448D01*
X844Y448D02*
X853Y448D01*
X876Y448D02*
X885Y448D01*
X916Y448D02*
X925Y448D01*
X958Y448D02*
X967Y448D01*
X981Y448D02*
X991Y448D01*
X1020Y448D02*
X1029Y448D01*
X1060Y448D02*
X1069Y448D01*
X444Y447D02*
X453Y447D01*
X460Y447D02*
X477Y447D01*
X484Y447D02*
X493Y447D01*
X516Y447D02*
X525Y447D01*
X556Y447D02*
X565Y447D01*
X598Y447D02*
X609Y447D01*
X617Y447D02*
X628Y447D01*
X670Y447D02*
X679Y447D01*
X752Y447D02*
X761Y447D01*
X804Y447D02*
X813Y447D01*
X844Y447D02*
X853Y447D01*
X876Y447D02*
X885Y447D01*
X916Y447D02*
X925Y447D01*
X958Y447D02*
X967Y447D01*
X981Y447D02*
X992Y447D01*
X1020Y447D02*
X1029Y447D01*
X1060Y447D02*
X1069Y447D01*
X444Y446D02*
X453Y446D01*
X461Y446D02*
X476Y446D01*
X484Y446D02*
X493Y446D01*
X516Y446D02*
X525Y446D01*
X556Y446D02*
X565Y446D01*
X598Y446D02*
X609Y446D01*
X616Y446D02*
X627Y446D01*
X670Y446D02*
X679Y446D01*
X752Y446D02*
X761Y446D01*
X804Y446D02*
X813Y446D01*
X844Y446D02*
X853Y446D01*
X876Y446D02*
X885Y446D01*
X916Y446D02*
X925Y446D01*
X958Y446D02*
X967Y446D01*
X982Y446D02*
X992Y446D01*
X1020Y446D02*
X1029Y446D01*
X1060Y446D02*
X1069Y446D01*
X444Y445D02*
X453Y445D01*
X462Y445D02*
X476Y445D01*
X484Y445D02*
X493Y445D01*
X516Y445D02*
X525Y445D01*
X556Y445D02*
X565Y445D01*
X599Y445D02*
X610Y445D01*
X616Y445D02*
X626Y445D01*
X670Y445D02*
X679Y445D01*
X752Y445D02*
X761Y445D01*
X804Y445D02*
X813Y445D01*
X844Y445D02*
X853Y445D01*
X876Y445D02*
X885Y445D01*
X916Y445D02*
X925Y445D01*
X958Y445D02*
X967Y445D01*
X982Y445D02*
X993Y445D01*
X1020Y445D02*
X1029Y445D01*
X1060Y445D02*
X1069Y445D01*
X444Y444D02*
X453Y444D01*
X463Y444D02*
X475Y444D01*
X484Y444D02*
X493Y444D01*
X516Y444D02*
X525Y444D01*
X556Y444D02*
X565Y444D01*
X600Y444D02*
X610Y444D01*
X615Y444D02*
X626Y444D01*
X670Y444D02*
X679Y444D01*
X752Y444D02*
X761Y444D01*
X804Y444D02*
X813Y444D01*
X844Y444D02*
X853Y444D01*
X876Y444D02*
X885Y444D01*
X916Y444D02*
X925Y444D01*
X958Y444D02*
X967Y444D01*
X983Y444D02*
X993Y444D01*
X1020Y444D02*
X1029Y444D01*
X1060Y444D02*
X1069Y444D01*
X444Y443D02*
X453Y443D01*
X463Y443D02*
X474Y443D01*
X484Y443D02*
X493Y443D01*
X516Y443D02*
X525Y443D01*
X556Y443D02*
X565Y443D01*
X600Y443D02*
X611Y443D01*
X615Y443D02*
X625Y443D01*
X670Y443D02*
X679Y443D01*
X752Y443D02*
X761Y443D01*
X804Y443D02*
X813Y443D01*
X844Y443D02*
X853Y443D01*
X876Y443D02*
X885Y443D01*
X916Y443D02*
X925Y443D01*
X958Y443D02*
X967Y443D01*
X983Y443D02*
X994Y443D01*
X1020Y443D02*
X1029Y443D01*
X1060Y443D02*
X1069Y443D01*
X444Y442D02*
X453Y442D01*
X464Y442D02*
X473Y442D01*
X484Y442D02*
X493Y442D01*
X516Y442D02*
X525Y442D01*
X556Y442D02*
X565Y442D01*
X601Y442D02*
X612Y442D01*
X614Y442D02*
X625Y442D01*
X670Y442D02*
X679Y442D01*
X752Y442D02*
X761Y442D01*
X804Y442D02*
X813Y442D01*
X844Y442D02*
X853Y442D01*
X876Y442D02*
X885Y442D01*
X916Y442D02*
X925Y442D01*
X958Y442D02*
X967Y442D01*
X984Y442D02*
X994Y442D01*
X1020Y442D02*
X1029Y442D01*
X1060Y442D02*
X1069Y442D01*
X444Y441D02*
X453Y441D01*
X464Y441D02*
X473Y441D01*
X484Y441D02*
X493Y441D01*
X516Y441D02*
X525Y441D01*
X556Y441D02*
X565Y441D01*
X601Y441D02*
X624Y441D01*
X670Y441D02*
X679Y441D01*
X752Y441D02*
X761Y441D01*
X804Y441D02*
X813Y441D01*
X844Y441D02*
X853Y441D01*
X876Y441D02*
X885Y441D01*
X916Y441D02*
X925Y441D01*
X958Y441D02*
X967Y441D01*
X984Y441D02*
X995Y441D01*
X1020Y441D02*
X1029Y441D01*
X1060Y441D02*
X1069Y441D01*
X444Y440D02*
X453Y440D01*
X464Y440D02*
X473Y440D01*
X484Y440D02*
X493Y440D01*
X516Y440D02*
X525Y440D01*
X556Y440D02*
X565Y440D01*
X602Y440D02*
X624Y440D01*
X670Y440D02*
X679Y440D01*
X752Y440D02*
X761Y440D01*
X804Y440D02*
X813Y440D01*
X844Y440D02*
X853Y440D01*
X876Y440D02*
X885Y440D01*
X916Y440D02*
X925Y440D01*
X958Y440D02*
X967Y440D01*
X985Y440D02*
X995Y440D01*
X1020Y440D02*
X1029Y440D01*
X1060Y440D02*
X1069Y440D01*
X444Y439D02*
X453Y439D01*
X464Y439D02*
X473Y439D01*
X484Y439D02*
X493Y439D01*
X516Y439D02*
X525Y439D01*
X556Y439D02*
X565Y439D01*
X602Y439D02*
X623Y439D01*
X670Y439D02*
X679Y439D01*
X752Y439D02*
X761Y439D01*
X804Y439D02*
X813Y439D01*
X844Y439D02*
X853Y439D01*
X876Y439D02*
X885Y439D01*
X916Y439D02*
X925Y439D01*
X958Y439D02*
X967Y439D01*
X985Y439D02*
X995Y439D01*
X1020Y439D02*
X1029Y439D01*
X1060Y439D02*
X1069Y439D01*
X444Y438D02*
X453Y438D01*
X464Y438D02*
X473Y438D01*
X484Y438D02*
X493Y438D01*
X516Y438D02*
X525Y438D01*
X556Y438D02*
X565Y438D01*
X603Y438D02*
X622Y438D01*
X670Y438D02*
X679Y438D01*
X752Y438D02*
X761Y438D01*
X804Y438D02*
X813Y438D01*
X844Y438D02*
X853Y438D01*
X876Y438D02*
X885Y438D01*
X916Y438D02*
X925Y438D01*
X958Y438D02*
X967Y438D01*
X986Y438D02*
X996Y438D01*
X1020Y438D02*
X1029Y438D01*
X1060Y438D02*
X1069Y438D01*
X444Y437D02*
X453Y437D01*
X465Y437D02*
X473Y437D01*
X484Y437D02*
X493Y437D01*
X516Y437D02*
X525Y437D01*
X556Y437D02*
X565Y437D01*
X604Y437D02*
X622Y437D01*
X670Y437D02*
X679Y437D01*
X752Y437D02*
X761Y437D01*
X804Y437D02*
X813Y437D01*
X844Y437D02*
X853Y437D01*
X876Y437D02*
X885Y437D01*
X916Y437D02*
X925Y437D01*
X958Y437D02*
X967Y437D01*
X986Y437D02*
X996Y437D01*
X1020Y437D02*
X1029Y437D01*
X1060Y437D02*
X1069Y437D01*
X444Y436D02*
X453Y436D01*
X465Y436D02*
X472Y436D01*
X484Y436D02*
X493Y436D01*
X516Y436D02*
X525Y436D01*
X556Y436D02*
X565Y436D01*
X604Y436D02*
X621Y436D01*
X670Y436D02*
X680Y436D01*
X752Y436D02*
X761Y436D01*
X804Y436D02*
X813Y436D01*
X844Y436D02*
X853Y436D01*
X876Y436D02*
X885Y436D01*
X916Y436D02*
X925Y436D01*
X958Y436D02*
X967Y436D01*
X987Y436D02*
X996Y436D01*
X1020Y436D02*
X1029Y436D01*
X1060Y436D02*
X1069Y436D01*
X444Y435D02*
X453Y435D01*
X466Y435D02*
X471Y435D01*
X484Y435D02*
X493Y435D01*
X516Y435D02*
X525Y435D01*
X556Y435D02*
X565Y435D01*
X605Y435D02*
X621Y435D01*
X670Y435D02*
X703Y435D01*
X752Y435D02*
X761Y435D01*
X804Y435D02*
X813Y435D01*
X844Y435D02*
X853Y435D01*
X876Y435D02*
X885Y435D01*
X916Y435D02*
X925Y435D01*
X958Y435D02*
X967Y435D01*
X987Y435D02*
X997Y435D01*
X1020Y435D02*
X1029Y435D01*
X1060Y435D02*
X1069Y435D01*
X444Y434D02*
X453Y434D01*
X484Y434D02*
X493Y434D01*
X516Y434D02*
X525Y434D01*
X555Y434D02*
X565Y434D01*
X605Y434D02*
X620Y434D01*
X670Y434D02*
X705Y434D01*
X752Y434D02*
X761Y434D01*
X804Y434D02*
X813Y434D01*
X844Y434D02*
X853Y434D01*
X876Y434D02*
X885Y434D01*
X916Y434D02*
X925Y434D01*
X958Y434D02*
X967Y434D01*
X988Y434D02*
X997Y434D01*
X1020Y434D02*
X1029Y434D01*
X1059Y434D02*
X1069Y434D01*
X444Y433D02*
X453Y433D01*
X484Y433D02*
X493Y433D01*
X516Y433D02*
X525Y433D01*
X554Y433D02*
X565Y433D01*
X606Y433D02*
X619Y433D01*
X670Y433D02*
X706Y433D01*
X752Y433D02*
X761Y433D01*
X804Y433D02*
X813Y433D01*
X844Y433D02*
X853Y433D01*
X876Y433D02*
X885Y433D01*
X916Y433D02*
X925Y433D01*
X958Y433D02*
X967Y433D01*
X988Y433D02*
X997Y433D01*
X1020Y433D02*
X1029Y433D01*
X1058Y433D02*
X1069Y433D01*
X444Y432D02*
X453Y432D01*
X484Y432D02*
X493Y432D01*
X516Y432D02*
X525Y432D01*
X553Y432D02*
X564Y432D01*
X607Y432D02*
X619Y432D01*
X670Y432D02*
X707Y432D01*
X752Y432D02*
X761Y432D01*
X804Y432D02*
X813Y432D01*
X844Y432D02*
X853Y432D01*
X876Y432D02*
X885Y432D01*
X916Y432D02*
X925Y432D01*
X958Y432D02*
X967Y432D01*
X988Y432D02*
X997Y432D01*
X1020Y432D02*
X1029Y432D01*
X1057Y432D02*
X1068Y432D01*
X444Y431D02*
X453Y431D01*
X484Y431D02*
X493Y431D01*
X516Y431D02*
X564Y431D01*
X607Y431D02*
X618Y431D01*
X670Y431D02*
X707Y431D01*
X752Y431D02*
X761Y431D01*
X804Y431D02*
X813Y431D01*
X844Y431D02*
X853Y431D01*
X876Y431D02*
X885Y431D01*
X916Y431D02*
X925Y431D01*
X958Y431D02*
X967Y431D01*
X988Y431D02*
X997Y431D01*
X1020Y431D02*
X1068Y431D01*
X444Y430D02*
X453Y430D01*
X484Y430D02*
X493Y430D01*
X516Y430D02*
X564Y430D01*
X607Y430D02*
X618Y430D01*
X670Y430D02*
X708Y430D01*
X752Y430D02*
X761Y430D01*
X804Y430D02*
X813Y430D01*
X844Y430D02*
X853Y430D01*
X876Y430D02*
X885Y430D01*
X916Y430D02*
X925Y430D01*
X958Y430D02*
X967Y430D01*
X988Y430D02*
X997Y430D01*
X1020Y430D02*
X1068Y430D01*
X444Y429D02*
X453Y429D01*
X484Y429D02*
X493Y429D01*
X516Y429D02*
X563Y429D01*
X606Y429D02*
X619Y429D01*
X670Y429D02*
X709Y429D01*
X752Y429D02*
X761Y429D01*
X804Y429D02*
X813Y429D01*
X844Y429D02*
X853Y429D01*
X876Y429D02*
X885Y429D01*
X916Y429D02*
X925Y429D01*
X958Y429D02*
X967Y429D01*
X988Y429D02*
X997Y429D01*
X1020Y429D02*
X1067Y429D01*
X444Y428D02*
X453Y428D01*
X484Y428D02*
X493Y428D01*
X516Y428D02*
X562Y428D01*
X606Y428D02*
X620Y428D01*
X670Y428D02*
X709Y428D01*
X752Y428D02*
X761Y428D01*
X804Y428D02*
X813Y428D01*
X844Y428D02*
X853Y428D01*
X876Y428D02*
X885Y428D01*
X916Y428D02*
X925Y428D01*
X958Y428D02*
X967Y428D01*
X988Y428D02*
X997Y428D01*
X1020Y428D02*
X1066Y428D01*
X444Y427D02*
X453Y427D01*
X484Y427D02*
X493Y427D01*
X516Y427D02*
X562Y427D01*
X605Y427D02*
X620Y427D01*
X670Y427D02*
X709Y427D01*
X752Y427D02*
X761Y427D01*
X776Y427D02*
X777Y427D01*
X804Y427D02*
X813Y427D01*
X844Y427D02*
X853Y427D01*
X876Y427D02*
X885Y427D01*
X916Y427D02*
X925Y427D01*
X958Y427D02*
X967Y427D01*
X987Y427D02*
X997Y427D01*
X1020Y427D02*
X1066Y427D01*
X444Y426D02*
X453Y426D01*
X484Y426D02*
X493Y426D01*
X516Y426D02*
X561Y426D01*
X605Y426D02*
X621Y426D01*
X670Y426D02*
X709Y426D01*
X752Y426D02*
X761Y426D01*
X774Y426D02*
X779Y426D01*
X804Y426D02*
X813Y426D01*
X844Y426D02*
X853Y426D01*
X876Y426D02*
X885Y426D01*
X916Y426D02*
X925Y426D01*
X958Y426D02*
X967Y426D01*
X987Y426D02*
X997Y426D01*
X1020Y426D02*
X1065Y426D01*
X444Y425D02*
X453Y425D01*
X484Y425D02*
X493Y425D01*
X516Y425D02*
X560Y425D01*
X604Y425D02*
X621Y425D01*
X700Y425D02*
X709Y425D01*
X752Y425D02*
X761Y425D01*
X773Y425D02*
X780Y425D01*
X804Y425D02*
X813Y425D01*
X844Y425D02*
X853Y425D01*
X876Y425D02*
X885Y425D01*
X916Y425D02*
X925Y425D01*
X958Y425D02*
X967Y425D01*
X987Y425D02*
X996Y425D01*
X1020Y425D02*
X1064Y425D01*
X444Y424D02*
X453Y424D01*
X484Y424D02*
X493Y424D01*
X516Y424D02*
X558Y424D01*
X603Y424D02*
X622Y424D01*
X700Y424D02*
X709Y424D01*
X752Y424D02*
X761Y424D01*
X772Y424D02*
X781Y424D01*
X804Y424D02*
X813Y424D01*
X844Y424D02*
X853Y424D01*
X876Y424D02*
X885Y424D01*
X916Y424D02*
X925Y424D01*
X958Y424D02*
X967Y424D01*
X986Y424D02*
X996Y424D01*
X1020Y424D02*
X1062Y424D01*
X444Y423D02*
X453Y423D01*
X484Y423D02*
X493Y423D01*
X516Y423D02*
X557Y423D01*
X603Y423D02*
X623Y423D01*
X700Y423D02*
X709Y423D01*
X752Y423D02*
X761Y423D01*
X772Y423D02*
X781Y423D01*
X804Y423D02*
X813Y423D01*
X844Y423D02*
X853Y423D01*
X876Y423D02*
X885Y423D01*
X916Y423D02*
X925Y423D01*
X958Y423D02*
X967Y423D01*
X986Y423D02*
X996Y423D01*
X1020Y423D02*
X1061Y423D01*
X444Y422D02*
X453Y422D01*
X484Y422D02*
X493Y422D01*
X516Y422D02*
X554Y422D01*
X602Y422D02*
X623Y422D01*
X700Y422D02*
X709Y422D01*
X752Y422D02*
X761Y422D01*
X772Y422D02*
X781Y422D01*
X804Y422D02*
X813Y422D01*
X844Y422D02*
X853Y422D01*
X876Y422D02*
X885Y422D01*
X916Y422D02*
X925Y422D01*
X958Y422D02*
X967Y422D01*
X985Y422D02*
X995Y422D01*
X1020Y422D02*
X1058Y422D01*
X444Y421D02*
X453Y421D01*
X484Y421D02*
X493Y421D01*
X516Y421D02*
X526Y421D01*
X602Y421D02*
X624Y421D01*
X700Y421D02*
X709Y421D01*
X752Y421D02*
X761Y421D01*
X772Y421D02*
X781Y421D01*
X804Y421D02*
X813Y421D01*
X844Y421D02*
X853Y421D01*
X876Y421D02*
X885Y421D01*
X916Y421D02*
X925Y421D01*
X958Y421D02*
X967Y421D01*
X985Y421D02*
X995Y421D01*
X1020Y421D02*
X1030Y421D01*
X444Y420D02*
X453Y420D01*
X484Y420D02*
X493Y420D01*
X516Y420D02*
X525Y420D01*
X601Y420D02*
X612Y420D01*
X614Y420D02*
X624Y420D01*
X700Y420D02*
X709Y420D01*
X752Y420D02*
X761Y420D01*
X772Y420D02*
X781Y420D01*
X804Y420D02*
X813Y420D01*
X844Y420D02*
X853Y420D01*
X876Y420D02*
X885Y420D01*
X916Y420D02*
X925Y420D01*
X958Y420D02*
X967Y420D01*
X984Y420D02*
X994Y420D01*
X1020Y420D02*
X1029Y420D01*
X444Y419D02*
X453Y419D01*
X484Y419D02*
X493Y419D01*
X516Y419D02*
X525Y419D01*
X601Y419D02*
X611Y419D01*
X614Y419D02*
X625Y419D01*
X700Y419D02*
X709Y419D01*
X752Y419D02*
X761Y419D01*
X772Y419D02*
X781Y419D01*
X804Y419D02*
X813Y419D01*
X844Y419D02*
X853Y419D01*
X876Y419D02*
X885Y419D01*
X916Y419D02*
X925Y419D01*
X958Y419D02*
X967Y419D01*
X984Y419D02*
X994Y419D01*
X1020Y419D02*
X1029Y419D01*
X444Y418D02*
X453Y418D01*
X484Y418D02*
X493Y418D01*
X516Y418D02*
X525Y418D01*
X600Y418D02*
X611Y418D01*
X615Y418D02*
X625Y418D01*
X700Y418D02*
X709Y418D01*
X752Y418D02*
X761Y418D01*
X772Y418D02*
X781Y418D01*
X804Y418D02*
X813Y418D01*
X844Y418D02*
X853Y418D01*
X876Y418D02*
X885Y418D01*
X916Y418D02*
X925Y418D01*
X958Y418D02*
X967Y418D01*
X983Y418D02*
X993Y418D01*
X1020Y418D02*
X1029Y418D01*
X444Y417D02*
X453Y417D01*
X484Y417D02*
X493Y417D01*
X516Y417D02*
X525Y417D01*
X599Y417D02*
X610Y417D01*
X615Y417D02*
X626Y417D01*
X700Y417D02*
X709Y417D01*
X752Y417D02*
X761Y417D01*
X772Y417D02*
X781Y417D01*
X804Y417D02*
X813Y417D01*
X844Y417D02*
X853Y417D01*
X876Y417D02*
X885Y417D01*
X916Y417D02*
X925Y417D01*
X958Y417D02*
X967Y417D01*
X983Y417D02*
X993Y417D01*
X1020Y417D02*
X1029Y417D01*
X444Y416D02*
X453Y416D01*
X484Y416D02*
X493Y416D01*
X516Y416D02*
X525Y416D01*
X599Y416D02*
X610Y416D01*
X616Y416D02*
X627Y416D01*
X700Y416D02*
X709Y416D01*
X752Y416D02*
X761Y416D01*
X772Y416D02*
X781Y416D01*
X804Y416D02*
X813Y416D01*
X844Y416D02*
X853Y416D01*
X876Y416D02*
X885Y416D01*
X916Y416D02*
X925Y416D01*
X958Y416D02*
X967Y416D01*
X982Y416D02*
X992Y416D01*
X1020Y416D02*
X1029Y416D01*
X444Y415D02*
X453Y415D01*
X484Y415D02*
X493Y415D01*
X516Y415D02*
X525Y415D01*
X598Y415D02*
X609Y415D01*
X616Y415D02*
X627Y415D01*
X700Y415D02*
X709Y415D01*
X752Y415D02*
X761Y415D01*
X772Y415D02*
X781Y415D01*
X804Y415D02*
X813Y415D01*
X844Y415D02*
X853Y415D01*
X876Y415D02*
X885Y415D01*
X916Y415D02*
X925Y415D01*
X958Y415D02*
X967Y415D01*
X982Y415D02*
X992Y415D01*
X1020Y415D02*
X1029Y415D01*
X444Y414D02*
X453Y414D01*
X484Y414D02*
X493Y414D01*
X516Y414D02*
X525Y414D01*
X598Y414D02*
X608Y414D01*
X617Y414D02*
X628Y414D01*
X700Y414D02*
X709Y414D01*
X752Y414D02*
X761Y414D01*
X772Y414D02*
X781Y414D01*
X804Y414D02*
X813Y414D01*
X844Y414D02*
X853Y414D01*
X876Y414D02*
X885Y414D01*
X916Y414D02*
X925Y414D01*
X958Y414D02*
X967Y414D01*
X981Y414D02*
X992Y414D01*
X1020Y414D02*
X1029Y414D01*
X444Y413D02*
X453Y413D01*
X484Y413D02*
X493Y413D01*
X516Y413D02*
X525Y413D01*
X597Y413D02*
X608Y413D01*
X618Y413D02*
X628Y413D01*
X700Y413D02*
X709Y413D01*
X752Y413D02*
X761Y413D01*
X772Y413D02*
X781Y413D01*
X804Y413D02*
X813Y413D01*
X844Y413D02*
X853Y413D01*
X876Y413D02*
X885Y413D01*
X916Y413D02*
X925Y413D01*
X958Y413D02*
X967Y413D01*
X981Y413D02*
X991Y413D01*
X1020Y413D02*
X1029Y413D01*
X444Y412D02*
X453Y412D01*
X484Y412D02*
X493Y412D01*
X516Y412D02*
X525Y412D01*
X596Y412D02*
X607Y412D01*
X618Y412D02*
X629Y412D01*
X700Y412D02*
X709Y412D01*
X752Y412D02*
X761Y412D01*
X772Y412D02*
X781Y412D01*
X804Y412D02*
X813Y412D01*
X844Y412D02*
X853Y412D01*
X876Y412D02*
X885Y412D01*
X916Y412D02*
X925Y412D01*
X958Y412D02*
X967Y412D01*
X980Y412D02*
X991Y412D01*
X1020Y412D02*
X1029Y412D01*
X444Y411D02*
X453Y411D01*
X484Y411D02*
X493Y411D01*
X516Y411D02*
X525Y411D01*
X596Y411D02*
X607Y411D01*
X619Y411D02*
X630Y411D01*
X700Y411D02*
X709Y411D01*
X752Y411D02*
X761Y411D01*
X772Y411D02*
X781Y411D01*
X804Y411D02*
X813Y411D01*
X844Y411D02*
X853Y411D01*
X876Y411D02*
X885Y411D01*
X916Y411D02*
X925Y411D01*
X958Y411D02*
X967Y411D01*
X980Y411D02*
X990Y411D01*
X1020Y411D02*
X1029Y411D01*
X444Y410D02*
X453Y410D01*
X484Y410D02*
X493Y410D01*
X516Y410D02*
X525Y410D01*
X595Y410D02*
X606Y410D01*
X619Y410D02*
X630Y410D01*
X700Y410D02*
X709Y410D01*
X752Y410D02*
X761Y410D01*
X772Y410D02*
X781Y410D01*
X804Y410D02*
X813Y410D01*
X844Y410D02*
X853Y410D01*
X876Y410D02*
X885Y410D01*
X916Y410D02*
X925Y410D01*
X958Y410D02*
X967Y410D01*
X979Y410D02*
X990Y410D01*
X1020Y410D02*
X1029Y410D01*
X444Y409D02*
X453Y409D01*
X484Y409D02*
X493Y409D01*
X516Y409D02*
X525Y409D01*
X595Y409D02*
X605Y409D01*
X620Y409D02*
X631Y409D01*
X700Y409D02*
X709Y409D01*
X752Y409D02*
X761Y409D01*
X772Y409D02*
X781Y409D01*
X804Y409D02*
X813Y409D01*
X844Y409D02*
X853Y409D01*
X876Y409D02*
X885Y409D01*
X916Y409D02*
X925Y409D01*
X958Y409D02*
X967Y409D01*
X979Y409D02*
X989Y409D01*
X1020Y409D02*
X1029Y409D01*
X444Y408D02*
X453Y408D01*
X484Y408D02*
X493Y408D01*
X516Y408D02*
X525Y408D01*
X594Y408D02*
X605Y408D01*
X621Y408D02*
X631Y408D01*
X700Y408D02*
X709Y408D01*
X752Y408D02*
X761Y408D01*
X772Y408D02*
X781Y408D01*
X804Y408D02*
X813Y408D01*
X844Y408D02*
X853Y408D01*
X876Y408D02*
X885Y408D01*
X916Y408D02*
X925Y408D01*
X958Y408D02*
X967Y408D01*
X978Y408D02*
X989Y408D01*
X1020Y408D02*
X1029Y408D01*
X444Y407D02*
X453Y407D01*
X484Y407D02*
X493Y407D01*
X516Y407D02*
X525Y407D01*
X593Y407D02*
X604Y407D01*
X621Y407D02*
X632Y407D01*
X700Y407D02*
X709Y407D01*
X752Y407D02*
X761Y407D01*
X772Y407D02*
X781Y407D01*
X804Y407D02*
X813Y407D01*
X844Y407D02*
X853Y407D01*
X876Y407D02*
X885Y407D01*
X916Y407D02*
X925Y407D01*
X958Y407D02*
X967Y407D01*
X978Y407D02*
X988Y407D01*
X1020Y407D02*
X1029Y407D01*
X444Y406D02*
X453Y406D01*
X484Y406D02*
X493Y406D01*
X516Y406D02*
X525Y406D01*
X593Y406D02*
X604Y406D01*
X622Y406D02*
X633Y406D01*
X700Y406D02*
X709Y406D01*
X752Y406D02*
X761Y406D01*
X772Y406D02*
X781Y406D01*
X804Y406D02*
X813Y406D01*
X844Y406D02*
X853Y406D01*
X876Y406D02*
X885Y406D01*
X916Y406D02*
X925Y406D01*
X958Y406D02*
X967Y406D01*
X977Y406D02*
X988Y406D01*
X1020Y406D02*
X1029Y406D01*
X444Y405D02*
X453Y405D01*
X484Y405D02*
X493Y405D01*
X516Y405D02*
X525Y405D01*
X592Y405D02*
X603Y405D01*
X622Y405D02*
X633Y405D01*
X663Y405D02*
X668Y405D01*
X700Y405D02*
X709Y405D01*
X752Y405D02*
X761Y405D01*
X772Y405D02*
X781Y405D01*
X804Y405D02*
X813Y405D01*
X844Y405D02*
X853Y405D01*
X876Y405D02*
X885Y405D01*
X916Y405D02*
X925Y405D01*
X958Y405D02*
X967Y405D01*
X977Y405D02*
X987Y405D01*
X1020Y405D02*
X1029Y405D01*
X444Y404D02*
X453Y404D01*
X484Y404D02*
X493Y404D01*
X516Y404D02*
X525Y404D01*
X592Y404D02*
X603Y404D01*
X623Y404D02*
X634Y404D01*
X661Y404D02*
X670Y404D01*
X700Y404D02*
X709Y404D01*
X752Y404D02*
X761Y404D01*
X772Y404D02*
X781Y404D01*
X804Y404D02*
X813Y404D01*
X844Y404D02*
X853Y404D01*
X876Y404D02*
X885Y404D01*
X916Y404D02*
X925Y404D01*
X958Y404D02*
X967Y404D01*
X976Y404D02*
X987Y404D01*
X1020Y404D02*
X1029Y404D01*
X444Y403D02*
X453Y403D01*
X484Y403D02*
X493Y403D01*
X516Y403D02*
X525Y403D01*
X591Y403D02*
X602Y403D01*
X623Y403D02*
X634Y403D01*
X661Y403D02*
X672Y403D01*
X700Y403D02*
X709Y403D01*
X752Y403D02*
X761Y403D01*
X772Y403D02*
X781Y403D01*
X804Y403D02*
X813Y403D01*
X844Y403D02*
X853Y403D01*
X876Y403D02*
X885Y403D01*
X916Y403D02*
X925Y403D01*
X958Y403D02*
X967Y403D01*
X975Y403D02*
X986Y403D01*
X1020Y403D02*
X1029Y403D01*
X444Y402D02*
X453Y402D01*
X484Y402D02*
X493Y402D01*
X516Y402D02*
X525Y402D01*
X591Y402D02*
X601Y402D01*
X624Y402D02*
X635Y402D01*
X661Y402D02*
X675Y402D01*
X700Y402D02*
X709Y402D01*
X752Y402D02*
X761Y402D01*
X772Y402D02*
X781Y402D01*
X804Y402D02*
X814Y402D01*
X844Y402D02*
X853Y402D01*
X876Y402D02*
X886Y402D01*
X916Y402D02*
X925Y402D01*
X958Y402D02*
X968Y402D01*
X973Y402D02*
X986Y402D01*
X1020Y402D02*
X1029Y402D01*
X444Y401D02*
X453Y401D01*
X484Y401D02*
X493Y401D01*
X516Y401D02*
X525Y401D01*
X590Y401D02*
X601Y401D01*
X625Y401D02*
X635Y401D01*
X660Y401D02*
X709Y401D01*
X735Y401D02*
X781Y401D01*
X804Y401D02*
X853Y401D01*
X876Y401D02*
X925Y401D01*
X951Y401D02*
X985Y401D01*
X1020Y401D02*
X1029Y401D01*
X444Y400D02*
X453Y400D01*
X484Y400D02*
X493Y400D01*
X516Y400D02*
X525Y400D01*
X589Y400D02*
X600Y400D01*
X625Y400D02*
X636Y400D01*
X660Y400D02*
X709Y400D01*
X734Y400D02*
X781Y400D01*
X805Y400D02*
X853Y400D01*
X877Y400D02*
X925Y400D01*
X950Y400D02*
X985Y400D01*
X1020Y400D02*
X1029Y400D01*
X444Y399D02*
X453Y399D01*
X484Y399D02*
X493Y399D01*
X516Y399D02*
X525Y399D01*
X589Y399D02*
X600Y399D01*
X626Y399D02*
X637Y399D01*
X661Y399D02*
X709Y399D01*
X733Y399D02*
X781Y399D01*
X805Y399D02*
X853Y399D01*
X877Y399D02*
X925Y399D01*
X949Y399D02*
X984Y399D01*
X1020Y399D02*
X1029Y399D01*
X444Y398D02*
X453Y398D01*
X484Y398D02*
X493Y398D01*
X516Y398D02*
X525Y398D01*
X589Y398D02*
X599Y398D01*
X626Y398D02*
X637Y398D01*
X661Y398D02*
X708Y398D01*
X733Y398D02*
X781Y398D01*
X805Y398D02*
X852Y398D01*
X877Y398D02*
X924Y398D01*
X949Y398D02*
X983Y398D01*
X1020Y398D02*
X1029Y398D01*
X444Y397D02*
X453Y397D01*
X484Y397D02*
X493Y397D01*
X516Y397D02*
X525Y397D01*
X588Y397D02*
X598Y397D01*
X627Y397D02*
X637Y397D01*
X662Y397D02*
X708Y397D01*
X732Y397D02*
X781Y397D01*
X806Y397D02*
X852Y397D01*
X878Y397D02*
X924Y397D01*
X948Y397D02*
X983Y397D01*
X1020Y397D02*
X1029Y397D01*
X444Y396D02*
X453Y396D01*
X484Y396D02*
X493Y396D01*
X516Y396D02*
X525Y396D01*
X588Y396D02*
X598Y396D01*
X628Y396D02*
X637Y396D01*
X664Y396D02*
X707Y396D01*
X732Y396D02*
X781Y396D01*
X806Y396D02*
X851Y396D01*
X878Y396D02*
X923Y396D01*
X948Y396D02*
X982Y396D01*
X1020Y396D02*
X1029Y396D01*
X445Y395D02*
X453Y395D01*
X484Y395D02*
X493Y395D01*
X517Y395D02*
X525Y395D01*
X589Y395D02*
X597Y395D01*
X628Y395D02*
X637Y395D01*
X666Y395D02*
X706Y395D01*
X733Y395D02*
X781Y395D01*
X807Y395D02*
X850Y395D01*
X879Y395D02*
X922Y395D01*
X949Y395D02*
X981Y395D01*
X1021Y395D02*
X1029Y395D01*
X445Y394D02*
X453Y394D01*
X485Y394D02*
X492Y394D01*
X517Y394D02*
X525Y394D01*
X589Y394D02*
X597Y394D01*
X629Y394D02*
X636Y394D01*
X668Y394D02*
X705Y394D01*
X733Y394D02*
X780Y394D01*
X808Y394D02*
X849Y394D01*
X880Y394D02*
X921Y394D01*
X949Y394D02*
X979Y394D01*
X1021Y394D02*
X1029Y394D01*
X446Y393D02*
X452Y393D01*
X486Y393D02*
X491Y393D01*
X518Y393D02*
X524Y393D01*
X590Y393D02*
X596Y393D01*
X630Y393D02*
X635Y393D01*
X671Y393D02*
X704Y393D01*
X734Y393D02*
X779Y393D01*
X810Y393D02*
X848Y393D01*
X882Y393D02*
X920Y393D01*
X950Y393D02*
X977Y393D01*
X1022Y393D02*
X1028Y393D01*
X448Y392D02*
X450Y392D01*
X487Y392D02*
X490Y392D01*
X520Y392D02*
X522Y392D01*
X592Y392D02*
X594Y392D01*
X631Y392D02*
X634Y392D01*
X674Y392D02*
X702Y392D01*
X736Y392D02*
X778Y392D01*
X812Y392D02*
X846Y392D01*
X884Y392D02*
X918Y392D01*
X952Y392D02*
X974Y392D01*
X1024Y392D02*
X1026Y392D01*
D02*
G04 End of Copper1*
M02*