<?xml version="1.0"?>
<!DOCTYPE svg PUBLIC "-//W3C//DTD SVG 1.1//EN" "http://www.w3.org/Graphics/SVG/1.1/DTD/svg11.dtd">
<svg width="204.0mm" height="94.0mm" viewBox="0 0 204.0 94.0" xmlns="http://www.w3.org/2000/svg" version="1.1">
<g id="Sketch003" transform="translate(2.000000,87.000000) scale(1,-1)">
<path id="Sketch003_w0000"  d="M 0.0 0.0 L 0.0 30.0 L 5.0 30.0 L 5.0 50.0 L 1.13190706807e-16 50.0 L 2.26381413615e-16 80.0 L 40.0 80.0 L 40.0 85.0 L 60.0 85.0 L 60.0 80.0 L 140.0 80.0 L 140.0 85.0 L 160.0 85.0 L 160.0 80.0 L 200.0 80.0 L 200.0 50.0 L 195.0 50.0 L 195.0 30.0 L 200.0 30.0 L 200.0 0.0 L 160.0 0.0 L 160.0 -5.0 L 140.0 -5.0 L 140.0 0.0 L 60.0 0.0 L 60.0 -5.0 L 40.0 -5.0 L 40.0 0.0 L 0.0 0.0 " stroke="#000000" stroke-width="0.35 px" style="stroke-width:0.35;stroke-miterlimit:4;stroke-dasharray:none;fill:none;fill-rule: evenodd "/>
<circle cx="150.0" cy="40.0" r="27.5" stroke="#000000" stroke-width="0.35 px" style="stroke-width:0.35;stroke-miterlimit:4;stroke-dasharray:none;fill:none"/>
<title>Sketch003</title>
</g>
</svg>