<?xml version="1.0"?>
<!DOCTYPE svg PUBLIC "-//W3C//DTD SVG 1.1//EN" "http://www.w3.org/Graphics/SVG/1.1/DTD/svg11.dtd">
<svg width="204.0mm" height="64.0mm" viewBox="0 0 204.0 64.0" xmlns="http://www.w3.org/2000/svg" version="1.1">
<g id="Sketch001" transform="translate(2.000000,57.000000) scale(1,-1)">
<path id="Sketch001_w0000"  d="M 0.0 0.0 L 0.0 15.0 L 5.0 15.0 L 5.0 35.0 L 0.0 35.0 L 0.0 50.0 L 40.0 50.0 L 40.0 55.0 L 60.0 55.0 L 60.0 50.0 L 140.0 50.0 L 140.0 55.0 L 160.0 55.0 L 160.0 50.0 L 200.0 50.0 L 200.0 35.0 L 195.0 35.0 L 195.0 15.0 L 200.0 15.0 L 200.0 0.0 L 160.0 0.0 L 160.0 -5.0 L 140.0 -5.0 L 140.0 0.0 L 60.0 0.0 L 60.0 -5.0 L 40.0 -5.0 L 40.0 0.0 L 0.0 0.0 " stroke="#000000" stroke-width="0.35 px" style="stroke-width:0.35;stroke-miterlimit:4;stroke-dasharray:none;fill:none;fill-rule: evenodd "/>
<path id="Sketch001_w0001"  d="M 28.0 20.0 L 48.0 20.0 L 48.0 37.0 L 28.0 37.0 L 28.0 20.0 " stroke="#000000" stroke-width="0.35 px" style="stroke-width:0.35;stroke-miterlimit:4;stroke-dasharray:none;fill:none;fill-rule: evenodd "/>
<title>Sketch001</title>
</g>
</svg>