<?xml version="1.0"?>
<!DOCTYPE svg PUBLIC "-//W3C//DTD SVG 1.1//EN" "http://www.w3.org/Graphics/SVG/1.1/DTD/svg11.dtd">
<svg width="204.0mm" height="128.0mm" viewBox="0 0 204.0 128.0" xmlns="http://www.w3.org/2000/svg" version="1.1">
<g id="Sketch004" transform="translate(2.000000,126.000000) scale(1,-1)">
<path id="Sketch004_w0000"  d="M 0.0 0.0 L 0.0 52.0 L 5.0 52.0 L 5.0 72.0 L 0.0 72.0 L 0.0 124.0 L 40.0 124.0 L 40.0 119.0 L 60.0 119.0 L 60.0 124.0 L 140.0 124.0 L 140.0 119.0 L 160.0 119.0 L 160.0 124.0 L 200.0 124.0 L 200.0 72.0 L 195.0 72.0 L 195.0 52.0 L 200.0 52.0 L 200.0 -2.22044604925e-16 L 160.0 -4.4408920985e-16 L 160.0 5.0 L 140.0 5.0 L 140.0 0.0 L 60.0 0.0 L 60.0 5.0 L 40.0 5.0 L 40.0 0.0 L 0.0 0.0 " stroke="#000000" stroke-width="0.35 px" style="stroke-width:0.35;stroke-miterlimit:4;stroke-dasharray:none;fill:none;fill-rule: evenodd "/>
<circle cx="30.0" cy="76.0" r="1.5" stroke="#000000" stroke-width="0.35 px" style="stroke-width:0.35;stroke-miterlimit:4;stroke-dasharray:none;fill:none"/>
<circle cx="105.0" cy="76.0" r="1.5" stroke="#000000" stroke-width="0.35 px" style="stroke-width:0.35;stroke-miterlimit:4;stroke-dasharray:none;fill:none"/>
<circle cx="30.0" cy="45.0" r="1.5" stroke="#000000" stroke-width="0.35 px" style="stroke-width:0.35;stroke-miterlimit:4;stroke-dasharray:none;fill:none"/>
<circle cx="105.0" cy="45.0" r="1.5" stroke="#000000" stroke-width="0.35 px" style="stroke-width:0.35;stroke-miterlimit:4;stroke-dasharray:none;fill:none"/>
<path id="Sketch004_w0005"  d="M 31.5 47.25 L 103.5 47.25 L 103.5 71.75 L 31.5 71.75 L 31.5 47.25 " stroke="#000000" stroke-width="0.35 px" style="stroke-width:0.35;stroke-miterlimit:4;stroke-dasharray:none;fill:none;fill-rule: evenodd "/>
<circle cx="150.0" cy="60.0" r="3.5" stroke="#000000" stroke-width="0.35 px" style="stroke-width:0.35;stroke-miterlimit:4;stroke-dasharray:none;fill:none"/>
<title>Sketch004</title>
</g>
</svg>