<?xml version="1.0"?>
<!DOCTYPE svg PUBLIC "-//W3C//DTD SVG 1.1//EN" "http://www.w3.org/Graphics/SVG/1.1/DTD/svg11.dtd">
<svg width="204.0mm" height="124.0mm" viewBox="0 0 204.0 124.0" xmlns="http://www.w3.org/2000/svg" version="1.1">
<g id="Sketch" transform="translate(2.000000,122.000000) scale(1,-1)">
<path id="Sketch_w0000"  d="M 0.0 0.0 L 0.0 50.0 L 5.0 50.0 L 5.0 70.0 L 0.0 70.0 L 0.0 120.0 L 40.0 120.0 L 40.0 115.0 L 60.0 115.0 L 60.0 120.0 L 140.0 120.0 L 140.0 115.0 L 160.0 115.0 L 160.0 120.0 L 200.0 120.0 L 200.0 70.0 L 195.0 70.0 L 195.0 50.0 L 200.0 50.0 L 200.0 0.0 L 160.0 0.0 L 160.0 5.0 L 140.0 5.0 L 140.0 0.0 L 60.0 0.0 L 60.0 5.0 L 40.0 5.0 L 40.0 0.0 L 0.0 0.0 " stroke="#000000" stroke-width="0.35 px" style="stroke-width:0.35;stroke-miterlimit:4;stroke-dasharray:none;fill:none;fill-rule: evenodd "/>
<circle cx="20.0" cy="81.0" r="1.5" stroke="#000000" stroke-width="0.35 px" style="stroke-width:0.35;stroke-miterlimit:4;stroke-dasharray:none;fill:none"/>
<circle cx="115.0" cy="81.0" r="1.5" stroke="#000000" stroke-width="0.35 px" style="stroke-width:0.35;stroke-miterlimit:4;stroke-dasharray:none;fill:none"/>
<circle cx="20.0" cy="20.0" r="1.5" stroke="#000000" stroke-width="0.35 px" style="stroke-width:0.35;stroke-miterlimit:4;stroke-dasharray:none;fill:none"/>
<circle cx="115.0" cy="20.0" r="1.5" stroke="#000000" stroke-width="0.35 px" style="stroke-width:0.35;stroke-miterlimit:4;stroke-dasharray:none;fill:none"/>
<circle cx="155.0" cy="27.0" r="1.5" stroke="#000000" stroke-width="0.35 px" style="stroke-width:0.35;stroke-miterlimit:4;stroke-dasharray:none;fill:none"/>
<circle cx="155.0" cy="74.0" r="1.5" stroke="#000000" stroke-width="0.35 px" style="stroke-width:0.35;stroke-miterlimit:4;stroke-dasharray:none;fill:none"/>
<title>Sketch</title>
</g>
</svg>