<?xml version='1.0' encoding='UTF-8' standalone='no'?>
<!-- Created with Fritzing (https://fritzing.org/) -->
<svg xmlns="http://www.w3.org/2000/svg" baseProfile="tiny" height="2.6378in" version="1.2" viewBox="0 0 303.517 189.921" width="4.21551in" x="0in"  xmlns:svg="http://www.w3.org/2000/svg" y="0in">
 <g partID="57640">
  <g id="board" >
   <rect fill="none" fill-opacity="0.5" height="189.345" id="boardoutline" stroke="black" stroke-width="0.5" width="302.939" x="0.288"  y="0.288"/>
  </g>
 </g>
 <g partID="855199610">
  <g transform="translate(158.848,176.872)">
   <g transform="matrix(0,-1,1,0,0,0)">
    <g id="copper0" >
     <circle connectorname="1" cx="9.432" cy="61.7329" fill="none" id="connector0pad" r="4.32" stroke="black" stroke-width="1.44" />
     <circle connectorname="2" cx="9.432" cy="45.1729" fill="none" id="connector1pad" r="4.32" stroke="black" stroke-width="1.44" />
     <circle connectorname="4" cx="9.432" cy="5.04" fill="none" id="connector3pad" r="4.32" stroke="black" stroke-width="1.44" />
     <circle connectorname="3" cx="9.432" cy="21.6" fill="none" id="connector2pad" r="4.32" stroke="black" stroke-width="1.44" />
    </g>
   </g>
  </g>
 </g>
 <g partID="855199310">
  <g transform="translate(297.88,88.2396)">
   <g transform="matrix(-1,0,0,-1,0,0)">
    <g id="copper0" >
     <circle connectorname="1" cx="9.432" cy="61.7329" fill="none" id="connector0pad" r="4.32" stroke="black" stroke-width="1.44" />
     <circle connectorname="2" cx="9.432" cy="45.1729" fill="none" id="connector1pad" r="4.32" stroke="black" stroke-width="1.44" />
     <circle connectorname="4" cx="9.432" cy="5.04" fill="none" id="connector3pad" r="4.32" stroke="black" stroke-width="1.44" />
     <circle connectorname="3" cx="9.432" cy="21.6" fill="none" id="connector2pad" r="4.32" stroke="black" stroke-width="1.44" />
    </g>
   </g>
  </g>
 </g>
 <g partID="854392200">
  <g transform="translate(274.052,55.9902)">
   <g transform="matrix(0,1,-1,0,0,0)">
    <g gorn="0.4.0" id="copper0" >
     <circle cx="6.54757" cy="35.6903" fill="none" gorn="0.4.0.0" id="connector1pin" r="2.032" stroke="black" stroke-width="1.48" style="clip-rule:evenodd;fill-rule:evenodd;stroke-linejoin:miter;stroke-miterlimit:1.41420996;" />
     <circle cx="6.54757" cy="21.4881" fill="none" gorn="0.4.0.1" id="connector0pin" r="2.032" stroke="black" stroke-width="1.48" style="clip-rule:evenodd;fill-rule:evenodd;stroke-linejoin:miter;stroke-miterlimit:1.41420996;" />
     <circle cx="89.8494" cy="6.77674" fill="none" gorn="0.4.0.2" id="connector2pin" r="2.032" stroke="black" stroke-width="1.48" style="clip-rule:evenodd;fill-rule:evenodd;stroke-linejoin:miter;stroke-miterlimit:1.41420996;" />
     <circle cx="89.8494" cy="50.4039" fill="none" gorn="0.4.0.3" id="connector3pin" r="2.032" stroke="black" stroke-width="1.48" style="clip-rule:evenodd;fill-rule:evenodd;stroke-linejoin:miter;stroke-miterlimit:1.41420996;" />
    </g>
   </g>
  </g>
 </g>
 <g partID="855208760">
  <g transform="translate(104.737,228.725)">
   <g transform="matrix(-1,0,0,-1,0,0)">
    <g gorn="0.3.0" id="copper0">
     <g gorn="0.3.0.0" id="copper1">
      <g transform="scale(-1,1)">
       <g>
        <g>
         <g>
          <g>
           <rect fill="none" gorn="0.3.0.0.0.0.0.0.0" height="4.104" id="connector7pad" stroke="black" stroke-width="1.224" width="4.104" x="-70.3408" y="88.0335"/>
          </g>
         </g>
        </g>
       </g>
      </g>
      <g transform="scale(-1,1)">
       <g>
        <g>
         <g>
          <g>
           <g>
            <circle cx="-68.2888" cy="90.0855" fill="none" gorn="0.3.0.0.1.0.0.0.0.0" id="connector1pad" r="2.052" stroke="black" stroke-width="1.224"/>
           </g>
          </g>
         </g>
        </g>
       </g>
      </g>
      <g transform="scale(-1,1)">
       <g>
        <g>
         <g>
          <g>
           <g>
            <circle cx="-61.0898" cy="90.0836" fill="none" gorn="0.3.0.0.2.0.0.0.0.0" id="connector2pad" r="2.052" stroke="black" stroke-width="1.224"/>
           </g>
          </g>
         </g>
        </g>
       </g>
      </g>
      <g transform="scale(-1,1)">
       <g>
        <g>
         <g>
          <g>
           <g>
            <circle cx="-53.8898" cy="90.0836" fill="none" gorn="0.3.0.0.3.0.0.0.0.0" id="connector3pad" r="2.052" stroke="black" stroke-width="1.224"/>
           </g>
          </g>
         </g>
        </g>
       </g>
      </g>
      <g transform="scale(-1,1)">
       <g>
        <g>
         <g>
          <g>
           <g>
            <circle cx="-46.6898" cy="90.0836" fill="none" gorn="0.3.0.0.4.0.0.0.0.0" id="connector4pad" r="2.052" stroke="black" stroke-width="1.224"/>
           </g>
          </g>
         </g>
        </g>
       </g>
      </g>
      <g transform="scale(-1,1)">
       <g>
        <g>
         <g>
          <g>
           <g>
            <circle cx="-39.4898" cy="90.0836" fill="none" gorn="0.3.0.0.5.0.0.0.0.0" id="connector5pad" r="2.052" stroke="black" stroke-width="1.224"/>
           </g>
          </g>
         </g>
        </g>
       </g>
      </g>
      <g transform="scale(-1,1)">
       <g>
        <g>
         <g>
          <g>
           <g>
            <circle cx="-32.2829" cy="90.0855" fill="none" gorn="0.3.0.0.6.0.0.0.0.0" id="connector6pad" r="2.052" stroke="black" stroke-width="1.224"/>
           </g>
          </g>
         </g>
        </g>
       </g>
      </g>
     </g>
    </g>
   </g>
  </g>
 </g>
 <g partID="854392760">
  <g transform="translate(21.7776,1.84698)">
   <g id="copper0" >
    <circle cx="151.384" cy="144" fill="none" id="connector1pad" r="1.9" stroke="black" stroke-width="0.9" />
    <circle cx="158.583" cy="144" fill="none" id="connector2pad" r="1.9" stroke="black" stroke-width="0.9" />
    <circle cx="165.786" cy="144" fill="none" id="connector3pad" r="1.9" stroke="black" stroke-width="0.9" />
    <circle cx="172.985" cy="144" fill="none" id="connector4pad" r="1.9" stroke="black" stroke-width="0.9" />
    <circle cx="180.185" cy="144" fill="none" id="connector5pad" r="1.9" stroke="black" stroke-width="0.9" />
    <circle cx="118.263" cy="7.2" fill="none" id="connector51pad" r="1.9" stroke="black" stroke-width="0.9" />
    <circle cx="111.065" cy="7.2" fill="none" id="connector52pad" r="1.9" stroke="black" stroke-width="0.9" />
    <circle cx="103.864" cy="7.2" fill="none" id="connector53pad" r="1.9" stroke="black" stroke-width="0.9" />
    <circle cx="96.664" cy="7.2" fill="none" id="connector54pad" r="1.9" stroke="black" stroke-width="0.9" />
    <circle cx="89.464" cy="7.2" fill="none" id="connector55pad" r="1.9" stroke="black" stroke-width="0.9" />
    <circle cx="82.264" cy="7.2" fill="none" id="connector56pad" r="1.9" stroke="black" stroke-width="0.9" />
    <circle cx="75.064" cy="7.2" fill="none" id="connector57pad" r="1.9" stroke="black" stroke-width="0.9" />
    <circle cx="67.864" cy="7.2" fill="none" id="connector58pad" r="1.9" stroke="black" stroke-width="0.9" />
    <circle cx="60.664" cy="7.2" fill="none" id="connector59pad" r="1.9" stroke="black" stroke-width="0.9" />
    <circle cx="53.463" cy="7.2" fill="none" id="connector60pad" r="1.9" stroke="black" stroke-width="0.9" />
    <circle cx="180.185" cy="7.2" fill="none" id="connector61pad" r="1.9" stroke="black" stroke-width="0.9" />
    <circle cx="172.985" cy="7.2" fill="none" id="connector62pad" r="1.9" stroke="black" stroke-width="0.9" />
    <circle cx="165.786" cy="7.2" fill="none" id="connector63pad" r="1.9" stroke="black" stroke-width="0.9" />
    <circle cx="158.583" cy="7.2" fill="none" id="connector64pad" r="1.9" stroke="black" stroke-width="0.9" />
    <circle cx="151.384" cy="7.2" fill="none" id="connector65pad" r="1.9" stroke="black" stroke-width="0.9" />
    <circle cx="144.185" cy="7.2" fill="none" id="connector66pad" r="1.9" stroke="black" stroke-width="0.9" />
    <circle cx="136.985" cy="7.2" fill="none" id="connector67pad" r="1.9" stroke="black" stroke-width="0.9" />
    <circle cx="129.784" cy="7.2" fill="none" id="connector68pad" r="1.9" stroke="black" stroke-width="0.9" />
    <circle cx="86.584" cy="144" fill="none" id="connector84pad" r="1.9" stroke="black" stroke-width="0.9" />
    <circle cx="79.384" cy="144" fill="none" id="connector91pin" r="1.9" stroke="black" stroke-width="0.9" />
    <circle cx="93.784" cy="144" fill="none" id="connector85pad" r="1.9" stroke="black" stroke-width="0.9" />
    <circle cx="100.985" cy="144" fill="none" id="connector86pad" r="1.9" stroke="black" stroke-width="0.9" />
    <circle cx="108.185" cy="144" fill="none" id="connector87pad" r="1.9" stroke="black" stroke-width="0.9" />
    <circle cx="115.384" cy="144" fill="none" id="connector88pad" r="1.9" stroke="black" stroke-width="0.9" />
    <circle cx="122.583" cy="144" fill="none" id="connector89pad" r="1.9" stroke="black" stroke-width="0.9" />
    <circle cx="129.784" cy="144" fill="none" id="connector90pad" r="1.9" stroke="black" stroke-width="0.9" />
    <circle cx="144.185" cy="144" fill="none" id="connector0pad" r="1.9" stroke="black" stroke-width="0.9" />
   </g>
  </g>
 </g>
 <g partID="855211480">
  <g transform="translate(121.161,81.0396)">
   <g transform="matrix(0,-1,1,0,0,0)">
    <g id="copper0" >
     <rect fill="none" height="5.69197" id="square" stroke="black" stroke-width="1.44" width="5.69197" x="11.554"  y="6.04063"/>
     <circle cx="14.4" cy="8.8866" fill="none" id="connector0pin" r="2.84599" stroke="black" stroke-width="1.44" />
     <circle cx="14.4" cy="23.0599" fill="none" id="connector1pin" r="2.84599" stroke="black" stroke-width="1.44" />
    </g>
   </g>
  </g>
 </g>
 <g partID="855211360">
  <g transform="translate(92.3612,81.0396)">
   <g transform="matrix(0,-1,1,0,0,0)">
    <g id="copper0" >
     <rect fill="none" height="5.69197" id="square" stroke="black" stroke-width="1.44" width="5.69197" x="11.554"  y="6.04063"/>
     <circle cx="14.4" cy="8.8866" fill="none" id="connector0pin" r="2.84599" stroke="black" stroke-width="1.44" />
     <circle cx="14.4" cy="23.0599" fill="none" id="connector1pin" r="2.84599" stroke="black" stroke-width="1.44" />
    </g>
   </g>
  </g>
 </g>
 <g partID="855211640">
  <g transform="translate(149.961,81.0396)">
   <g transform="matrix(0,-1,1,0,0,0)">
    <g id="copper0" >
     <rect fill="none" height="5.69197" id="square" stroke="black" stroke-width="1.44" width="5.69197" x="11.554"  y="6.04063"/>
     <circle cx="14.4" cy="8.8866" fill="none" id="connector0pin" r="2.84599" stroke="black" stroke-width="1.44" />
     <circle cx="14.4" cy="23.0599" fill="none" id="connector1pin" r="2.84599" stroke="black" stroke-width="1.44" />
    </g>
   </g>
  </g>
 </g>
 <g partID="855211080">
  <g transform="translate(178.761,81.0396)">
   <g transform="matrix(0,-1,1,0,0,0)">
    <g id="copper0" >
     <rect fill="none" height="5.69197" id="square" stroke="black" stroke-width="1.44" width="5.69197" x="11.554"  y="6.04063"/>
     <circle cx="14.4" cy="8.8866" fill="none" id="connector0pin" r="2.84599" stroke="black" stroke-width="1.44" />
     <circle cx="14.4" cy="23.0599" fill="none" id="connector1pin" r="2.84599" stroke="black" stroke-width="1.44" />
    </g>
   </g>
  </g>
 </g>
 <g partID="855211200">
  <g transform="translate(63.5612,81.0396)">
   <g transform="matrix(0,-1,1,0,0,0)">
    <g id="copper0" >
     <rect fill="none" height="5.69197" id="square" stroke="black" stroke-width="1.44" width="5.69197" x="11.554"  y="6.04063"/>
     <circle cx="14.4" cy="8.8866" fill="none" id="connector0pin" r="2.84599" stroke="black" stroke-width="1.44" />
     <circle cx="14.4" cy="23.0599" fill="none" id="connector1pin" r="2.84599" stroke="black" stroke-width="1.44" />
    </g>
   </g>
  </g>
 </g>
 <g partID="855211140">
  <g transform="translate(34.7612,81.0396)">
   <g transform="matrix(0,-1,1,0,0,0)">
    <g id="copper0" >
     <rect fill="none" height="5.69197" id="square" stroke="black" stroke-width="1.44" width="5.69197" x="11.554"  y="6.04063"/>
     <circle cx="14.4" cy="8.8866" fill="none" id="connector0pin" r="2.84599" stroke="black" stroke-width="1.44" />
     <circle cx="14.4" cy="23.0599" fill="none" id="connector1pin" r="2.84599" stroke="black" stroke-width="1.44" />
    </g>
   </g>
  </g>
 </g>
 <g partID="855212030">
  <g transform="translate(261.335,1.83961)">
   <g transform="matrix(0,1,-1,0,0,0)">
    <g id="copper0" >
     <rect fill="none" height="5.69197" id="square" stroke="black" stroke-width="1.44" width="5.69197" x="11.554"  y="6.04063"/>
     <circle cx="14.4" cy="8.8866" fill="none" id="connector0pin" r="2.84599" stroke="black" stroke-width="1.44" />
     <circle cx="14.4" cy="23.0599" fill="none" id="connector1pin" r="2.84599" stroke="black" stroke-width="1.44" />
    </g>
   </g>
  </g>
 </g>
 <g partID="854402080">
  <g transform="translate(161.189,25.7798)">
   <g id="copper0" >
    <circle cx="4.85984" cy="4.85984" fill="none" id="connector0pin" r="2.26772" stroke="black" stroke-width="1.98426" />
   </g>
  </g>
 </g>
 <g partID="854397960">
  <g transform="translate(89.188,18.5798)">
   <g id="copper0" >
    <circle cx="4.85984" cy="4.85984" fill="none" id="connector0pin" r="2.26772" stroke="black" stroke-width="1.98426" />
   </g>
  </g>
 </g>
 <g partID="854397940">
  <g transform="translate(74.788,18.5798)">
   <g id="copper0" >
    <circle cx="4.85984" cy="4.85984" fill="none" id="connector0pin" r="2.26772" stroke="black" stroke-width="1.98426" />
   </g>
  </g>
 </g>
 <g partID="854397920">
  <g transform="translate(67.588,18.5798)">
   <g id="copper0" >
    <circle cx="4.85984" cy="4.85984" fill="none" id="connector0pin" r="2.26772" stroke="black" stroke-width="1.98426" />
   </g>
  </g>
 </g>
 <g partID="854397700">
  <g transform="translate(182.789,18.5798)">
   <g id="copper0" >
    <circle cx="4.85984" cy="4.85984" fill="none" id="connector0pin" r="2.26772" stroke="black" stroke-width="1.98426" />
   </g>
  </g>
 </g>
 <g partID="854397680">
  <g transform="translate(175.589,25.7798)">
   <g id="copper0" >
    <circle cx="4.85984" cy="4.85984" fill="none" id="connector0pin" r="2.26772" stroke="black" stroke-width="1.98426" />
   </g>
  </g>
 </g>
 <g partID="854397660">
  <g transform="translate(168.389,25.7798)">
   <g id="copper0" >
    <circle cx="4.85984" cy="4.85984" fill="none" id="connector0pin" r="2.26772" stroke="black" stroke-width="1.98426" />
   </g>
  </g>
 </g>
 <g partID="854397640">
  <g transform="translate(110.789,18.5798)">
   <g id="copper0" >
    <circle cx="4.85984" cy="4.85984" fill="none" id="connector0pin" r="2.26772" stroke="black" stroke-width="1.98426" />
   </g>
  </g>
 </g>
 <g partID="854397340">
  <g transform="translate(261.989,162.58)">
   <g id="copper0" >
    <circle cx="4.85984" cy="4.85984" fill="none" id="connector0pin" r="2.26772" stroke="black" stroke-width="1.98426" />
   </g>
  </g>
 </g>
 <g partID="854400830">
  <g transform="translate(15.9128,168.504)">
   <g id="copper0" >
    <circle cx="6.13543" cy="6.13543" fill="none" id="nonconn0" r="4.53543" stroke="black" stroke-width="0" />
   </g>
  </g>
 </g>
 <g partID="854400800">
  <g transform="translate(80.7128,168.504)">
   <g id="copper0" >
    <circle cx="6.13543" cy="6.13543" fill="none" id="nonconn0" r="4.53543" stroke="black" stroke-width="0" />
   </g>
  </g>
 </g>
 <g partID="854405440">
  <g transform="translate(55.3136,114.593)">
   <g transform="matrix(-1, 0, 0, 1, 136.8, 0)">
    <g _flipped_="1" id="copper0">
     <text fill="black" font-family="OCRA" font-size="7.2" id="label" stroke-width="0" text-anchor="middle" x="68.4" xml:space="preserve" xmlns:xml="http://www.w3.org/XML/1998/namespace" y="6.48">zinktiti@hotmail.fr</text>
    </g>
   </g>
  </g>
 </g>
 <g partID="854400870">
  <g transform="translate(28.208,104.942)">
   <g transform="matrix(-1, 0, 0, 1, 187.2, 0)">
    <g _flipped_="1" id="copper0">
     <text fill="black" font-family="OCR-Fritzing-mono" font-size="7.2" id="label" stroke-width="0" text-anchor="middle" x="93.6" xml:space="preserve" xmlns:xml="http://www.w3.org/XML/1998/namespace" y="6.48">Vacuum controller Light V1</text>
    </g>
   </g>
  </g>
 </g>
 <g partID="854405420">
  <g transform="translate(1.5128,175.704)">
   <g id="copper0" >
    <circle cx="6.13543" cy="6.13543" fill="none" id="nonconn0" r="4.53543" stroke="black" stroke-width="0" />
   </g>
  </g>
 </g>
 <g partID="854405400">
  <g transform="translate(1.5128,2.90416)">
   <g id="copper0" >
    <circle cx="6.13543" cy="6.13543" fill="none" id="nonconn0" r="4.53543" stroke="black" stroke-width="0" />
   </g>
  </g>
 </g>
 <g partID="854405380">
  <g transform="translate(267.913,175.704)">
   <g id="copper0" >
    <circle cx="6.13543" cy="6.13543" fill="none" id="nonconn0" r="4.53543" stroke="black" stroke-width="0" />
   </g>
  </g>
 </g>
 <g partID="854405350">
  <g transform="translate(267.913,2.90415)">
   <g id="copper0" >
    <circle cx="6.13543" cy="6.13543" fill="none" id="nonconn0" r="4.53543" stroke="black" stroke-width="0" />
   </g>
  </g>
 </g>
 <g partID="854405520">
  <g transform="translate(204.148,25.1318)">
   <g transform="matrix(-1, 0, 0, 1, 28.8, 0)">
    <g _flipped_="1" id="copper0">
     <text fill="black" font-family="OCRA" font-size="7.2" id="label" stroke-width="0" text-anchor="middle" x="14.4" xml:space="preserve" xmlns:xml="http://www.w3.org/XML/1998/namespace" y="6.48">220V</text>
    </g>
   </g>
  </g>
 </g>
 <g partID="854405560">
  <g transform="translate(255.92,30.1874)">
   <g transform="matrix(-1, 0, 0, 1, 21.6, 0)">
    <g _flipped_="1" id="copper0">
     <text fill="black" font-family="OCRA" font-size="7.2" id="label" stroke-width="0" text-anchor="middle" x="10.8" xml:space="preserve" xmlns:xml="http://www.w3.org/XML/1998/namespace" y="6.48">/!\</text>
    </g>
   </g>
  </g>
 </g>
 <g partID="855202380">
  <line stroke="black" stroke-linecap="round" stroke-width="3.456" x1="259.559" x2="253.944" y1="23.4198" y2="17.7502"/>
 </g>
 <g partID="855202250">
  <line stroke="black" stroke-linecap="round" stroke-width="3.456" x1="284.868" x2="259.56" y1="26.1241" y2="23.4198"/>
 </g>
 <g partID="855202330">
  <line stroke="black" stroke-linecap="round" stroke-width="3.456" x1="259.559" x2="253.683" y1="66.5606" y2="63.1818"/>
 </g>
 <g partID="855202290">
  <line stroke="black" stroke-linecap="round" stroke-width="3.456" x1="284.848" x2="259.56" y1="66.6298" y2="66.5606"/>
 </g>
 <g partID="855202470">
  <line stroke="black" stroke-linecap="round" stroke-width="3.456" x1="223.68" x2="222.015" y1="160.301" y2="164.137"/>
 </g>
 <g partID="855202480">
  <line stroke="black" stroke-linecap="round" stroke-width="3.456" x1="223.651" x2="223.68" y1="147.132" y2="160.301"/>
 </g>
 <g partID="854393260">
  <line stroke="black" stroke-linecap="round" stroke-width="3.456" x1="238.359" x2="238.279" y1="61.2458" y2="18.3656"/>
 </g>
 <g partID="854397530">
  <line stroke="black" stroke-linecap="round" stroke-width="3.456" x1="266.873" x2="267.249" y1="166.164" y2="147.131"/>
 </g>
 <g partID="854398090">
  <line stroke="black" stroke-linecap="round" stroke-width="2.304" x1="86.7648" x2="29.2358" y1="88.1331" y2="88.2323"/>
 </g>
 <g partID="854397980">
  <line stroke="black" stroke-linecap="round" stroke-width="2.304" x1="86.6358" x2="86.7651" y1="68.7655" y2="88.1331"/>
 </g>
 <g partID="854398640">
  <line stroke="black" stroke-linecap="round" stroke-width="2.304" x1="29.236" x2="22.0367" y1="88.2323" y2="95.4317"/>
 </g>
 <g partID="854398530">
  <line stroke="black" stroke-linecap="round" stroke-width="2.304" x1="22.0368" x2="22.0368" y1="95.4316" y2="138.628"/>
 </g>
 <g partID="854398420">
  <line stroke="black" stroke-linecap="round" stroke-width="2.304" x1="22.0368" x2="29.2361" y1="138.628" y2="145.827"/>
 </g>
 <g partID="854398310">
  <line stroke="black" stroke-linecap="round" stroke-width="2.304" x1="29.236" x2="43.6346" y1="145.827" y2="145.827"/>
 </g>
 <g partID="854398200">
  <line stroke="black" stroke-linecap="round" stroke-width="2.304" x1="43.6344" x2="49.8264" y1="145.827" y2="139.658"/>
 </g>
 <g partID="855210210">
  <line stroke="black" stroke-linecap="round" stroke-width="2.304" x1="72.428" x2="72.4465" y1="37.879" y2="24.7152"/>
 </g>
 <g partID="854398960">
  <line stroke="black" stroke-linecap="round" stroke-width="2.304" x1="45.1518" x2="72.4279" y1="65.1368" y2="37.8789"/>
 </g>
 <g partID="855210160">
  <line stroke="black" stroke-linecap="round" stroke-width="2.304" x1="79.6056" x2="79.6456" y1="45.0567" y2="24.7152"/>
 </g>
 <g partID="854399030">
  <line stroke="black" stroke-linecap="round" stroke-width="2.304" x1="59.3311" x2="79.6053" y1="65.1433" y2="45.0567"/>
 </g>
 <g partID="855211880">
  <line stroke="black" stroke-linecap="round" stroke-width="2.304" x1="86.8816" x2="93.1449" y1="30.5858" y2="24.3403"/>
 </g>
 <g partID="854402490">
  <line stroke="black" stroke-linecap="round" stroke-width="2.304" x1="86.8792" x2="86.8818" y1="52.2661" y2="30.5858"/>
 </g>
 <g partID="854399390">
  <line stroke="black" stroke-linecap="round" stroke-width="2.304" x1="73.9543" x2="86.8788" y1="65.1393" y2="52.266"/>
 </g>
 <g partID="854399790">
  <line stroke="black" stroke-linecap="round" stroke-width="2.304" x1="173.034" x2="173.24" y1="64.5137" y2="31.9151"/>
 </g>
 <g partID="854400000">
  <line stroke="black" stroke-linecap="round" stroke-width="2.304" x1="181.34" x2="187.622" y1="31.5512" y2="37.9698"/>
 </g>
 <g partID="854400070">
  <line stroke="black" stroke-linecap="round" stroke-width="2.304" x1="187.622" x2="187.646" y1="37.9698" y2="64.5136"/>
 </g>
 <g partID="854400210">
  <line stroke="black" stroke-linecap="round" stroke-width="2.304" x1="188.924" x2="194.788" y1="23.4275" y2="23.372"/>
 </g>
 <g partID="854400350">
  <line stroke="black" stroke-linecap="round" stroke-width="2.304" x1="194.789" x2="201.955" y1="23.372" y2="30.5382"/>
 </g>
 <g partID="854400280">
  <line stroke="black" stroke-linecap="round" stroke-width="2.304" x1="201.955" x2="201.829" y1="30.5382" y2="64.5136"/>
 </g>
 <g partID="854401350">
  <line stroke="black" stroke-linecap="round" stroke-width="1.728" x1="101.232" x2="94.9417" y1="30.7559" y2="24.3498"/>
 </g>
 <g partID="854400970">
  <line stroke="black" stroke-linecap="round" stroke-width="1.728" x1="101.247" x2="101.232" y1="64.5136" y2="30.7559"/>
 </g>
 <g partID="854401540">
  <line stroke="black" stroke-linecap="round" stroke-width="2.304" x1="115.641" x2="115.432" y1="24.7152" y2="64.5137"/>
 </g>
 <g partID="854402200">
  <line stroke="black" stroke-linecap="round" stroke-width="2.304" x1="158.958" x2="158.856" y1="37.9698" y2="64.5136"/>
 </g>
 <g partID="854402130">
  <line stroke="black" stroke-linecap="round" stroke-width="2.304" x1="165.161" x2="158.958" y1="31.5564" y2="37.9698"/>
 </g>
 <g partID="854403440">
  <line stroke="black" stroke-linecap="round" stroke-width="2.304" x1="122.862" x2="108.529" y1="73.8007" y2="73.8007"/>
 </g>
 <g partID="854403250">
  <line stroke="black" stroke-linecap="round" stroke-width="2.304" x1="108.529" x2="102.763" y1="73.8007" y2="68.1304"/>
 </g>
 <g partID="854403060">
  <line stroke="black" stroke-linecap="round" stroke-width="2.304" x1="128.542" x2="122.862" y1="68.1403" y2="73.8007"/>
 </g>
 <g partID="854404030">
  <line stroke="black" stroke-linecap="round" stroke-width="2.304" x1="144.36" x2="144.242" y1="80.967" y2="68.7656"/>
 </g>
 <g partID="854403880">
  <line stroke="black" stroke-linecap="round" stroke-width="2.304" x1="137.194" x2="144.36" y1="88.1331" y2="80.9669"/>
 </g>
 <g partID="854403730">
  <line stroke="black" stroke-linecap="round" stroke-width="2.304" x1="86.7648" x2="137.194" y1="88.1331" y2="88.1331"/>
 </g>
</svg>
