G04 MADE WITH FRITZING*
G04 WWW.FRITZING.ORG*
G04 DOUBLE SIDED*
G04 HOLES PLATED*
G04 CONTOUR ON CENTER OF CONTOUR VECTOR*
%ASAXBY*%
%FSLAX23Y23*%
%MOIN*%
%OFA0B0*%
%SFA1.0B1.0*%
%ADD10C,0.150000*%
%ADD11C,0.087000*%
%ADD12C,0.084000*%
%ADD13C,0.075278*%
%ADD14C,0.109055*%
%ADD15C,0.100551*%
%ADD16C,0.135984*%
%ADD17R,0.084000X0.084000*%
%ADD18R,0.109055X0.109055*%
%LNMASK0*%
G90*
G70*
G54D10*
X3064Y312D03*
X2834Y312D03*
X2276Y312D03*
X2506Y312D03*
X4006Y2270D03*
X4006Y2040D03*
X4006Y1482D03*
X4006Y1712D03*
G54D11*
X3311Y1769D03*
X3508Y1769D03*
X3712Y612D03*
X3106Y612D03*
G54D12*
X506Y712D03*
X606Y712D03*
X706Y712D03*
X806Y712D03*
X906Y712D03*
X1006Y712D03*
G54D13*
X2405Y612D03*
X2505Y612D03*
X2605Y612D03*
X2705Y612D03*
X2805Y612D03*
X1945Y2512D03*
X1845Y2512D03*
X1745Y2512D03*
X1645Y2512D03*
X1545Y2512D03*
X1445Y2512D03*
X1345Y2512D03*
X1245Y2512D03*
X1145Y2512D03*
X1045Y2512D03*
X2805Y2512D03*
X2705Y2512D03*
X2605Y2512D03*
X2505Y2512D03*
X2405Y2512D03*
X2305Y2512D03*
X2205Y2512D03*
X2105Y2512D03*
X1505Y612D03*
X1405Y612D03*
X1605Y612D03*
X1705Y612D03*
X1805Y612D03*
X1905Y612D03*
X2005Y612D03*
X2105Y612D03*
X2305Y612D03*
G54D14*
X1806Y1712D03*
X2003Y1712D03*
X1406Y1712D03*
X1603Y1712D03*
X2206Y1712D03*
X2403Y1712D03*
X2606Y1712D03*
X2803Y1712D03*
X1006Y1712D03*
X1203Y1712D03*
X606Y1712D03*
X803Y1712D03*
X3506Y2412D03*
X3309Y2412D03*
G54D15*
X2306Y2212D03*
X1306Y2312D03*
X1106Y2312D03*
X1006Y2312D03*
X2606Y2312D03*
X2506Y2212D03*
X2406Y2212D03*
X1606Y2312D03*
X3706Y312D03*
G54D16*
X306Y212D03*
X1206Y212D03*
X106Y112D03*
X106Y2512D03*
X3806Y112D03*
X3806Y2512D03*
G54D17*
X506Y712D03*
G54D18*
X1806Y1712D03*
X1406Y1712D03*
X2206Y1712D03*
X2606Y1712D03*
X1006Y1712D03*
X606Y1712D03*
X3506Y2412D03*
G04 End of Mask0*
M02*