; NON-PLATED HOLES START AT T1
; THROUGH (PLATED) HOLES START AT T100
M48
INCH
T1C0.125984
T100C0.035433
T101C0.035889
T102C0.040278
T103C0.059055
T104C0.040000
T105C0.100000
%
T1
X012062Y002122
X003062Y002122
X038062Y025122
X038062Y001122
X001062Y001122
X001062Y025122
T100
X025062Y022122
X010062Y023122
X037062Y003122
X013062Y023122
X026062Y023122
X016062Y023122
X023062Y022122
X024062Y022122
X011062Y023122
T101
X033105Y017692
X035078Y017692
X031062Y006122
X037121Y006122
T102
X024050Y006121
X027050Y006121
X026050Y006121
X017450Y025121
X016450Y025121
X019450Y025121
X014450Y025121
X018050Y006121
X025050Y006121
X028050Y025121
X011450Y025121
X022050Y025121
X021050Y006121
X015450Y025121
X023050Y025121
X020050Y006121
X027050Y025121
X026050Y025121
X024050Y025121
X015050Y006121
X010450Y025121
X013450Y025121
X028050Y006121
X025050Y025121
X023050Y006121
X014050Y006121
X012450Y025121
X019050Y006121
X016050Y006121
X017050Y006121
X021050Y025121
X018450Y025121
T103
X024030Y017122
X033093Y024122
X012030Y017122
X035062Y024122
X022062Y017122
X010062Y017122
X020030Y017122
X018062Y017122
X014062Y017122
X028030Y017122
X006062Y017122
X008030Y017122
X016030Y017122
X026062Y017122
T104
X008062Y007122
X007062Y007122
X006062Y007122
X009062Y007122
X010063Y007122
X005062Y007122
T105
X025062Y003122
X028336Y003122
X030636Y003122
X040062Y014822
X040062Y022696
X040062Y017122
X040062Y020396
X022762Y003122
T00
M30
