G04 MADE WITH FRITZING*
G04 WWW.FRITZING.ORG*
G04 DOUBLE SIDED*
G04 HOLES PLATED*
G04 CONTOUR ON CENTER OF CONTOUR VECTOR*
%ASAXBY*%
%FSLAX23Y23*%
%MOIN*%
%OFA0B0*%
%SFA1.0B1.0*%
%ADD10C,0.140000*%
%ADD11C,0.077000*%
%ADD12C,0.074000*%
%ADD13C,0.065278*%
%ADD14C,0.099055*%
%ADD15C,0.090551*%
%ADD16R,0.074000X0.074000*%
%ADD17R,0.099055X0.099055*%
%ADD18C,0.048000*%
%ADD19C,0.032000*%
%ADD20C,0.024000*%
%ADD21R,0.001000X0.001000*%
%LNCOPPER0*%
G90*
G70*
G54D10*
X3064Y312D03*
X2834Y312D03*
X2276Y312D03*
X2506Y312D03*
X4006Y2270D03*
X4006Y2040D03*
X4006Y1482D03*
X4006Y1712D03*
G54D11*
X3311Y1769D03*
X3508Y1769D03*
X3712Y612D03*
X3106Y612D03*
G54D12*
X506Y712D03*
X606Y712D03*
X706Y712D03*
X806Y712D03*
X906Y712D03*
X1006Y712D03*
G54D13*
X2405Y612D03*
X2505Y612D03*
X2605Y612D03*
X2705Y612D03*
X2805Y612D03*
X1945Y2512D03*
X1845Y2512D03*
X1745Y2512D03*
X1645Y2512D03*
X1545Y2512D03*
X1445Y2512D03*
X1345Y2512D03*
X1245Y2512D03*
X1145Y2512D03*
X1045Y2512D03*
X2805Y2512D03*
X2705Y2512D03*
X2605Y2512D03*
X2505Y2512D03*
X2405Y2512D03*
X2305Y2512D03*
X2205Y2512D03*
X2105Y2512D03*
X1505Y612D03*
X1405Y612D03*
X1605Y612D03*
X1705Y612D03*
X1805Y612D03*
X1905Y612D03*
X2005Y612D03*
X2105Y612D03*
X2305Y612D03*
G54D14*
X1806Y1712D03*
X2003Y1712D03*
X1406Y1712D03*
X1603Y1712D03*
X2206Y1712D03*
X2403Y1712D03*
X2606Y1712D03*
X2803Y1712D03*
X1006Y1712D03*
X1203Y1712D03*
X606Y1712D03*
X803Y1712D03*
X3506Y2412D03*
X3309Y2412D03*
G54D15*
X2306Y2212D03*
X1306Y2312D03*
X1106Y2312D03*
X1006Y2312D03*
X2606Y2312D03*
X2506Y2212D03*
X2406Y2212D03*
X1606Y2312D03*
X3706Y312D03*
G54D16*
X506Y712D03*
G54D17*
X1806Y1712D03*
X1406Y1712D03*
X2206Y1712D03*
X2606Y1712D03*
X1006Y1712D03*
X606Y1712D03*
X3506Y2412D03*
G54D18*
X3605Y2313D02*
X3527Y2391D01*
D02*
X3957Y2275D02*
X3605Y2313D01*
D02*
X3605Y1713D02*
X3523Y1760D01*
D02*
X3956Y1712D02*
X3605Y1713D01*
D02*
X3107Y411D02*
X3084Y358D01*
D02*
X3106Y594D02*
X3107Y411D01*
D02*
X3311Y1787D02*
X3309Y2383D01*
D02*
X3707Y330D02*
X3712Y594D01*
G54D19*
D02*
X1205Y1414D02*
X406Y1412D01*
D02*
X1203Y1683D02*
X1205Y1414D01*
D02*
X406Y1412D02*
X306Y1312D01*
D02*
X306Y1312D02*
X306Y712D01*
D02*
X306Y712D02*
X406Y612D01*
D02*
X406Y612D02*
X606Y612D01*
D02*
X606Y612D02*
X692Y698D01*
D02*
X1006Y2112D02*
X1006Y2295D01*
D02*
X627Y1733D02*
X1006Y2112D01*
D02*
X1106Y2012D02*
X1106Y2295D01*
D02*
X824Y1733D02*
X1106Y2012D01*
D02*
X1207Y2213D02*
X1294Y2300D01*
D02*
X1207Y1912D02*
X1207Y2213D01*
D02*
X1027Y1733D02*
X1207Y1912D01*
D02*
X2403Y1742D02*
X2406Y2195D01*
D02*
X2519Y2200D02*
X2606Y2110D01*
D02*
X2606Y2110D02*
X2606Y1742D01*
D02*
X2624Y2312D02*
X2705Y2313D01*
D02*
X2705Y2313D02*
X2805Y2214D01*
D02*
X2805Y2214D02*
X2803Y1742D01*
G54D20*
D02*
X1406Y2211D02*
X1319Y2300D01*
D02*
X1406Y1742D02*
X1406Y2211D01*
G54D19*
D02*
X1606Y2295D02*
X1603Y1742D01*
D02*
X2208Y2110D02*
X2206Y1742D01*
D02*
X2294Y2200D02*
X2208Y2110D01*
D02*
X1706Y1613D02*
X1507Y1613D01*
D02*
X1507Y1613D02*
X1427Y1692D01*
D02*
X1785Y1691D02*
X1706Y1613D01*
D02*
X2005Y1513D02*
X2003Y1683D01*
D02*
X1905Y1414D02*
X2005Y1513D01*
D02*
X1205Y1414D02*
X1905Y1414D01*
G54D21*
X2906Y2276D02*
X2909Y2276D01*
X2946Y2276D02*
X2949Y2276D01*
X2982Y2276D02*
X3017Y2276D01*
X3054Y2276D02*
X3093Y2276D01*
X3126Y2276D02*
X3165Y2276D01*
X2904Y2275D02*
X2911Y2275D01*
X2944Y2275D02*
X2950Y2275D01*
X2980Y2275D02*
X3019Y2275D01*
X3052Y2275D02*
X3094Y2275D01*
X3124Y2275D02*
X3166Y2275D01*
X2904Y2274D02*
X2911Y2274D01*
X2943Y2274D02*
X2951Y2274D01*
X2979Y2274D02*
X3020Y2274D01*
X3050Y2274D02*
X3095Y2274D01*
X3122Y2274D02*
X3167Y2274D01*
X2903Y2273D02*
X2912Y2273D01*
X2943Y2273D02*
X2951Y2273D01*
X2978Y2273D02*
X3021Y2273D01*
X3049Y2273D02*
X3095Y2273D01*
X3121Y2273D02*
X3167Y2273D01*
X2903Y2272D02*
X2912Y2272D01*
X2943Y2272D02*
X2952Y2272D01*
X2977Y2272D02*
X3022Y2272D01*
X3049Y2272D02*
X3096Y2272D01*
X3121Y2272D02*
X3168Y2272D01*
X2903Y2271D02*
X2912Y2271D01*
X2943Y2271D02*
X2952Y2271D01*
X2976Y2271D02*
X3023Y2271D01*
X3048Y2271D02*
X3096Y2271D01*
X3120Y2271D02*
X3168Y2271D01*
X2903Y2270D02*
X2912Y2270D01*
X2943Y2270D02*
X2952Y2270D01*
X2976Y2270D02*
X3023Y2270D01*
X3048Y2270D02*
X3095Y2270D01*
X3120Y2270D02*
X3167Y2270D01*
X2903Y2269D02*
X2912Y2269D01*
X2943Y2269D02*
X2952Y2269D01*
X2975Y2269D02*
X3023Y2269D01*
X3047Y2269D02*
X3095Y2269D01*
X3119Y2269D02*
X3167Y2269D01*
X2903Y2268D02*
X2912Y2268D01*
X2943Y2268D02*
X2952Y2268D01*
X2975Y2268D02*
X3024Y2268D01*
X3047Y2268D02*
X3094Y2268D01*
X3119Y2268D02*
X3166Y2268D01*
X2903Y2267D02*
X2912Y2267D01*
X2943Y2267D02*
X2952Y2267D01*
X2975Y2267D02*
X3024Y2267D01*
X3047Y2267D02*
X3093Y2267D01*
X3119Y2267D02*
X3165Y2267D01*
X2903Y2266D02*
X2912Y2266D01*
X2943Y2266D02*
X2952Y2266D01*
X2975Y2266D02*
X2984Y2266D01*
X3015Y2266D02*
X3024Y2266D01*
X3047Y2266D02*
X3056Y2266D01*
X3119Y2266D02*
X3128Y2266D01*
X2903Y2265D02*
X2912Y2265D01*
X2943Y2265D02*
X2952Y2265D01*
X2975Y2265D02*
X2984Y2265D01*
X3015Y2265D02*
X3024Y2265D01*
X3047Y2265D02*
X3056Y2265D01*
X3119Y2265D02*
X3128Y2265D01*
X2903Y2264D02*
X2912Y2264D01*
X2943Y2264D02*
X2952Y2264D01*
X2975Y2264D02*
X2984Y2264D01*
X3015Y2264D02*
X3024Y2264D01*
X3047Y2264D02*
X3056Y2264D01*
X3119Y2264D02*
X3128Y2264D01*
X2903Y2263D02*
X2912Y2263D01*
X2943Y2263D02*
X2952Y2263D01*
X2975Y2263D02*
X2984Y2263D01*
X3015Y2263D02*
X3024Y2263D01*
X3047Y2263D02*
X3056Y2263D01*
X3119Y2263D02*
X3128Y2263D01*
X2903Y2262D02*
X2912Y2262D01*
X2943Y2262D02*
X2952Y2262D01*
X2975Y2262D02*
X2984Y2262D01*
X3015Y2262D02*
X3024Y2262D01*
X3047Y2262D02*
X3056Y2262D01*
X3119Y2262D02*
X3128Y2262D01*
X2903Y2261D02*
X2912Y2261D01*
X2943Y2261D02*
X2952Y2261D01*
X2975Y2261D02*
X2984Y2261D01*
X3015Y2261D02*
X3024Y2261D01*
X3047Y2261D02*
X3056Y2261D01*
X3119Y2261D02*
X3128Y2261D01*
X2903Y2260D02*
X2912Y2260D01*
X2943Y2260D02*
X2952Y2260D01*
X2975Y2260D02*
X2984Y2260D01*
X3015Y2260D02*
X3024Y2260D01*
X3047Y2260D02*
X3056Y2260D01*
X3119Y2260D02*
X3128Y2260D01*
X2903Y2259D02*
X2912Y2259D01*
X2943Y2259D02*
X2952Y2259D01*
X2975Y2259D02*
X2984Y2259D01*
X3015Y2259D02*
X3024Y2259D01*
X3047Y2259D02*
X3056Y2259D01*
X3119Y2259D02*
X3128Y2259D01*
X2903Y2258D02*
X2912Y2258D01*
X2943Y2258D02*
X2952Y2258D01*
X2975Y2258D02*
X2984Y2258D01*
X3015Y2258D02*
X3024Y2258D01*
X3047Y2258D02*
X3056Y2258D01*
X3119Y2258D02*
X3128Y2258D01*
X2903Y2257D02*
X2912Y2257D01*
X2943Y2257D02*
X2952Y2257D01*
X2975Y2257D02*
X2984Y2257D01*
X3015Y2257D02*
X3024Y2257D01*
X3047Y2257D02*
X3056Y2257D01*
X3119Y2257D02*
X3128Y2257D01*
X2903Y2256D02*
X2912Y2256D01*
X2943Y2256D02*
X2952Y2256D01*
X2975Y2256D02*
X2984Y2256D01*
X3015Y2256D02*
X3024Y2256D01*
X3047Y2256D02*
X3056Y2256D01*
X3119Y2256D02*
X3128Y2256D01*
X2903Y2255D02*
X2912Y2255D01*
X2942Y2255D02*
X2952Y2255D01*
X2975Y2255D02*
X2984Y2255D01*
X3015Y2255D02*
X3024Y2255D01*
X3047Y2255D02*
X3056Y2255D01*
X3119Y2255D02*
X3128Y2255D01*
X2903Y2254D02*
X2913Y2254D01*
X2942Y2254D02*
X2952Y2254D01*
X2975Y2254D02*
X2984Y2254D01*
X3015Y2254D02*
X3024Y2254D01*
X3047Y2254D02*
X3056Y2254D01*
X3119Y2254D02*
X3128Y2254D01*
X2903Y2253D02*
X2913Y2253D01*
X2942Y2253D02*
X2952Y2253D01*
X2975Y2253D02*
X2984Y2253D01*
X3015Y2253D02*
X3024Y2253D01*
X3047Y2253D02*
X3056Y2253D01*
X3119Y2253D02*
X3128Y2253D01*
X2904Y2252D02*
X2913Y2252D01*
X2941Y2252D02*
X2951Y2252D01*
X2975Y2252D02*
X2984Y2252D01*
X3015Y2252D02*
X3024Y2252D01*
X3047Y2252D02*
X3056Y2252D01*
X3119Y2252D02*
X3128Y2252D01*
X2904Y2251D02*
X2914Y2251D01*
X2941Y2251D02*
X2951Y2251D01*
X2975Y2251D02*
X2984Y2251D01*
X3015Y2251D02*
X3024Y2251D01*
X3047Y2251D02*
X3056Y2251D01*
X3119Y2251D02*
X3128Y2251D01*
X2904Y2250D02*
X2914Y2250D01*
X2940Y2250D02*
X2950Y2250D01*
X2975Y2250D02*
X2984Y2250D01*
X3015Y2250D02*
X3024Y2250D01*
X3047Y2250D02*
X3056Y2250D01*
X3119Y2250D02*
X3128Y2250D01*
X2905Y2249D02*
X2915Y2249D01*
X2940Y2249D02*
X2950Y2249D01*
X2975Y2249D02*
X2984Y2249D01*
X3015Y2249D02*
X3024Y2249D01*
X3047Y2249D02*
X3056Y2249D01*
X3119Y2249D02*
X3128Y2249D01*
X2905Y2248D02*
X2915Y2248D01*
X2940Y2248D02*
X2950Y2248D01*
X2975Y2248D02*
X2984Y2248D01*
X3015Y2248D02*
X3024Y2248D01*
X3047Y2248D02*
X3056Y2248D01*
X3119Y2248D02*
X3128Y2248D01*
X2905Y2247D02*
X2915Y2247D01*
X2939Y2247D02*
X2949Y2247D01*
X2975Y2247D02*
X2984Y2247D01*
X3015Y2247D02*
X3024Y2247D01*
X3047Y2247D02*
X3056Y2247D01*
X3119Y2247D02*
X3128Y2247D01*
X2906Y2246D02*
X2916Y2246D01*
X2939Y2246D02*
X2949Y2246D01*
X2975Y2246D02*
X2984Y2246D01*
X3015Y2246D02*
X3024Y2246D01*
X3047Y2246D02*
X3056Y2246D01*
X3119Y2246D02*
X3128Y2246D01*
X2906Y2245D02*
X2916Y2245D01*
X2939Y2245D02*
X2948Y2245D01*
X2975Y2245D02*
X2984Y2245D01*
X3015Y2245D02*
X3024Y2245D01*
X3047Y2245D02*
X3056Y2245D01*
X3119Y2245D02*
X3128Y2245D01*
X2907Y2244D02*
X2917Y2244D01*
X2938Y2244D02*
X2948Y2244D01*
X2975Y2244D02*
X2984Y2244D01*
X3015Y2244D02*
X3024Y2244D01*
X3047Y2244D02*
X3056Y2244D01*
X3119Y2244D02*
X3128Y2244D01*
X2907Y2243D02*
X2917Y2243D01*
X2938Y2243D02*
X2948Y2243D01*
X2975Y2243D02*
X2984Y2243D01*
X3015Y2243D02*
X3024Y2243D01*
X3047Y2243D02*
X3056Y2243D01*
X3119Y2243D02*
X3128Y2243D01*
X2907Y2242D02*
X2917Y2242D01*
X2937Y2242D02*
X2947Y2242D01*
X2975Y2242D02*
X2984Y2242D01*
X3015Y2242D02*
X3024Y2242D01*
X3047Y2242D02*
X3089Y2242D01*
X3119Y2242D02*
X3161Y2242D01*
X2908Y2241D02*
X2918Y2241D01*
X2937Y2241D02*
X2947Y2241D01*
X2975Y2241D02*
X2984Y2241D01*
X3015Y2241D02*
X3024Y2241D01*
X3047Y2241D02*
X3091Y2241D01*
X3119Y2241D02*
X3163Y2241D01*
X2908Y2240D02*
X2918Y2240D01*
X2937Y2240D02*
X2946Y2240D01*
X2975Y2240D02*
X2984Y2240D01*
X3015Y2240D02*
X3024Y2240D01*
X3047Y2240D02*
X3092Y2240D01*
X3119Y2240D02*
X3164Y2240D01*
X2909Y2239D02*
X2918Y2239D01*
X2936Y2239D02*
X2946Y2239D01*
X2975Y2239D02*
X2984Y2239D01*
X3015Y2239D02*
X3024Y2239D01*
X3048Y2239D02*
X3093Y2239D01*
X3120Y2239D02*
X3165Y2239D01*
X2909Y2238D02*
X2919Y2238D01*
X2936Y2238D02*
X2946Y2238D01*
X2975Y2238D02*
X2984Y2238D01*
X3015Y2238D02*
X3024Y2238D01*
X3048Y2238D02*
X3094Y2238D01*
X3120Y2238D02*
X3166Y2238D01*
X2909Y2237D02*
X2919Y2237D01*
X2935Y2237D02*
X2945Y2237D01*
X2975Y2237D02*
X2984Y2237D01*
X3015Y2237D02*
X3024Y2237D01*
X3049Y2237D02*
X3095Y2237D01*
X3121Y2237D02*
X3167Y2237D01*
X2910Y2236D02*
X2920Y2236D01*
X2935Y2236D02*
X2945Y2236D01*
X2975Y2236D02*
X2984Y2236D01*
X3015Y2236D02*
X3024Y2236D01*
X3050Y2236D02*
X3095Y2236D01*
X3122Y2236D02*
X3167Y2236D01*
X2910Y2235D02*
X2920Y2235D01*
X2935Y2235D02*
X2945Y2235D01*
X2975Y2235D02*
X2984Y2235D01*
X3015Y2235D02*
X3024Y2235D01*
X3051Y2235D02*
X3095Y2235D01*
X3123Y2235D02*
X3167Y2235D01*
X2911Y2234D02*
X2920Y2234D01*
X2934Y2234D02*
X2944Y2234D01*
X2975Y2234D02*
X2984Y2234D01*
X3015Y2234D02*
X3024Y2234D01*
X3052Y2234D02*
X3096Y2234D01*
X3124Y2234D02*
X3168Y2234D01*
X2911Y2233D02*
X2921Y2233D01*
X2934Y2233D02*
X2944Y2233D01*
X2975Y2233D02*
X2984Y2233D01*
X3015Y2233D02*
X3024Y2233D01*
X3054Y2233D02*
X3096Y2233D01*
X3126Y2233D02*
X3168Y2233D01*
X2911Y2232D02*
X2921Y2232D01*
X2933Y2232D02*
X2943Y2232D01*
X2975Y2232D02*
X2984Y2232D01*
X3015Y2232D02*
X3024Y2232D01*
X3087Y2232D02*
X3096Y2232D01*
X3159Y2232D02*
X3168Y2232D01*
X2912Y2231D02*
X2922Y2231D01*
X2933Y2231D02*
X2943Y2231D01*
X2975Y2231D02*
X2984Y2231D01*
X3015Y2231D02*
X3024Y2231D01*
X3087Y2231D02*
X3096Y2231D01*
X3159Y2231D02*
X3168Y2231D01*
X2912Y2230D02*
X2922Y2230D01*
X2933Y2230D02*
X2943Y2230D01*
X2975Y2230D02*
X2984Y2230D01*
X3015Y2230D02*
X3024Y2230D01*
X3087Y2230D02*
X3096Y2230D01*
X3159Y2230D02*
X3168Y2230D01*
X2913Y2229D02*
X2922Y2229D01*
X2932Y2229D02*
X2942Y2229D01*
X2975Y2229D02*
X2984Y2229D01*
X3015Y2229D02*
X3024Y2229D01*
X3087Y2229D02*
X3096Y2229D01*
X3159Y2229D02*
X3168Y2229D01*
X2913Y2228D02*
X2923Y2228D01*
X2932Y2228D02*
X2942Y2228D01*
X2975Y2228D02*
X2984Y2228D01*
X3015Y2228D02*
X3024Y2228D01*
X3087Y2228D02*
X3096Y2228D01*
X3159Y2228D02*
X3168Y2228D01*
X2913Y2227D02*
X2923Y2227D01*
X2931Y2227D02*
X2941Y2227D01*
X2975Y2227D02*
X2984Y2227D01*
X3015Y2227D02*
X3024Y2227D01*
X3087Y2227D02*
X3096Y2227D01*
X3159Y2227D02*
X3168Y2227D01*
X2914Y2226D02*
X2924Y2226D01*
X2931Y2226D02*
X2941Y2226D01*
X2975Y2226D02*
X2984Y2226D01*
X3015Y2226D02*
X3024Y2226D01*
X3087Y2226D02*
X3096Y2226D01*
X3159Y2226D02*
X3168Y2226D01*
X2914Y2225D02*
X2924Y2225D01*
X2931Y2225D02*
X2941Y2225D01*
X2975Y2225D02*
X2984Y2225D01*
X3015Y2225D02*
X3024Y2225D01*
X3087Y2225D02*
X3096Y2225D01*
X3159Y2225D02*
X3168Y2225D01*
X2914Y2224D02*
X2924Y2224D01*
X2930Y2224D02*
X2940Y2224D01*
X2975Y2224D02*
X2984Y2224D01*
X3015Y2224D02*
X3024Y2224D01*
X3087Y2224D02*
X3096Y2224D01*
X3159Y2224D02*
X3168Y2224D01*
X2915Y2223D02*
X2925Y2223D01*
X2930Y2223D02*
X2940Y2223D01*
X2975Y2223D02*
X2984Y2223D01*
X3015Y2223D02*
X3024Y2223D01*
X3087Y2223D02*
X3096Y2223D01*
X3159Y2223D02*
X3168Y2223D01*
X2915Y2222D02*
X2925Y2222D01*
X2930Y2222D02*
X2939Y2222D01*
X2975Y2222D02*
X2984Y2222D01*
X3015Y2222D02*
X3024Y2222D01*
X3087Y2222D02*
X3096Y2222D01*
X3159Y2222D02*
X3168Y2222D01*
X2916Y2221D02*
X2926Y2221D01*
X2929Y2221D02*
X2939Y2221D01*
X2975Y2221D02*
X2984Y2221D01*
X3015Y2221D02*
X3024Y2221D01*
X3087Y2221D02*
X3096Y2221D01*
X3159Y2221D02*
X3168Y2221D01*
X2916Y2220D02*
X2926Y2220D01*
X2929Y2220D02*
X2939Y2220D01*
X2975Y2220D02*
X2984Y2220D01*
X3015Y2220D02*
X3024Y2220D01*
X3087Y2220D02*
X3096Y2220D01*
X3159Y2220D02*
X3168Y2220D01*
X2916Y2219D02*
X2926Y2219D01*
X2928Y2219D02*
X2938Y2219D01*
X2975Y2219D02*
X2984Y2219D01*
X3015Y2219D02*
X3024Y2219D01*
X3087Y2219D02*
X3096Y2219D01*
X3159Y2219D02*
X3168Y2219D01*
X2917Y2218D02*
X2938Y2218D01*
X2975Y2218D02*
X2984Y2218D01*
X3015Y2218D02*
X3024Y2218D01*
X3087Y2218D02*
X3096Y2218D01*
X3159Y2218D02*
X3168Y2218D01*
X2917Y2217D02*
X2938Y2217D01*
X2975Y2217D02*
X2984Y2217D01*
X3015Y2217D02*
X3024Y2217D01*
X3087Y2217D02*
X3096Y2217D01*
X3159Y2217D02*
X3168Y2217D01*
X2918Y2216D02*
X2937Y2216D01*
X2975Y2216D02*
X2984Y2216D01*
X3015Y2216D02*
X3024Y2216D01*
X3087Y2216D02*
X3096Y2216D01*
X3159Y2216D02*
X3168Y2216D01*
X2918Y2215D02*
X2937Y2215D01*
X2975Y2215D02*
X2984Y2215D01*
X3015Y2215D02*
X3024Y2215D01*
X3087Y2215D02*
X3096Y2215D01*
X3159Y2215D02*
X3168Y2215D01*
X2918Y2214D02*
X2936Y2214D01*
X2975Y2214D02*
X2984Y2214D01*
X3015Y2214D02*
X3024Y2214D01*
X3087Y2214D02*
X3096Y2214D01*
X3159Y2214D02*
X3168Y2214D01*
X2919Y2213D02*
X2936Y2213D01*
X2975Y2213D02*
X2984Y2213D01*
X3015Y2213D02*
X3024Y2213D01*
X3087Y2213D02*
X3096Y2213D01*
X3159Y2213D02*
X3168Y2213D01*
X2919Y2212D02*
X2936Y2212D01*
X2975Y2212D02*
X2984Y2212D01*
X3015Y2212D02*
X3024Y2212D01*
X3087Y2212D02*
X3096Y2212D01*
X3159Y2212D02*
X3168Y2212D01*
X2920Y2211D02*
X2935Y2211D01*
X2975Y2211D02*
X2984Y2211D01*
X3015Y2211D02*
X3024Y2211D01*
X3087Y2211D02*
X3096Y2211D01*
X3159Y2211D02*
X3168Y2211D01*
X2920Y2210D02*
X2935Y2210D01*
X2975Y2210D02*
X2984Y2210D01*
X3015Y2210D02*
X3024Y2210D01*
X3087Y2210D02*
X3096Y2210D01*
X3159Y2210D02*
X3168Y2210D01*
X2920Y2209D02*
X2934Y2209D01*
X2975Y2209D02*
X2984Y2209D01*
X3015Y2209D02*
X3024Y2209D01*
X3087Y2209D02*
X3096Y2209D01*
X3159Y2209D02*
X3168Y2209D01*
X2921Y2208D02*
X2934Y2208D01*
X2975Y2208D02*
X3024Y2208D01*
X3050Y2208D02*
X3096Y2208D01*
X3122Y2208D02*
X3168Y2208D01*
X2921Y2207D02*
X2934Y2207D01*
X2975Y2207D02*
X3024Y2207D01*
X3048Y2207D02*
X3096Y2207D01*
X3120Y2207D02*
X3168Y2207D01*
X2921Y2206D02*
X2933Y2206D01*
X2975Y2206D02*
X3023Y2206D01*
X3048Y2206D02*
X3096Y2206D01*
X3120Y2206D02*
X3168Y2206D01*
X3651Y2206D02*
X3653Y2206D01*
X3701Y2206D02*
X3708Y2206D01*
X3755Y2206D02*
X3758Y2206D01*
X2922Y2205D02*
X2933Y2205D01*
X2976Y2205D02*
X3023Y2205D01*
X3047Y2205D02*
X3096Y2205D01*
X3119Y2205D02*
X3168Y2205D01*
X3649Y2205D02*
X3655Y2205D01*
X3699Y2205D02*
X3710Y2205D01*
X3754Y2205D02*
X3759Y2205D01*
X2922Y2204D02*
X2933Y2204D01*
X2976Y2204D02*
X3022Y2204D01*
X3047Y2204D02*
X3096Y2204D01*
X3119Y2204D02*
X3168Y2204D01*
X3648Y2204D02*
X3656Y2204D01*
X3698Y2204D02*
X3710Y2204D01*
X3753Y2204D02*
X3760Y2204D01*
X2923Y2203D02*
X2932Y2203D01*
X2977Y2203D02*
X3022Y2203D01*
X3047Y2203D02*
X3096Y2203D01*
X3119Y2203D02*
X3168Y2203D01*
X3648Y2203D02*
X3656Y2203D01*
X3698Y2203D02*
X3711Y2203D01*
X3752Y2203D02*
X3761Y2203D01*
X2923Y2202D02*
X2932Y2202D01*
X2978Y2202D02*
X3021Y2202D01*
X3047Y2202D02*
X3096Y2202D01*
X3119Y2202D02*
X3168Y2202D01*
X3647Y2202D02*
X3657Y2202D01*
X3697Y2202D02*
X3711Y2202D01*
X3752Y2202D02*
X3761Y2202D01*
X2924Y2201D02*
X2931Y2201D01*
X2979Y2201D02*
X3020Y2201D01*
X3048Y2201D02*
X3096Y2201D01*
X3120Y2201D02*
X3168Y2201D01*
X3647Y2201D02*
X3657Y2201D01*
X3697Y2201D02*
X3711Y2201D01*
X3752Y2201D02*
X3762Y2201D01*
X2924Y2200D02*
X2930Y2200D01*
X2980Y2200D02*
X3019Y2200D01*
X3049Y2200D02*
X3096Y2200D01*
X3121Y2200D02*
X3168Y2200D01*
X3646Y2200D02*
X3657Y2200D01*
X3697Y2200D02*
X3711Y2200D01*
X3752Y2200D02*
X3763Y2200D01*
X2926Y2199D02*
X2929Y2199D01*
X2982Y2199D02*
X3016Y2199D01*
X3050Y2199D02*
X3096Y2199D01*
X3122Y2199D02*
X3168Y2199D01*
X3645Y2199D02*
X3656Y2199D01*
X3697Y2199D02*
X3711Y2199D01*
X3753Y2199D02*
X3763Y2199D01*
X3645Y2198D02*
X3656Y2198D01*
X3698Y2198D02*
X3711Y2198D01*
X3753Y2198D02*
X3764Y2198D01*
X3644Y2197D02*
X3655Y2197D01*
X3698Y2197D02*
X3711Y2197D01*
X3754Y2197D02*
X3764Y2197D01*
X3644Y2196D02*
X3654Y2196D01*
X3698Y2196D02*
X3711Y2196D01*
X3754Y2196D02*
X3765Y2196D01*
X3643Y2195D02*
X3654Y2195D01*
X3698Y2195D02*
X3711Y2195D01*
X3755Y2195D02*
X3766Y2195D01*
X3643Y2194D02*
X3653Y2194D01*
X3698Y2194D02*
X3711Y2194D01*
X3755Y2194D02*
X3766Y2194D01*
X3642Y2193D02*
X3653Y2193D01*
X3698Y2193D02*
X3711Y2193D01*
X3756Y2193D02*
X3767Y2193D01*
X3641Y2192D02*
X3652Y2192D01*
X3698Y2192D02*
X3711Y2192D01*
X3757Y2192D02*
X3767Y2192D01*
X3641Y2191D02*
X3652Y2191D01*
X3698Y2191D02*
X3711Y2191D01*
X3757Y2191D02*
X3768Y2191D01*
X3640Y2190D02*
X3651Y2190D01*
X3698Y2190D02*
X3711Y2190D01*
X3758Y2190D02*
X3768Y2190D01*
X3640Y2189D02*
X3650Y2189D01*
X3698Y2189D02*
X3711Y2189D01*
X3758Y2189D02*
X3769Y2189D01*
X3639Y2188D02*
X3650Y2188D01*
X3698Y2188D02*
X3711Y2188D01*
X3759Y2188D02*
X3770Y2188D01*
X3638Y2187D02*
X3649Y2187D01*
X3698Y2187D02*
X3710Y2187D01*
X3759Y2187D02*
X3770Y2187D01*
X3638Y2186D02*
X3649Y2186D01*
X3698Y2186D02*
X3710Y2186D01*
X3760Y2186D02*
X3771Y2186D01*
X3637Y2185D02*
X3648Y2185D01*
X3698Y2185D02*
X3710Y2185D01*
X3761Y2185D02*
X3771Y2185D01*
X3637Y2184D02*
X3647Y2184D01*
X3698Y2184D02*
X3710Y2184D01*
X3761Y2184D02*
X3772Y2184D01*
X3636Y2183D02*
X3647Y2183D01*
X3698Y2183D02*
X3710Y2183D01*
X3762Y2183D02*
X3773Y2183D01*
X3636Y2182D02*
X3646Y2182D01*
X3699Y2182D02*
X3710Y2182D01*
X3762Y2182D02*
X3773Y2182D01*
X3635Y2181D02*
X3646Y2181D01*
X3699Y2181D02*
X3710Y2181D01*
X3763Y2181D02*
X3774Y2181D01*
X3634Y2180D02*
X3645Y2180D01*
X3699Y2180D02*
X3710Y2180D01*
X3764Y2180D02*
X3774Y2180D01*
X3634Y2179D02*
X3645Y2179D01*
X3699Y2179D02*
X3710Y2179D01*
X3764Y2179D02*
X3775Y2179D01*
X3633Y2178D02*
X3644Y2178D01*
X3699Y2178D02*
X3710Y2178D01*
X3765Y2178D02*
X3776Y2178D01*
X3633Y2177D02*
X3643Y2177D01*
X3699Y2177D02*
X3710Y2177D01*
X3765Y2177D02*
X3776Y2177D01*
X3632Y2176D02*
X3643Y2176D01*
X3699Y2176D02*
X3710Y2176D01*
X3766Y2176D02*
X3777Y2176D01*
X3631Y2175D02*
X3642Y2175D01*
X3699Y2175D02*
X3710Y2175D01*
X3766Y2175D02*
X3777Y2175D01*
X3631Y2174D02*
X3642Y2174D01*
X3699Y2174D02*
X3710Y2174D01*
X3767Y2174D02*
X3778Y2174D01*
X3630Y2173D02*
X3641Y2173D01*
X3699Y2173D02*
X3710Y2173D01*
X3768Y2173D02*
X3778Y2173D01*
X3630Y2172D02*
X3640Y2172D01*
X3699Y2172D02*
X3709Y2172D01*
X3768Y2172D02*
X3779Y2172D01*
X3629Y2171D02*
X3640Y2171D01*
X3699Y2171D02*
X3709Y2171D01*
X3769Y2171D02*
X3780Y2171D01*
X3628Y2170D02*
X3639Y2170D01*
X3699Y2170D02*
X3709Y2170D01*
X3769Y2170D02*
X3780Y2170D01*
X3628Y2169D02*
X3639Y2169D01*
X3699Y2169D02*
X3709Y2169D01*
X3770Y2169D02*
X3781Y2169D01*
X3627Y2168D02*
X3638Y2168D01*
X3699Y2168D02*
X3709Y2168D01*
X3771Y2168D02*
X3781Y2168D01*
X3627Y2167D02*
X3638Y2167D01*
X3700Y2167D02*
X3709Y2167D01*
X3771Y2167D02*
X3782Y2167D01*
X3626Y2166D02*
X3637Y2166D01*
X3700Y2166D02*
X3709Y2166D01*
X3772Y2166D02*
X3783Y2166D01*
X3626Y2165D02*
X3636Y2165D01*
X3700Y2165D02*
X3709Y2165D01*
X3772Y2165D02*
X3783Y2165D01*
X3625Y2164D02*
X3636Y2164D01*
X3700Y2164D02*
X3709Y2164D01*
X3773Y2164D02*
X3784Y2164D01*
X3624Y2163D02*
X3635Y2163D01*
X3700Y2163D02*
X3709Y2163D01*
X3774Y2163D02*
X3784Y2163D01*
X3624Y2162D02*
X3635Y2162D01*
X3700Y2162D02*
X3709Y2162D01*
X3774Y2162D02*
X3785Y2162D01*
X3623Y2161D02*
X3634Y2161D01*
X3700Y2161D02*
X3708Y2161D01*
X3775Y2161D02*
X3785Y2161D01*
X3623Y2160D02*
X3633Y2160D01*
X3701Y2160D02*
X3708Y2160D01*
X3775Y2160D02*
X3786Y2160D01*
X3622Y2159D02*
X3633Y2159D01*
X3702Y2159D02*
X3707Y2159D01*
X3776Y2159D02*
X3787Y2159D01*
X3621Y2158D02*
X3632Y2158D01*
X3776Y2158D02*
X3787Y2158D01*
X3621Y2157D02*
X3632Y2157D01*
X3777Y2157D02*
X3788Y2157D01*
X3620Y2156D02*
X3631Y2156D01*
X3778Y2156D02*
X3788Y2156D01*
X3620Y2155D02*
X3631Y2155D01*
X3778Y2155D02*
X3789Y2155D01*
X3619Y2154D02*
X3630Y2154D01*
X3779Y2154D02*
X3790Y2154D01*
X3619Y2153D02*
X3629Y2153D01*
X3779Y2153D02*
X3790Y2153D01*
X3618Y2152D02*
X3629Y2152D01*
X3780Y2152D02*
X3791Y2152D01*
X3617Y2151D02*
X3628Y2151D01*
X3781Y2151D02*
X3791Y2151D01*
X3617Y2150D02*
X3628Y2150D01*
X3781Y2150D02*
X3792Y2150D01*
X3616Y2149D02*
X3627Y2149D01*
X3782Y2149D02*
X3792Y2149D01*
X3616Y2148D02*
X3626Y2148D01*
X3782Y2148D02*
X3793Y2148D01*
X3615Y2147D02*
X3626Y2147D01*
X3783Y2147D02*
X3794Y2147D01*
X3614Y2146D02*
X3625Y2146D01*
X3783Y2146D02*
X3794Y2146D01*
X3614Y2145D02*
X3625Y2145D01*
X3784Y2145D02*
X3795Y2145D01*
X3613Y2144D02*
X3624Y2144D01*
X3785Y2144D02*
X3795Y2144D01*
X3613Y2143D02*
X3623Y2143D01*
X3785Y2143D02*
X3796Y2143D01*
X3612Y2142D02*
X3623Y2142D01*
X3700Y2142D02*
X3709Y2142D01*
X3786Y2142D02*
X3797Y2142D01*
X3612Y2141D02*
X3622Y2141D01*
X3699Y2141D02*
X3710Y2141D01*
X3786Y2141D02*
X3797Y2141D01*
X3611Y2140D02*
X3622Y2140D01*
X3698Y2140D02*
X3711Y2140D01*
X3787Y2140D02*
X3798Y2140D01*
X3610Y2139D02*
X3621Y2139D01*
X3698Y2139D02*
X3711Y2139D01*
X3788Y2139D02*
X3798Y2139D01*
X3610Y2138D02*
X3621Y2138D01*
X3697Y2138D02*
X3711Y2138D01*
X3788Y2138D02*
X3799Y2138D01*
X3609Y2137D02*
X3620Y2137D01*
X3697Y2137D02*
X3711Y2137D01*
X3789Y2137D02*
X3799Y2137D01*
X3609Y2136D02*
X3619Y2136D01*
X3697Y2136D02*
X3711Y2136D01*
X3789Y2136D02*
X3800Y2136D01*
X3608Y2135D02*
X3619Y2135D01*
X3697Y2135D02*
X3711Y2135D01*
X3790Y2135D02*
X3800Y2135D01*
X3608Y2134D02*
X3618Y2134D01*
X3697Y2134D02*
X3711Y2134D01*
X3790Y2134D02*
X3801Y2134D01*
X3608Y2133D02*
X3618Y2133D01*
X3697Y2133D02*
X3711Y2133D01*
X3791Y2133D02*
X3801Y2133D01*
X3608Y2132D02*
X3617Y2132D01*
X3698Y2132D02*
X3711Y2132D01*
X3792Y2132D02*
X3800Y2132D01*
X3609Y2131D02*
X3616Y2131D01*
X3698Y2131D02*
X3711Y2131D01*
X3792Y2131D02*
X3800Y2131D01*
X3609Y2130D02*
X3616Y2130D01*
X3699Y2130D02*
X3710Y2130D01*
X3793Y2130D02*
X3799Y2130D01*
X3611Y2129D02*
X3614Y2129D01*
X3700Y2129D02*
X3709Y2129D01*
X3794Y2129D02*
X3798Y2129D01*
X1210Y1172D02*
X1219Y1172D01*
X1209Y1171D02*
X1220Y1171D01*
X1208Y1170D02*
X1221Y1170D01*
X1208Y1169D02*
X1221Y1169D01*
X764Y1168D02*
X789Y1168D01*
X821Y1168D02*
X824Y1168D01*
X861Y1168D02*
X863Y1168D01*
X1082Y1168D02*
X1085Y1168D01*
X1208Y1168D02*
X1221Y1168D01*
X1304Y1168D02*
X1307Y1168D01*
X1581Y1168D02*
X1598Y1168D01*
X1655Y1168D02*
X1672Y1168D01*
X2597Y1168D02*
X2599Y1168D01*
X2636Y1168D02*
X2639Y1168D01*
X764Y1167D02*
X791Y1167D01*
X819Y1167D02*
X825Y1167D01*
X859Y1167D02*
X865Y1167D01*
X1081Y1167D02*
X1087Y1167D01*
X1207Y1167D02*
X1222Y1167D01*
X1303Y1167D02*
X1309Y1167D01*
X1579Y1167D02*
X1600Y1167D01*
X1653Y1167D02*
X1674Y1167D01*
X2595Y1167D02*
X2601Y1167D01*
X2635Y1167D02*
X2641Y1167D01*
X764Y1166D02*
X792Y1166D01*
X819Y1166D02*
X826Y1166D01*
X858Y1166D02*
X866Y1166D01*
X1080Y1166D02*
X1087Y1166D01*
X1207Y1166D02*
X1222Y1166D01*
X1302Y1166D02*
X1309Y1166D01*
X1578Y1166D02*
X1601Y1166D01*
X1652Y1166D02*
X1674Y1166D01*
X2594Y1166D02*
X2602Y1166D01*
X2634Y1166D02*
X2641Y1166D01*
X764Y1165D02*
X792Y1165D01*
X818Y1165D02*
X826Y1165D01*
X858Y1165D02*
X866Y1165D01*
X1080Y1165D02*
X1088Y1165D01*
X1207Y1165D02*
X1222Y1165D01*
X1302Y1165D02*
X1310Y1165D01*
X1578Y1165D02*
X1601Y1165D01*
X1652Y1165D02*
X1675Y1165D01*
X2594Y1165D02*
X2602Y1165D01*
X2633Y1165D02*
X2642Y1165D01*
X764Y1164D02*
X792Y1164D01*
X818Y1164D02*
X827Y1164D01*
X857Y1164D02*
X866Y1164D01*
X999Y1164D02*
X1001Y1164D01*
X1079Y1164D02*
X1088Y1164D01*
X1207Y1164D02*
X1222Y1164D01*
X1301Y1164D02*
X1310Y1164D01*
X1578Y1164D02*
X1601Y1164D01*
X1651Y1164D02*
X1675Y1164D01*
X1887Y1164D02*
X1889Y1164D01*
X2594Y1164D02*
X2602Y1164D01*
X2633Y1164D02*
X2642Y1164D01*
X764Y1163D02*
X792Y1163D01*
X818Y1163D02*
X827Y1163D01*
X857Y1163D02*
X866Y1163D01*
X997Y1163D02*
X1003Y1163D01*
X1079Y1163D02*
X1088Y1163D01*
X1208Y1163D02*
X1221Y1163D01*
X1301Y1163D02*
X1310Y1163D01*
X1577Y1163D02*
X1601Y1163D01*
X1651Y1163D02*
X1675Y1163D01*
X1885Y1163D02*
X1891Y1163D01*
X2593Y1163D02*
X2603Y1163D01*
X2633Y1163D02*
X2642Y1163D01*
X764Y1162D02*
X792Y1162D01*
X818Y1162D02*
X827Y1162D01*
X857Y1162D02*
X866Y1162D01*
X996Y1162D02*
X1004Y1162D01*
X1079Y1162D02*
X1088Y1162D01*
X1208Y1162D02*
X1221Y1162D01*
X1301Y1162D02*
X1310Y1162D01*
X1577Y1162D02*
X1601Y1162D01*
X1651Y1162D02*
X1675Y1162D01*
X1884Y1162D02*
X1891Y1162D01*
X2593Y1162D02*
X2603Y1162D01*
X2633Y1162D02*
X2642Y1162D01*
X764Y1161D02*
X792Y1161D01*
X818Y1161D02*
X827Y1161D01*
X857Y1161D02*
X866Y1161D01*
X996Y1161D02*
X1004Y1161D01*
X1079Y1161D02*
X1088Y1161D01*
X1208Y1161D02*
X1221Y1161D01*
X1301Y1161D02*
X1310Y1161D01*
X1577Y1161D02*
X1601Y1161D01*
X1651Y1161D02*
X1675Y1161D01*
X1884Y1161D02*
X1892Y1161D01*
X2593Y1161D02*
X2603Y1161D01*
X2633Y1161D02*
X2642Y1161D01*
X764Y1160D02*
X791Y1160D01*
X818Y1160D02*
X827Y1160D01*
X857Y1160D02*
X866Y1160D01*
X996Y1160D02*
X1004Y1160D01*
X1079Y1160D02*
X1088Y1160D01*
X1209Y1160D02*
X1220Y1160D01*
X1301Y1160D02*
X1310Y1160D01*
X1577Y1160D02*
X1600Y1160D01*
X1651Y1160D02*
X1674Y1160D01*
X1884Y1160D02*
X1892Y1160D01*
X2593Y1160D02*
X2603Y1160D01*
X2633Y1160D02*
X2642Y1160D01*
X764Y1159D02*
X790Y1159D01*
X818Y1159D02*
X827Y1159D01*
X857Y1159D02*
X866Y1159D01*
X995Y1159D02*
X1005Y1159D01*
X1079Y1159D02*
X1088Y1159D01*
X1210Y1159D02*
X1219Y1159D01*
X1301Y1159D02*
X1310Y1159D01*
X1577Y1159D02*
X1599Y1159D01*
X1651Y1159D02*
X1673Y1159D01*
X1883Y1159D02*
X1892Y1159D01*
X2593Y1159D02*
X2603Y1159D01*
X2633Y1159D02*
X2642Y1159D01*
X764Y1158D02*
X773Y1158D01*
X818Y1158D02*
X827Y1158D01*
X857Y1158D02*
X866Y1158D01*
X995Y1158D02*
X1005Y1158D01*
X1079Y1158D02*
X1088Y1158D01*
X1301Y1158D02*
X1310Y1158D01*
X1577Y1158D02*
X1587Y1158D01*
X1651Y1158D02*
X1661Y1158D01*
X1883Y1158D02*
X1892Y1158D01*
X2593Y1158D02*
X2603Y1158D01*
X2633Y1158D02*
X2642Y1158D01*
X764Y1157D02*
X773Y1157D01*
X818Y1157D02*
X827Y1157D01*
X857Y1157D02*
X866Y1157D01*
X995Y1157D02*
X1005Y1157D01*
X1079Y1157D02*
X1088Y1157D01*
X1301Y1157D02*
X1310Y1157D01*
X1577Y1157D02*
X1586Y1157D01*
X1651Y1157D02*
X1660Y1157D01*
X1883Y1157D02*
X1892Y1157D01*
X2593Y1157D02*
X2603Y1157D01*
X2633Y1157D02*
X2642Y1157D01*
X764Y1156D02*
X773Y1156D01*
X818Y1156D02*
X827Y1156D01*
X857Y1156D02*
X866Y1156D01*
X995Y1156D02*
X1005Y1156D01*
X1079Y1156D02*
X1088Y1156D01*
X1301Y1156D02*
X1310Y1156D01*
X1577Y1156D02*
X1586Y1156D01*
X1651Y1156D02*
X1660Y1156D01*
X1883Y1156D02*
X1892Y1156D01*
X2593Y1156D02*
X2603Y1156D01*
X2633Y1156D02*
X2642Y1156D01*
X764Y1155D02*
X773Y1155D01*
X818Y1155D02*
X827Y1155D01*
X857Y1155D02*
X866Y1155D01*
X995Y1155D02*
X1005Y1155D01*
X1079Y1155D02*
X1088Y1155D01*
X1301Y1155D02*
X1310Y1155D01*
X1577Y1155D02*
X1586Y1155D01*
X1651Y1155D02*
X1660Y1155D01*
X1883Y1155D02*
X1892Y1155D01*
X2593Y1155D02*
X2603Y1155D01*
X2633Y1155D02*
X2642Y1155D01*
X764Y1154D02*
X773Y1154D01*
X818Y1154D02*
X827Y1154D01*
X857Y1154D02*
X866Y1154D01*
X995Y1154D02*
X1005Y1154D01*
X1079Y1154D02*
X1088Y1154D01*
X1301Y1154D02*
X1310Y1154D01*
X1577Y1154D02*
X1586Y1154D01*
X1651Y1154D02*
X1660Y1154D01*
X1883Y1154D02*
X1892Y1154D01*
X2593Y1154D02*
X2603Y1154D01*
X2633Y1154D02*
X2642Y1154D01*
X764Y1153D02*
X773Y1153D01*
X818Y1153D02*
X827Y1153D01*
X857Y1153D02*
X866Y1153D01*
X995Y1153D02*
X1005Y1153D01*
X1079Y1153D02*
X1088Y1153D01*
X1301Y1153D02*
X1310Y1153D01*
X1577Y1153D02*
X1586Y1153D01*
X1651Y1153D02*
X1660Y1153D01*
X1883Y1153D02*
X1892Y1153D01*
X2593Y1153D02*
X2603Y1153D01*
X2633Y1153D02*
X2642Y1153D01*
X764Y1152D02*
X773Y1152D01*
X818Y1152D02*
X827Y1152D01*
X857Y1152D02*
X866Y1152D01*
X995Y1152D02*
X1005Y1152D01*
X1079Y1152D02*
X1088Y1152D01*
X1301Y1152D02*
X1310Y1152D01*
X1577Y1152D02*
X1586Y1152D01*
X1651Y1152D02*
X1660Y1152D01*
X1883Y1152D02*
X1892Y1152D01*
X2593Y1152D02*
X2603Y1152D01*
X2633Y1152D02*
X2642Y1152D01*
X764Y1151D02*
X773Y1151D01*
X818Y1151D02*
X827Y1151D01*
X857Y1151D02*
X866Y1151D01*
X995Y1151D02*
X1005Y1151D01*
X1079Y1151D02*
X1088Y1151D01*
X1301Y1151D02*
X1310Y1151D01*
X1577Y1151D02*
X1586Y1151D01*
X1651Y1151D02*
X1660Y1151D01*
X1883Y1151D02*
X1892Y1151D01*
X2593Y1151D02*
X2603Y1151D01*
X2633Y1151D02*
X2642Y1151D01*
X764Y1150D02*
X773Y1150D01*
X818Y1150D02*
X827Y1150D01*
X857Y1150D02*
X866Y1150D01*
X995Y1150D02*
X1005Y1150D01*
X1079Y1150D02*
X1088Y1150D01*
X1301Y1150D02*
X1310Y1150D01*
X1577Y1150D02*
X1586Y1150D01*
X1651Y1150D02*
X1660Y1150D01*
X1883Y1150D02*
X1892Y1150D01*
X2593Y1150D02*
X2603Y1150D01*
X2633Y1150D02*
X2642Y1150D01*
X764Y1149D02*
X773Y1149D01*
X818Y1149D02*
X827Y1149D01*
X857Y1149D02*
X866Y1149D01*
X995Y1149D02*
X1005Y1149D01*
X1079Y1149D02*
X1088Y1149D01*
X1301Y1149D02*
X1310Y1149D01*
X1577Y1149D02*
X1586Y1149D01*
X1651Y1149D02*
X1660Y1149D01*
X1883Y1149D02*
X1892Y1149D01*
X2593Y1149D02*
X2603Y1149D01*
X2633Y1149D02*
X2642Y1149D01*
X764Y1148D02*
X773Y1148D01*
X818Y1148D02*
X827Y1148D01*
X857Y1148D02*
X866Y1148D01*
X995Y1148D02*
X1005Y1148D01*
X1079Y1148D02*
X1088Y1148D01*
X1301Y1148D02*
X1310Y1148D01*
X1577Y1148D02*
X1586Y1148D01*
X1651Y1148D02*
X1660Y1148D01*
X1883Y1148D02*
X1892Y1148D01*
X2593Y1148D02*
X2603Y1148D01*
X2633Y1148D02*
X2642Y1148D01*
X764Y1147D02*
X773Y1147D01*
X818Y1147D02*
X827Y1147D01*
X857Y1147D02*
X866Y1147D01*
X978Y1147D02*
X1010Y1147D01*
X1054Y1147D02*
X1063Y1147D01*
X1079Y1147D02*
X1088Y1147D01*
X1118Y1147D02*
X1119Y1147D01*
X1135Y1147D02*
X1146Y1147D01*
X1211Y1147D02*
X1227Y1147D01*
X1301Y1147D02*
X1310Y1147D01*
X1422Y1147D02*
X1435Y1147D01*
X1453Y1147D02*
X1454Y1147D01*
X1500Y1147D02*
X1516Y1147D01*
X1577Y1147D02*
X1586Y1147D01*
X1651Y1147D02*
X1660Y1147D01*
X1722Y1147D02*
X1738Y1147D01*
X1792Y1147D02*
X1805Y1147D01*
X1823Y1147D02*
X1824Y1147D01*
X1865Y1147D02*
X1898Y1147D01*
X1941Y1147D02*
X1950Y1147D01*
X1970Y1147D02*
X1972Y1147D01*
X2018Y1147D02*
X2034Y1147D01*
X2079Y1147D02*
X2103Y1147D01*
X2253Y1147D02*
X2257Y1147D01*
X2268Y1147D02*
X2269Y1147D01*
X2302Y1147D02*
X2303Y1147D01*
X2340Y1147D02*
X2342Y1147D01*
X2376Y1147D02*
X2377Y1147D01*
X2414Y1147D02*
X2416Y1147D01*
X2449Y1147D02*
X2473Y1147D01*
X2533Y1147D02*
X2557Y1147D01*
X2593Y1147D02*
X2603Y1147D01*
X2633Y1147D02*
X2642Y1147D01*
X764Y1146D02*
X773Y1146D01*
X818Y1146D02*
X827Y1146D01*
X857Y1146D02*
X866Y1146D01*
X976Y1146D02*
X1013Y1146D01*
X1050Y1146D02*
X1066Y1146D01*
X1079Y1146D02*
X1088Y1146D01*
X1115Y1146D02*
X1121Y1146D01*
X1131Y1146D02*
X1150Y1146D01*
X1209Y1146D02*
X1230Y1146D01*
X1301Y1146D02*
X1310Y1146D01*
X1418Y1146D02*
X1437Y1146D01*
X1451Y1146D02*
X1457Y1146D01*
X1496Y1146D02*
X1519Y1146D01*
X1577Y1146D02*
X1586Y1146D01*
X1651Y1146D02*
X1660Y1146D01*
X1718Y1146D02*
X1741Y1146D01*
X1787Y1146D02*
X1807Y1146D01*
X1821Y1146D02*
X1826Y1146D01*
X1863Y1146D02*
X1901Y1146D01*
X1937Y1146D02*
X1954Y1146D01*
X1968Y1146D02*
X1974Y1146D01*
X2014Y1146D02*
X2037Y1146D01*
X2077Y1146D02*
X2107Y1146D01*
X2230Y1146D02*
X2239Y1146D01*
X2250Y1146D02*
X2260Y1146D01*
X2266Y1146D02*
X2271Y1146D01*
X2300Y1146D02*
X2305Y1146D01*
X2338Y1146D02*
X2344Y1146D01*
X2374Y1146D02*
X2379Y1146D01*
X2412Y1146D02*
X2418Y1146D01*
X2447Y1146D02*
X2477Y1146D01*
X2530Y1146D02*
X2559Y1146D01*
X2593Y1146D02*
X2603Y1146D01*
X2633Y1146D02*
X2642Y1146D01*
X764Y1145D02*
X773Y1145D01*
X818Y1145D02*
X828Y1145D01*
X856Y1145D02*
X866Y1145D01*
X975Y1145D02*
X1014Y1145D01*
X1048Y1145D02*
X1068Y1145D01*
X1079Y1145D02*
X1088Y1145D01*
X1115Y1145D02*
X1122Y1145D01*
X1130Y1145D02*
X1151Y1145D01*
X1208Y1145D02*
X1230Y1145D01*
X1301Y1145D02*
X1310Y1145D01*
X1415Y1145D02*
X1438Y1145D01*
X1450Y1145D02*
X1457Y1145D01*
X1494Y1145D02*
X1521Y1145D01*
X1577Y1145D02*
X1586Y1145D01*
X1651Y1145D02*
X1660Y1145D01*
X1716Y1145D02*
X1743Y1145D01*
X1785Y1145D02*
X1808Y1145D01*
X1820Y1145D02*
X1827Y1145D01*
X1863Y1145D02*
X1901Y1145D01*
X1935Y1145D02*
X1956Y1145D01*
X1967Y1145D02*
X1975Y1145D01*
X2012Y1145D02*
X2039Y1145D01*
X2076Y1145D02*
X2109Y1145D01*
X2229Y1145D02*
X2241Y1145D01*
X2249Y1145D02*
X2262Y1145D01*
X2265Y1145D02*
X2272Y1145D01*
X2299Y1145D02*
X2306Y1145D01*
X2337Y1145D02*
X2344Y1145D01*
X2373Y1145D02*
X2380Y1145D01*
X2411Y1145D02*
X2418Y1145D01*
X2446Y1145D02*
X2479Y1145D01*
X2527Y1145D02*
X2560Y1145D01*
X2594Y1145D02*
X2603Y1145D01*
X2632Y1145D02*
X2642Y1145D01*
X764Y1144D02*
X773Y1144D01*
X818Y1144D02*
X828Y1144D01*
X856Y1144D02*
X866Y1144D01*
X974Y1144D02*
X1014Y1144D01*
X1047Y1144D02*
X1070Y1144D01*
X1079Y1144D02*
X1088Y1144D01*
X1114Y1144D02*
X1122Y1144D01*
X1128Y1144D02*
X1153Y1144D01*
X1208Y1144D02*
X1231Y1144D01*
X1301Y1144D02*
X1310Y1144D01*
X1414Y1144D02*
X1439Y1144D01*
X1450Y1144D02*
X1458Y1144D01*
X1493Y1144D02*
X1523Y1144D01*
X1577Y1144D02*
X1586Y1144D01*
X1651Y1144D02*
X1660Y1144D01*
X1715Y1144D02*
X1745Y1144D01*
X1784Y1144D02*
X1809Y1144D01*
X1820Y1144D02*
X1828Y1144D01*
X1862Y1144D02*
X1902Y1144D01*
X1934Y1144D02*
X1957Y1144D01*
X1967Y1144D02*
X1975Y1144D01*
X2011Y1144D02*
X2041Y1144D01*
X2076Y1144D02*
X2110Y1144D01*
X2227Y1144D02*
X2243Y1144D01*
X2248Y1144D02*
X2273Y1144D01*
X2298Y1144D02*
X2307Y1144D01*
X2337Y1144D02*
X2345Y1144D01*
X2372Y1144D02*
X2381Y1144D01*
X2411Y1144D02*
X2419Y1144D01*
X2446Y1144D02*
X2480Y1144D01*
X2526Y1144D02*
X2561Y1144D01*
X2594Y1144D02*
X2604Y1144D01*
X2632Y1144D02*
X2642Y1144D01*
X764Y1143D02*
X773Y1143D01*
X819Y1143D02*
X828Y1143D01*
X856Y1143D02*
X866Y1143D01*
X974Y1143D02*
X1014Y1143D01*
X1045Y1143D02*
X1072Y1143D01*
X1079Y1143D02*
X1088Y1143D01*
X1114Y1143D02*
X1122Y1143D01*
X1127Y1143D02*
X1154Y1143D01*
X1208Y1143D02*
X1231Y1143D01*
X1301Y1143D02*
X1310Y1143D01*
X1413Y1143D02*
X1440Y1143D01*
X1449Y1143D02*
X1458Y1143D01*
X1492Y1143D02*
X1524Y1143D01*
X1577Y1143D02*
X1586Y1143D01*
X1651Y1143D02*
X1660Y1143D01*
X1714Y1143D02*
X1746Y1143D01*
X1783Y1143D02*
X1810Y1143D01*
X1819Y1143D02*
X1828Y1143D01*
X1862Y1143D02*
X1902Y1143D01*
X1933Y1143D02*
X1959Y1143D01*
X1967Y1143D02*
X1975Y1143D01*
X2009Y1143D02*
X2042Y1143D01*
X2076Y1143D02*
X2112Y1143D01*
X2226Y1143D02*
X2244Y1143D01*
X2247Y1143D02*
X2273Y1143D01*
X2298Y1143D02*
X2307Y1143D01*
X2337Y1143D02*
X2345Y1143D01*
X2372Y1143D02*
X2381Y1143D01*
X2411Y1143D02*
X2419Y1143D01*
X2446Y1143D02*
X2482Y1143D01*
X2525Y1143D02*
X2561Y1143D01*
X2594Y1143D02*
X2604Y1143D01*
X2631Y1143D02*
X2641Y1143D01*
X764Y1142D02*
X773Y1142D01*
X819Y1142D02*
X829Y1142D01*
X855Y1142D02*
X865Y1142D01*
X974Y1142D02*
X1014Y1142D01*
X1044Y1142D02*
X1073Y1142D01*
X1079Y1142D02*
X1088Y1142D01*
X1114Y1142D02*
X1122Y1142D01*
X1126Y1142D02*
X1155Y1142D01*
X1207Y1142D02*
X1231Y1142D01*
X1301Y1142D02*
X1310Y1142D01*
X1412Y1142D02*
X1442Y1142D01*
X1449Y1142D02*
X1458Y1142D01*
X1490Y1142D02*
X1525Y1142D01*
X1577Y1142D02*
X1586Y1142D01*
X1651Y1142D02*
X1660Y1142D01*
X1712Y1142D02*
X1747Y1142D01*
X1782Y1142D02*
X1812Y1142D01*
X1819Y1142D02*
X1828Y1142D01*
X1862Y1142D02*
X1902Y1142D01*
X1932Y1142D02*
X1960Y1142D01*
X1967Y1142D02*
X1976Y1142D01*
X2008Y1142D02*
X2043Y1142D01*
X2075Y1142D02*
X2113Y1142D01*
X2225Y1142D02*
X2273Y1142D01*
X2298Y1142D02*
X2307Y1142D01*
X2336Y1142D02*
X2345Y1142D01*
X2372Y1142D02*
X2381Y1142D01*
X2410Y1142D02*
X2419Y1142D01*
X2445Y1142D02*
X2483Y1142D01*
X2524Y1142D02*
X2561Y1142D01*
X2595Y1142D02*
X2605Y1142D01*
X2631Y1142D02*
X2641Y1142D01*
X764Y1141D02*
X773Y1141D01*
X819Y1141D02*
X829Y1141D01*
X855Y1141D02*
X865Y1141D01*
X974Y1141D02*
X1014Y1141D01*
X1044Y1141D02*
X1075Y1141D01*
X1079Y1141D02*
X1088Y1141D01*
X1114Y1141D02*
X1156Y1141D01*
X1207Y1141D02*
X1231Y1141D01*
X1301Y1141D02*
X1310Y1141D01*
X1412Y1141D02*
X1443Y1141D01*
X1449Y1141D02*
X1458Y1141D01*
X1489Y1141D02*
X1527Y1141D01*
X1577Y1141D02*
X1586Y1141D01*
X1651Y1141D02*
X1660Y1141D01*
X1711Y1141D02*
X1749Y1141D01*
X1782Y1141D02*
X1813Y1141D01*
X1819Y1141D02*
X1828Y1141D01*
X1862Y1141D02*
X1902Y1141D01*
X1931Y1141D02*
X1962Y1141D01*
X1967Y1141D02*
X1976Y1141D01*
X2007Y1141D02*
X2044Y1141D01*
X2076Y1141D02*
X2114Y1141D01*
X2225Y1141D02*
X2273Y1141D01*
X2298Y1141D02*
X2307Y1141D01*
X2336Y1141D02*
X2346Y1141D01*
X2372Y1141D02*
X2381Y1141D01*
X2410Y1141D02*
X2419Y1141D01*
X2446Y1141D02*
X2484Y1141D01*
X2523Y1141D02*
X2561Y1141D01*
X2595Y1141D02*
X2605Y1141D01*
X2631Y1141D02*
X2641Y1141D01*
X764Y1140D02*
X773Y1140D01*
X820Y1140D02*
X830Y1140D01*
X855Y1140D02*
X864Y1140D01*
X974Y1140D02*
X1014Y1140D01*
X1043Y1140D02*
X1076Y1140D01*
X1079Y1140D02*
X1088Y1140D01*
X1114Y1140D02*
X1157Y1140D01*
X1207Y1140D02*
X1231Y1140D01*
X1301Y1140D02*
X1310Y1140D01*
X1411Y1140D02*
X1444Y1140D01*
X1449Y1140D02*
X1458Y1140D01*
X1488Y1140D02*
X1527Y1140D01*
X1577Y1140D02*
X1586Y1140D01*
X1651Y1140D02*
X1660Y1140D01*
X1710Y1140D02*
X1749Y1140D01*
X1781Y1140D02*
X1814Y1140D01*
X1819Y1140D02*
X1828Y1140D01*
X1862Y1140D02*
X1902Y1140D01*
X1930Y1140D02*
X1964Y1140D01*
X1967Y1140D02*
X1976Y1140D01*
X2006Y1140D02*
X2045Y1140D01*
X2076Y1140D02*
X2115Y1140D01*
X2224Y1140D02*
X2273Y1140D01*
X2298Y1140D02*
X2307Y1140D01*
X2336Y1140D02*
X2346Y1140D01*
X2372Y1140D02*
X2381Y1140D01*
X2410Y1140D02*
X2419Y1140D01*
X2446Y1140D02*
X2485Y1140D01*
X2522Y1140D02*
X2561Y1140D01*
X2596Y1140D02*
X2605Y1140D01*
X2630Y1140D02*
X2640Y1140D01*
X764Y1139D02*
X773Y1139D01*
X820Y1139D02*
X830Y1139D01*
X854Y1139D02*
X864Y1139D01*
X975Y1139D02*
X1013Y1139D01*
X1042Y1139D02*
X1088Y1139D01*
X1114Y1139D02*
X1158Y1139D01*
X1207Y1139D02*
X1230Y1139D01*
X1301Y1139D02*
X1310Y1139D01*
X1411Y1139D02*
X1445Y1139D01*
X1449Y1139D02*
X1458Y1139D01*
X1487Y1139D02*
X1528Y1139D01*
X1577Y1139D02*
X1586Y1139D01*
X1651Y1139D02*
X1660Y1139D01*
X1709Y1139D02*
X1750Y1139D01*
X1781Y1139D02*
X1815Y1139D01*
X1819Y1139D02*
X1828Y1139D01*
X1863Y1139D02*
X1901Y1139D01*
X1930Y1139D02*
X1976Y1139D01*
X2005Y1139D02*
X2046Y1139D01*
X2077Y1139D02*
X2116Y1139D01*
X2224Y1139D02*
X2273Y1139D01*
X2298Y1139D02*
X2307Y1139D01*
X2336Y1139D02*
X2346Y1139D01*
X2372Y1139D02*
X2381Y1139D01*
X2410Y1139D02*
X2419Y1139D01*
X2447Y1139D02*
X2486Y1139D01*
X2521Y1139D02*
X2560Y1139D01*
X2596Y1139D02*
X2606Y1139D01*
X2630Y1139D02*
X2640Y1139D01*
X764Y1138D02*
X773Y1138D01*
X821Y1138D02*
X830Y1138D01*
X854Y1138D02*
X864Y1138D01*
X976Y1138D02*
X1012Y1138D01*
X1042Y1138D02*
X1088Y1138D01*
X1114Y1138D02*
X1159Y1138D01*
X1207Y1138D02*
X1229Y1138D01*
X1301Y1138D02*
X1310Y1138D01*
X1410Y1138D02*
X1446Y1138D01*
X1449Y1138D02*
X1458Y1138D01*
X1487Y1138D02*
X1529Y1138D01*
X1577Y1138D02*
X1586Y1138D01*
X1651Y1138D02*
X1660Y1138D01*
X1709Y1138D02*
X1751Y1138D01*
X1780Y1138D02*
X1816Y1138D01*
X1819Y1138D02*
X1828Y1138D01*
X1864Y1138D02*
X1900Y1138D01*
X1929Y1138D02*
X1976Y1138D01*
X2005Y1138D02*
X2047Y1138D01*
X2078Y1138D02*
X2117Y1138D01*
X2223Y1138D02*
X2273Y1138D01*
X2298Y1138D02*
X2307Y1138D01*
X2336Y1138D02*
X2346Y1138D01*
X2372Y1138D02*
X2381Y1138D01*
X2410Y1138D02*
X2419Y1138D01*
X2448Y1138D02*
X2487Y1138D01*
X2521Y1138D02*
X2559Y1138D01*
X2596Y1138D02*
X2606Y1138D01*
X2630Y1138D02*
X2639Y1138D01*
X764Y1137D02*
X773Y1137D01*
X821Y1137D02*
X831Y1137D01*
X853Y1137D02*
X863Y1137D01*
X995Y1137D02*
X1005Y1137D01*
X1042Y1137D02*
X1054Y1137D01*
X1063Y1137D02*
X1088Y1137D01*
X1114Y1137D02*
X1136Y1137D01*
X1145Y1137D02*
X1160Y1137D01*
X1207Y1137D02*
X1217Y1137D01*
X1301Y1137D02*
X1310Y1137D01*
X1410Y1137D02*
X1423Y1137D01*
X1433Y1137D02*
X1447Y1137D01*
X1449Y1137D02*
X1458Y1137D01*
X1486Y1137D02*
X1500Y1137D01*
X1515Y1137D02*
X1530Y1137D01*
X1577Y1137D02*
X1586Y1137D01*
X1651Y1137D02*
X1660Y1137D01*
X1708Y1137D02*
X1722Y1137D01*
X1737Y1137D02*
X1752Y1137D01*
X1780Y1137D02*
X1793Y1137D01*
X1803Y1137D02*
X1817Y1137D01*
X1819Y1137D02*
X1828Y1137D01*
X1883Y1137D02*
X1893Y1137D01*
X1929Y1137D02*
X1942Y1137D01*
X1950Y1137D02*
X1976Y1137D01*
X2004Y1137D02*
X2018Y1137D01*
X2033Y1137D02*
X2048Y1137D01*
X2102Y1137D02*
X2118Y1137D01*
X2223Y1137D02*
X2233Y1137D01*
X2235Y1137D02*
X2254Y1137D01*
X2257Y1137D02*
X2273Y1137D01*
X2298Y1137D02*
X2307Y1137D01*
X2336Y1137D02*
X2346Y1137D01*
X2372Y1137D02*
X2381Y1137D01*
X2410Y1137D02*
X2419Y1137D01*
X2472Y1137D02*
X2488Y1137D01*
X2520Y1137D02*
X2532Y1137D01*
X2597Y1137D02*
X2607Y1137D01*
X2629Y1137D02*
X2639Y1137D01*
X764Y1136D02*
X773Y1136D01*
X821Y1136D02*
X831Y1136D01*
X853Y1136D02*
X863Y1136D01*
X995Y1136D02*
X1005Y1136D01*
X1041Y1136D02*
X1052Y1136D01*
X1065Y1136D02*
X1088Y1136D01*
X1114Y1136D02*
X1133Y1136D01*
X1148Y1136D02*
X1161Y1136D01*
X1207Y1136D02*
X1216Y1136D01*
X1301Y1136D02*
X1310Y1136D01*
X1410Y1136D02*
X1420Y1136D01*
X1434Y1136D02*
X1458Y1136D01*
X1485Y1136D02*
X1498Y1136D01*
X1518Y1136D02*
X1530Y1136D01*
X1577Y1136D02*
X1586Y1136D01*
X1651Y1136D02*
X1660Y1136D01*
X1707Y1136D02*
X1720Y1136D01*
X1740Y1136D02*
X1752Y1136D01*
X1780Y1136D02*
X1790Y1136D01*
X1804Y1136D02*
X1828Y1136D01*
X1883Y1136D02*
X1892Y1136D01*
X1929Y1136D02*
X1939Y1136D01*
X1952Y1136D02*
X1976Y1136D01*
X2003Y1136D02*
X2016Y1136D01*
X2036Y1136D02*
X2048Y1136D01*
X2105Y1136D02*
X2119Y1136D01*
X2223Y1136D02*
X2232Y1136D01*
X2237Y1136D02*
X2253Y1136D01*
X2258Y1136D02*
X2273Y1136D01*
X2298Y1136D02*
X2307Y1136D01*
X2336Y1136D02*
X2346Y1136D01*
X2372Y1136D02*
X2381Y1136D01*
X2410Y1136D02*
X2420Y1136D01*
X2475Y1136D02*
X2489Y1136D01*
X2520Y1136D02*
X2530Y1136D01*
X2597Y1136D02*
X2607Y1136D01*
X2629Y1136D02*
X2639Y1136D01*
X764Y1135D02*
X773Y1135D01*
X822Y1135D02*
X832Y1135D01*
X853Y1135D02*
X862Y1135D01*
X995Y1135D02*
X1005Y1135D01*
X1041Y1135D02*
X1051Y1135D01*
X1066Y1135D02*
X1088Y1135D01*
X1114Y1135D02*
X1132Y1135D01*
X1149Y1135D02*
X1161Y1135D01*
X1207Y1135D02*
X1216Y1135D01*
X1301Y1135D02*
X1310Y1135D01*
X1410Y1135D02*
X1419Y1135D01*
X1435Y1135D02*
X1458Y1135D01*
X1485Y1135D02*
X1496Y1135D01*
X1519Y1135D02*
X1531Y1135D01*
X1577Y1135D02*
X1586Y1135D01*
X1651Y1135D02*
X1660Y1135D01*
X1707Y1135D02*
X1718Y1135D01*
X1741Y1135D02*
X1753Y1135D01*
X1780Y1135D02*
X1789Y1135D01*
X1805Y1135D02*
X1828Y1135D01*
X1883Y1135D02*
X1892Y1135D01*
X1928Y1135D02*
X1938Y1135D01*
X1954Y1135D02*
X1976Y1135D01*
X2003Y1135D02*
X2014Y1135D01*
X2037Y1135D02*
X2049Y1135D01*
X2106Y1135D02*
X2120Y1135D01*
X2223Y1135D02*
X2232Y1135D01*
X2238Y1135D02*
X2253Y1135D01*
X2259Y1135D02*
X2273Y1135D01*
X2298Y1135D02*
X2307Y1135D01*
X2336Y1135D02*
X2346Y1135D01*
X2372Y1135D02*
X2381Y1135D01*
X2410Y1135D02*
X2420Y1135D01*
X2476Y1135D02*
X2490Y1135D01*
X2520Y1135D02*
X2529Y1135D01*
X2598Y1135D02*
X2607Y1135D01*
X2628Y1135D02*
X2638Y1135D01*
X764Y1134D02*
X773Y1134D01*
X822Y1134D02*
X832Y1134D01*
X852Y1134D02*
X862Y1134D01*
X995Y1134D02*
X1005Y1134D01*
X1041Y1134D02*
X1050Y1134D01*
X1068Y1134D02*
X1088Y1134D01*
X1114Y1134D02*
X1131Y1134D01*
X1150Y1134D02*
X1161Y1134D01*
X1207Y1134D02*
X1216Y1134D01*
X1301Y1134D02*
X1310Y1134D01*
X1410Y1134D02*
X1419Y1134D01*
X1436Y1134D02*
X1458Y1134D01*
X1484Y1134D02*
X1495Y1134D01*
X1520Y1134D02*
X1531Y1134D01*
X1577Y1134D02*
X1586Y1134D01*
X1651Y1134D02*
X1660Y1134D01*
X1706Y1134D02*
X1717Y1134D01*
X1742Y1134D02*
X1753Y1134D01*
X1780Y1134D02*
X1789Y1134D01*
X1806Y1134D02*
X1828Y1134D01*
X1883Y1134D02*
X1892Y1134D01*
X1928Y1134D02*
X1938Y1134D01*
X1955Y1134D02*
X1976Y1134D01*
X2002Y1134D02*
X2013Y1134D01*
X2038Y1134D02*
X2049Y1134D01*
X2107Y1134D02*
X2121Y1134D01*
X2223Y1134D02*
X2232Y1134D01*
X2239Y1134D02*
X2253Y1134D01*
X2260Y1134D02*
X2273Y1134D01*
X2298Y1134D02*
X2307Y1134D01*
X2336Y1134D02*
X2346Y1134D01*
X2372Y1134D02*
X2381Y1134D01*
X2410Y1134D02*
X2420Y1134D01*
X2477Y1134D02*
X2491Y1134D01*
X2519Y1134D02*
X2529Y1134D01*
X2598Y1134D02*
X2608Y1134D01*
X2628Y1134D02*
X2638Y1134D01*
X764Y1133D02*
X773Y1133D01*
X823Y1133D02*
X832Y1133D01*
X852Y1133D02*
X862Y1133D01*
X995Y1133D02*
X1005Y1133D01*
X1041Y1133D02*
X1050Y1133D01*
X1069Y1133D02*
X1088Y1133D01*
X1114Y1133D02*
X1130Y1133D01*
X1151Y1133D02*
X1162Y1133D01*
X1207Y1133D02*
X1216Y1133D01*
X1301Y1133D02*
X1310Y1133D01*
X1410Y1133D02*
X1419Y1133D01*
X1437Y1133D02*
X1458Y1133D01*
X1484Y1133D02*
X1494Y1133D01*
X1521Y1133D02*
X1532Y1133D01*
X1577Y1133D02*
X1586Y1133D01*
X1651Y1133D02*
X1660Y1133D01*
X1706Y1133D02*
X1716Y1133D01*
X1743Y1133D02*
X1754Y1133D01*
X1779Y1133D02*
X1789Y1133D01*
X1807Y1133D02*
X1828Y1133D01*
X1883Y1133D02*
X1892Y1133D01*
X1928Y1133D02*
X1937Y1133D01*
X1957Y1133D02*
X1976Y1133D01*
X2002Y1133D02*
X2012Y1133D01*
X2039Y1133D02*
X2050Y1133D01*
X2108Y1133D02*
X2122Y1133D01*
X2223Y1133D02*
X2232Y1133D01*
X2241Y1133D02*
X2253Y1133D01*
X2261Y1133D02*
X2273Y1133D01*
X2298Y1133D02*
X2307Y1133D01*
X2336Y1133D02*
X2346Y1133D01*
X2372Y1133D02*
X2381Y1133D01*
X2410Y1133D02*
X2420Y1133D01*
X2478Y1133D02*
X2492Y1133D01*
X2519Y1133D02*
X2529Y1133D01*
X2598Y1133D02*
X2608Y1133D01*
X2628Y1133D02*
X2637Y1133D01*
X764Y1132D02*
X773Y1132D01*
X823Y1132D02*
X833Y1132D01*
X851Y1132D02*
X861Y1132D01*
X995Y1132D02*
X1005Y1132D01*
X1041Y1132D02*
X1050Y1132D01*
X1071Y1132D02*
X1088Y1132D01*
X1114Y1132D02*
X1128Y1132D01*
X1152Y1132D02*
X1162Y1132D01*
X1207Y1132D02*
X1216Y1132D01*
X1301Y1132D02*
X1310Y1132D01*
X1409Y1132D02*
X1419Y1132D01*
X1439Y1132D02*
X1458Y1132D01*
X1484Y1132D02*
X1494Y1132D01*
X1522Y1132D02*
X1532Y1132D01*
X1577Y1132D02*
X1586Y1132D01*
X1651Y1132D02*
X1660Y1132D01*
X1706Y1132D02*
X1716Y1132D01*
X1744Y1132D02*
X1754Y1132D01*
X1779Y1132D02*
X1789Y1132D01*
X1809Y1132D02*
X1828Y1132D01*
X1883Y1132D02*
X1892Y1132D01*
X1928Y1132D02*
X1937Y1132D01*
X1958Y1132D02*
X1976Y1132D01*
X2002Y1132D02*
X2011Y1132D01*
X2040Y1132D02*
X2050Y1132D01*
X2109Y1132D02*
X2122Y1132D01*
X2223Y1132D02*
X2232Y1132D01*
X2242Y1132D02*
X2253Y1132D01*
X2262Y1132D02*
X2273Y1132D01*
X2298Y1132D02*
X2307Y1132D01*
X2336Y1132D02*
X2346Y1132D01*
X2372Y1132D02*
X2381Y1132D01*
X2410Y1132D02*
X2420Y1132D01*
X2479Y1132D02*
X2492Y1132D01*
X2519Y1132D02*
X2528Y1132D01*
X2599Y1132D02*
X2609Y1132D01*
X2627Y1132D02*
X2637Y1132D01*
X764Y1131D02*
X773Y1131D01*
X823Y1131D02*
X833Y1131D01*
X851Y1131D02*
X861Y1131D01*
X995Y1131D02*
X1005Y1131D01*
X1041Y1131D02*
X1050Y1131D01*
X1072Y1131D02*
X1088Y1131D01*
X1114Y1131D02*
X1127Y1131D01*
X1153Y1131D02*
X1162Y1131D01*
X1207Y1131D02*
X1216Y1131D01*
X1301Y1131D02*
X1310Y1131D01*
X1409Y1131D02*
X1419Y1131D01*
X1440Y1131D02*
X1458Y1131D01*
X1484Y1131D02*
X1493Y1131D01*
X1523Y1131D02*
X1532Y1131D01*
X1577Y1131D02*
X1586Y1131D01*
X1651Y1131D02*
X1660Y1131D01*
X1706Y1131D02*
X1715Y1131D01*
X1745Y1131D02*
X1754Y1131D01*
X1779Y1131D02*
X1789Y1131D01*
X1810Y1131D02*
X1828Y1131D01*
X1883Y1131D02*
X1892Y1131D01*
X1928Y1131D02*
X1937Y1131D01*
X1960Y1131D02*
X1976Y1131D01*
X2002Y1131D02*
X2011Y1131D01*
X2041Y1131D02*
X2050Y1131D01*
X2111Y1131D02*
X2123Y1131D01*
X2223Y1131D02*
X2232Y1131D01*
X2243Y1131D02*
X2253Y1131D01*
X2264Y1131D02*
X2273Y1131D01*
X2298Y1131D02*
X2307Y1131D01*
X2336Y1131D02*
X2346Y1131D01*
X2372Y1131D02*
X2381Y1131D01*
X2410Y1131D02*
X2420Y1131D01*
X2481Y1131D02*
X2493Y1131D01*
X2519Y1131D02*
X2528Y1131D01*
X2599Y1131D02*
X2609Y1131D01*
X2627Y1131D02*
X2637Y1131D01*
X764Y1130D02*
X773Y1130D01*
X824Y1130D02*
X834Y1130D01*
X851Y1130D02*
X861Y1130D01*
X995Y1130D02*
X1005Y1130D01*
X1041Y1130D02*
X1050Y1130D01*
X1074Y1130D02*
X1088Y1130D01*
X1114Y1130D02*
X1126Y1130D01*
X1153Y1130D02*
X1162Y1130D01*
X1207Y1130D02*
X1216Y1130D01*
X1301Y1130D02*
X1310Y1130D01*
X1410Y1130D02*
X1419Y1130D01*
X1441Y1130D02*
X1458Y1130D01*
X1484Y1130D02*
X1493Y1130D01*
X1523Y1130D02*
X1532Y1130D01*
X1577Y1130D02*
X1586Y1130D01*
X1651Y1130D02*
X1660Y1130D01*
X1706Y1130D02*
X1715Y1130D01*
X1745Y1130D02*
X1754Y1130D01*
X1780Y1130D02*
X1788Y1130D01*
X1811Y1130D02*
X1828Y1130D01*
X1883Y1130D02*
X1892Y1130D01*
X1928Y1130D02*
X1937Y1130D01*
X1961Y1130D02*
X1976Y1130D01*
X2002Y1130D02*
X2011Y1130D01*
X2041Y1130D02*
X2050Y1130D01*
X2112Y1130D02*
X2123Y1130D01*
X2223Y1130D02*
X2232Y1130D01*
X2243Y1130D02*
X2253Y1130D01*
X2264Y1130D02*
X2273Y1130D01*
X2298Y1130D02*
X2307Y1130D01*
X2336Y1130D02*
X2346Y1130D01*
X2372Y1130D02*
X2381Y1130D01*
X2410Y1130D02*
X2420Y1130D01*
X2482Y1130D02*
X2493Y1130D01*
X2519Y1130D02*
X2528Y1130D01*
X2599Y1130D02*
X2609Y1130D01*
X2626Y1130D02*
X2636Y1130D01*
X764Y1129D02*
X773Y1129D01*
X824Y1129D02*
X834Y1129D01*
X850Y1129D02*
X860Y1129D01*
X995Y1129D02*
X1005Y1129D01*
X1041Y1129D02*
X1050Y1129D01*
X1076Y1129D02*
X1088Y1129D01*
X1114Y1129D02*
X1125Y1129D01*
X1153Y1129D02*
X1162Y1129D01*
X1207Y1129D02*
X1216Y1129D01*
X1301Y1129D02*
X1310Y1129D01*
X1410Y1129D02*
X1418Y1129D01*
X1442Y1129D02*
X1458Y1129D01*
X1484Y1129D02*
X1493Y1129D01*
X1523Y1129D02*
X1532Y1129D01*
X1577Y1129D02*
X1586Y1129D01*
X1651Y1129D02*
X1660Y1129D01*
X1705Y1129D02*
X1715Y1129D01*
X1745Y1129D02*
X1754Y1129D01*
X1780Y1129D02*
X1788Y1129D01*
X1812Y1129D02*
X1828Y1129D01*
X1883Y1129D02*
X1892Y1129D01*
X1928Y1129D02*
X1937Y1129D01*
X1963Y1129D02*
X1976Y1129D01*
X2001Y1129D02*
X2011Y1129D01*
X2041Y1129D02*
X2050Y1129D01*
X2113Y1129D02*
X2124Y1129D01*
X2223Y1129D02*
X2232Y1129D01*
X2243Y1129D02*
X2253Y1129D01*
X2264Y1129D02*
X2273Y1129D01*
X2298Y1129D02*
X2307Y1129D01*
X2336Y1129D02*
X2346Y1129D01*
X2372Y1129D02*
X2381Y1129D01*
X2410Y1129D02*
X2420Y1129D01*
X2483Y1129D02*
X2494Y1129D01*
X2519Y1129D02*
X2528Y1129D01*
X2600Y1129D02*
X2610Y1129D01*
X2626Y1129D02*
X2636Y1129D01*
X764Y1128D02*
X773Y1128D01*
X824Y1128D02*
X834Y1128D01*
X850Y1128D02*
X860Y1128D01*
X995Y1128D02*
X1005Y1128D01*
X1041Y1128D02*
X1050Y1128D01*
X1077Y1128D02*
X1088Y1128D01*
X1114Y1128D02*
X1124Y1128D01*
X1153Y1128D02*
X1162Y1128D01*
X1207Y1128D02*
X1216Y1128D01*
X1301Y1128D02*
X1310Y1128D01*
X1410Y1128D02*
X1418Y1128D01*
X1443Y1128D02*
X1458Y1128D01*
X1483Y1128D02*
X1493Y1128D01*
X1523Y1128D02*
X1532Y1128D01*
X1577Y1128D02*
X1586Y1128D01*
X1651Y1128D02*
X1660Y1128D01*
X1705Y1128D02*
X1715Y1128D01*
X1745Y1128D02*
X1754Y1128D01*
X1780Y1128D02*
X1788Y1128D01*
X1813Y1128D02*
X1828Y1128D01*
X1883Y1128D02*
X1892Y1128D01*
X1928Y1128D02*
X1937Y1128D01*
X1964Y1128D02*
X1976Y1128D01*
X2001Y1128D02*
X2011Y1128D01*
X2041Y1128D02*
X2050Y1128D01*
X2114Y1128D02*
X2124Y1128D01*
X2223Y1128D02*
X2232Y1128D01*
X2243Y1128D02*
X2253Y1128D01*
X2264Y1128D02*
X2273Y1128D01*
X2298Y1128D02*
X2307Y1128D01*
X2336Y1128D02*
X2346Y1128D01*
X2372Y1128D02*
X2381Y1128D01*
X2410Y1128D02*
X2420Y1128D01*
X2484Y1128D02*
X2494Y1128D01*
X2519Y1128D02*
X2528Y1128D01*
X2600Y1128D02*
X2610Y1128D01*
X2626Y1128D02*
X2636Y1128D01*
X764Y1127D02*
X773Y1127D01*
X825Y1127D02*
X835Y1127D01*
X849Y1127D02*
X859Y1127D01*
X995Y1127D02*
X1005Y1127D01*
X1041Y1127D02*
X1050Y1127D01*
X1079Y1127D02*
X1088Y1127D01*
X1114Y1127D02*
X1123Y1127D01*
X1153Y1127D02*
X1162Y1127D01*
X1207Y1127D02*
X1216Y1127D01*
X1301Y1127D02*
X1310Y1127D01*
X1411Y1127D02*
X1417Y1127D01*
X1444Y1127D02*
X1458Y1127D01*
X1483Y1127D02*
X1493Y1127D01*
X1523Y1127D02*
X1532Y1127D01*
X1577Y1127D02*
X1586Y1127D01*
X1651Y1127D02*
X1660Y1127D01*
X1705Y1127D02*
X1715Y1127D01*
X1745Y1127D02*
X1754Y1127D01*
X1780Y1127D02*
X1787Y1127D01*
X1814Y1127D02*
X1828Y1127D01*
X1883Y1127D02*
X1892Y1127D01*
X1928Y1127D02*
X1937Y1127D01*
X1966Y1127D02*
X1976Y1127D01*
X2001Y1127D02*
X2011Y1127D01*
X2041Y1127D02*
X2050Y1127D01*
X2115Y1127D02*
X2124Y1127D01*
X2223Y1127D02*
X2232Y1127D01*
X2243Y1127D02*
X2253Y1127D01*
X2264Y1127D02*
X2273Y1127D01*
X2298Y1127D02*
X2307Y1127D01*
X2336Y1127D02*
X2346Y1127D01*
X2372Y1127D02*
X2381Y1127D01*
X2410Y1127D02*
X2420Y1127D01*
X2485Y1127D02*
X2494Y1127D01*
X2519Y1127D02*
X2528Y1127D01*
X2601Y1127D02*
X2611Y1127D01*
X2625Y1127D02*
X2635Y1127D01*
X764Y1126D02*
X773Y1126D01*
X825Y1126D02*
X835Y1126D01*
X849Y1126D02*
X859Y1126D01*
X995Y1126D02*
X1005Y1126D01*
X1041Y1126D02*
X1050Y1126D01*
X1079Y1126D02*
X1088Y1126D01*
X1114Y1126D02*
X1123Y1126D01*
X1153Y1126D02*
X1162Y1126D01*
X1207Y1126D02*
X1216Y1126D01*
X1301Y1126D02*
X1310Y1126D01*
X1412Y1126D02*
X1416Y1126D01*
X1446Y1126D02*
X1458Y1126D01*
X1483Y1126D02*
X1493Y1126D01*
X1523Y1126D02*
X1532Y1126D01*
X1577Y1126D02*
X1586Y1126D01*
X1651Y1126D02*
X1660Y1126D01*
X1705Y1126D02*
X1715Y1126D01*
X1745Y1126D02*
X1754Y1126D01*
X1782Y1126D02*
X1786Y1126D01*
X1816Y1126D02*
X1828Y1126D01*
X1883Y1126D02*
X1892Y1126D01*
X1928Y1126D02*
X1937Y1126D01*
X1967Y1126D02*
X1976Y1126D01*
X2001Y1126D02*
X2011Y1126D01*
X2041Y1126D02*
X2050Y1126D01*
X2115Y1126D02*
X2124Y1126D01*
X2223Y1126D02*
X2232Y1126D01*
X2243Y1126D02*
X2253Y1126D01*
X2264Y1126D02*
X2273Y1126D01*
X2298Y1126D02*
X2307Y1126D01*
X2336Y1126D02*
X2346Y1126D01*
X2372Y1126D02*
X2381Y1126D01*
X2410Y1126D02*
X2420Y1126D01*
X2485Y1126D02*
X2494Y1126D01*
X2519Y1126D02*
X2528Y1126D01*
X2601Y1126D02*
X2611Y1126D01*
X2625Y1126D02*
X2635Y1126D01*
X764Y1125D02*
X773Y1125D01*
X826Y1125D02*
X836Y1125D01*
X849Y1125D02*
X859Y1125D01*
X995Y1125D02*
X1005Y1125D01*
X1041Y1125D02*
X1050Y1125D01*
X1079Y1125D02*
X1088Y1125D01*
X1114Y1125D02*
X1123Y1125D01*
X1153Y1125D02*
X1162Y1125D01*
X1207Y1125D02*
X1216Y1125D01*
X1301Y1125D02*
X1310Y1125D01*
X1447Y1125D02*
X1458Y1125D01*
X1483Y1125D02*
X1493Y1125D01*
X1523Y1125D02*
X1532Y1125D01*
X1577Y1125D02*
X1586Y1125D01*
X1651Y1125D02*
X1660Y1125D01*
X1705Y1125D02*
X1715Y1125D01*
X1745Y1125D02*
X1754Y1125D01*
X1817Y1125D02*
X1828Y1125D01*
X1883Y1125D02*
X1892Y1125D01*
X1928Y1125D02*
X1937Y1125D01*
X1967Y1125D02*
X1976Y1125D01*
X2001Y1125D02*
X2011Y1125D01*
X2041Y1125D02*
X2050Y1125D01*
X2115Y1125D02*
X2124Y1125D01*
X2223Y1125D02*
X2232Y1125D01*
X2243Y1125D02*
X2253Y1125D01*
X2264Y1125D02*
X2273Y1125D01*
X2298Y1125D02*
X2307Y1125D01*
X2336Y1125D02*
X2346Y1125D01*
X2372Y1125D02*
X2381Y1125D01*
X2410Y1125D02*
X2420Y1125D01*
X2485Y1125D02*
X2494Y1125D01*
X2519Y1125D02*
X2558Y1125D01*
X2601Y1125D02*
X2611Y1125D01*
X2624Y1125D02*
X2634Y1125D01*
X764Y1124D02*
X773Y1124D01*
X826Y1124D02*
X836Y1124D01*
X848Y1124D02*
X858Y1124D01*
X995Y1124D02*
X1005Y1124D01*
X1041Y1124D02*
X1050Y1124D01*
X1079Y1124D02*
X1088Y1124D01*
X1114Y1124D02*
X1123Y1124D01*
X1153Y1124D02*
X1162Y1124D01*
X1207Y1124D02*
X1216Y1124D01*
X1301Y1124D02*
X1310Y1124D01*
X1448Y1124D02*
X1458Y1124D01*
X1483Y1124D02*
X1493Y1124D01*
X1523Y1124D02*
X1532Y1124D01*
X1577Y1124D02*
X1586Y1124D01*
X1651Y1124D02*
X1660Y1124D01*
X1705Y1124D02*
X1715Y1124D01*
X1745Y1124D02*
X1754Y1124D01*
X1818Y1124D02*
X1828Y1124D01*
X1883Y1124D02*
X1892Y1124D01*
X1928Y1124D02*
X1937Y1124D01*
X1967Y1124D02*
X1976Y1124D01*
X2001Y1124D02*
X2011Y1124D01*
X2041Y1124D02*
X2050Y1124D01*
X2115Y1124D02*
X2124Y1124D01*
X2223Y1124D02*
X2232Y1124D01*
X2243Y1124D02*
X2253Y1124D01*
X2264Y1124D02*
X2273Y1124D01*
X2298Y1124D02*
X2307Y1124D01*
X2336Y1124D02*
X2346Y1124D01*
X2372Y1124D02*
X2381Y1124D01*
X2410Y1124D02*
X2420Y1124D01*
X2485Y1124D02*
X2494Y1124D01*
X2519Y1124D02*
X2560Y1124D01*
X2602Y1124D02*
X2612Y1124D01*
X2624Y1124D02*
X2634Y1124D01*
X764Y1123D02*
X773Y1123D01*
X826Y1123D02*
X836Y1123D01*
X848Y1123D02*
X858Y1123D01*
X995Y1123D02*
X1005Y1123D01*
X1041Y1123D02*
X1050Y1123D01*
X1079Y1123D02*
X1088Y1123D01*
X1114Y1123D02*
X1123Y1123D01*
X1153Y1123D02*
X1162Y1123D01*
X1207Y1123D02*
X1216Y1123D01*
X1301Y1123D02*
X1310Y1123D01*
X1449Y1123D02*
X1458Y1123D01*
X1483Y1123D02*
X1532Y1123D01*
X1577Y1123D02*
X1586Y1123D01*
X1651Y1123D02*
X1660Y1123D01*
X1705Y1123D02*
X1715Y1123D01*
X1745Y1123D02*
X1754Y1123D01*
X1819Y1123D02*
X1828Y1123D01*
X1883Y1123D02*
X1892Y1123D01*
X1928Y1123D02*
X1937Y1123D01*
X1967Y1123D02*
X1976Y1123D01*
X2001Y1123D02*
X2011Y1123D01*
X2041Y1123D02*
X2050Y1123D01*
X2115Y1123D02*
X2124Y1123D01*
X2223Y1123D02*
X2232Y1123D01*
X2243Y1123D02*
X2253Y1123D01*
X2264Y1123D02*
X2273Y1123D01*
X2298Y1123D02*
X2307Y1123D01*
X2336Y1123D02*
X2346Y1123D01*
X2372Y1123D02*
X2381Y1123D01*
X2410Y1123D02*
X2420Y1123D01*
X2485Y1123D02*
X2494Y1123D01*
X2519Y1123D02*
X2562Y1123D01*
X2602Y1123D02*
X2612Y1123D01*
X2624Y1123D02*
X2634Y1123D01*
X764Y1122D02*
X773Y1122D01*
X827Y1122D02*
X837Y1122D01*
X847Y1122D02*
X857Y1122D01*
X995Y1122D02*
X1005Y1122D01*
X1041Y1122D02*
X1050Y1122D01*
X1079Y1122D02*
X1088Y1122D01*
X1114Y1122D02*
X1123Y1122D01*
X1153Y1122D02*
X1162Y1122D01*
X1207Y1122D02*
X1216Y1122D01*
X1301Y1122D02*
X1310Y1122D01*
X1449Y1122D02*
X1458Y1122D01*
X1483Y1122D02*
X1532Y1122D01*
X1577Y1122D02*
X1586Y1122D01*
X1651Y1122D02*
X1660Y1122D01*
X1705Y1122D02*
X1715Y1122D01*
X1745Y1122D02*
X1754Y1122D01*
X1819Y1122D02*
X1828Y1122D01*
X1883Y1122D02*
X1892Y1122D01*
X1928Y1122D02*
X1937Y1122D01*
X1967Y1122D02*
X1976Y1122D01*
X2001Y1122D02*
X2011Y1122D01*
X2041Y1122D02*
X2050Y1122D01*
X2115Y1122D02*
X2124Y1122D01*
X2223Y1122D02*
X2232Y1122D01*
X2243Y1122D02*
X2253Y1122D01*
X2264Y1122D02*
X2273Y1122D01*
X2298Y1122D02*
X2307Y1122D01*
X2336Y1122D02*
X2346Y1122D01*
X2372Y1122D02*
X2381Y1122D01*
X2410Y1122D02*
X2420Y1122D01*
X2485Y1122D02*
X2494Y1122D01*
X2519Y1122D02*
X2563Y1122D01*
X2603Y1122D02*
X2612Y1122D01*
X2623Y1122D02*
X2633Y1122D01*
X764Y1121D02*
X773Y1121D01*
X827Y1121D02*
X837Y1121D01*
X847Y1121D02*
X857Y1121D01*
X995Y1121D02*
X1005Y1121D01*
X1040Y1121D02*
X1050Y1121D01*
X1079Y1121D02*
X1088Y1121D01*
X1114Y1121D02*
X1123Y1121D01*
X1153Y1121D02*
X1162Y1121D01*
X1207Y1121D02*
X1216Y1121D01*
X1301Y1121D02*
X1310Y1121D01*
X1449Y1121D02*
X1458Y1121D01*
X1483Y1121D02*
X1532Y1121D01*
X1577Y1121D02*
X1586Y1121D01*
X1651Y1121D02*
X1660Y1121D01*
X1705Y1121D02*
X1715Y1121D01*
X1745Y1121D02*
X1754Y1121D01*
X1819Y1121D02*
X1828Y1121D01*
X1883Y1121D02*
X1892Y1121D01*
X1928Y1121D02*
X1937Y1121D01*
X1967Y1121D02*
X1976Y1121D01*
X2001Y1121D02*
X2011Y1121D01*
X2041Y1121D02*
X2050Y1121D01*
X2115Y1121D02*
X2124Y1121D01*
X2223Y1121D02*
X2232Y1121D01*
X2243Y1121D02*
X2253Y1121D01*
X2264Y1121D02*
X2273Y1121D01*
X2298Y1121D02*
X2307Y1121D01*
X2336Y1121D02*
X2346Y1121D01*
X2372Y1121D02*
X2381Y1121D01*
X2410Y1121D02*
X2420Y1121D01*
X2485Y1121D02*
X2494Y1121D01*
X2519Y1121D02*
X2564Y1121D01*
X2603Y1121D02*
X2613Y1121D01*
X2623Y1121D02*
X2633Y1121D01*
X746Y1120D02*
X750Y1120D01*
X764Y1120D02*
X773Y1120D01*
X828Y1120D02*
X837Y1120D01*
X847Y1120D02*
X857Y1120D01*
X995Y1120D02*
X1005Y1120D01*
X1040Y1120D02*
X1050Y1120D01*
X1079Y1120D02*
X1088Y1120D01*
X1114Y1120D02*
X1123Y1120D01*
X1153Y1120D02*
X1162Y1120D01*
X1207Y1120D02*
X1216Y1120D01*
X1301Y1120D02*
X1310Y1120D01*
X1449Y1120D02*
X1458Y1120D01*
X1483Y1120D02*
X1532Y1120D01*
X1577Y1120D02*
X1586Y1120D01*
X1651Y1120D02*
X1660Y1120D01*
X1705Y1120D02*
X1715Y1120D01*
X1745Y1120D02*
X1754Y1120D01*
X1819Y1120D02*
X1828Y1120D01*
X1883Y1120D02*
X1892Y1120D01*
X1928Y1120D02*
X1937Y1120D01*
X1967Y1120D02*
X1976Y1120D01*
X2001Y1120D02*
X2011Y1120D01*
X2041Y1120D02*
X2050Y1120D01*
X2115Y1120D02*
X2124Y1120D01*
X2223Y1120D02*
X2232Y1120D01*
X2243Y1120D02*
X2253Y1120D01*
X2264Y1120D02*
X2273Y1120D01*
X2298Y1120D02*
X2307Y1120D01*
X2336Y1120D02*
X2346Y1120D01*
X2372Y1120D02*
X2381Y1120D01*
X2410Y1120D02*
X2420Y1120D01*
X2485Y1120D02*
X2494Y1120D01*
X2519Y1120D02*
X2565Y1120D01*
X2603Y1120D02*
X2613Y1120D01*
X2622Y1120D02*
X2632Y1120D01*
X745Y1119D02*
X751Y1119D01*
X764Y1119D02*
X773Y1119D01*
X828Y1119D02*
X838Y1119D01*
X846Y1119D02*
X856Y1119D01*
X995Y1119D02*
X1005Y1119D01*
X1040Y1119D02*
X1049Y1119D01*
X1079Y1119D02*
X1088Y1119D01*
X1114Y1119D02*
X1123Y1119D01*
X1153Y1119D02*
X1162Y1119D01*
X1207Y1119D02*
X1216Y1119D01*
X1301Y1119D02*
X1310Y1119D01*
X1449Y1119D02*
X1458Y1119D01*
X1484Y1119D02*
X1532Y1119D01*
X1577Y1119D02*
X1586Y1119D01*
X1651Y1119D02*
X1660Y1119D01*
X1705Y1119D02*
X1715Y1119D01*
X1745Y1119D02*
X1754Y1119D01*
X1819Y1119D02*
X1828Y1119D01*
X1883Y1119D02*
X1892Y1119D01*
X1928Y1119D02*
X1937Y1119D01*
X1967Y1119D02*
X1976Y1119D01*
X2001Y1119D02*
X2011Y1119D01*
X2041Y1119D02*
X2050Y1119D01*
X2115Y1119D02*
X2124Y1119D01*
X2223Y1119D02*
X2232Y1119D01*
X2243Y1119D02*
X2253Y1119D01*
X2264Y1119D02*
X2273Y1119D01*
X2298Y1119D02*
X2307Y1119D01*
X2336Y1119D02*
X2346Y1119D01*
X2372Y1119D02*
X2381Y1119D01*
X2410Y1119D02*
X2420Y1119D01*
X2485Y1119D02*
X2494Y1119D01*
X2519Y1119D02*
X2566Y1119D01*
X2604Y1119D02*
X2614Y1119D01*
X2622Y1119D02*
X2632Y1119D01*
X744Y1118D02*
X752Y1118D01*
X764Y1118D02*
X773Y1118D01*
X828Y1118D02*
X838Y1118D01*
X846Y1118D02*
X856Y1118D01*
X995Y1118D02*
X1005Y1118D01*
X1040Y1118D02*
X1049Y1118D01*
X1079Y1118D02*
X1088Y1118D01*
X1114Y1118D02*
X1123Y1118D01*
X1153Y1118D02*
X1162Y1118D01*
X1207Y1118D02*
X1216Y1118D01*
X1301Y1118D02*
X1310Y1118D01*
X1449Y1118D02*
X1458Y1118D01*
X1484Y1118D02*
X1532Y1118D01*
X1577Y1118D02*
X1586Y1118D01*
X1651Y1118D02*
X1660Y1118D01*
X1705Y1118D02*
X1715Y1118D01*
X1745Y1118D02*
X1754Y1118D01*
X1819Y1118D02*
X1828Y1118D01*
X1883Y1118D02*
X1892Y1118D01*
X1928Y1118D02*
X1937Y1118D01*
X1967Y1118D02*
X1976Y1118D01*
X2001Y1118D02*
X2011Y1118D01*
X2041Y1118D02*
X2050Y1118D01*
X2115Y1118D02*
X2124Y1118D01*
X2223Y1118D02*
X2232Y1118D01*
X2243Y1118D02*
X2253Y1118D01*
X2264Y1118D02*
X2273Y1118D01*
X2298Y1118D02*
X2307Y1118D01*
X2336Y1118D02*
X2346Y1118D01*
X2372Y1118D02*
X2381Y1118D01*
X2410Y1118D02*
X2420Y1118D01*
X2485Y1118D02*
X2494Y1118D01*
X2519Y1118D02*
X2566Y1118D01*
X2604Y1118D02*
X2614Y1118D01*
X2622Y1118D02*
X2632Y1118D01*
X744Y1117D02*
X753Y1117D01*
X764Y1117D02*
X773Y1117D01*
X829Y1117D02*
X839Y1117D01*
X845Y1117D02*
X855Y1117D01*
X995Y1117D02*
X1005Y1117D01*
X1040Y1117D02*
X1049Y1117D01*
X1079Y1117D02*
X1088Y1117D01*
X1114Y1117D02*
X1123Y1117D01*
X1153Y1117D02*
X1162Y1117D01*
X1207Y1117D02*
X1216Y1117D01*
X1301Y1117D02*
X1310Y1117D01*
X1449Y1117D02*
X1458Y1117D01*
X1484Y1117D02*
X1532Y1117D01*
X1577Y1117D02*
X1586Y1117D01*
X1651Y1117D02*
X1660Y1117D01*
X1705Y1117D02*
X1715Y1117D01*
X1745Y1117D02*
X1754Y1117D01*
X1819Y1117D02*
X1828Y1117D01*
X1883Y1117D02*
X1892Y1117D01*
X1928Y1117D02*
X1937Y1117D01*
X1967Y1117D02*
X1976Y1117D01*
X2001Y1117D02*
X2011Y1117D01*
X2041Y1117D02*
X2050Y1117D01*
X2115Y1117D02*
X2124Y1117D01*
X2223Y1117D02*
X2232Y1117D01*
X2243Y1117D02*
X2253Y1117D01*
X2264Y1117D02*
X2273Y1117D01*
X2298Y1117D02*
X2307Y1117D01*
X2336Y1117D02*
X2346Y1117D01*
X2372Y1117D02*
X2381Y1117D01*
X2410Y1117D02*
X2420Y1117D01*
X2485Y1117D02*
X2494Y1117D01*
X2519Y1117D02*
X2567Y1117D01*
X2605Y1117D02*
X2614Y1117D01*
X2621Y1117D02*
X2631Y1117D01*
X744Y1116D02*
X753Y1116D01*
X764Y1116D02*
X773Y1116D01*
X829Y1116D02*
X839Y1116D01*
X845Y1116D02*
X855Y1116D01*
X995Y1116D02*
X1005Y1116D01*
X1040Y1116D02*
X1049Y1116D01*
X1079Y1116D02*
X1088Y1116D01*
X1114Y1116D02*
X1123Y1116D01*
X1153Y1116D02*
X1162Y1116D01*
X1207Y1116D02*
X1216Y1116D01*
X1301Y1116D02*
X1310Y1116D01*
X1449Y1116D02*
X1458Y1116D01*
X1484Y1116D02*
X1532Y1116D01*
X1577Y1116D02*
X1586Y1116D01*
X1651Y1116D02*
X1660Y1116D01*
X1705Y1116D02*
X1715Y1116D01*
X1745Y1116D02*
X1754Y1116D01*
X1819Y1116D02*
X1828Y1116D01*
X1883Y1116D02*
X1892Y1116D01*
X1928Y1116D02*
X1937Y1116D01*
X1967Y1116D02*
X1976Y1116D01*
X2001Y1116D02*
X2011Y1116D01*
X2041Y1116D02*
X2050Y1116D01*
X2115Y1116D02*
X2124Y1116D01*
X2223Y1116D02*
X2232Y1116D01*
X2243Y1116D02*
X2253Y1116D01*
X2264Y1116D02*
X2273Y1116D01*
X2298Y1116D02*
X2307Y1116D01*
X2336Y1116D02*
X2346Y1116D01*
X2372Y1116D02*
X2381Y1116D01*
X2410Y1116D02*
X2420Y1116D01*
X2485Y1116D02*
X2494Y1116D01*
X2519Y1116D02*
X2532Y1116D01*
X2556Y1116D02*
X2567Y1116D01*
X2605Y1116D02*
X2615Y1116D01*
X2621Y1116D02*
X2631Y1116D01*
X744Y1115D02*
X753Y1115D01*
X764Y1115D02*
X773Y1115D01*
X830Y1115D02*
X839Y1115D01*
X845Y1115D02*
X855Y1115D01*
X995Y1115D02*
X1005Y1115D01*
X1040Y1115D02*
X1049Y1115D01*
X1079Y1115D02*
X1088Y1115D01*
X1114Y1115D02*
X1123Y1115D01*
X1153Y1115D02*
X1162Y1115D01*
X1207Y1115D02*
X1216Y1115D01*
X1301Y1115D02*
X1310Y1115D01*
X1449Y1115D02*
X1458Y1115D01*
X1485Y1115D02*
X1532Y1115D01*
X1577Y1115D02*
X1586Y1115D01*
X1651Y1115D02*
X1660Y1115D01*
X1705Y1115D02*
X1715Y1115D01*
X1745Y1115D02*
X1754Y1115D01*
X1819Y1115D02*
X1828Y1115D01*
X1883Y1115D02*
X1892Y1115D01*
X1928Y1115D02*
X1937Y1115D01*
X1967Y1115D02*
X1976Y1115D01*
X2001Y1115D02*
X2011Y1115D01*
X2041Y1115D02*
X2050Y1115D01*
X2115Y1115D02*
X2124Y1115D01*
X2223Y1115D02*
X2232Y1115D01*
X2243Y1115D02*
X2253Y1115D01*
X2264Y1115D02*
X2273Y1115D01*
X2298Y1115D02*
X2307Y1115D01*
X2336Y1115D02*
X2346Y1115D01*
X2372Y1115D02*
X2381Y1115D01*
X2410Y1115D02*
X2420Y1115D01*
X2485Y1115D02*
X2494Y1115D01*
X2519Y1115D02*
X2530Y1115D01*
X2558Y1115D02*
X2568Y1115D01*
X2605Y1115D02*
X2615Y1115D01*
X2620Y1115D02*
X2630Y1115D01*
X744Y1114D02*
X753Y1114D01*
X764Y1114D02*
X773Y1114D01*
X830Y1114D02*
X840Y1114D01*
X844Y1114D02*
X854Y1114D01*
X995Y1114D02*
X1005Y1114D01*
X1040Y1114D02*
X1049Y1114D01*
X1079Y1114D02*
X1088Y1114D01*
X1114Y1114D02*
X1124Y1114D01*
X1153Y1114D02*
X1162Y1114D01*
X1207Y1114D02*
X1216Y1114D01*
X1301Y1114D02*
X1310Y1114D01*
X1449Y1114D02*
X1458Y1114D01*
X1487Y1114D02*
X1532Y1114D01*
X1577Y1114D02*
X1586Y1114D01*
X1651Y1114D02*
X1660Y1114D01*
X1705Y1114D02*
X1715Y1114D01*
X1745Y1114D02*
X1754Y1114D01*
X1819Y1114D02*
X1828Y1114D01*
X1883Y1114D02*
X1892Y1114D01*
X1928Y1114D02*
X1937Y1114D01*
X1967Y1114D02*
X1976Y1114D01*
X2001Y1114D02*
X2011Y1114D01*
X2041Y1114D02*
X2050Y1114D01*
X2115Y1114D02*
X2124Y1114D01*
X2223Y1114D02*
X2232Y1114D01*
X2243Y1114D02*
X2253Y1114D01*
X2264Y1114D02*
X2273Y1114D01*
X2298Y1114D02*
X2307Y1114D01*
X2336Y1114D02*
X2346Y1114D01*
X2372Y1114D02*
X2381Y1114D01*
X2410Y1114D02*
X2420Y1114D01*
X2485Y1114D02*
X2494Y1114D01*
X2519Y1114D02*
X2529Y1114D01*
X2559Y1114D02*
X2568Y1114D01*
X2606Y1114D02*
X2616Y1114D01*
X2620Y1114D02*
X2630Y1114D01*
X744Y1113D02*
X753Y1113D01*
X764Y1113D02*
X773Y1113D01*
X830Y1113D02*
X840Y1113D01*
X844Y1113D02*
X854Y1113D01*
X995Y1113D02*
X1005Y1113D01*
X1040Y1113D02*
X1049Y1113D01*
X1079Y1113D02*
X1088Y1113D01*
X1114Y1113D02*
X1125Y1113D01*
X1153Y1113D02*
X1162Y1113D01*
X1207Y1113D02*
X1216Y1113D01*
X1301Y1113D02*
X1310Y1113D01*
X1449Y1113D02*
X1458Y1113D01*
X1523Y1113D02*
X1532Y1113D01*
X1577Y1113D02*
X1586Y1113D01*
X1651Y1113D02*
X1660Y1113D01*
X1705Y1113D02*
X1715Y1113D01*
X1745Y1113D02*
X1754Y1113D01*
X1819Y1113D02*
X1828Y1113D01*
X1883Y1113D02*
X1892Y1113D01*
X1928Y1113D02*
X1937Y1113D01*
X1967Y1113D02*
X1976Y1113D01*
X2001Y1113D02*
X2011Y1113D01*
X2041Y1113D02*
X2050Y1113D01*
X2115Y1113D02*
X2124Y1113D01*
X2223Y1113D02*
X2232Y1113D01*
X2243Y1113D02*
X2253Y1113D01*
X2264Y1113D02*
X2273Y1113D01*
X2298Y1113D02*
X2307Y1113D01*
X2336Y1113D02*
X2346Y1113D01*
X2372Y1113D02*
X2381Y1113D01*
X2410Y1113D02*
X2420Y1113D01*
X2485Y1113D02*
X2494Y1113D01*
X2519Y1113D02*
X2529Y1113D01*
X2559Y1113D02*
X2568Y1113D01*
X2606Y1113D02*
X2616Y1113D01*
X2620Y1113D02*
X2630Y1113D01*
X744Y1112D02*
X753Y1112D01*
X764Y1112D02*
X773Y1112D01*
X831Y1112D02*
X841Y1112D01*
X844Y1112D02*
X854Y1112D01*
X995Y1112D02*
X1005Y1112D01*
X1040Y1112D02*
X1049Y1112D01*
X1079Y1112D02*
X1088Y1112D01*
X1114Y1112D02*
X1126Y1112D01*
X1153Y1112D02*
X1162Y1112D01*
X1207Y1112D02*
X1216Y1112D01*
X1301Y1112D02*
X1310Y1112D01*
X1449Y1112D02*
X1458Y1112D01*
X1523Y1112D02*
X1532Y1112D01*
X1577Y1112D02*
X1586Y1112D01*
X1651Y1112D02*
X1660Y1112D01*
X1705Y1112D02*
X1715Y1112D01*
X1745Y1112D02*
X1754Y1112D01*
X1819Y1112D02*
X1828Y1112D01*
X1883Y1112D02*
X1892Y1112D01*
X1928Y1112D02*
X1937Y1112D01*
X1967Y1112D02*
X1976Y1112D01*
X2001Y1112D02*
X2011Y1112D01*
X2041Y1112D02*
X2050Y1112D01*
X2115Y1112D02*
X2124Y1112D01*
X2223Y1112D02*
X2232Y1112D01*
X2243Y1112D02*
X2253Y1112D01*
X2264Y1112D02*
X2273Y1112D01*
X2298Y1112D02*
X2307Y1112D01*
X2336Y1112D02*
X2346Y1112D01*
X2372Y1112D02*
X2381Y1112D01*
X2410Y1112D02*
X2420Y1112D01*
X2485Y1112D02*
X2494Y1112D01*
X2519Y1112D02*
X2528Y1112D01*
X2559Y1112D02*
X2568Y1112D01*
X2606Y1112D02*
X2616Y1112D01*
X2619Y1112D02*
X2629Y1112D01*
X744Y1111D02*
X753Y1111D01*
X764Y1111D02*
X773Y1111D01*
X831Y1111D02*
X841Y1111D01*
X843Y1111D02*
X853Y1111D01*
X995Y1111D02*
X1005Y1111D01*
X1040Y1111D02*
X1049Y1111D01*
X1079Y1111D02*
X1088Y1111D01*
X1114Y1111D02*
X1127Y1111D01*
X1153Y1111D02*
X1162Y1111D01*
X1207Y1111D02*
X1216Y1111D01*
X1301Y1111D02*
X1310Y1111D01*
X1449Y1111D02*
X1458Y1111D01*
X1523Y1111D02*
X1532Y1111D01*
X1577Y1111D02*
X1586Y1111D01*
X1651Y1111D02*
X1660Y1111D01*
X1705Y1111D02*
X1715Y1111D01*
X1745Y1111D02*
X1754Y1111D01*
X1819Y1111D02*
X1828Y1111D01*
X1883Y1111D02*
X1892Y1111D01*
X1928Y1111D02*
X1937Y1111D01*
X1967Y1111D02*
X1976Y1111D01*
X2001Y1111D02*
X2011Y1111D01*
X2041Y1111D02*
X2050Y1111D01*
X2115Y1111D02*
X2124Y1111D01*
X2223Y1111D02*
X2232Y1111D01*
X2243Y1111D02*
X2253Y1111D01*
X2264Y1111D02*
X2273Y1111D01*
X2298Y1111D02*
X2307Y1111D01*
X2336Y1111D02*
X2346Y1111D01*
X2372Y1111D02*
X2381Y1111D01*
X2410Y1111D02*
X2420Y1111D01*
X2485Y1111D02*
X2494Y1111D01*
X2519Y1111D02*
X2528Y1111D01*
X2560Y1111D02*
X2568Y1111D01*
X2607Y1111D02*
X2617Y1111D01*
X2619Y1111D02*
X2629Y1111D01*
X744Y1110D02*
X753Y1110D01*
X764Y1110D02*
X773Y1110D01*
X831Y1110D02*
X853Y1110D01*
X995Y1110D02*
X1005Y1110D01*
X1040Y1110D02*
X1049Y1110D01*
X1079Y1110D02*
X1088Y1110D01*
X1114Y1110D02*
X1128Y1110D01*
X1152Y1110D02*
X1162Y1110D01*
X1207Y1110D02*
X1216Y1110D01*
X1301Y1110D02*
X1310Y1110D01*
X1449Y1110D02*
X1458Y1110D01*
X1523Y1110D02*
X1532Y1110D01*
X1577Y1110D02*
X1586Y1110D01*
X1651Y1110D02*
X1660Y1110D01*
X1705Y1110D02*
X1715Y1110D01*
X1745Y1110D02*
X1754Y1110D01*
X1819Y1110D02*
X1828Y1110D01*
X1883Y1110D02*
X1892Y1110D01*
X1928Y1110D02*
X1937Y1110D01*
X1967Y1110D02*
X1976Y1110D01*
X2001Y1110D02*
X2011Y1110D01*
X2041Y1110D02*
X2050Y1110D01*
X2114Y1110D02*
X2124Y1110D01*
X2223Y1110D02*
X2232Y1110D01*
X2243Y1110D02*
X2253Y1110D01*
X2264Y1110D02*
X2273Y1110D01*
X2298Y1110D02*
X2309Y1110D01*
X2336Y1110D02*
X2346Y1110D01*
X2372Y1110D02*
X2383Y1110D01*
X2410Y1110D02*
X2420Y1110D01*
X2484Y1110D02*
X2494Y1110D01*
X2519Y1110D02*
X2528Y1110D01*
X2560Y1110D02*
X2568Y1110D01*
X2607Y1110D02*
X2629Y1110D01*
X744Y1109D02*
X753Y1109D01*
X764Y1109D02*
X773Y1109D01*
X832Y1109D02*
X852Y1109D01*
X995Y1109D02*
X1005Y1109D01*
X1040Y1109D02*
X1049Y1109D01*
X1079Y1109D02*
X1088Y1109D01*
X1114Y1109D02*
X1129Y1109D01*
X1152Y1109D02*
X1162Y1109D01*
X1207Y1109D02*
X1216Y1109D01*
X1301Y1109D02*
X1310Y1109D01*
X1449Y1109D02*
X1458Y1109D01*
X1523Y1109D02*
X1532Y1109D01*
X1577Y1109D02*
X1586Y1109D01*
X1651Y1109D02*
X1660Y1109D01*
X1705Y1109D02*
X1715Y1109D01*
X1745Y1109D02*
X1754Y1109D01*
X1819Y1109D02*
X1828Y1109D01*
X1858Y1109D02*
X1858Y1109D01*
X1883Y1109D02*
X1892Y1109D01*
X1928Y1109D02*
X1937Y1109D01*
X1967Y1109D02*
X1976Y1109D01*
X2001Y1109D02*
X2011Y1109D01*
X2041Y1109D02*
X2050Y1109D01*
X2113Y1109D02*
X2124Y1109D01*
X2223Y1109D02*
X2232Y1109D01*
X2243Y1109D02*
X2253Y1109D01*
X2264Y1109D02*
X2273Y1109D01*
X2298Y1109D02*
X2310Y1109D01*
X2336Y1109D02*
X2346Y1109D01*
X2372Y1109D02*
X2384Y1109D01*
X2410Y1109D02*
X2420Y1109D01*
X2483Y1109D02*
X2494Y1109D01*
X2519Y1109D02*
X2528Y1109D01*
X2560Y1109D02*
X2568Y1109D01*
X2608Y1109D02*
X2628Y1109D01*
X744Y1108D02*
X753Y1108D01*
X764Y1108D02*
X773Y1108D01*
X832Y1108D02*
X852Y1108D01*
X968Y1108D02*
X973Y1108D01*
X995Y1108D02*
X1005Y1108D01*
X1040Y1108D02*
X1049Y1108D01*
X1079Y1108D02*
X1088Y1108D01*
X1114Y1108D02*
X1131Y1108D01*
X1151Y1108D02*
X1162Y1108D01*
X1207Y1108D02*
X1216Y1108D01*
X1301Y1108D02*
X1310Y1108D01*
X1449Y1108D02*
X1458Y1108D01*
X1523Y1108D02*
X1532Y1108D01*
X1577Y1108D02*
X1586Y1108D01*
X1651Y1108D02*
X1660Y1108D01*
X1706Y1108D02*
X1715Y1108D01*
X1745Y1108D02*
X1754Y1108D01*
X1819Y1108D02*
X1828Y1108D01*
X1856Y1108D02*
X1861Y1108D01*
X1883Y1108D02*
X1892Y1108D01*
X1928Y1108D02*
X1937Y1108D01*
X1967Y1108D02*
X1976Y1108D01*
X2001Y1108D02*
X2011Y1108D01*
X2041Y1108D02*
X2050Y1108D01*
X2112Y1108D02*
X2123Y1108D01*
X2223Y1108D02*
X2232Y1108D01*
X2243Y1108D02*
X2253Y1108D01*
X2264Y1108D02*
X2273Y1108D01*
X2298Y1108D02*
X2312Y1108D01*
X2336Y1108D02*
X2346Y1108D01*
X2372Y1108D02*
X2386Y1108D01*
X2410Y1108D02*
X2420Y1108D01*
X2482Y1108D02*
X2493Y1108D01*
X2519Y1108D02*
X2528Y1108D01*
X2560Y1108D02*
X2568Y1108D01*
X2608Y1108D02*
X2628Y1108D01*
X744Y1107D02*
X753Y1107D01*
X764Y1107D02*
X773Y1107D01*
X833Y1107D02*
X852Y1107D01*
X967Y1107D02*
X973Y1107D01*
X995Y1107D02*
X1005Y1107D01*
X1040Y1107D02*
X1049Y1107D01*
X1079Y1107D02*
X1088Y1107D01*
X1114Y1107D02*
X1132Y1107D01*
X1150Y1107D02*
X1161Y1107D01*
X1207Y1107D02*
X1216Y1107D01*
X1301Y1107D02*
X1310Y1107D01*
X1449Y1107D02*
X1458Y1107D01*
X1523Y1107D02*
X1532Y1107D01*
X1577Y1107D02*
X1586Y1107D01*
X1651Y1107D02*
X1660Y1107D01*
X1706Y1107D02*
X1715Y1107D01*
X1745Y1107D02*
X1754Y1107D01*
X1819Y1107D02*
X1828Y1107D01*
X1855Y1107D02*
X1861Y1107D01*
X1883Y1107D02*
X1892Y1107D01*
X1928Y1107D02*
X1937Y1107D01*
X1967Y1107D02*
X1976Y1107D01*
X2002Y1107D02*
X2011Y1107D01*
X2041Y1107D02*
X2050Y1107D01*
X2111Y1107D02*
X2123Y1107D01*
X2223Y1107D02*
X2232Y1107D01*
X2243Y1107D02*
X2253Y1107D01*
X2264Y1107D02*
X2273Y1107D01*
X2298Y1107D02*
X2313Y1107D01*
X2336Y1107D02*
X2346Y1107D01*
X2372Y1107D02*
X2387Y1107D01*
X2410Y1107D02*
X2420Y1107D01*
X2481Y1107D02*
X2493Y1107D01*
X2519Y1107D02*
X2528Y1107D01*
X2560Y1107D02*
X2568Y1107D01*
X2608Y1107D02*
X2627Y1107D01*
X744Y1106D02*
X753Y1106D01*
X764Y1106D02*
X773Y1106D01*
X833Y1106D02*
X851Y1106D01*
X966Y1106D02*
X974Y1106D01*
X995Y1106D02*
X1005Y1106D01*
X1040Y1106D02*
X1049Y1106D01*
X1079Y1106D02*
X1088Y1106D01*
X1114Y1106D02*
X1133Y1106D01*
X1149Y1106D02*
X1161Y1106D01*
X1207Y1106D02*
X1216Y1106D01*
X1301Y1106D02*
X1310Y1106D01*
X1449Y1106D02*
X1458Y1106D01*
X1522Y1106D02*
X1532Y1106D01*
X1577Y1106D02*
X1586Y1106D01*
X1651Y1106D02*
X1660Y1106D01*
X1706Y1106D02*
X1715Y1106D01*
X1744Y1106D02*
X1754Y1106D01*
X1819Y1106D02*
X1828Y1106D01*
X1854Y1106D02*
X1862Y1106D01*
X1883Y1106D02*
X1892Y1106D01*
X1928Y1106D02*
X1937Y1106D01*
X1967Y1106D02*
X1976Y1106D01*
X2002Y1106D02*
X2011Y1106D01*
X2040Y1106D02*
X2050Y1106D01*
X2110Y1106D02*
X2123Y1106D01*
X2223Y1106D02*
X2232Y1106D01*
X2243Y1106D02*
X2253Y1106D01*
X2264Y1106D02*
X2273Y1106D01*
X2298Y1106D02*
X2315Y1106D01*
X2336Y1106D02*
X2346Y1106D01*
X2372Y1106D02*
X2389Y1106D01*
X2410Y1106D02*
X2420Y1106D01*
X2480Y1106D02*
X2493Y1106D01*
X2519Y1106D02*
X2530Y1106D01*
X2560Y1106D02*
X2568Y1106D01*
X2609Y1106D02*
X2627Y1106D01*
X744Y1105D02*
X753Y1105D01*
X764Y1105D02*
X773Y1105D01*
X833Y1105D02*
X851Y1105D01*
X966Y1105D02*
X975Y1105D01*
X995Y1105D02*
X1005Y1105D01*
X1040Y1105D02*
X1049Y1105D01*
X1079Y1105D02*
X1088Y1105D01*
X1114Y1105D02*
X1135Y1105D01*
X1146Y1105D02*
X1160Y1105D01*
X1207Y1105D02*
X1216Y1105D01*
X1301Y1105D02*
X1310Y1105D01*
X1449Y1105D02*
X1458Y1105D01*
X1521Y1105D02*
X1532Y1105D01*
X1577Y1105D02*
X1586Y1105D01*
X1651Y1105D02*
X1660Y1105D01*
X1706Y1105D02*
X1716Y1105D01*
X1743Y1105D02*
X1754Y1105D01*
X1819Y1105D02*
X1828Y1105D01*
X1854Y1105D02*
X1862Y1105D01*
X1883Y1105D02*
X1892Y1105D01*
X1928Y1105D02*
X1937Y1105D01*
X1967Y1105D02*
X1976Y1105D01*
X2002Y1105D02*
X2012Y1105D01*
X2039Y1105D02*
X2050Y1105D01*
X2109Y1105D02*
X2122Y1105D01*
X2223Y1105D02*
X2232Y1105D01*
X2243Y1105D02*
X2253Y1105D01*
X2264Y1105D02*
X2273Y1105D01*
X2298Y1105D02*
X2317Y1105D01*
X2336Y1105D02*
X2346Y1105D01*
X2372Y1105D02*
X2391Y1105D01*
X2410Y1105D02*
X2420Y1105D01*
X2479Y1105D02*
X2492Y1105D01*
X2519Y1105D02*
X2531Y1105D01*
X2560Y1105D02*
X2568Y1105D01*
X2609Y1105D02*
X2627Y1105D01*
X744Y1104D02*
X753Y1104D01*
X764Y1104D02*
X773Y1104D01*
X834Y1104D02*
X850Y1104D01*
X966Y1104D02*
X975Y1104D01*
X995Y1104D02*
X1004Y1104D01*
X1040Y1104D02*
X1049Y1104D01*
X1079Y1104D02*
X1088Y1104D01*
X1114Y1104D02*
X1159Y1104D01*
X1207Y1104D02*
X1216Y1104D01*
X1301Y1104D02*
X1310Y1104D01*
X1449Y1104D02*
X1458Y1104D01*
X1521Y1104D02*
X1532Y1104D01*
X1577Y1104D02*
X1586Y1104D01*
X1651Y1104D02*
X1660Y1104D01*
X1706Y1104D02*
X1717Y1104D01*
X1743Y1104D02*
X1754Y1104D01*
X1819Y1104D02*
X1828Y1104D01*
X1854Y1104D02*
X1863Y1104D01*
X1883Y1104D02*
X1892Y1104D01*
X1928Y1104D02*
X1937Y1104D01*
X1967Y1104D02*
X1976Y1104D01*
X2002Y1104D02*
X2013Y1104D01*
X2039Y1104D02*
X2050Y1104D01*
X2107Y1104D02*
X2121Y1104D01*
X2223Y1104D02*
X2232Y1104D01*
X2243Y1104D02*
X2253Y1104D01*
X2264Y1104D02*
X2273Y1104D01*
X2298Y1104D02*
X2318Y1104D01*
X2336Y1104D02*
X2345Y1104D01*
X2372Y1104D02*
X2392Y1104D01*
X2410Y1104D02*
X2419Y1104D01*
X2477Y1104D02*
X2491Y1104D01*
X2519Y1104D02*
X2533Y1104D01*
X2559Y1104D02*
X2568Y1104D01*
X2610Y1104D02*
X2626Y1104D01*
X744Y1103D02*
X753Y1103D01*
X764Y1103D02*
X773Y1103D01*
X834Y1103D02*
X850Y1103D01*
X966Y1103D02*
X976Y1103D01*
X995Y1103D02*
X1004Y1103D01*
X1040Y1103D02*
X1049Y1103D01*
X1079Y1103D02*
X1088Y1103D01*
X1114Y1103D02*
X1159Y1103D01*
X1207Y1103D02*
X1216Y1103D01*
X1301Y1103D02*
X1310Y1103D01*
X1449Y1103D02*
X1458Y1103D01*
X1520Y1103D02*
X1531Y1103D01*
X1577Y1103D02*
X1586Y1103D01*
X1651Y1103D02*
X1660Y1103D01*
X1707Y1103D02*
X1718Y1103D01*
X1742Y1103D02*
X1753Y1103D01*
X1819Y1103D02*
X1828Y1103D01*
X1854Y1103D02*
X1863Y1103D01*
X1883Y1103D02*
X1892Y1103D01*
X1928Y1103D02*
X1937Y1103D01*
X1967Y1103D02*
X1976Y1103D01*
X2003Y1103D02*
X2014Y1103D01*
X2038Y1103D02*
X2049Y1103D01*
X2106Y1103D02*
X2121Y1103D01*
X2223Y1103D02*
X2232Y1103D01*
X2243Y1103D02*
X2253Y1103D01*
X2264Y1103D02*
X2273Y1103D01*
X2298Y1103D02*
X2320Y1103D01*
X2336Y1103D02*
X2345Y1103D01*
X2372Y1103D02*
X2394Y1103D01*
X2410Y1103D02*
X2419Y1103D01*
X2476Y1103D02*
X2490Y1103D01*
X2519Y1103D02*
X2534Y1103D01*
X2559Y1103D02*
X2568Y1103D01*
X2610Y1103D02*
X2626Y1103D01*
X744Y1102D02*
X753Y1102D01*
X764Y1102D02*
X773Y1102D01*
X835Y1102D02*
X850Y1102D01*
X966Y1102D02*
X976Y1102D01*
X994Y1102D02*
X1004Y1102D01*
X1040Y1102D02*
X1049Y1102D01*
X1079Y1102D02*
X1088Y1102D01*
X1114Y1102D02*
X1158Y1102D01*
X1207Y1102D02*
X1216Y1102D01*
X1301Y1102D02*
X1310Y1102D01*
X1449Y1102D02*
X1458Y1102D01*
X1518Y1102D02*
X1531Y1102D01*
X1577Y1102D02*
X1586Y1102D01*
X1651Y1102D02*
X1660Y1102D01*
X1707Y1102D02*
X1720Y1102D01*
X1740Y1102D02*
X1753Y1102D01*
X1819Y1102D02*
X1828Y1102D01*
X1854Y1102D02*
X1864Y1102D01*
X1882Y1102D02*
X1892Y1102D01*
X1928Y1102D02*
X1937Y1102D01*
X1967Y1102D02*
X1976Y1102D01*
X2003Y1102D02*
X2016Y1102D01*
X2036Y1102D02*
X2049Y1102D01*
X2105Y1102D02*
X2120Y1102D01*
X2223Y1102D02*
X2232Y1102D01*
X2243Y1102D02*
X2253Y1102D01*
X2264Y1102D02*
X2273Y1102D01*
X2298Y1102D02*
X2321Y1102D01*
X2335Y1102D02*
X2345Y1102D01*
X2372Y1102D02*
X2395Y1102D01*
X2409Y1102D02*
X2419Y1102D01*
X2475Y1102D02*
X2490Y1102D01*
X2519Y1102D02*
X2536Y1102D01*
X2559Y1102D02*
X2568Y1102D01*
X2610Y1102D02*
X2625Y1102D01*
X744Y1101D02*
X753Y1101D01*
X764Y1101D02*
X773Y1101D01*
X835Y1101D02*
X849Y1101D01*
X966Y1101D02*
X978Y1101D01*
X993Y1101D02*
X1004Y1101D01*
X1040Y1101D02*
X1049Y1101D01*
X1079Y1101D02*
X1088Y1101D01*
X1114Y1101D02*
X1156Y1101D01*
X1207Y1101D02*
X1216Y1101D01*
X1301Y1101D02*
X1310Y1101D01*
X1449Y1101D02*
X1458Y1101D01*
X1516Y1101D02*
X1530Y1101D01*
X1577Y1101D02*
X1587Y1101D01*
X1651Y1101D02*
X1661Y1101D01*
X1708Y1101D02*
X1721Y1101D01*
X1738Y1101D02*
X1752Y1101D01*
X1819Y1101D02*
X1828Y1101D01*
X1854Y1101D02*
X1866Y1101D01*
X1880Y1101D02*
X1892Y1101D01*
X1928Y1101D02*
X1937Y1101D01*
X1967Y1101D02*
X1976Y1101D01*
X2004Y1101D02*
X2017Y1101D01*
X2034Y1101D02*
X2048Y1101D01*
X2104Y1101D02*
X2119Y1101D01*
X2223Y1101D02*
X2232Y1101D01*
X2243Y1101D02*
X2253Y1101D01*
X2264Y1101D02*
X2273Y1101D01*
X2298Y1101D02*
X2323Y1101D01*
X2333Y1101D02*
X2345Y1101D01*
X2372Y1101D02*
X2397Y1101D01*
X2407Y1101D02*
X2419Y1101D01*
X2474Y1101D02*
X2488Y1101D01*
X2519Y1101D02*
X2538Y1101D01*
X2558Y1101D02*
X2567Y1101D01*
X2611Y1101D02*
X2625Y1101D01*
X744Y1100D02*
X790Y1100D01*
X835Y1100D02*
X849Y1100D01*
X967Y1100D02*
X1003Y1100D01*
X1040Y1100D02*
X1049Y1100D01*
X1079Y1100D02*
X1088Y1100D01*
X1114Y1100D02*
X1123Y1100D01*
X1125Y1100D02*
X1155Y1100D01*
X1196Y1100D02*
X1228Y1100D01*
X1265Y1100D02*
X1310Y1100D01*
X1449Y1100D02*
X1458Y1100D01*
X1486Y1100D02*
X1530Y1100D01*
X1565Y1100D02*
X1598Y1100D01*
X1639Y1100D02*
X1672Y1100D01*
X1708Y1100D02*
X1752Y1100D01*
X1819Y1100D02*
X1828Y1100D01*
X1855Y1100D02*
X1891Y1100D01*
X1928Y1100D02*
X1937Y1100D01*
X1967Y1100D02*
X1976Y1100D01*
X2004Y1100D02*
X2048Y1100D01*
X2078Y1100D02*
X2117Y1100D01*
X2223Y1100D02*
X2232Y1100D01*
X2243Y1100D02*
X2253Y1100D01*
X2264Y1100D02*
X2273Y1100D01*
X2298Y1100D02*
X2345Y1100D01*
X2372Y1100D02*
X2419Y1100D01*
X2448Y1100D02*
X2487Y1100D01*
X2519Y1100D02*
X2539Y1100D01*
X2555Y1100D02*
X2567Y1100D01*
X2611Y1100D02*
X2625Y1100D01*
X744Y1099D02*
X791Y1099D01*
X836Y1099D02*
X848Y1099D01*
X967Y1099D02*
X1003Y1099D01*
X1040Y1099D02*
X1049Y1099D01*
X1079Y1099D02*
X1088Y1099D01*
X1114Y1099D02*
X1123Y1099D01*
X1126Y1099D02*
X1154Y1099D01*
X1194Y1099D02*
X1230Y1099D01*
X1263Y1099D02*
X1310Y1099D01*
X1449Y1099D02*
X1458Y1099D01*
X1485Y1099D02*
X1529Y1099D01*
X1564Y1099D02*
X1600Y1099D01*
X1638Y1099D02*
X1674Y1099D01*
X1709Y1099D02*
X1751Y1099D01*
X1819Y1099D02*
X1828Y1099D01*
X1855Y1099D02*
X1891Y1099D01*
X1928Y1099D02*
X1937Y1099D01*
X1967Y1099D02*
X1976Y1099D01*
X2005Y1099D02*
X2047Y1099D01*
X2077Y1099D02*
X2116Y1099D01*
X2223Y1099D02*
X2232Y1099D01*
X2243Y1099D02*
X2253Y1099D01*
X2264Y1099D02*
X2273Y1099D01*
X2298Y1099D02*
X2344Y1099D01*
X2372Y1099D02*
X2418Y1099D01*
X2447Y1099D02*
X2486Y1099D01*
X2519Y1099D02*
X2567Y1099D01*
X2612Y1099D02*
X2624Y1099D01*
X744Y1098D02*
X792Y1098D01*
X836Y1098D02*
X848Y1098D01*
X968Y1098D02*
X1002Y1098D01*
X1040Y1098D02*
X1049Y1098D01*
X1079Y1098D02*
X1088Y1098D01*
X1114Y1098D02*
X1123Y1098D01*
X1128Y1098D02*
X1153Y1098D01*
X1193Y1098D02*
X1231Y1098D01*
X1262Y1098D02*
X1310Y1098D01*
X1449Y1098D02*
X1458Y1098D01*
X1484Y1098D02*
X1528Y1098D01*
X1563Y1098D02*
X1601Y1098D01*
X1637Y1098D02*
X1675Y1098D01*
X1710Y1098D02*
X1750Y1098D01*
X1819Y1098D02*
X1828Y1098D01*
X1856Y1098D02*
X1890Y1098D01*
X1928Y1098D02*
X1937Y1098D01*
X1967Y1098D02*
X1976Y1098D01*
X2006Y1098D02*
X2046Y1098D01*
X2076Y1098D02*
X2115Y1098D01*
X2223Y1098D02*
X2232Y1098D01*
X2243Y1098D02*
X2253Y1098D01*
X2264Y1098D02*
X2273Y1098D01*
X2298Y1098D02*
X2307Y1098D01*
X2310Y1098D02*
X2344Y1098D01*
X2372Y1098D02*
X2381Y1098D01*
X2384Y1098D02*
X2418Y1098D01*
X2446Y1098D02*
X2485Y1098D01*
X2519Y1098D02*
X2566Y1098D01*
X2612Y1098D02*
X2624Y1098D01*
X744Y1097D02*
X792Y1097D01*
X837Y1097D02*
X848Y1097D01*
X968Y1097D02*
X1002Y1097D01*
X1040Y1097D02*
X1049Y1097D01*
X1079Y1097D02*
X1088Y1097D01*
X1114Y1097D02*
X1123Y1097D01*
X1129Y1097D02*
X1152Y1097D01*
X1193Y1097D02*
X1231Y1097D01*
X1262Y1097D02*
X1310Y1097D01*
X1449Y1097D02*
X1458Y1097D01*
X1484Y1097D02*
X1527Y1097D01*
X1563Y1097D02*
X1601Y1097D01*
X1637Y1097D02*
X1675Y1097D01*
X1711Y1097D02*
X1749Y1097D01*
X1819Y1097D02*
X1828Y1097D01*
X1856Y1097D02*
X1890Y1097D01*
X1928Y1097D02*
X1937Y1097D01*
X1967Y1097D02*
X1976Y1097D01*
X2007Y1097D02*
X2045Y1097D01*
X2076Y1097D02*
X2114Y1097D01*
X2223Y1097D02*
X2232Y1097D01*
X2243Y1097D02*
X2253Y1097D01*
X2264Y1097D02*
X2273Y1097D01*
X2298Y1097D02*
X2307Y1097D01*
X2311Y1097D02*
X2343Y1097D01*
X2372Y1097D02*
X2381Y1097D01*
X2385Y1097D02*
X2417Y1097D01*
X2446Y1097D02*
X2484Y1097D01*
X2519Y1097D02*
X2566Y1097D01*
X2612Y1097D02*
X2623Y1097D01*
X744Y1096D02*
X792Y1096D01*
X837Y1096D02*
X847Y1096D01*
X969Y1096D02*
X1001Y1096D01*
X1040Y1096D02*
X1049Y1096D01*
X1079Y1096D02*
X1088Y1096D01*
X1114Y1096D02*
X1123Y1096D01*
X1131Y1096D02*
X1150Y1096D01*
X1193Y1096D02*
X1231Y1096D01*
X1262Y1096D02*
X1310Y1096D01*
X1449Y1096D02*
X1458Y1096D01*
X1484Y1096D02*
X1526Y1096D01*
X1563Y1096D02*
X1601Y1096D01*
X1637Y1096D02*
X1675Y1096D01*
X1712Y1096D02*
X1748Y1096D01*
X1819Y1096D02*
X1828Y1096D01*
X1857Y1096D02*
X1889Y1096D01*
X1928Y1096D02*
X1937Y1096D01*
X1967Y1096D02*
X1976Y1096D01*
X2008Y1096D02*
X2044Y1096D01*
X2076Y1096D02*
X2113Y1096D01*
X2223Y1096D02*
X2232Y1096D01*
X2243Y1096D02*
X2253Y1096D01*
X2264Y1096D02*
X2273Y1096D01*
X2298Y1096D02*
X2307Y1096D01*
X2313Y1096D02*
X2342Y1096D01*
X2372Y1096D02*
X2381Y1096D01*
X2387Y1096D02*
X2416Y1096D01*
X2445Y1096D02*
X2483Y1096D01*
X2519Y1096D02*
X2565Y1096D01*
X2613Y1096D02*
X2623Y1096D01*
X744Y1095D02*
X792Y1095D01*
X837Y1095D02*
X847Y1095D01*
X970Y1095D02*
X1000Y1095D01*
X1040Y1095D02*
X1049Y1095D01*
X1079Y1095D02*
X1088Y1095D01*
X1114Y1095D02*
X1123Y1095D01*
X1134Y1095D02*
X1147Y1095D01*
X1193Y1095D02*
X1231Y1095D01*
X1262Y1095D02*
X1310Y1095D01*
X1449Y1095D02*
X1458Y1095D01*
X1484Y1095D02*
X1525Y1095D01*
X1563Y1095D02*
X1601Y1095D01*
X1637Y1095D02*
X1675Y1095D01*
X1713Y1095D02*
X1746Y1095D01*
X1819Y1095D02*
X1828Y1095D01*
X1858Y1095D02*
X1888Y1095D01*
X1928Y1095D02*
X1937Y1095D01*
X1967Y1095D02*
X1976Y1095D01*
X2009Y1095D02*
X2042Y1095D01*
X2076Y1095D02*
X2112Y1095D01*
X2223Y1095D02*
X2232Y1095D01*
X2244Y1095D02*
X2252Y1095D01*
X2264Y1095D02*
X2273Y1095D01*
X2298Y1095D02*
X2307Y1095D01*
X2314Y1095D02*
X2342Y1095D01*
X2372Y1095D02*
X2381Y1095D01*
X2388Y1095D02*
X2416Y1095D01*
X2445Y1095D02*
X2482Y1095D01*
X2519Y1095D02*
X2528Y1095D01*
X2530Y1095D02*
X2564Y1095D01*
X2613Y1095D02*
X2623Y1095D01*
X744Y1094D02*
X792Y1094D01*
X838Y1094D02*
X847Y1094D01*
X971Y1094D02*
X999Y1094D01*
X1040Y1094D02*
X1048Y1094D01*
X1080Y1094D02*
X1088Y1094D01*
X1114Y1094D02*
X1123Y1094D01*
X1193Y1094D02*
X1231Y1094D01*
X1262Y1094D02*
X1310Y1094D01*
X1450Y1094D02*
X1458Y1094D01*
X1484Y1094D02*
X1523Y1094D01*
X1563Y1094D02*
X1601Y1094D01*
X1637Y1094D02*
X1675Y1094D01*
X1715Y1094D02*
X1745Y1094D01*
X1820Y1094D02*
X1828Y1094D01*
X1859Y1094D02*
X1887Y1094D01*
X1929Y1094D02*
X1937Y1094D01*
X1967Y1094D02*
X1975Y1094D01*
X2011Y1094D02*
X2041Y1094D01*
X2076Y1094D02*
X2110Y1094D01*
X2223Y1094D02*
X2231Y1094D01*
X2244Y1094D02*
X2252Y1094D01*
X2264Y1094D02*
X2273Y1094D01*
X2298Y1094D02*
X2307Y1094D01*
X2316Y1094D02*
X2340Y1094D01*
X2372Y1094D02*
X2381Y1094D01*
X2390Y1094D02*
X2414Y1094D01*
X2446Y1094D02*
X2480Y1094D01*
X2520Y1094D02*
X2528Y1094D01*
X2532Y1094D02*
X2563Y1094D01*
X2614Y1094D02*
X2622Y1094D01*
X744Y1093D02*
X792Y1093D01*
X838Y1093D02*
X846Y1093D01*
X973Y1093D02*
X998Y1093D01*
X1040Y1093D02*
X1048Y1093D01*
X1080Y1093D02*
X1088Y1093D01*
X1114Y1093D02*
X1123Y1093D01*
X1193Y1093D02*
X1231Y1093D01*
X1262Y1093D02*
X1310Y1093D01*
X1450Y1093D02*
X1458Y1093D01*
X1484Y1093D02*
X1522Y1093D01*
X1563Y1093D02*
X1601Y1093D01*
X1637Y1093D02*
X1675Y1093D01*
X1716Y1093D02*
X1744Y1093D01*
X1820Y1093D02*
X1828Y1093D01*
X1860Y1093D02*
X1886Y1093D01*
X1929Y1093D02*
X1937Y1093D01*
X1967Y1093D02*
X1975Y1093D01*
X2012Y1093D02*
X2040Y1093D01*
X2076Y1093D02*
X2109Y1093D01*
X2223Y1093D02*
X2231Y1093D01*
X2244Y1093D02*
X2252Y1093D01*
X2265Y1093D02*
X2272Y1093D01*
X2299Y1093D02*
X2307Y1093D01*
X2318Y1093D02*
X2339Y1093D01*
X2373Y1093D02*
X2381Y1093D01*
X2392Y1093D02*
X2413Y1093D01*
X2446Y1093D02*
X2479Y1093D01*
X2520Y1093D02*
X2528Y1093D01*
X2533Y1093D02*
X2562Y1093D01*
X2614Y1093D02*
X2622Y1093D01*
X745Y1092D02*
X791Y1092D01*
X839Y1092D02*
X845Y1092D01*
X974Y1092D02*
X996Y1092D01*
X1041Y1092D02*
X1047Y1092D01*
X1081Y1092D02*
X1087Y1092D01*
X1114Y1092D02*
X1123Y1092D01*
X1194Y1092D02*
X1230Y1092D01*
X1263Y1092D02*
X1310Y1092D01*
X1451Y1092D02*
X1457Y1092D01*
X1485Y1092D02*
X1520Y1092D01*
X1564Y1092D02*
X1600Y1092D01*
X1638Y1092D02*
X1674Y1092D01*
X1718Y1092D02*
X1742Y1092D01*
X1821Y1092D02*
X1827Y1092D01*
X1862Y1092D02*
X1884Y1092D01*
X1930Y1092D02*
X1936Y1092D01*
X1968Y1092D02*
X1974Y1092D01*
X2014Y1092D02*
X2038Y1092D01*
X2077Y1092D02*
X2107Y1092D01*
X2224Y1092D02*
X2230Y1092D01*
X2245Y1092D02*
X2251Y1092D01*
X2266Y1092D02*
X2272Y1092D01*
X2300Y1092D02*
X2306Y1092D01*
X2319Y1092D02*
X2337Y1092D01*
X2374Y1092D02*
X2380Y1092D01*
X2393Y1092D02*
X2411Y1092D01*
X2447Y1092D02*
X2477Y1092D01*
X2521Y1092D02*
X2527Y1092D01*
X2535Y1092D02*
X2560Y1092D01*
X2615Y1092D02*
X2621Y1092D01*
X747Y1091D02*
X790Y1091D01*
X840Y1091D02*
X844Y1091D01*
X977Y1091D02*
X993Y1091D01*
X1042Y1091D02*
X1046Y1091D01*
X1082Y1091D02*
X1086Y1091D01*
X1114Y1091D02*
X1123Y1091D01*
X1195Y1091D02*
X1229Y1091D01*
X1264Y1091D02*
X1310Y1091D01*
X1452Y1091D02*
X1456Y1091D01*
X1486Y1091D02*
X1518Y1091D01*
X1565Y1091D02*
X1598Y1091D01*
X1639Y1091D02*
X1672Y1091D01*
X1720Y1091D02*
X1740Y1091D01*
X1822Y1091D02*
X1826Y1091D01*
X1865Y1091D02*
X1881Y1091D01*
X1931Y1091D02*
X1934Y1091D01*
X1969Y1091D02*
X1973Y1091D01*
X2016Y1091D02*
X2035Y1091D01*
X2078Y1091D02*
X2105Y1091D01*
X2225Y1091D02*
X2229Y1091D01*
X2246Y1091D02*
X2250Y1091D01*
X2267Y1091D02*
X2270Y1091D01*
X2301Y1091D02*
X2305Y1091D01*
X2322Y1091D02*
X2335Y1091D01*
X2375Y1091D02*
X2379Y1091D01*
X2396Y1091D02*
X2408Y1091D01*
X2448Y1091D02*
X2475Y1091D01*
X2522Y1091D02*
X2526Y1091D01*
X2537Y1091D02*
X2557Y1091D01*
X2616Y1091D02*
X2620Y1091D01*
X1114Y1090D02*
X1123Y1090D01*
X1114Y1089D02*
X1123Y1089D01*
X1114Y1088D02*
X1123Y1088D01*
X1114Y1087D02*
X1123Y1087D01*
X1114Y1086D02*
X1123Y1086D01*
X1114Y1085D02*
X1123Y1085D01*
X1114Y1084D02*
X1124Y1084D01*
X1114Y1083D02*
X1125Y1083D01*
X1114Y1082D02*
X1126Y1082D01*
X1115Y1081D02*
X1127Y1081D01*
X1115Y1080D02*
X1129Y1080D01*
X1116Y1079D02*
X1154Y1079D01*
X1117Y1078D02*
X1156Y1078D01*
X1118Y1077D02*
X1157Y1077D01*
X1119Y1076D02*
X1157Y1076D01*
X1120Y1075D02*
X1157Y1075D01*
X1121Y1074D02*
X1157Y1074D01*
X1122Y1073D02*
X1157Y1073D01*
X1124Y1072D02*
X1157Y1072D01*
X1125Y1071D02*
X1156Y1071D01*
X1128Y1070D02*
X1155Y1070D01*
X1357Y1038D02*
X1365Y1038D01*
X1861Y1038D02*
X1869Y1038D01*
X2005Y1038D02*
X2013Y1038D01*
X2293Y1038D02*
X2301Y1038D01*
X1355Y1037D02*
X1367Y1037D01*
X1859Y1037D02*
X1870Y1037D01*
X2003Y1037D02*
X2014Y1037D01*
X2291Y1037D02*
X2302Y1037D01*
X1355Y1036D02*
X1367Y1036D01*
X1858Y1036D02*
X1871Y1036D01*
X2002Y1036D02*
X2015Y1036D01*
X2290Y1036D02*
X2303Y1036D01*
X1354Y1035D02*
X1368Y1035D01*
X1858Y1035D02*
X1872Y1035D01*
X2002Y1035D02*
X2016Y1035D01*
X2290Y1035D02*
X2304Y1035D01*
X1124Y1034D02*
X1141Y1034D01*
X1285Y1034D02*
X1303Y1034D01*
X1354Y1034D02*
X1368Y1034D01*
X1737Y1034D02*
X1740Y1034D01*
X1780Y1034D02*
X1801Y1034D01*
X1858Y1034D02*
X1872Y1034D01*
X2002Y1034D02*
X2016Y1034D01*
X2169Y1034D02*
X2172Y1034D01*
X2290Y1034D02*
X2304Y1034D01*
X1122Y1033D02*
X1144Y1033D01*
X1284Y1033D02*
X1304Y1033D01*
X1354Y1033D02*
X1368Y1033D01*
X1735Y1033D02*
X1741Y1033D01*
X1777Y1033D02*
X1804Y1033D01*
X1858Y1033D02*
X1872Y1033D01*
X2002Y1033D02*
X2016Y1033D01*
X2167Y1033D02*
X2173Y1033D01*
X2290Y1033D02*
X2304Y1033D01*
X1121Y1032D02*
X1146Y1032D01*
X1283Y1032D02*
X1305Y1032D01*
X1354Y1032D02*
X1368Y1032D01*
X1735Y1032D02*
X1742Y1032D01*
X1775Y1032D02*
X1806Y1032D01*
X1858Y1032D02*
X1872Y1032D01*
X2002Y1032D02*
X2016Y1032D01*
X2166Y1032D02*
X2174Y1032D01*
X2290Y1032D02*
X2304Y1032D01*
X1121Y1031D02*
X1147Y1031D01*
X1282Y1031D02*
X1306Y1031D01*
X1354Y1031D02*
X1368Y1031D01*
X1734Y1031D02*
X1742Y1031D01*
X1773Y1031D02*
X1807Y1031D01*
X1858Y1031D02*
X1872Y1031D01*
X2002Y1031D02*
X2016Y1031D01*
X2166Y1031D02*
X2174Y1031D01*
X2290Y1031D02*
X2304Y1031D01*
X1121Y1030D02*
X1148Y1030D01*
X1282Y1030D02*
X1306Y1030D01*
X1354Y1030D02*
X1368Y1030D01*
X1584Y1030D02*
X1585Y1030D01*
X1734Y1030D02*
X1743Y1030D01*
X1772Y1030D02*
X1809Y1030D01*
X1858Y1030D02*
X1872Y1030D01*
X1944Y1030D02*
X1945Y1030D01*
X2002Y1030D02*
X2016Y1030D01*
X2088Y1030D02*
X2089Y1030D01*
X2166Y1030D02*
X2175Y1030D01*
X2290Y1030D02*
X2304Y1030D01*
X1121Y1029D02*
X1149Y1029D01*
X1282Y1029D02*
X1306Y1029D01*
X1354Y1029D02*
X1368Y1029D01*
X1582Y1029D02*
X1587Y1029D01*
X1734Y1029D02*
X1743Y1029D01*
X1771Y1029D02*
X1810Y1029D01*
X1858Y1029D02*
X1872Y1029D01*
X1942Y1029D02*
X1947Y1029D01*
X2002Y1029D02*
X2016Y1029D01*
X2086Y1029D02*
X2091Y1029D01*
X2166Y1029D02*
X2175Y1029D01*
X2290Y1029D02*
X2304Y1029D01*
X1121Y1028D02*
X1150Y1028D01*
X1282Y1028D02*
X1306Y1028D01*
X1354Y1028D02*
X1368Y1028D01*
X1581Y1028D02*
X1588Y1028D01*
X1734Y1028D02*
X1743Y1028D01*
X1770Y1028D02*
X1811Y1028D01*
X1858Y1028D02*
X1872Y1028D01*
X1941Y1028D02*
X1948Y1028D01*
X2002Y1028D02*
X2016Y1028D01*
X2085Y1028D02*
X2092Y1028D01*
X2166Y1028D02*
X2175Y1028D01*
X2290Y1028D02*
X2304Y1028D01*
X1121Y1027D02*
X1151Y1027D01*
X1282Y1027D02*
X1305Y1027D01*
X1355Y1027D02*
X1367Y1027D01*
X1580Y1027D02*
X1588Y1027D01*
X1734Y1027D02*
X1743Y1027D01*
X1769Y1027D02*
X1812Y1027D01*
X1859Y1027D02*
X1871Y1027D01*
X1940Y1027D02*
X1948Y1027D01*
X2002Y1027D02*
X2015Y1027D01*
X2084Y1027D02*
X2092Y1027D01*
X2166Y1027D02*
X2175Y1027D01*
X2290Y1027D02*
X2303Y1027D01*
X1122Y1026D02*
X1152Y1026D01*
X1282Y1026D02*
X1304Y1026D01*
X1355Y1026D02*
X1367Y1026D01*
X1580Y1026D02*
X1589Y1026D01*
X1734Y1026D02*
X1743Y1026D01*
X1769Y1026D02*
X1812Y1026D01*
X1859Y1026D02*
X1871Y1026D01*
X1940Y1026D02*
X1949Y1026D01*
X2003Y1026D02*
X2014Y1026D01*
X2084Y1026D02*
X2093Y1026D01*
X2166Y1026D02*
X2175Y1026D01*
X2291Y1026D02*
X2302Y1026D01*
X1123Y1025D02*
X1152Y1025D01*
X1282Y1025D02*
X1303Y1025D01*
X1357Y1025D02*
X1365Y1025D01*
X1580Y1025D02*
X1589Y1025D01*
X1734Y1025D02*
X1743Y1025D01*
X1768Y1025D02*
X1813Y1025D01*
X1860Y1025D02*
X1869Y1025D01*
X1940Y1025D02*
X1949Y1025D01*
X2004Y1025D02*
X2013Y1025D01*
X2084Y1025D02*
X2093Y1025D01*
X2166Y1025D02*
X2175Y1025D01*
X2292Y1025D02*
X2301Y1025D01*
X1140Y1024D02*
X1153Y1024D01*
X1282Y1024D02*
X1291Y1024D01*
X1580Y1024D02*
X1589Y1024D01*
X1734Y1024D02*
X1743Y1024D01*
X1768Y1024D02*
X1781Y1024D01*
X1800Y1024D02*
X1814Y1024D01*
X1940Y1024D02*
X1949Y1024D01*
X2084Y1024D02*
X2093Y1024D01*
X2166Y1024D02*
X2175Y1024D01*
X1142Y1023D02*
X1153Y1023D01*
X1282Y1023D02*
X1291Y1023D01*
X1580Y1023D02*
X1589Y1023D01*
X1734Y1023D02*
X1743Y1023D01*
X1767Y1023D02*
X1779Y1023D01*
X1802Y1023D02*
X1814Y1023D01*
X1940Y1023D02*
X1949Y1023D01*
X2084Y1023D02*
X2093Y1023D01*
X2166Y1023D02*
X2175Y1023D01*
X1143Y1022D02*
X1154Y1022D01*
X1282Y1022D02*
X1291Y1022D01*
X1580Y1022D02*
X1589Y1022D01*
X1734Y1022D02*
X1743Y1022D01*
X1767Y1022D02*
X1777Y1022D01*
X1803Y1022D02*
X1815Y1022D01*
X1940Y1022D02*
X1949Y1022D01*
X2084Y1022D02*
X2093Y1022D01*
X2166Y1022D02*
X2175Y1022D01*
X1144Y1021D02*
X1154Y1021D01*
X1282Y1021D02*
X1291Y1021D01*
X1580Y1021D02*
X1589Y1021D01*
X1734Y1021D02*
X1743Y1021D01*
X1767Y1021D02*
X1776Y1021D01*
X1804Y1021D02*
X1815Y1021D01*
X1940Y1021D02*
X1949Y1021D01*
X2084Y1021D02*
X2093Y1021D01*
X2166Y1021D02*
X2175Y1021D01*
X1145Y1020D02*
X1154Y1020D01*
X1282Y1020D02*
X1291Y1020D01*
X1580Y1020D02*
X1589Y1020D01*
X1734Y1020D02*
X1743Y1020D01*
X1766Y1020D02*
X1776Y1020D01*
X1805Y1020D02*
X1815Y1020D01*
X1940Y1020D02*
X1949Y1020D01*
X2084Y1020D02*
X2093Y1020D01*
X2166Y1020D02*
X2175Y1020D01*
X1145Y1019D02*
X1154Y1019D01*
X1282Y1019D02*
X1291Y1019D01*
X1580Y1019D02*
X1589Y1019D01*
X1734Y1019D02*
X1743Y1019D01*
X1766Y1019D02*
X1775Y1019D01*
X1806Y1019D02*
X1814Y1019D01*
X1940Y1019D02*
X1949Y1019D01*
X2084Y1019D02*
X2093Y1019D01*
X2166Y1019D02*
X2175Y1019D01*
X1145Y1018D02*
X1154Y1018D01*
X1282Y1018D02*
X1291Y1018D01*
X1580Y1018D02*
X1589Y1018D01*
X1734Y1018D02*
X1743Y1018D01*
X1766Y1018D02*
X1775Y1018D01*
X1807Y1018D02*
X1814Y1018D01*
X1940Y1018D02*
X1949Y1018D01*
X2084Y1018D02*
X2093Y1018D01*
X2166Y1018D02*
X2175Y1018D01*
X1145Y1017D02*
X1154Y1017D01*
X1282Y1017D02*
X1291Y1017D01*
X1580Y1017D02*
X1589Y1017D01*
X1734Y1017D02*
X1743Y1017D01*
X1766Y1017D02*
X1775Y1017D01*
X1807Y1017D02*
X1813Y1017D01*
X1940Y1017D02*
X1949Y1017D01*
X2084Y1017D02*
X2093Y1017D01*
X2166Y1017D02*
X2175Y1017D01*
X1145Y1016D02*
X1155Y1016D01*
X1282Y1016D02*
X1291Y1016D01*
X1580Y1016D02*
X1589Y1016D01*
X1734Y1016D02*
X1743Y1016D01*
X1766Y1016D02*
X1775Y1016D01*
X1809Y1016D02*
X1811Y1016D01*
X1940Y1016D02*
X1949Y1016D01*
X2084Y1016D02*
X2093Y1016D01*
X2166Y1016D02*
X2175Y1016D01*
X1145Y1015D02*
X1155Y1015D01*
X1282Y1015D02*
X1291Y1015D01*
X1580Y1015D02*
X1589Y1015D01*
X1734Y1015D02*
X1743Y1015D01*
X1766Y1015D02*
X1775Y1015D01*
X1940Y1015D02*
X1949Y1015D01*
X2084Y1015D02*
X2093Y1015D01*
X2166Y1015D02*
X2175Y1015D01*
X1145Y1014D02*
X1155Y1014D01*
X1282Y1014D02*
X1291Y1014D01*
X1580Y1014D02*
X1589Y1014D01*
X1734Y1014D02*
X1743Y1014D01*
X1766Y1014D02*
X1775Y1014D01*
X1940Y1014D02*
X1949Y1014D01*
X2084Y1014D02*
X2093Y1014D01*
X2166Y1014D02*
X2175Y1014D01*
X1059Y1013D02*
X1071Y1013D01*
X1090Y1013D02*
X1091Y1013D01*
X1134Y1013D02*
X1161Y1013D01*
X1282Y1013D02*
X1291Y1013D01*
X1358Y1013D02*
X1374Y1013D01*
X1420Y1013D02*
X1441Y1013D01*
X1508Y1013D02*
X1511Y1013D01*
X1522Y1013D02*
X1524Y1013D01*
X1559Y1013D02*
X1595Y1013D01*
X1638Y1013D02*
X1655Y1013D01*
X1708Y1013D02*
X1717Y1013D01*
X1734Y1013D02*
X1743Y1013D01*
X1766Y1013D02*
X1775Y1013D01*
X1862Y1013D02*
X1878Y1013D01*
X1919Y1013D02*
X1955Y1013D01*
X2006Y1013D02*
X2022Y1013D01*
X2063Y1013D02*
X2099Y1013D01*
X2135Y1013D02*
X2136Y1013D01*
X2166Y1013D02*
X2175Y1013D01*
X2212Y1013D02*
X2221Y1013D01*
X2242Y1013D02*
X2243Y1013D01*
X2294Y1013D02*
X2310Y1013D01*
X2346Y1013D02*
X2384Y1013D01*
X1055Y1012D02*
X1073Y1012D01*
X1088Y1012D02*
X1093Y1012D01*
X1132Y1012D02*
X1163Y1012D01*
X1282Y1012D02*
X1291Y1012D01*
X1356Y1012D02*
X1376Y1012D01*
X1416Y1012D02*
X1443Y1012D01*
X1486Y1012D02*
X1494Y1012D01*
X1505Y1012D02*
X1514Y1012D01*
X1520Y1012D02*
X1526Y1012D01*
X1557Y1012D02*
X1597Y1012D01*
X1635Y1012D02*
X1658Y1012D01*
X1704Y1012D02*
X1721Y1012D01*
X1734Y1012D02*
X1743Y1012D01*
X1766Y1012D02*
X1775Y1012D01*
X1860Y1012D02*
X1880Y1012D01*
X1917Y1012D02*
X1957Y1012D01*
X2004Y1012D02*
X2024Y1012D01*
X2061Y1012D02*
X2101Y1012D01*
X2133Y1012D02*
X2138Y1012D01*
X2166Y1012D02*
X2175Y1012D01*
X2208Y1012D02*
X2225Y1012D01*
X2239Y1012D02*
X2245Y1012D01*
X2292Y1012D02*
X2312Y1012D01*
X2344Y1012D02*
X2386Y1012D01*
X1053Y1011D02*
X1074Y1011D01*
X1087Y1011D02*
X1094Y1011D01*
X1132Y1011D02*
X1163Y1011D01*
X1282Y1011D02*
X1291Y1011D01*
X1355Y1011D02*
X1377Y1011D01*
X1414Y1011D02*
X1444Y1011D01*
X1484Y1011D02*
X1496Y1011D01*
X1503Y1011D02*
X1516Y1011D01*
X1519Y1011D02*
X1527Y1011D01*
X1556Y1011D02*
X1598Y1011D01*
X1633Y1011D02*
X1660Y1011D01*
X1702Y1011D02*
X1723Y1011D01*
X1734Y1011D02*
X1743Y1011D01*
X1766Y1011D02*
X1775Y1011D01*
X1859Y1011D02*
X1881Y1011D01*
X1916Y1011D02*
X1958Y1011D01*
X2003Y1011D02*
X2025Y1011D01*
X2060Y1011D02*
X2102Y1011D01*
X2132Y1011D02*
X2139Y1011D01*
X2166Y1011D02*
X2175Y1011D01*
X2206Y1011D02*
X2227Y1011D01*
X2239Y1011D02*
X2246Y1011D01*
X2291Y1011D02*
X2313Y1011D01*
X2343Y1011D02*
X2387Y1011D01*
X1052Y1010D02*
X1076Y1010D01*
X1086Y1010D02*
X1094Y1010D01*
X1131Y1010D02*
X1164Y1010D01*
X1282Y1010D02*
X1291Y1010D01*
X1354Y1010D02*
X1377Y1010D01*
X1413Y1010D02*
X1444Y1010D01*
X1483Y1010D02*
X1498Y1010D01*
X1502Y1010D02*
X1517Y1010D01*
X1519Y1010D02*
X1527Y1010D01*
X1555Y1010D02*
X1598Y1010D01*
X1631Y1010D02*
X1661Y1010D01*
X1701Y1010D02*
X1724Y1010D01*
X1734Y1010D02*
X1743Y1010D01*
X1766Y1010D02*
X1775Y1010D01*
X1858Y1010D02*
X1881Y1010D01*
X1915Y1010D02*
X1958Y1010D01*
X2002Y1010D02*
X2025Y1010D01*
X2059Y1010D02*
X2102Y1010D01*
X2131Y1010D02*
X2141Y1010D01*
X2166Y1010D02*
X2175Y1010D01*
X2205Y1010D02*
X2228Y1010D01*
X2238Y1010D02*
X2246Y1010D01*
X2290Y1010D02*
X2313Y1010D01*
X2342Y1010D02*
X2388Y1010D01*
X1051Y1009D02*
X1077Y1009D01*
X1086Y1009D02*
X1095Y1009D01*
X1131Y1009D02*
X1164Y1009D01*
X1282Y1009D02*
X1291Y1009D01*
X1354Y1009D02*
X1378Y1009D01*
X1412Y1009D02*
X1445Y1009D01*
X1482Y1009D02*
X1499Y1009D01*
X1501Y1009D02*
X1527Y1009D01*
X1555Y1009D02*
X1599Y1009D01*
X1630Y1009D02*
X1663Y1009D01*
X1700Y1009D02*
X1726Y1009D01*
X1734Y1009D02*
X1743Y1009D01*
X1766Y1009D02*
X1775Y1009D01*
X1858Y1009D02*
X1882Y1009D01*
X1915Y1009D02*
X1959Y1009D01*
X2002Y1009D02*
X2026Y1009D01*
X2059Y1009D02*
X2103Y1009D01*
X2131Y1009D02*
X2142Y1009D01*
X2166Y1009D02*
X2175Y1009D01*
X2204Y1009D02*
X2230Y1009D01*
X2238Y1009D02*
X2247Y1009D01*
X2290Y1009D02*
X2314Y1009D01*
X2342Y1009D02*
X2388Y1009D01*
X1050Y1008D02*
X1078Y1008D01*
X1086Y1008D02*
X1095Y1008D01*
X1131Y1008D02*
X1164Y1008D01*
X1282Y1008D02*
X1291Y1008D01*
X1354Y1008D02*
X1378Y1008D01*
X1411Y1008D02*
X1445Y1008D01*
X1481Y1008D02*
X1528Y1008D01*
X1555Y1008D02*
X1599Y1008D01*
X1629Y1008D02*
X1664Y1008D01*
X1699Y1008D02*
X1727Y1008D01*
X1734Y1008D02*
X1743Y1008D01*
X1766Y1008D02*
X1775Y1008D01*
X1858Y1008D02*
X1882Y1008D01*
X1915Y1008D02*
X1959Y1008D01*
X2002Y1008D02*
X2026Y1008D01*
X2059Y1008D02*
X2103Y1008D01*
X2131Y1008D02*
X2143Y1008D01*
X2166Y1008D02*
X2175Y1008D01*
X2203Y1008D02*
X2231Y1008D01*
X2238Y1008D02*
X2247Y1008D01*
X2290Y1008D02*
X2314Y1008D01*
X2342Y1008D02*
X2388Y1008D01*
X1049Y1007D02*
X1079Y1007D01*
X1086Y1007D02*
X1095Y1007D01*
X1131Y1007D02*
X1164Y1007D01*
X1282Y1007D02*
X1291Y1007D01*
X1354Y1007D02*
X1378Y1007D01*
X1410Y1007D02*
X1445Y1007D01*
X1480Y1007D02*
X1528Y1007D01*
X1555Y1007D02*
X1599Y1007D01*
X1628Y1007D02*
X1665Y1007D01*
X1698Y1007D02*
X1729Y1007D01*
X1734Y1007D02*
X1743Y1007D01*
X1766Y1007D02*
X1775Y1007D01*
X1858Y1007D02*
X1882Y1007D01*
X1915Y1007D02*
X1958Y1007D01*
X2002Y1007D02*
X2026Y1007D01*
X2059Y1007D02*
X2102Y1007D01*
X2131Y1007D02*
X2144Y1007D01*
X2166Y1007D02*
X2175Y1007D01*
X2202Y1007D02*
X2233Y1007D01*
X2238Y1007D02*
X2247Y1007D01*
X2290Y1007D02*
X2314Y1007D01*
X2342Y1007D02*
X2388Y1007D01*
X1048Y1006D02*
X1080Y1006D01*
X1086Y1006D02*
X1095Y1006D01*
X1131Y1006D02*
X1164Y1006D01*
X1282Y1006D02*
X1291Y1006D01*
X1354Y1006D02*
X1377Y1006D01*
X1409Y1006D02*
X1444Y1006D01*
X1480Y1006D02*
X1528Y1006D01*
X1556Y1006D02*
X1598Y1006D01*
X1627Y1006D02*
X1666Y1006D01*
X1697Y1006D02*
X1731Y1006D01*
X1734Y1006D02*
X1743Y1006D01*
X1766Y1006D02*
X1775Y1006D01*
X1858Y1006D02*
X1881Y1006D01*
X1916Y1006D02*
X1958Y1006D01*
X2002Y1006D02*
X2025Y1006D01*
X2060Y1006D02*
X2102Y1006D01*
X2131Y1006D02*
X2145Y1006D01*
X2166Y1006D02*
X2175Y1006D01*
X2201Y1006D02*
X2235Y1006D01*
X2238Y1006D02*
X2247Y1006D01*
X2290Y1006D02*
X2313Y1006D01*
X2342Y1006D02*
X2388Y1006D01*
X1048Y1005D02*
X1081Y1005D01*
X1086Y1005D02*
X1095Y1005D01*
X1132Y1005D02*
X1163Y1005D01*
X1282Y1005D02*
X1291Y1005D01*
X1354Y1005D02*
X1377Y1005D01*
X1409Y1005D02*
X1444Y1005D01*
X1479Y1005D02*
X1528Y1005D01*
X1556Y1005D02*
X1598Y1005D01*
X1626Y1005D02*
X1667Y1005D01*
X1697Y1005D02*
X1743Y1005D01*
X1766Y1005D02*
X1775Y1005D01*
X1858Y1005D02*
X1881Y1005D01*
X1916Y1005D02*
X1958Y1005D01*
X2002Y1005D02*
X2025Y1005D01*
X2060Y1005D02*
X2102Y1005D01*
X2132Y1005D02*
X2146Y1005D01*
X2166Y1005D02*
X2175Y1005D01*
X2201Y1005D02*
X2247Y1005D01*
X2290Y1005D02*
X2313Y1005D01*
X2342Y1005D02*
X2387Y1005D01*
X1047Y1004D02*
X1083Y1004D01*
X1086Y1004D02*
X1095Y1004D01*
X1133Y1004D02*
X1162Y1004D01*
X1282Y1004D02*
X1291Y1004D01*
X1354Y1004D02*
X1376Y1004D01*
X1408Y1004D02*
X1443Y1004D01*
X1479Y1004D02*
X1528Y1004D01*
X1557Y1004D02*
X1596Y1004D01*
X1625Y1004D02*
X1668Y1004D01*
X1696Y1004D02*
X1743Y1004D01*
X1766Y1004D02*
X1775Y1004D01*
X1788Y1004D02*
X1804Y1004D01*
X1858Y1004D02*
X1879Y1004D01*
X1917Y1004D02*
X1956Y1004D01*
X2002Y1004D02*
X2023Y1004D01*
X2061Y1004D02*
X2100Y1004D01*
X2133Y1004D02*
X2148Y1004D01*
X2166Y1004D02*
X2175Y1004D01*
X2200Y1004D02*
X2247Y1004D01*
X2290Y1004D02*
X2311Y1004D01*
X2342Y1004D02*
X2386Y1004D01*
X1047Y1003D02*
X1059Y1003D01*
X1069Y1003D02*
X1084Y1003D01*
X1086Y1003D02*
X1095Y1003D01*
X1145Y1003D02*
X1155Y1003D01*
X1282Y1003D02*
X1291Y1003D01*
X1354Y1003D02*
X1363Y1003D01*
X1408Y1003D02*
X1420Y1003D01*
X1479Y1003D02*
X1489Y1003D01*
X1491Y1003D02*
X1508Y1003D01*
X1511Y1003D02*
X1528Y1003D01*
X1579Y1003D02*
X1589Y1003D01*
X1624Y1003D02*
X1639Y1003D01*
X1654Y1003D02*
X1668Y1003D01*
X1696Y1003D02*
X1709Y1003D01*
X1717Y1003D02*
X1743Y1003D01*
X1766Y1003D02*
X1775Y1003D01*
X1787Y1003D02*
X1807Y1003D01*
X1858Y1003D02*
X1867Y1003D01*
X1939Y1003D02*
X1949Y1003D01*
X2002Y1003D02*
X2011Y1003D01*
X2083Y1003D02*
X2093Y1003D01*
X2134Y1003D02*
X2149Y1003D01*
X2166Y1003D02*
X2175Y1003D01*
X2200Y1003D02*
X2213Y1003D01*
X2221Y1003D02*
X2247Y1003D01*
X2290Y1003D02*
X2299Y1003D01*
X2342Y1003D02*
X2355Y1003D01*
X1047Y1002D02*
X1057Y1002D01*
X1070Y1002D02*
X1095Y1002D01*
X1145Y1002D02*
X1155Y1002D01*
X1282Y1002D02*
X1291Y1002D01*
X1354Y1002D02*
X1363Y1002D01*
X1408Y1002D02*
X1418Y1002D01*
X1479Y1002D02*
X1488Y1002D01*
X1492Y1002D02*
X1507Y1002D01*
X1512Y1002D02*
X1528Y1002D01*
X1580Y1002D02*
X1589Y1002D01*
X1624Y1002D02*
X1636Y1002D01*
X1656Y1002D02*
X1669Y1002D01*
X1696Y1002D02*
X1706Y1002D01*
X1719Y1002D02*
X1743Y1002D01*
X1766Y1002D02*
X1775Y1002D01*
X1786Y1002D02*
X1808Y1002D01*
X1858Y1002D02*
X1867Y1002D01*
X1940Y1002D02*
X1949Y1002D01*
X2002Y1002D02*
X2011Y1002D01*
X2084Y1002D02*
X2093Y1002D01*
X2135Y1002D02*
X2150Y1002D01*
X2166Y1002D02*
X2175Y1002D01*
X2200Y1002D02*
X2210Y1002D01*
X2223Y1002D02*
X2247Y1002D01*
X2290Y1002D02*
X2299Y1002D01*
X2342Y1002D02*
X2355Y1002D01*
X1046Y1001D02*
X1056Y1001D01*
X1072Y1001D02*
X1095Y1001D01*
X1145Y1001D02*
X1155Y1001D01*
X1282Y1001D02*
X1291Y1001D01*
X1354Y1001D02*
X1363Y1001D01*
X1408Y1001D02*
X1417Y1001D01*
X1479Y1001D02*
X1488Y1001D01*
X1494Y1001D02*
X1507Y1001D01*
X1513Y1001D02*
X1528Y1001D01*
X1580Y1001D02*
X1589Y1001D01*
X1623Y1001D02*
X1635Y1001D01*
X1658Y1001D02*
X1669Y1001D01*
X1696Y1001D02*
X1705Y1001D01*
X1721Y1001D02*
X1743Y1001D01*
X1766Y1001D02*
X1775Y1001D01*
X1786Y1001D02*
X1810Y1001D01*
X1858Y1001D02*
X1867Y1001D01*
X1940Y1001D02*
X1949Y1001D01*
X2002Y1001D02*
X2011Y1001D01*
X2084Y1001D02*
X2093Y1001D01*
X2137Y1001D02*
X2151Y1001D01*
X2166Y1001D02*
X2175Y1001D01*
X2199Y1001D02*
X2209Y1001D01*
X2225Y1001D02*
X2247Y1001D01*
X2290Y1001D02*
X2299Y1001D01*
X2343Y1001D02*
X2356Y1001D01*
X1046Y1000D02*
X1056Y1000D01*
X1073Y1000D02*
X1095Y1000D01*
X1145Y1000D02*
X1155Y1000D01*
X1282Y1000D02*
X1291Y1000D01*
X1354Y1000D02*
X1363Y1000D01*
X1407Y1000D02*
X1417Y1000D01*
X1479Y1000D02*
X1488Y1000D01*
X1495Y1000D02*
X1507Y1000D01*
X1515Y1000D02*
X1528Y1000D01*
X1580Y1000D02*
X1589Y1000D01*
X1623Y1000D02*
X1634Y1000D01*
X1659Y1000D02*
X1670Y1000D01*
X1695Y1000D02*
X1705Y1000D01*
X1722Y1000D02*
X1743Y1000D01*
X1766Y1000D02*
X1775Y1000D01*
X1786Y1000D02*
X1811Y1000D01*
X1858Y1000D02*
X1867Y1000D01*
X1940Y1000D02*
X1949Y1000D01*
X2002Y1000D02*
X2011Y1000D01*
X2084Y1000D02*
X2093Y1000D01*
X2138Y1000D02*
X2152Y1000D01*
X2166Y1000D02*
X2175Y1000D01*
X2199Y1000D02*
X2209Y1000D01*
X2226Y1000D02*
X2247Y1000D01*
X2290Y1000D02*
X2299Y1000D01*
X2344Y1000D02*
X2357Y1000D01*
X1046Y999D02*
X1055Y999D01*
X1074Y999D02*
X1095Y999D01*
X1145Y999D02*
X1155Y999D01*
X1282Y999D02*
X1291Y999D01*
X1354Y999D02*
X1363Y999D01*
X1407Y999D02*
X1417Y999D01*
X1479Y999D02*
X1488Y999D01*
X1496Y999D02*
X1507Y999D01*
X1516Y999D02*
X1528Y999D01*
X1580Y999D02*
X1589Y999D01*
X1622Y999D02*
X1633Y999D01*
X1660Y999D02*
X1670Y999D01*
X1695Y999D02*
X1705Y999D01*
X1724Y999D02*
X1743Y999D01*
X1766Y999D02*
X1775Y999D01*
X1786Y999D02*
X1811Y999D01*
X1858Y999D02*
X1867Y999D01*
X1940Y999D02*
X1949Y999D01*
X2002Y999D02*
X2011Y999D01*
X2084Y999D02*
X2093Y999D01*
X2139Y999D02*
X2153Y999D01*
X2166Y999D02*
X2175Y999D01*
X2199Y999D02*
X2208Y999D01*
X2228Y999D02*
X2247Y999D01*
X2290Y999D02*
X2299Y999D01*
X2345Y999D02*
X2358Y999D01*
X1046Y998D02*
X1055Y998D01*
X1075Y998D02*
X1095Y998D01*
X1145Y998D02*
X1155Y998D01*
X1282Y998D02*
X1291Y998D01*
X1354Y998D02*
X1363Y998D01*
X1407Y998D02*
X1416Y998D01*
X1479Y998D02*
X1488Y998D01*
X1497Y998D02*
X1507Y998D01*
X1517Y998D02*
X1528Y998D01*
X1580Y998D02*
X1589Y998D01*
X1622Y998D02*
X1632Y998D01*
X1661Y998D02*
X1670Y998D01*
X1695Y998D02*
X1704Y998D01*
X1725Y998D02*
X1743Y998D01*
X1766Y998D02*
X1775Y998D01*
X1786Y998D02*
X1812Y998D01*
X1858Y998D02*
X1867Y998D01*
X1940Y998D02*
X1949Y998D01*
X2002Y998D02*
X2011Y998D01*
X2084Y998D02*
X2093Y998D01*
X2140Y998D02*
X2155Y998D01*
X2166Y998D02*
X2175Y998D01*
X2199Y998D02*
X2208Y998D01*
X2229Y998D02*
X2247Y998D01*
X2290Y998D02*
X2299Y998D01*
X2346Y998D02*
X2359Y998D01*
X1046Y997D02*
X1055Y997D01*
X1076Y997D02*
X1095Y997D01*
X1145Y997D02*
X1155Y997D01*
X1282Y997D02*
X1291Y997D01*
X1354Y997D02*
X1363Y997D01*
X1407Y997D02*
X1416Y997D01*
X1479Y997D02*
X1488Y997D01*
X1498Y997D02*
X1507Y997D01*
X1518Y997D02*
X1528Y997D01*
X1580Y997D02*
X1589Y997D01*
X1622Y997D02*
X1631Y997D01*
X1661Y997D02*
X1671Y997D01*
X1695Y997D02*
X1704Y997D01*
X1727Y997D02*
X1743Y997D01*
X1766Y997D02*
X1775Y997D01*
X1786Y997D02*
X1813Y997D01*
X1858Y997D02*
X1867Y997D01*
X1940Y997D02*
X1949Y997D01*
X2002Y997D02*
X2011Y997D01*
X2084Y997D02*
X2093Y997D01*
X2141Y997D02*
X2156Y997D01*
X2166Y997D02*
X2175Y997D01*
X2199Y997D02*
X2208Y997D01*
X2231Y997D02*
X2247Y997D01*
X2290Y997D02*
X2299Y997D01*
X2347Y997D02*
X2360Y997D01*
X1046Y996D02*
X1055Y996D01*
X1077Y996D02*
X1095Y996D01*
X1145Y996D02*
X1155Y996D01*
X1282Y996D02*
X1291Y996D01*
X1354Y996D02*
X1363Y996D01*
X1407Y996D02*
X1416Y996D01*
X1479Y996D02*
X1488Y996D01*
X1498Y996D02*
X1507Y996D01*
X1518Y996D02*
X1528Y996D01*
X1580Y996D02*
X1589Y996D01*
X1622Y996D02*
X1631Y996D01*
X1662Y996D02*
X1671Y996D01*
X1695Y996D02*
X1704Y996D01*
X1728Y996D02*
X1743Y996D01*
X1766Y996D02*
X1775Y996D01*
X1786Y996D02*
X1813Y996D01*
X1858Y996D02*
X1867Y996D01*
X1940Y996D02*
X1949Y996D01*
X2002Y996D02*
X2011Y996D01*
X2084Y996D02*
X2093Y996D01*
X2142Y996D02*
X2157Y996D01*
X2166Y996D02*
X2175Y996D01*
X2199Y996D02*
X2208Y996D01*
X2232Y996D02*
X2247Y996D01*
X2290Y996D02*
X2299Y996D01*
X2348Y996D02*
X2361Y996D01*
X1046Y995D02*
X1055Y995D01*
X1079Y995D02*
X1095Y995D01*
X1145Y995D02*
X1155Y995D01*
X1282Y995D02*
X1291Y995D01*
X1354Y995D02*
X1363Y995D01*
X1407Y995D02*
X1416Y995D01*
X1479Y995D02*
X1488Y995D01*
X1498Y995D02*
X1507Y995D01*
X1518Y995D02*
X1528Y995D01*
X1580Y995D02*
X1589Y995D01*
X1622Y995D02*
X1631Y995D01*
X1662Y995D02*
X1671Y995D01*
X1695Y995D02*
X1704Y995D01*
X1730Y995D02*
X1743Y995D01*
X1766Y995D02*
X1775Y995D01*
X1786Y995D02*
X1814Y995D01*
X1858Y995D02*
X1867Y995D01*
X1940Y995D02*
X1949Y995D01*
X2002Y995D02*
X2011Y995D01*
X2084Y995D02*
X2093Y995D01*
X2144Y995D02*
X2158Y995D01*
X2166Y995D02*
X2175Y995D01*
X2199Y995D02*
X2208Y995D01*
X2234Y995D02*
X2247Y995D01*
X2290Y995D02*
X2299Y995D01*
X2349Y995D02*
X2362Y995D01*
X1046Y994D02*
X1055Y994D01*
X1080Y994D02*
X1095Y994D01*
X1145Y994D02*
X1155Y994D01*
X1282Y994D02*
X1291Y994D01*
X1354Y994D02*
X1363Y994D01*
X1407Y994D02*
X1416Y994D01*
X1478Y994D02*
X1488Y994D01*
X1498Y994D02*
X1507Y994D01*
X1518Y994D02*
X1528Y994D01*
X1580Y994D02*
X1589Y994D01*
X1622Y994D02*
X1631Y994D01*
X1662Y994D02*
X1671Y994D01*
X1695Y994D02*
X1704Y994D01*
X1732Y994D02*
X1743Y994D01*
X1766Y994D02*
X1775Y994D01*
X1786Y994D02*
X1795Y994D01*
X1803Y994D02*
X1814Y994D01*
X1858Y994D02*
X1867Y994D01*
X1940Y994D02*
X1949Y994D01*
X2002Y994D02*
X2011Y994D01*
X2084Y994D02*
X2093Y994D01*
X2145Y994D02*
X2159Y994D01*
X2166Y994D02*
X2175Y994D01*
X2199Y994D02*
X2208Y994D01*
X2235Y994D02*
X2247Y994D01*
X2290Y994D02*
X2299Y994D01*
X2350Y994D02*
X2363Y994D01*
X1047Y993D02*
X1054Y993D01*
X1081Y993D02*
X1095Y993D01*
X1145Y993D02*
X1155Y993D01*
X1282Y993D02*
X1291Y993D01*
X1354Y993D02*
X1363Y993D01*
X1407Y993D02*
X1416Y993D01*
X1478Y993D02*
X1487Y993D01*
X1498Y993D02*
X1507Y993D01*
X1518Y993D02*
X1528Y993D01*
X1580Y993D02*
X1589Y993D01*
X1622Y993D02*
X1631Y993D01*
X1662Y993D02*
X1671Y993D01*
X1695Y993D02*
X1704Y993D01*
X1733Y993D02*
X1743Y993D01*
X1766Y993D02*
X1775Y993D01*
X1786Y993D02*
X1795Y993D01*
X1804Y993D02*
X1814Y993D01*
X1858Y993D02*
X1867Y993D01*
X1940Y993D02*
X1949Y993D01*
X2002Y993D02*
X2011Y993D01*
X2084Y993D02*
X2093Y993D01*
X2146Y993D02*
X2161Y993D01*
X2166Y993D02*
X2175Y993D01*
X2199Y993D02*
X2208Y993D01*
X2237Y993D02*
X2247Y993D01*
X2290Y993D02*
X2299Y993D01*
X2351Y993D02*
X2365Y993D01*
X1047Y992D02*
X1054Y992D01*
X1082Y992D02*
X1095Y992D01*
X1145Y992D02*
X1155Y992D01*
X1282Y992D02*
X1291Y992D01*
X1354Y992D02*
X1363Y992D01*
X1407Y992D02*
X1416Y992D01*
X1421Y992D02*
X1440Y992D01*
X1478Y992D02*
X1487Y992D01*
X1498Y992D02*
X1507Y992D01*
X1518Y992D02*
X1528Y992D01*
X1580Y992D02*
X1589Y992D01*
X1622Y992D02*
X1631Y992D01*
X1662Y992D02*
X1671Y992D01*
X1695Y992D02*
X1704Y992D01*
X1734Y992D02*
X1743Y992D01*
X1766Y992D02*
X1775Y992D01*
X1786Y992D02*
X1795Y992D01*
X1805Y992D02*
X1815Y992D01*
X1858Y992D02*
X1867Y992D01*
X1940Y992D02*
X1949Y992D01*
X2002Y992D02*
X2011Y992D01*
X2084Y992D02*
X2093Y992D01*
X2147Y992D02*
X2162Y992D01*
X2166Y992D02*
X2175Y992D01*
X2199Y992D02*
X2208Y992D01*
X2238Y992D02*
X2247Y992D01*
X2290Y992D02*
X2299Y992D01*
X2352Y992D02*
X2366Y992D01*
X1049Y991D02*
X1052Y991D01*
X1083Y991D02*
X1095Y991D01*
X1145Y991D02*
X1155Y991D01*
X1282Y991D02*
X1291Y991D01*
X1354Y991D02*
X1363Y991D01*
X1407Y991D02*
X1445Y991D01*
X1478Y991D02*
X1487Y991D01*
X1498Y991D02*
X1507Y991D01*
X1518Y991D02*
X1528Y991D01*
X1580Y991D02*
X1589Y991D01*
X1622Y991D02*
X1631Y991D01*
X1662Y991D02*
X1671Y991D01*
X1695Y991D02*
X1704Y991D01*
X1734Y991D02*
X1743Y991D01*
X1766Y991D02*
X1775Y991D01*
X1786Y991D02*
X1795Y991D01*
X1805Y991D02*
X1815Y991D01*
X1858Y991D02*
X1867Y991D01*
X1940Y991D02*
X1949Y991D01*
X2002Y991D02*
X2011Y991D01*
X2084Y991D02*
X2093Y991D01*
X2148Y991D02*
X2163Y991D01*
X2166Y991D02*
X2175Y991D01*
X2199Y991D02*
X2208Y991D01*
X2238Y991D02*
X2247Y991D01*
X2290Y991D02*
X2299Y991D01*
X2353Y991D02*
X2367Y991D01*
X1084Y990D02*
X1095Y990D01*
X1145Y990D02*
X1155Y990D01*
X1282Y990D02*
X1291Y990D01*
X1354Y990D02*
X1363Y990D01*
X1407Y990D02*
X1447Y990D01*
X1478Y990D02*
X1487Y990D01*
X1498Y990D02*
X1507Y990D01*
X1518Y990D02*
X1528Y990D01*
X1580Y990D02*
X1589Y990D01*
X1622Y990D02*
X1631Y990D01*
X1662Y990D02*
X1671Y990D01*
X1695Y990D02*
X1704Y990D01*
X1734Y990D02*
X1743Y990D01*
X1766Y990D02*
X1775Y990D01*
X1786Y990D02*
X1795Y990D01*
X1806Y990D02*
X1815Y990D01*
X1858Y990D02*
X1867Y990D01*
X1940Y990D02*
X1949Y990D01*
X2002Y990D02*
X2011Y990D01*
X2084Y990D02*
X2093Y990D01*
X2149Y990D02*
X2175Y990D01*
X2199Y990D02*
X2208Y990D01*
X2238Y990D02*
X2247Y990D01*
X2290Y990D02*
X2299Y990D01*
X2354Y990D02*
X2368Y990D01*
X1085Y989D02*
X1095Y989D01*
X1145Y989D02*
X1155Y989D01*
X1282Y989D02*
X1291Y989D01*
X1354Y989D02*
X1363Y989D01*
X1407Y989D02*
X1449Y989D01*
X1478Y989D02*
X1487Y989D01*
X1498Y989D02*
X1507Y989D01*
X1518Y989D02*
X1528Y989D01*
X1580Y989D02*
X1589Y989D01*
X1622Y989D02*
X1631Y989D01*
X1662Y989D02*
X1671Y989D01*
X1695Y989D02*
X1704Y989D01*
X1734Y989D02*
X1743Y989D01*
X1766Y989D02*
X1775Y989D01*
X1786Y989D02*
X1795Y989D01*
X1806Y989D02*
X1815Y989D01*
X1858Y989D02*
X1867Y989D01*
X1940Y989D02*
X1949Y989D01*
X2002Y989D02*
X2011Y989D01*
X2084Y989D02*
X2093Y989D01*
X2151Y989D02*
X2175Y989D01*
X2199Y989D02*
X2208Y989D01*
X2238Y989D02*
X2247Y989D01*
X2290Y989D02*
X2299Y989D01*
X2355Y989D02*
X2369Y989D01*
X1086Y988D02*
X1095Y988D01*
X1145Y988D02*
X1155Y988D01*
X1282Y988D02*
X1291Y988D01*
X1354Y988D02*
X1363Y988D01*
X1407Y988D02*
X1450Y988D01*
X1478Y988D02*
X1487Y988D01*
X1498Y988D02*
X1507Y988D01*
X1518Y988D02*
X1528Y988D01*
X1580Y988D02*
X1589Y988D01*
X1622Y988D02*
X1631Y988D01*
X1662Y988D02*
X1671Y988D01*
X1695Y988D02*
X1704Y988D01*
X1734Y988D02*
X1743Y988D01*
X1766Y988D02*
X1775Y988D01*
X1786Y988D02*
X1795Y988D01*
X1806Y988D02*
X1815Y988D01*
X1858Y988D02*
X1867Y988D01*
X1940Y988D02*
X1949Y988D01*
X2002Y988D02*
X2011Y988D01*
X2084Y988D02*
X2093Y988D01*
X2152Y988D02*
X2175Y988D01*
X2199Y988D02*
X2208Y988D01*
X2238Y988D02*
X2247Y988D01*
X2290Y988D02*
X2299Y988D01*
X2356Y988D02*
X2370Y988D01*
X1086Y987D02*
X1095Y987D01*
X1145Y987D02*
X1155Y987D01*
X1207Y987D02*
X1221Y987D01*
X1282Y987D02*
X1291Y987D01*
X1354Y987D02*
X1363Y987D01*
X1407Y987D02*
X1451Y987D01*
X1478Y987D02*
X1487Y987D01*
X1498Y987D02*
X1507Y987D01*
X1518Y987D02*
X1528Y987D01*
X1580Y987D02*
X1589Y987D01*
X1622Y987D02*
X1631Y987D01*
X1662Y987D02*
X1671Y987D01*
X1695Y987D02*
X1704Y987D01*
X1734Y987D02*
X1743Y987D01*
X1766Y987D02*
X1775Y987D01*
X1786Y987D02*
X1795Y987D01*
X1806Y987D02*
X1815Y987D01*
X1858Y987D02*
X1867Y987D01*
X1940Y987D02*
X1949Y987D01*
X2002Y987D02*
X2011Y987D01*
X2084Y987D02*
X2093Y987D01*
X2153Y987D02*
X2175Y987D01*
X2199Y987D02*
X2208Y987D01*
X2238Y987D02*
X2247Y987D01*
X2290Y987D02*
X2299Y987D01*
X2357Y987D02*
X2371Y987D01*
X1086Y986D02*
X1095Y986D01*
X1145Y986D02*
X1155Y986D01*
X1206Y986D02*
X1223Y986D01*
X1282Y986D02*
X1291Y986D01*
X1354Y986D02*
X1363Y986D01*
X1407Y986D02*
X1452Y986D01*
X1478Y986D02*
X1487Y986D01*
X1498Y986D02*
X1507Y986D01*
X1518Y986D02*
X1528Y986D01*
X1580Y986D02*
X1589Y986D01*
X1622Y986D02*
X1631Y986D01*
X1662Y986D02*
X1671Y986D01*
X1695Y986D02*
X1704Y986D01*
X1734Y986D02*
X1743Y986D01*
X1766Y986D02*
X1775Y986D01*
X1786Y986D02*
X1795Y986D01*
X1806Y986D02*
X1815Y986D01*
X1858Y986D02*
X1867Y986D01*
X1940Y986D02*
X1949Y986D01*
X2002Y986D02*
X2011Y986D01*
X2084Y986D02*
X2093Y986D01*
X2152Y986D02*
X2175Y986D01*
X2199Y986D02*
X2208Y986D01*
X2238Y986D02*
X2247Y986D01*
X2290Y986D02*
X2299Y986D01*
X2358Y986D02*
X2372Y986D01*
X1086Y985D02*
X1095Y985D01*
X1145Y985D02*
X1155Y985D01*
X1206Y985D02*
X1223Y985D01*
X1282Y985D02*
X1291Y985D01*
X1354Y985D02*
X1363Y985D01*
X1407Y985D02*
X1452Y985D01*
X1478Y985D02*
X1487Y985D01*
X1498Y985D02*
X1507Y985D01*
X1518Y985D02*
X1528Y985D01*
X1580Y985D02*
X1589Y985D01*
X1622Y985D02*
X1631Y985D01*
X1662Y985D02*
X1671Y985D01*
X1695Y985D02*
X1704Y985D01*
X1734Y985D02*
X1743Y985D01*
X1766Y985D02*
X1775Y985D01*
X1786Y985D02*
X1795Y985D01*
X1806Y985D02*
X1815Y985D01*
X1858Y985D02*
X1867Y985D01*
X1940Y985D02*
X1949Y985D01*
X2002Y985D02*
X2011Y985D01*
X2084Y985D02*
X2093Y985D01*
X2151Y985D02*
X2175Y985D01*
X2199Y985D02*
X2208Y985D01*
X2238Y985D02*
X2247Y985D01*
X2290Y985D02*
X2299Y985D01*
X2359Y985D02*
X2373Y985D01*
X1086Y984D02*
X1095Y984D01*
X1145Y984D02*
X1155Y984D01*
X1205Y984D02*
X1224Y984D01*
X1282Y984D02*
X1291Y984D01*
X1354Y984D02*
X1363Y984D01*
X1407Y984D02*
X1453Y984D01*
X1478Y984D02*
X1487Y984D01*
X1498Y984D02*
X1507Y984D01*
X1518Y984D02*
X1528Y984D01*
X1580Y984D02*
X1589Y984D01*
X1622Y984D02*
X1631Y984D01*
X1662Y984D02*
X1671Y984D01*
X1695Y984D02*
X1704Y984D01*
X1734Y984D02*
X1743Y984D01*
X1766Y984D02*
X1775Y984D01*
X1786Y984D02*
X1795Y984D01*
X1806Y984D02*
X1815Y984D01*
X1858Y984D02*
X1867Y984D01*
X1940Y984D02*
X1949Y984D01*
X2002Y984D02*
X2011Y984D01*
X2084Y984D02*
X2093Y984D01*
X2150Y984D02*
X2175Y984D01*
X2199Y984D02*
X2208Y984D01*
X2238Y984D02*
X2247Y984D01*
X2290Y984D02*
X2299Y984D01*
X2360Y984D02*
X2374Y984D01*
X1086Y983D02*
X1095Y983D01*
X1145Y983D02*
X1155Y983D01*
X1205Y983D02*
X1224Y983D01*
X1282Y983D02*
X1291Y983D01*
X1354Y983D02*
X1363Y983D01*
X1407Y983D02*
X1454Y983D01*
X1478Y983D02*
X1487Y983D01*
X1498Y983D02*
X1507Y983D01*
X1518Y983D02*
X1528Y983D01*
X1580Y983D02*
X1589Y983D01*
X1622Y983D02*
X1631Y983D01*
X1662Y983D02*
X1671Y983D01*
X1695Y983D02*
X1704Y983D01*
X1734Y983D02*
X1743Y983D01*
X1766Y983D02*
X1775Y983D01*
X1786Y983D02*
X1795Y983D01*
X1806Y983D02*
X1815Y983D01*
X1858Y983D02*
X1867Y983D01*
X1940Y983D02*
X1949Y983D01*
X2002Y983D02*
X2011Y983D01*
X2084Y983D02*
X2093Y983D01*
X2148Y983D02*
X2175Y983D01*
X2199Y983D02*
X2208Y983D01*
X2238Y983D02*
X2247Y983D01*
X2290Y983D02*
X2299Y983D01*
X2361Y983D02*
X2375Y983D01*
X1086Y982D02*
X1095Y982D01*
X1145Y982D02*
X1155Y982D01*
X1205Y982D02*
X1224Y982D01*
X1282Y982D02*
X1291Y982D01*
X1354Y982D02*
X1363Y982D01*
X1407Y982D02*
X1454Y982D01*
X1478Y982D02*
X1487Y982D01*
X1498Y982D02*
X1507Y982D01*
X1518Y982D02*
X1528Y982D01*
X1580Y982D02*
X1589Y982D01*
X1622Y982D02*
X1631Y982D01*
X1662Y982D02*
X1671Y982D01*
X1695Y982D02*
X1704Y982D01*
X1734Y982D02*
X1743Y982D01*
X1766Y982D02*
X1775Y982D01*
X1786Y982D02*
X1795Y982D01*
X1806Y982D02*
X1815Y982D01*
X1858Y982D02*
X1867Y982D01*
X1940Y982D02*
X1949Y982D01*
X2002Y982D02*
X2011Y982D01*
X2084Y982D02*
X2093Y982D01*
X2147Y982D02*
X2175Y982D01*
X2199Y982D02*
X2208Y982D01*
X2238Y982D02*
X2247Y982D01*
X2290Y982D02*
X2299Y982D01*
X2362Y982D02*
X2376Y982D01*
X1086Y981D02*
X1095Y981D01*
X1145Y981D02*
X1155Y981D01*
X1205Y981D02*
X1224Y981D01*
X1282Y981D02*
X1291Y981D01*
X1354Y981D02*
X1363Y981D01*
X1407Y981D02*
X1418Y981D01*
X1443Y981D02*
X1454Y981D01*
X1478Y981D02*
X1487Y981D01*
X1498Y981D02*
X1507Y981D01*
X1518Y981D02*
X1528Y981D01*
X1580Y981D02*
X1589Y981D01*
X1622Y981D02*
X1631Y981D01*
X1662Y981D02*
X1671Y981D01*
X1695Y981D02*
X1704Y981D01*
X1734Y981D02*
X1743Y981D01*
X1766Y981D02*
X1775Y981D01*
X1786Y981D02*
X1795Y981D01*
X1806Y981D02*
X1815Y981D01*
X1858Y981D02*
X1867Y981D01*
X1940Y981D02*
X1949Y981D01*
X2002Y981D02*
X2011Y981D01*
X2084Y981D02*
X2093Y981D01*
X2146Y981D02*
X2175Y981D01*
X2199Y981D02*
X2208Y981D01*
X2238Y981D02*
X2247Y981D01*
X2290Y981D02*
X2299Y981D01*
X2363Y981D02*
X2377Y981D01*
X1086Y980D02*
X1095Y980D01*
X1145Y980D02*
X1155Y980D01*
X1205Y980D02*
X1224Y980D01*
X1282Y980D02*
X1291Y980D01*
X1354Y980D02*
X1363Y980D01*
X1407Y980D02*
X1417Y980D01*
X1445Y980D02*
X1454Y980D01*
X1478Y980D02*
X1487Y980D01*
X1498Y980D02*
X1507Y980D01*
X1518Y980D02*
X1528Y980D01*
X1580Y980D02*
X1589Y980D01*
X1622Y980D02*
X1631Y980D01*
X1662Y980D02*
X1671Y980D01*
X1695Y980D02*
X1704Y980D01*
X1734Y980D02*
X1743Y980D01*
X1766Y980D02*
X1775Y980D01*
X1786Y980D02*
X1795Y980D01*
X1806Y980D02*
X1815Y980D01*
X1858Y980D02*
X1867Y980D01*
X1940Y980D02*
X1949Y980D01*
X2002Y980D02*
X2011Y980D01*
X2084Y980D02*
X2093Y980D01*
X2145Y980D02*
X2159Y980D01*
X2161Y980D02*
X2175Y980D01*
X2199Y980D02*
X2208Y980D01*
X2238Y980D02*
X2247Y980D01*
X2290Y980D02*
X2299Y980D01*
X2365Y980D02*
X2378Y980D01*
X1086Y979D02*
X1095Y979D01*
X1145Y979D02*
X1155Y979D01*
X1205Y979D02*
X1224Y979D01*
X1282Y979D02*
X1291Y979D01*
X1354Y979D02*
X1363Y979D01*
X1407Y979D02*
X1416Y979D01*
X1445Y979D02*
X1455Y979D01*
X1478Y979D02*
X1487Y979D01*
X1498Y979D02*
X1507Y979D01*
X1518Y979D02*
X1528Y979D01*
X1580Y979D02*
X1589Y979D01*
X1622Y979D02*
X1631Y979D01*
X1662Y979D02*
X1671Y979D01*
X1695Y979D02*
X1704Y979D01*
X1734Y979D02*
X1743Y979D01*
X1766Y979D02*
X1775Y979D01*
X1786Y979D02*
X1795Y979D01*
X1806Y979D02*
X1815Y979D01*
X1858Y979D02*
X1867Y979D01*
X1940Y979D02*
X1949Y979D01*
X2002Y979D02*
X2011Y979D01*
X2084Y979D02*
X2093Y979D01*
X2144Y979D02*
X2158Y979D01*
X2162Y979D02*
X2175Y979D01*
X2199Y979D02*
X2208Y979D01*
X2238Y979D02*
X2247Y979D01*
X2290Y979D02*
X2299Y979D01*
X2366Y979D02*
X2379Y979D01*
X1086Y978D02*
X1095Y978D01*
X1145Y978D02*
X1155Y978D01*
X1205Y978D02*
X1224Y978D01*
X1282Y978D02*
X1291Y978D01*
X1354Y978D02*
X1363Y978D01*
X1407Y978D02*
X1416Y978D01*
X1445Y978D02*
X1455Y978D01*
X1478Y978D02*
X1487Y978D01*
X1498Y978D02*
X1507Y978D01*
X1518Y978D02*
X1528Y978D01*
X1580Y978D02*
X1589Y978D01*
X1622Y978D02*
X1631Y978D01*
X1662Y978D02*
X1671Y978D01*
X1695Y978D02*
X1704Y978D01*
X1734Y978D02*
X1743Y978D01*
X1766Y978D02*
X1775Y978D01*
X1786Y978D02*
X1795Y978D01*
X1806Y978D02*
X1815Y978D01*
X1858Y978D02*
X1867Y978D01*
X1940Y978D02*
X1949Y978D01*
X2002Y978D02*
X2011Y978D01*
X2084Y978D02*
X2093Y978D01*
X2143Y978D02*
X2157Y978D01*
X2163Y978D02*
X2175Y978D01*
X2199Y978D02*
X2208Y978D01*
X2238Y978D02*
X2247Y978D01*
X2290Y978D02*
X2299Y978D01*
X2367Y978D02*
X2380Y978D01*
X1086Y977D02*
X1095Y977D01*
X1145Y977D02*
X1155Y977D01*
X1205Y977D02*
X1224Y977D01*
X1282Y977D02*
X1291Y977D01*
X1354Y977D02*
X1363Y977D01*
X1407Y977D02*
X1416Y977D01*
X1446Y977D02*
X1455Y977D01*
X1478Y977D02*
X1487Y977D01*
X1498Y977D02*
X1507Y977D01*
X1518Y977D02*
X1528Y977D01*
X1580Y977D02*
X1589Y977D01*
X1622Y977D02*
X1631Y977D01*
X1662Y977D02*
X1671Y977D01*
X1695Y977D02*
X1704Y977D01*
X1734Y977D02*
X1743Y977D01*
X1766Y977D02*
X1775Y977D01*
X1786Y977D02*
X1795Y977D01*
X1806Y977D02*
X1815Y977D01*
X1858Y977D02*
X1867Y977D01*
X1940Y977D02*
X1949Y977D01*
X2002Y977D02*
X2011Y977D01*
X2084Y977D02*
X2093Y977D01*
X2141Y977D02*
X2156Y977D01*
X2165Y977D02*
X2175Y977D01*
X2198Y977D02*
X2208Y977D01*
X2238Y977D02*
X2247Y977D01*
X2290Y977D02*
X2299Y977D01*
X2368Y977D02*
X2381Y977D01*
X1086Y976D02*
X1095Y976D01*
X1145Y976D02*
X1155Y976D01*
X1205Y976D02*
X1224Y976D01*
X1282Y976D02*
X1291Y976D01*
X1354Y976D02*
X1363Y976D01*
X1406Y976D02*
X1416Y976D01*
X1446Y976D02*
X1455Y976D01*
X1478Y976D02*
X1487Y976D01*
X1498Y976D02*
X1507Y976D01*
X1518Y976D02*
X1528Y976D01*
X1580Y976D02*
X1589Y976D01*
X1622Y976D02*
X1631Y976D01*
X1662Y976D02*
X1671Y976D01*
X1695Y976D02*
X1704Y976D01*
X1734Y976D02*
X1743Y976D01*
X1766Y976D02*
X1775Y976D01*
X1786Y976D02*
X1795Y976D01*
X1806Y976D02*
X1815Y976D01*
X1858Y976D02*
X1867Y976D01*
X1940Y976D02*
X1949Y976D01*
X2002Y976D02*
X2011Y976D01*
X2084Y976D02*
X2093Y976D01*
X2140Y976D02*
X2155Y976D01*
X2166Y976D02*
X2175Y976D01*
X2198Y976D02*
X2207Y976D01*
X2238Y976D02*
X2247Y976D01*
X2290Y976D02*
X2299Y976D01*
X2369Y976D02*
X2382Y976D01*
X1086Y975D02*
X1095Y975D01*
X1145Y975D02*
X1155Y975D01*
X1205Y975D02*
X1224Y975D01*
X1282Y975D02*
X1291Y975D01*
X1354Y975D02*
X1363Y975D01*
X1406Y975D02*
X1416Y975D01*
X1446Y975D02*
X1455Y975D01*
X1478Y975D02*
X1487Y975D01*
X1498Y975D02*
X1507Y975D01*
X1518Y975D02*
X1528Y975D01*
X1580Y975D02*
X1589Y975D01*
X1622Y975D02*
X1631Y975D01*
X1662Y975D02*
X1671Y975D01*
X1694Y975D02*
X1704Y975D01*
X1734Y975D02*
X1743Y975D01*
X1766Y975D02*
X1775Y975D01*
X1786Y975D02*
X1795Y975D01*
X1806Y975D02*
X1815Y975D01*
X1858Y975D02*
X1867Y975D01*
X1940Y975D02*
X1949Y975D01*
X2002Y975D02*
X2011Y975D01*
X2084Y975D02*
X2093Y975D01*
X2139Y975D02*
X2154Y975D01*
X2166Y975D02*
X2175Y975D01*
X2198Y975D02*
X2207Y975D01*
X2238Y975D02*
X2247Y975D01*
X2290Y975D02*
X2299Y975D01*
X2370Y975D02*
X2383Y975D01*
X1086Y974D02*
X1095Y974D01*
X1145Y974D02*
X1155Y974D01*
X1205Y974D02*
X1224Y974D01*
X1282Y974D02*
X1291Y974D01*
X1354Y974D02*
X1363Y974D01*
X1406Y974D02*
X1416Y974D01*
X1446Y974D02*
X1455Y974D01*
X1478Y974D02*
X1487Y974D01*
X1498Y974D02*
X1507Y974D01*
X1518Y974D02*
X1528Y974D01*
X1552Y974D02*
X1557Y974D01*
X1580Y974D02*
X1589Y974D01*
X1622Y974D02*
X1631Y974D01*
X1662Y974D02*
X1671Y974D01*
X1694Y974D02*
X1703Y974D01*
X1734Y974D02*
X1743Y974D01*
X1766Y974D02*
X1775Y974D01*
X1786Y974D02*
X1795Y974D01*
X1806Y974D02*
X1815Y974D01*
X1858Y974D02*
X1867Y974D01*
X1912Y974D02*
X1917Y974D01*
X1940Y974D02*
X1949Y974D01*
X2002Y974D02*
X2011Y974D01*
X2056Y974D02*
X2061Y974D01*
X2084Y974D02*
X2093Y974D01*
X2138Y974D02*
X2152Y974D01*
X2166Y974D02*
X2175Y974D01*
X2198Y974D02*
X2207Y974D01*
X2238Y974D02*
X2247Y974D01*
X2290Y974D02*
X2299Y974D01*
X2371Y974D02*
X2384Y974D01*
X1086Y973D02*
X1095Y973D01*
X1145Y973D02*
X1155Y973D01*
X1205Y973D02*
X1224Y973D01*
X1282Y973D02*
X1291Y973D01*
X1354Y973D02*
X1363Y973D01*
X1406Y973D02*
X1416Y973D01*
X1446Y973D02*
X1455Y973D01*
X1478Y973D02*
X1487Y973D01*
X1498Y973D02*
X1507Y973D01*
X1518Y973D02*
X1528Y973D01*
X1551Y973D02*
X1558Y973D01*
X1580Y973D02*
X1589Y973D01*
X1622Y973D02*
X1631Y973D01*
X1661Y973D02*
X1671Y973D01*
X1694Y973D02*
X1703Y973D01*
X1734Y973D02*
X1743Y973D01*
X1766Y973D02*
X1775Y973D01*
X1786Y973D02*
X1795Y973D01*
X1806Y973D02*
X1815Y973D01*
X1858Y973D02*
X1867Y973D01*
X1911Y973D02*
X1918Y973D01*
X1940Y973D02*
X1949Y973D01*
X2002Y973D02*
X2011Y973D01*
X2055Y973D02*
X2062Y973D01*
X2084Y973D02*
X2093Y973D01*
X2137Y973D02*
X2151Y973D01*
X2166Y973D02*
X2175Y973D01*
X2198Y973D02*
X2207Y973D01*
X2238Y973D02*
X2247Y973D01*
X2290Y973D02*
X2299Y973D01*
X2372Y973D02*
X2385Y973D01*
X1086Y972D02*
X1095Y972D01*
X1145Y972D02*
X1155Y972D01*
X1205Y972D02*
X1223Y972D01*
X1282Y972D02*
X1291Y972D01*
X1354Y972D02*
X1363Y972D01*
X1406Y972D02*
X1417Y972D01*
X1446Y972D02*
X1455Y972D01*
X1478Y972D02*
X1487Y972D01*
X1498Y972D02*
X1507Y972D01*
X1518Y972D02*
X1528Y972D01*
X1550Y972D02*
X1558Y972D01*
X1580Y972D02*
X1589Y972D01*
X1622Y972D02*
X1632Y972D01*
X1661Y972D02*
X1670Y972D01*
X1694Y972D02*
X1703Y972D01*
X1734Y972D02*
X1743Y972D01*
X1766Y972D02*
X1775Y972D01*
X1786Y972D02*
X1795Y972D01*
X1806Y972D02*
X1815Y972D01*
X1858Y972D02*
X1867Y972D01*
X1910Y972D02*
X1918Y972D01*
X1940Y972D02*
X1949Y972D01*
X2002Y972D02*
X2011Y972D01*
X2054Y972D02*
X2062Y972D01*
X2084Y972D02*
X2093Y972D01*
X2135Y972D02*
X2150Y972D01*
X2166Y972D02*
X2175Y972D01*
X2198Y972D02*
X2207Y972D01*
X2238Y972D02*
X2247Y972D01*
X2290Y972D02*
X2299Y972D01*
X2373Y972D02*
X2386Y972D01*
X1086Y971D02*
X1095Y971D01*
X1145Y971D02*
X1155Y971D01*
X1206Y971D02*
X1223Y971D01*
X1282Y971D02*
X1291Y971D01*
X1354Y971D02*
X1363Y971D01*
X1406Y971D02*
X1419Y971D01*
X1446Y971D02*
X1455Y971D01*
X1478Y971D02*
X1487Y971D01*
X1498Y971D02*
X1507Y971D01*
X1518Y971D02*
X1528Y971D01*
X1550Y971D02*
X1559Y971D01*
X1580Y971D02*
X1589Y971D01*
X1622Y971D02*
X1633Y971D01*
X1660Y971D02*
X1670Y971D01*
X1694Y971D02*
X1703Y971D01*
X1734Y971D02*
X1743Y971D01*
X1766Y971D02*
X1775Y971D01*
X1786Y971D02*
X1795Y971D01*
X1806Y971D02*
X1815Y971D01*
X1858Y971D02*
X1867Y971D01*
X1910Y971D02*
X1919Y971D01*
X1940Y971D02*
X1949Y971D01*
X2002Y971D02*
X2011Y971D01*
X2054Y971D02*
X2063Y971D01*
X2084Y971D02*
X2093Y971D01*
X2134Y971D02*
X2149Y971D01*
X2166Y971D02*
X2175Y971D01*
X2198Y971D02*
X2207Y971D01*
X2238Y971D02*
X2247Y971D01*
X2290Y971D02*
X2299Y971D01*
X2374Y971D02*
X2387Y971D01*
X1086Y970D02*
X1095Y970D01*
X1145Y970D02*
X1155Y970D01*
X1207Y970D02*
X1222Y970D01*
X1282Y970D02*
X1291Y970D01*
X1354Y970D02*
X1363Y970D01*
X1406Y970D02*
X1420Y970D01*
X1445Y970D02*
X1455Y970D01*
X1478Y970D02*
X1487Y970D01*
X1498Y970D02*
X1507Y970D01*
X1518Y970D02*
X1528Y970D01*
X1550Y970D02*
X1559Y970D01*
X1579Y970D02*
X1589Y970D01*
X1623Y970D02*
X1634Y970D01*
X1659Y970D02*
X1670Y970D01*
X1694Y970D02*
X1703Y970D01*
X1734Y970D02*
X1743Y970D01*
X1766Y970D02*
X1775Y970D01*
X1786Y970D02*
X1795Y970D01*
X1805Y970D02*
X1815Y970D01*
X1858Y970D02*
X1867Y970D01*
X1910Y970D02*
X1919Y970D01*
X1939Y970D02*
X1949Y970D01*
X2002Y970D02*
X2011Y970D01*
X2054Y970D02*
X2063Y970D01*
X2083Y970D02*
X2093Y970D01*
X2133Y970D02*
X2148Y970D01*
X2166Y970D02*
X2175Y970D01*
X2198Y970D02*
X2207Y970D01*
X2238Y970D02*
X2247Y970D01*
X2290Y970D02*
X2299Y970D01*
X2375Y970D02*
X2388Y970D01*
X1086Y969D02*
X1095Y969D01*
X1145Y969D02*
X1155Y969D01*
X1282Y969D02*
X1291Y969D01*
X1354Y969D02*
X1363Y969D01*
X1406Y969D02*
X1422Y969D01*
X1445Y969D02*
X1455Y969D01*
X1478Y969D02*
X1487Y969D01*
X1498Y969D02*
X1507Y969D01*
X1518Y969D02*
X1528Y969D01*
X1550Y969D02*
X1560Y969D01*
X1579Y969D02*
X1589Y969D01*
X1623Y969D02*
X1635Y969D01*
X1658Y969D02*
X1670Y969D01*
X1694Y969D02*
X1703Y969D01*
X1734Y969D02*
X1743Y969D01*
X1766Y969D02*
X1776Y969D01*
X1785Y969D02*
X1796Y969D01*
X1805Y969D02*
X1815Y969D01*
X1858Y969D02*
X1867Y969D01*
X1910Y969D02*
X1920Y969D01*
X1939Y969D02*
X1949Y969D01*
X2002Y969D02*
X2011Y969D01*
X2054Y969D02*
X2064Y969D01*
X2083Y969D02*
X2093Y969D01*
X2132Y969D02*
X2147Y969D01*
X2166Y969D02*
X2175Y969D01*
X2198Y969D02*
X2207Y969D01*
X2238Y969D02*
X2247Y969D01*
X2290Y969D02*
X2299Y969D01*
X2376Y969D02*
X2389Y969D01*
X1086Y968D02*
X1095Y968D01*
X1145Y968D02*
X1155Y968D01*
X1282Y968D02*
X1291Y968D01*
X1354Y968D02*
X1363Y968D01*
X1406Y968D02*
X1424Y968D01*
X1444Y968D02*
X1454Y968D01*
X1478Y968D02*
X1487Y968D01*
X1498Y968D02*
X1507Y968D01*
X1518Y968D02*
X1528Y968D01*
X1550Y968D02*
X1561Y968D01*
X1578Y968D02*
X1588Y968D01*
X1624Y968D02*
X1636Y968D01*
X1657Y968D02*
X1669Y968D01*
X1694Y968D02*
X1703Y968D01*
X1734Y968D02*
X1743Y968D01*
X1766Y968D02*
X1777Y968D01*
X1784Y968D02*
X1796Y968D01*
X1804Y968D02*
X1814Y968D01*
X1858Y968D02*
X1867Y968D01*
X1910Y968D02*
X1921Y968D01*
X1938Y968D02*
X1948Y968D01*
X2002Y968D02*
X2011Y968D01*
X2054Y968D02*
X2065Y968D01*
X2082Y968D02*
X2092Y968D01*
X2131Y968D02*
X2145Y968D01*
X2166Y968D02*
X2175Y968D01*
X2198Y968D02*
X2207Y968D01*
X2238Y968D02*
X2247Y968D01*
X2290Y968D02*
X2299Y968D01*
X2377Y968D02*
X2390Y968D01*
X1086Y967D02*
X1095Y967D01*
X1145Y967D02*
X1155Y967D01*
X1282Y967D02*
X1291Y967D01*
X1354Y967D02*
X1363Y967D01*
X1406Y967D02*
X1426Y967D01*
X1443Y967D02*
X1454Y967D01*
X1477Y967D02*
X1487Y967D01*
X1498Y967D02*
X1507Y967D01*
X1518Y967D02*
X1528Y967D01*
X1551Y967D02*
X1562Y967D01*
X1577Y967D02*
X1588Y967D01*
X1624Y967D02*
X1638Y967D01*
X1655Y967D02*
X1669Y967D01*
X1694Y967D02*
X1703Y967D01*
X1734Y967D02*
X1743Y967D01*
X1767Y967D02*
X1778Y967D01*
X1783Y967D02*
X1798Y967D01*
X1803Y967D02*
X1814Y967D01*
X1858Y967D02*
X1867Y967D01*
X1911Y967D02*
X1922Y967D01*
X1937Y967D02*
X1948Y967D01*
X2002Y967D02*
X2011Y967D01*
X2054Y967D02*
X2066Y967D01*
X2081Y967D02*
X2092Y967D01*
X2130Y967D02*
X2144Y967D01*
X2166Y967D02*
X2175Y967D01*
X2198Y967D02*
X2207Y967D01*
X2238Y967D02*
X2247Y967D01*
X2290Y967D02*
X2299Y967D01*
X2378Y967D02*
X2390Y967D01*
X1086Y966D02*
X1095Y966D01*
X1145Y966D02*
X1155Y966D01*
X1270Y966D02*
X1303Y966D01*
X1342Y966D02*
X1375Y966D01*
X1406Y966D02*
X1454Y966D01*
X1477Y966D02*
X1487Y966D01*
X1498Y966D02*
X1507Y966D01*
X1518Y966D02*
X1528Y966D01*
X1551Y966D02*
X1588Y966D01*
X1625Y966D02*
X1668Y966D01*
X1694Y966D02*
X1703Y966D01*
X1734Y966D02*
X1743Y966D01*
X1767Y966D02*
X1814Y966D01*
X1846Y966D02*
X1879Y966D01*
X1911Y966D02*
X1948Y966D01*
X1990Y966D02*
X2023Y966D01*
X2055Y966D02*
X2092Y966D01*
X2128Y966D02*
X2143Y966D01*
X2166Y966D02*
X2175Y966D01*
X2198Y966D02*
X2207Y966D01*
X2238Y966D02*
X2247Y966D01*
X2278Y966D02*
X2311Y966D01*
X2345Y966D02*
X2391Y966D01*
X1086Y965D02*
X1095Y965D01*
X1145Y965D02*
X1155Y965D01*
X1269Y965D02*
X1304Y965D01*
X1341Y965D02*
X1376Y965D01*
X1406Y965D02*
X1453Y965D01*
X1477Y965D02*
X1486Y965D01*
X1498Y965D02*
X1507Y965D01*
X1518Y965D02*
X1528Y965D01*
X1551Y965D02*
X1587Y965D01*
X1626Y965D02*
X1667Y965D01*
X1694Y965D02*
X1703Y965D01*
X1734Y965D02*
X1743Y965D01*
X1767Y965D02*
X1813Y965D01*
X1844Y965D02*
X1880Y965D01*
X1911Y965D02*
X1947Y965D01*
X1988Y965D02*
X2024Y965D01*
X2055Y965D02*
X2091Y965D01*
X2127Y965D02*
X2142Y965D01*
X2166Y965D02*
X2175Y965D01*
X2198Y965D02*
X2207Y965D01*
X2238Y965D02*
X2247Y965D01*
X2276Y965D02*
X2312Y965D01*
X2343Y965D02*
X2391Y965D01*
X1086Y964D02*
X1095Y964D01*
X1145Y964D02*
X1155Y964D01*
X1268Y964D02*
X1305Y964D01*
X1340Y964D02*
X1377Y964D01*
X1406Y964D02*
X1453Y964D01*
X1477Y964D02*
X1486Y964D01*
X1498Y964D02*
X1507Y964D01*
X1518Y964D02*
X1528Y964D01*
X1552Y964D02*
X1587Y964D01*
X1627Y964D02*
X1666Y964D01*
X1694Y964D02*
X1703Y964D01*
X1734Y964D02*
X1743Y964D01*
X1768Y964D02*
X1813Y964D01*
X1844Y964D02*
X1881Y964D01*
X1912Y964D02*
X1947Y964D01*
X1988Y964D02*
X2025Y964D01*
X2056Y964D02*
X2091Y964D01*
X2127Y964D02*
X2141Y964D01*
X2166Y964D02*
X2175Y964D01*
X2198Y964D02*
X2207Y964D01*
X2238Y964D02*
X2247Y964D01*
X2276Y964D02*
X2313Y964D01*
X2343Y964D02*
X2391Y964D01*
X1086Y963D02*
X1095Y963D01*
X1145Y963D02*
X1155Y963D01*
X1267Y963D02*
X1306Y963D01*
X1339Y963D02*
X1378Y963D01*
X1406Y963D02*
X1452Y963D01*
X1477Y963D02*
X1486Y963D01*
X1498Y963D02*
X1507Y963D01*
X1518Y963D02*
X1528Y963D01*
X1553Y963D02*
X1586Y963D01*
X1628Y963D02*
X1665Y963D01*
X1694Y963D02*
X1703Y963D01*
X1734Y963D02*
X1743Y963D01*
X1769Y963D02*
X1812Y963D01*
X1843Y963D02*
X1882Y963D01*
X1913Y963D02*
X1946Y963D01*
X1987Y963D02*
X2026Y963D01*
X2057Y963D02*
X2090Y963D01*
X2126Y963D02*
X2140Y963D01*
X2166Y963D02*
X2175Y963D01*
X2198Y963D02*
X2207Y963D01*
X2238Y963D02*
X2247Y963D01*
X2275Y963D02*
X2313Y963D01*
X2342Y963D02*
X2391Y963D01*
X1086Y962D02*
X1095Y962D01*
X1145Y962D02*
X1154Y962D01*
X1267Y962D02*
X1306Y962D01*
X1339Y962D02*
X1378Y962D01*
X1406Y962D02*
X1451Y962D01*
X1477Y962D02*
X1486Y962D01*
X1498Y962D02*
X1507Y962D01*
X1518Y962D02*
X1528Y962D01*
X1553Y962D02*
X1585Y962D01*
X1629Y962D02*
X1664Y962D01*
X1694Y962D02*
X1703Y962D01*
X1734Y962D02*
X1743Y962D01*
X1769Y962D02*
X1811Y962D01*
X1843Y962D02*
X1882Y962D01*
X1913Y962D02*
X1945Y962D01*
X1987Y962D02*
X2026Y962D01*
X2057Y962D02*
X2089Y962D01*
X2126Y962D02*
X2138Y962D01*
X2166Y962D02*
X2175Y962D01*
X2198Y962D02*
X2207Y962D01*
X2238Y962D02*
X2247Y962D01*
X2275Y962D02*
X2314Y962D01*
X2342Y962D02*
X2391Y962D01*
X1086Y961D02*
X1095Y961D01*
X1146Y961D02*
X1154Y961D01*
X1267Y961D02*
X1306Y961D01*
X1339Y961D02*
X1378Y961D01*
X1406Y961D02*
X1415Y961D01*
X1417Y961D02*
X1450Y961D01*
X1477Y961D02*
X1486Y961D01*
X1498Y961D02*
X1507Y961D01*
X1519Y961D02*
X1527Y961D01*
X1554Y961D02*
X1585Y961D01*
X1630Y961D02*
X1663Y961D01*
X1694Y961D02*
X1703Y961D01*
X1734Y961D02*
X1743Y961D01*
X1770Y961D02*
X1810Y961D01*
X1843Y961D02*
X1882Y961D01*
X1914Y961D02*
X1944Y961D01*
X1987Y961D02*
X2026Y961D01*
X2058Y961D02*
X2088Y961D01*
X2126Y961D02*
X2137Y961D01*
X2166Y961D02*
X2175Y961D01*
X2198Y961D02*
X2207Y961D01*
X2238Y961D02*
X2247Y961D01*
X2275Y961D02*
X2314Y961D01*
X2342Y961D02*
X2391Y961D01*
X1086Y960D02*
X1095Y960D01*
X1146Y960D02*
X1154Y960D01*
X1267Y960D02*
X1306Y960D01*
X1339Y960D02*
X1378Y960D01*
X1406Y960D02*
X1415Y960D01*
X1419Y960D02*
X1449Y960D01*
X1478Y960D02*
X1486Y960D01*
X1498Y960D02*
X1507Y960D01*
X1519Y960D02*
X1527Y960D01*
X1555Y960D02*
X1583Y960D01*
X1631Y960D02*
X1662Y960D01*
X1694Y960D02*
X1703Y960D01*
X1734Y960D02*
X1742Y960D01*
X1771Y960D02*
X1789Y960D01*
X1791Y960D02*
X1809Y960D01*
X1843Y960D02*
X1882Y960D01*
X1915Y960D02*
X1943Y960D01*
X1987Y960D02*
X2025Y960D01*
X2059Y960D02*
X2087Y960D01*
X2126Y960D02*
X2136Y960D01*
X2166Y960D02*
X2174Y960D01*
X2198Y960D02*
X2207Y960D01*
X2238Y960D02*
X2246Y960D01*
X2275Y960D02*
X2313Y960D01*
X2342Y960D02*
X2390Y960D01*
X1086Y959D02*
X1094Y959D01*
X1146Y959D02*
X1154Y959D01*
X1268Y959D02*
X1305Y959D01*
X1340Y959D02*
X1377Y959D01*
X1407Y959D02*
X1414Y959D01*
X1420Y959D02*
X1448Y959D01*
X1478Y959D02*
X1486Y959D01*
X1499Y959D02*
X1506Y959D01*
X1519Y959D02*
X1527Y959D01*
X1557Y959D02*
X1582Y959D01*
X1632Y959D02*
X1660Y959D01*
X1695Y959D02*
X1702Y959D01*
X1734Y959D02*
X1742Y959D01*
X1773Y959D02*
X1788Y959D01*
X1793Y959D02*
X1808Y959D01*
X1844Y959D02*
X1881Y959D01*
X1917Y959D02*
X1942Y959D01*
X1988Y959D02*
X2025Y959D01*
X2061Y959D02*
X2086Y959D01*
X2127Y959D02*
X2135Y959D01*
X2166Y959D02*
X2174Y959D01*
X2199Y959D02*
X2206Y959D01*
X2238Y959D02*
X2246Y959D01*
X2276Y959D02*
X2313Y959D01*
X2343Y959D02*
X2390Y959D01*
X1087Y958D02*
X1093Y958D01*
X1147Y958D02*
X1153Y958D01*
X1269Y958D02*
X1304Y958D01*
X1341Y958D02*
X1376Y958D01*
X1408Y958D02*
X1414Y958D01*
X1422Y958D02*
X1446Y958D01*
X1479Y958D02*
X1485Y958D01*
X1499Y958D02*
X1505Y958D01*
X1520Y958D02*
X1526Y958D01*
X1559Y958D02*
X1580Y958D01*
X1634Y958D02*
X1659Y958D01*
X1696Y958D02*
X1702Y958D01*
X1735Y958D02*
X1741Y958D01*
X1774Y958D02*
X1786Y958D01*
X1794Y958D02*
X1806Y958D01*
X1844Y958D02*
X1880Y958D01*
X1918Y958D02*
X1940Y958D01*
X1988Y958D02*
X2024Y958D01*
X2062Y958D02*
X2084Y958D01*
X2127Y958D02*
X2134Y958D01*
X2167Y958D02*
X2173Y958D01*
X2199Y958D02*
X2206Y958D01*
X2239Y958D02*
X2245Y958D01*
X2276Y958D02*
X2312Y958D01*
X2343Y958D02*
X2389Y958D01*
X1089Y957D02*
X1092Y957D01*
X1148Y957D02*
X1152Y957D01*
X1270Y957D02*
X1303Y957D01*
X1342Y957D02*
X1375Y957D01*
X1409Y957D02*
X1412Y957D01*
X1424Y957D02*
X1444Y957D01*
X1480Y957D02*
X1483Y957D01*
X1501Y957D02*
X1504Y957D01*
X1521Y957D02*
X1525Y957D01*
X1561Y957D02*
X1578Y957D01*
X1637Y957D02*
X1656Y957D01*
X1697Y957D02*
X1700Y957D01*
X1737Y957D02*
X1740Y957D01*
X1777Y957D02*
X1784Y957D01*
X1797Y957D02*
X1804Y957D01*
X1846Y957D02*
X1879Y957D01*
X1921Y957D02*
X1938Y957D01*
X1990Y957D02*
X2023Y957D01*
X2065Y957D02*
X2082Y957D01*
X2129Y957D02*
X2132Y957D01*
X2168Y957D02*
X2172Y957D01*
X2201Y957D02*
X2204Y957D01*
X2240Y957D02*
X2244Y957D01*
X2278Y957D02*
X2311Y957D01*
X2345Y957D02*
X2388Y957D01*
D02*
G04 End of Copper0*
M02*